<svg width="59" height="12" viewBox="0 0 59 12" fill="none" xmlns="http://www.w3.org/2000/svg">
<path d="M58.1768 2.17678C58.2744 2.07915 58.2744 1.92085 58.1768 1.82322L56.5858 0.232233C56.4882 0.134602 56.3299 0.134602 56.2322 0.232233C56.1346 0.329864 56.1346 0.488155 56.2322 0.585786L57.6464 2L56.2322 3.41421C56.1346 3.51184 56.1346 3.67014 56.2322 3.76777C56.3299 3.8654 56.4882 3.8654 56.5858 3.76777L58.1768 2.17678ZM1 2.25H58V1.75H1V2.25Z" fill="white"/>
<path d="M0.823227 9.82322C0.725594 9.92085 0.725594 10.0791 0.823227 10.1768L2.41421 11.7678C2.51185 11.8654 2.67014 11.8654 2.76777 11.7678C2.8654 11.6701 2.8654 11.5118 2.76777 11.4142L1.35356 10L2.76777 8.58578C2.8654 8.48815 2.8654 8.32986 2.76777 8.23223C2.67014 8.1346 2.51185 8.1346 2.41422 8.23223L0.823227 9.82322ZM58 9.75L1 9.75L1 10.25L58 10.25L58 9.75Z" fill="white"/>
</svg>
