<?xml version="1.0" encoding="utf-8"?>
<!-- Generator: Adobe Illustrator 26.2.1, SVG Export Plug-In . SVG Version: 6.00 Build 0)  -->
<svg version="1.1" id="Layer_1" xmlns="http://www.w3.org/2000/svg" xmlns:xlink="http://www.w3.org/1999/xlink" x="0px" y="0px"
	 viewBox="0 0 478 423" style="enable-background:new 0 0 478 423;" xml:space="preserve">
<style type="text/css">
	.st0{fill:#FFFFFF;}
	.st1{fill:none;stroke:url(#SVGID_1_);stroke-width:1;stroke-miterlimit:4;}
	.st2{fill:none;stroke:url(#SVGID_00000179616437456736710090000013246523080669527964_);}
</style>
<g>
	<path class="st0" d="M212.2,57.8v-0.6c0-0.3,0-0.5-0.1-0.8c0-0.3-0.1-0.5-0.2-0.8c-0.1-0.2-0.2-0.5-0.3-0.7
		c-0.1-0.2-0.3-0.4-0.5-0.6c-0.2-0.2-0.4-0.3-0.6-0.4c-0.2-0.1-0.5-0.1-0.8-0.1c-0.3,0-0.6,0-0.8,0.1c-0.2,0.1-0.5,0.2-0.6,0.4
		c-0.2,0.2-0.3,0.4-0.5,0.6c-0.1,0.2-0.2,0.4-0.3,0.7c-0.1,0.2-0.2,0.5-0.2,0.8c0,0.3-0.1,0.5-0.1,0.8v0.6c0,0.3,0,0.5,0.1,0.8
		c0,0.3,0.1,0.5,0.2,0.8c0.1,0.2,0.2,0.5,0.3,0.7c0.1,0.2,0.3,0.4,0.5,0.6c0.2,0.2,0.4,0.3,0.6,0.4c0.2,0.1,0.5,0.1,0.8,0.1
		c0.1,0,0.2,0,0.3,0c0.1,0,0.2,0,0.3-0.1l1.4,1.2l0.6-0.6l-1.2-1c0.2-0.2,0.3-0.3,0.5-0.6c0.1-0.2,0.2-0.5,0.3-0.7
		c0.1-0.2,0.1-0.5,0.2-0.8C212.1,58.3,212.2,58,212.2,57.8z M211.3,57.1v0.6c0,0.2,0,0.4,0,0.6c0,0.2,0,0.4-0.1,0.6
		c0,0.2-0.1,0.4-0.2,0.5c-0.1,0.2-0.2,0.3-0.3,0.4c-0.1,0.1-0.3,0.2-0.4,0.3c-0.2,0.1-0.4,0.1-0.6,0.1c-0.2,0-0.4,0-0.6-0.1
		c-0.2-0.1-0.3-0.2-0.4-0.3c-0.1-0.1-0.2-0.3-0.3-0.4c-0.1-0.2-0.1-0.3-0.2-0.5c0-0.2-0.1-0.4-0.1-0.6c0-0.2,0-0.4,0-0.6v-0.6
		c0-0.2,0-0.4,0-0.6c0-0.2,0.1-0.4,0.1-0.6c0-0.2,0.1-0.4,0.2-0.5c0.1-0.2,0.2-0.3,0.3-0.4c0.1-0.1,0.3-0.2,0.4-0.3
		c0.2-0.1,0.4-0.1,0.6-0.1c0.2,0,0.4,0,0.6,0.1c0.2,0.1,0.3,0.2,0.4,0.3c0.1,0.1,0.2,0.3,0.3,0.4c0.1,0.2,0.1,0.3,0.2,0.5
		c0,0.2,0.1,0.4,0.1,0.6C211.2,56.8,211.3,56.9,211.3,57.1z M220.9,53.9h-0.9l0,4.8c0,0.2,0,0.4-0.1,0.6c-0.1,0.2-0.2,0.4-0.3,0.5
		c-0.1,0.2-0.3,0.3-0.4,0.4c-0.2,0.1-0.4,0.1-0.6,0.1s-0.4,0-0.6-0.1c-0.2-0.1-0.3-0.2-0.4-0.4c-0.1-0.1-0.2-0.3-0.3-0.5
		c-0.1-0.2-0.1-0.4-0.1-0.6l0-4.8h-0.9l0,4.8c0,0.3,0.1,0.6,0.2,0.9c0.1,0.3,0.3,0.5,0.5,0.8c0.2,0.2,0.4,0.4,0.7,0.5
		c0.3,0.1,0.6,0.2,0.9,0.2c0.3,0,0.7-0.1,0.9-0.2c0.3-0.1,0.5-0.3,0.7-0.5c0.2-0.2,0.4-0.5,0.5-0.8c0.1-0.3,0.2-0.6,0.2-0.9
		L220.9,53.9z M229.4,57.7v-0.8h-3v-2.3h3.4v-0.8h-4.3V61h4.4v-0.8h-3.5v-2.5H229.4z M236.8,58.1l1.4,2.9h1l0-0.1l-1.5-3
		c0.2-0.1,0.4-0.2,0.5-0.3c0.2-0.1,0.3-0.3,0.4-0.4c0.1-0.2,0.2-0.3,0.3-0.5c0.1-0.2,0.1-0.4,0.1-0.6c0-0.4-0.1-0.7-0.2-0.9
		c-0.1-0.3-0.3-0.5-0.5-0.7c-0.2-0.2-0.5-0.3-0.8-0.4s-0.6-0.1-0.9-0.1h-2.1V61h0.9v-2.9H236.8z M235.4,57.4v-2.7h1.2
		c0.2,0,0.4,0,0.6,0.1c0.2,0.1,0.3,0.1,0.5,0.3c0.1,0.1,0.2,0.3,0.3,0.4c0.1,0.2,0.1,0.4,0.1,0.6c0,0.2,0,0.4-0.1,0.6
		c-0.1,0.2-0.2,0.3-0.3,0.4c-0.1,0.1-0.3,0.2-0.5,0.3c-0.2,0.1-0.4,0.1-0.6,0.1H235.4z M243.5,53.9v0.8h1.7v5.5h-1.7V61h4.3v-0.8
		h-1.7v-5.5h1.7v-0.8H243.5z M256.4,57.7v-0.8h-3v-2.3h3.4v-0.8h-4.3V61h4.4v-0.8h-3.5v-2.5H256.4z M265.2,59.2c0,0.2,0,0.4-0.1,0.5
		c-0.1,0.1-0.2,0.3-0.3,0.3c-0.1,0.1-0.3,0.2-0.5,0.2c-0.2,0-0.3,0.1-0.5,0.1c-0.2,0-0.4,0-0.6-0.1c-0.2-0.1-0.4-0.2-0.5-0.3
		c-0.1-0.1-0.3-0.3-0.4-0.4c-0.1-0.2-0.2-0.4-0.2-0.6h-0.9c0,0.3,0.1,0.6,0.2,0.8c0.1,0.2,0.3,0.5,0.5,0.6c0.2,0.2,0.5,0.4,0.8,0.5
		c0.3,0.1,0.7,0.2,1,0.2c0.3,0,0.6,0,0.9-0.1c0.3-0.1,0.5-0.2,0.8-0.4c0.2-0.2,0.4-0.4,0.5-0.6c0.1-0.2,0.2-0.5,0.2-0.8
		c0-0.3-0.1-0.6-0.2-0.8c-0.1-0.2-0.3-0.4-0.5-0.6c-0.2-0.2-0.5-0.3-0.7-0.4c-0.3-0.1-0.5-0.2-0.8-0.3c-0.2,0-0.3-0.1-0.5-0.2
		c-0.2-0.1-0.3-0.1-0.5-0.2c-0.2-0.1-0.3-0.2-0.4-0.4c-0.1-0.1-0.2-0.3-0.2-0.5c0-0.2,0-0.4,0.1-0.5c0.1-0.1,0.2-0.3,0.3-0.4
		c0.1-0.1,0.3-0.2,0.4-0.2c0.2,0,0.3-0.1,0.5-0.1c0.2,0,0.4,0,0.6,0.1c0.2,0.1,0.3,0.2,0.4,0.3c0.1,0.1,0.2,0.3,0.3,0.4
		c0.1,0.2,0.1,0.4,0.2,0.6h0.9c0-0.3-0.1-0.6-0.2-0.9c-0.1-0.3-0.3-0.5-0.5-0.7c-0.2-0.2-0.5-0.3-0.8-0.4c-0.3-0.1-0.6-0.2-0.9-0.2
		c-0.3,0-0.6,0-0.8,0.1c-0.3,0.1-0.5,0.2-0.7,0.4c-0.2,0.2-0.4,0.4-0.5,0.6c-0.1,0.2-0.2,0.5-0.2,0.8c0,0.3,0.1,0.6,0.2,0.8
		c0.1,0.2,0.3,0.4,0.5,0.6c0.2,0.2,0.4,0.3,0.7,0.4c0.3,0.1,0.5,0.2,0.8,0.3c0.2,0.1,0.4,0.1,0.5,0.2c0.2,0.1,0.4,0.2,0.5,0.3
		c0.2,0.1,0.3,0.2,0.4,0.4C265.2,58.8,265.2,59,265.2,59.2z"/>
	
		<linearGradient id="SVGID_1_" gradientUnits="userSpaceOnUse" x1="-104.9071" y1="342.1132" x2="252.6459" y2="-203.6747" gradientTransform="matrix(0.5272 -0.8498 -0.8498 -0.5272 385.4358 338.1427)">
		<stop  offset="0" style="stop-color:#FFFFFF"/>
		<stop  offset="0.257" style="stop-color:#FFFFFF;stop-opacity:0.1613"/>
		<stop  offset="1" style="stop-color:#FFFFFF;stop-opacity:4.000000e-02"/>
	</linearGradient>
	<circle class="st1" cx="171.8" cy="243.7" r="125.6"/>
	<path class="st0" d="M340.8,251.8v5.8h-0.5v-5.8h-2.1v-0.5h4.7v0.5H340.8z M343.5,257.5v-4.6h0.5v0.8h0c0.1-0.2,0.2-0.4,0.5-0.6
		c0.2-0.2,0.5-0.2,0.9-0.2h0.3v0.5h-0.4c-0.4,0-0.7,0.1-0.9,0.2c-0.2,0.2-0.4,0.4-0.4,0.7v3.1H343.5z M349.8,257.5
		c-0.2,0-0.3-0.1-0.4-0.2c-0.1-0.1-0.1-0.2-0.2-0.4v-0.2h0c-0.1,0.3-0.3,0.5-0.5,0.6c-0.2,0.1-0.5,0.2-0.9,0.2
		c-0.5,0-0.9-0.1-1.1-0.3c-0.3-0.2-0.4-0.6-0.4-1c0-0.4,0.1-0.7,0.4-1c0.3-0.2,0.8-0.4,1.4-0.4h1.1v-0.5c0-0.8-0.4-1.1-1.2-1.1
		c-0.3,0-0.6,0.1-0.8,0.2c-0.2,0.1-0.4,0.3-0.5,0.5l-0.3-0.3c0.1-0.3,0.3-0.5,0.6-0.7c0.3-0.2,0.6-0.3,1-0.3c0.5,0,0.9,0.1,1.2,0.4
		c0.3,0.3,0.4,0.6,0.4,1.1v2.7h0.6v0.4H349.8z M347.8,257.2c0.2,0,0.4,0,0.5-0.1c0.2,0,0.3-0.1,0.4-0.2c0.1-0.1,0.2-0.2,0.3-0.3
		c0.1-0.1,0.1-0.3,0.1-0.4v-0.8h-1.1c-0.5,0-0.8,0.1-1,0.2c-0.2,0.1-0.3,0.3-0.3,0.6v0.2c0,0.3,0.1,0.5,0.3,0.6
		C347.3,257.1,347.5,257.2,347.8,257.2z M354.3,256.8L354.3,256.8c-0.1,0.3-0.3,0.5-0.6,0.6c-0.2,0.1-0.5,0.2-0.9,0.2
		c-0.6,0-1.1-0.2-1.4-0.6c-0.3-0.4-0.5-1-0.5-1.8c0-0.8,0.2-1.4,0.5-1.8c0.3-0.4,0.8-0.6,1.4-0.6c0.4,0,0.6,0.1,0.9,0.2
		c0.2,0.1,0.4,0.4,0.5,0.6h0v-2.8h0.5v6.6h-0.5V256.8z M353,257.2c0.2,0,0.3,0,0.5-0.1c0.2,0,0.3-0.1,0.4-0.2
		c0.1-0.1,0.2-0.2,0.3-0.3c0.1-0.1,0.1-0.3,0.1-0.4v-1.8c0-0.1,0-0.3-0.1-0.4c-0.1-0.1-0.2-0.2-0.3-0.3c-0.1-0.1-0.3-0.2-0.4-0.2
		c-0.2-0.1-0.3-0.1-0.5-0.1c-0.5,0-0.8,0.1-1.1,0.4c-0.3,0.3-0.4,0.7-0.4,1.2v0.6c0,0.5,0.1,0.9,0.4,1.2
		C352.2,257,352.5,257.2,353,257.2z M358.1,257.6c-0.3,0-0.6-0.1-0.8-0.2c-0.2-0.1-0.5-0.3-0.6-0.5c-0.2-0.2-0.3-0.5-0.4-0.8
		c-0.1-0.3-0.1-0.6-0.1-1c0-0.4,0-0.7,0.1-1c0.1-0.3,0.2-0.5,0.4-0.8c0.2-0.2,0.4-0.4,0.6-0.5c0.2-0.1,0.5-0.2,0.8-0.2
		c0.3,0,0.6,0.1,0.8,0.2c0.2,0.1,0.4,0.3,0.6,0.5c0.2,0.2,0.3,0.4,0.4,0.7c0.1,0.3,0.1,0.6,0.1,0.9v0.2h-3.4v0.2
		c0,0.2,0,0.5,0.1,0.7c0.1,0.2,0.2,0.4,0.3,0.5c0.1,0.1,0.3,0.3,0.5,0.3c0.2,0.1,0.4,0.1,0.6,0.1c0.7,0,1.1-0.3,1.4-0.9l0.4,0.3
		c-0.1,0.3-0.4,0.6-0.7,0.8C358.9,257.5,358.5,257.6,358.1,257.6z M358.1,253.3c-0.2,0-0.4,0-0.6,0.1c-0.2,0.1-0.3,0.2-0.5,0.3
		c-0.1,0.1-0.2,0.3-0.3,0.5c-0.1,0.2-0.1,0.4-0.1,0.7v0h2.8v-0.1c0-0.2,0-0.5-0.1-0.7c-0.1-0.2-0.2-0.4-0.3-0.5
		c-0.1-0.1-0.3-0.2-0.4-0.3C358.5,253.3,358.3,253.3,358.1,253.3z M361.3,257.5v-4.6h0.5v0.8h0c0.1-0.2,0.2-0.4,0.5-0.6
		c0.2-0.2,0.5-0.2,0.9-0.2h0.3v0.5h-0.4c-0.4,0-0.7,0.1-0.9,0.2c-0.2,0.2-0.4,0.4-0.4,0.7v3.1H361.3z M367.1,251.3v4.6
		c0,0.6-0.2,1-0.5,1.3c-0.3,0.3-0.7,0.4-1.2,0.4c-0.4,0-0.8-0.1-1.1-0.4c-0.3-0.2-0.5-0.6-0.6-0.9l0.5-0.1c0.1,0.3,0.2,0.5,0.4,0.7
		c0.2,0.2,0.5,0.3,0.8,0.3c0.4,0,0.7-0.1,0.8-0.3c0.2-0.2,0.3-0.6,0.3-1v-4.1h-2.2v-0.5H367.1z M370.4,257.6c-0.3,0-0.6-0.1-0.8-0.2
		c-0.2-0.1-0.5-0.3-0.6-0.5c-0.2-0.2-0.3-0.5-0.4-0.8c-0.1-0.3-0.1-0.6-0.1-1c0-0.4,0-0.7,0.1-1c0.1-0.3,0.2-0.5,0.4-0.8
		c0.2-0.2,0.4-0.4,0.6-0.5c0.2-0.1,0.5-0.2,0.8-0.2c0.3,0,0.6,0.1,0.8,0.2c0.2,0.1,0.5,0.3,0.6,0.5c0.2,0.2,0.3,0.5,0.4,0.8
		c0.1,0.3,0.1,0.6,0.1,1c0,0.4,0,0.7-0.1,1c-0.1,0.3-0.2,0.5-0.4,0.8c-0.2,0.2-0.4,0.4-0.6,0.5C371,257.6,370.7,257.6,370.4,257.6z
		 M370.4,257.2c0.4,0,0.8-0.1,1.1-0.4c0.3-0.3,0.4-0.7,0.4-1.2v-0.6c0-0.5-0.1-0.9-0.4-1.2c-0.3-0.3-0.6-0.4-1.1-0.4
		c-0.4,0-0.8,0.1-1.1,0.4c-0.3,0.3-0.4,0.7-0.4,1.2v0.6c0,0.5,0.1,0.9,0.4,1.2C369.6,257,370,257.2,370.4,257.2z M375.3,257.6
		c-0.3,0-0.6-0.1-0.8-0.2c-0.2-0.1-0.5-0.3-0.6-0.5c-0.2-0.2-0.3-0.5-0.4-0.8c-0.1-0.3-0.1-0.6-0.1-1c0-0.4,0-0.7,0.1-1
		c0.1-0.3,0.2-0.5,0.4-0.8c0.2-0.2,0.4-0.4,0.6-0.5c0.2-0.1,0.5-0.2,0.8-0.2c0.3,0,0.6,0.1,0.8,0.2c0.2,0.1,0.4,0.3,0.6,0.5
		c0.2,0.2,0.3,0.4,0.4,0.7c0.1,0.3,0.1,0.6,0.1,0.9v0.2h-3.4v0.2c0,0.2,0,0.5,0.1,0.7c0.1,0.2,0.2,0.4,0.3,0.5
		c0.1,0.1,0.3,0.3,0.5,0.3c0.2,0.1,0.4,0.1,0.6,0.1c0.7,0,1.1-0.3,1.4-0.9l0.4,0.3c-0.1,0.3-0.4,0.6-0.7,0.8
		C376.2,257.5,375.8,257.6,375.3,257.6z M375.3,253.3c-0.2,0-0.4,0-0.6,0.1c-0.2,0.1-0.3,0.2-0.5,0.3c-0.1,0.1-0.2,0.3-0.3,0.5
		c-0.1,0.2-0.1,0.4-0.1,0.7v0h2.8v-0.1c0-0.2,0-0.5-0.1-0.7c-0.1-0.2-0.2-0.4-0.3-0.5c-0.1-0.1-0.3-0.2-0.4-0.3
		C375.7,253.3,375.5,253.3,375.3,253.3z"/>
	<path class="st0" d="M338.9,222.4h1.7l6.1,17.6h-1.5l-1.7-5H336l-1.7,5h-1.5L338.9,222.4z M343.1,233.7l-3.3-9.7h-0.1l-3.3,9.7
		H343.1z M346.8,227.5h1.5l3.9,11.1h0.1l3.9-11.1h1.5l-4.5,12.5h-1.8L346.8,227.5z M359.4,238.1v-3.3l1.9-1.9h6.8v-2.8l-1.4-1.4
		h-4.4l-1.4,1.4v1.1h-1.4v-1.6l2.2-2.2h5.6l2.2,2.2V240h-1.4v-2.4l-2.5,2.4h-4.3L359.4,238.1z M365.3,238.7l2.8-2.8v-1.8h-6.2
		l-1.1,1.1v2.5l1.1,1.1H365.3z M380.9,240l-3.8-5.3l-3.8,5.3h-1.6l4.6-6.3l-4.5-6.1h1.6l3.7,5.1l3.6-5.1h1.6l-4.4,6.2l4.6,6.3H380.9
		z"/>
	<path class="st0" d="M108.1,254.7c0-0.4,0-0.9,0.1-1.3c0.1-0.4,0.2-0.8,0.4-1.1c0.1-0.3,0.3-0.7,0.5-0.9c0.2-0.3,0.4-0.5,0.6-0.7
		h0.5c-0.2,0.2-0.5,0.5-0.7,0.7c-0.2,0.3-0.4,0.6-0.5,0.9c-0.1,0.3-0.3,0.7-0.3,1c-0.1,0.4-0.1,0.7-0.1,1.1v0.6c0,0.4,0,0.7,0.1,1.1
		c0.1,0.4,0.2,0.7,0.3,1c0.1,0.3,0.3,0.6,0.5,0.9c0.2,0.3,0.4,0.5,0.7,0.7h-0.5c-0.2-0.2-0.4-0.4-0.6-0.7c-0.2-0.3-0.4-0.6-0.5-0.9
		c-0.1-0.3-0.3-0.7-0.4-1.1C108.2,255.6,108.1,255.2,108.1,254.7z M111.2,257.5v-6.2h3.6v0.5h-3.1v2.4h3v0.5h-3v2.5h3.1v0.5H111.2z
		 M118.2,251.8v5.8h-0.5v-5.8h-2.1v-0.5h4.7v0.5H118.2z M125.3,254.6h-3.4v2.9h-0.5v-6.2h0.5v2.8h3.4v-2.8h0.5v6.2h-0.5V254.6z
		 M131,254.7c0,0.4,0,0.9-0.1,1.3c-0.1,0.4-0.2,0.8-0.4,1.1c-0.1,0.3-0.3,0.6-0.5,0.9c-0.2,0.3-0.4,0.5-0.6,0.7h-0.5
		c0.2-0.2,0.4-0.4,0.6-0.7c0.2-0.3,0.4-0.6,0.5-0.9c0.1-0.3,0.3-0.7,0.3-1c0.1-0.4,0.1-0.7,0.1-1.1v-0.6c0-0.4,0-0.7-0.1-1.1
		c-0.1-0.4-0.2-0.7-0.3-1c-0.1-0.3-0.3-0.6-0.5-0.9c-0.2-0.3-0.4-0.5-0.7-0.7h0.5c0.2,0.2,0.4,0.4,0.6,0.7c0.2,0.3,0.4,0.6,0.5,0.9
		c0.1,0.3,0.3,0.7,0.3,1.1C131,253.9,131,254.3,131,254.7z"/>
	<path class="st0" d="M85,237.4v-12.3l2.6-2.6h7.7l2.6,2.6v12.3l-2.6,2.6h-7.7L85,237.4z M94.7,238.7l1.8-1.8v-11.3l-1.8-1.8h-6.4
		l-1.8,1.8v11.3l1.8,1.8H94.7z M101.9,227.5h1.4v2.3l2.4-2.3h3.1v1.3H106l-2.7,2.7v8.5h-1.4V227.5z M110.4,238.1v-3.3l1.9-1.9h6.8
		v-2.8l-1.4-1.4h-4.4l-1.4,1.4v1.1h-1.4v-1.6l2.2-2.2h5.6l2.2,2.2V240h-1.4v-2.4l-2.5,2.4h-4.3L110.4,238.1z M116.3,238.7l2.8-2.8
		v-1.8h-6.2l-1.1,1.1v2.5l1.1,1.1H116.3z M124.1,237.8v-8.1l2.2-2.2h5.8l2.2,2.2v1.3h-1.4v-0.9l-1.4-1.4h-4.6l-1.4,1.4v7.2l1.4,1.4
		h4.6l1.4-1.4v-0.8h1.4v1.3l-2.2,2.2h-5.8L124.1,237.8z M137.7,222.1h1.4V240h-1.4V222.1z M143,237.8v-8.1l2.2-2.2h6.1l2.2,2.2v4.4
		h-9.1v3.2l1.4,1.4h4.8l1.4-1.4v-1.1h1.4v1.5l-2.2,2.2h-6.1L143,237.8z M152.1,232.9v-2.8l-1.4-1.4h-4.9l-1.4,1.4v2.8H152.1z"/>
	
		<linearGradient id="SVGID_00000036938889768682090420000007233920899938736830_" gradientUnits="userSpaceOnUse" x1="227.0588" y1="711.242" x2="580.6118" y2="171.56" gradientTransform="matrix(-0.8857 0.4643 0.4643 0.8857 292.8439 -429.3235)">
		<stop  offset="0" style="stop-color:#FFFFFF"/>
		<stop  offset="0.257" style="stop-color:#FFFFFF;stop-opacity:0.1613"/>
		<stop  offset="1" style="stop-color:#FFFFFF;stop-opacity:4.000000e-02"/>
	</linearGradient>
	
		<circle style="fill:none;stroke:url(#SVGID_00000036938889768682090420000007233920899938736830_);" cx="307.6" cy="242.3" r="124.2"/>
	<path class="st0" d="M234.3,261.2c0.1,0.4,0.2,0.7,0.4,0.9c0.2,0.2,0.5,0.3,0.8,0.3c0.5,0,0.9-0.2,1.1-0.6c0.3-0.4,0.4-1,0.4-1.8
		c0-0.1,0-0.3,0-0.3c-0.1,0.3-0.3,0.6-0.6,0.8c-0.3,0.2-0.7,0.3-1.1,0.3c-0.6,0-1-0.2-1.3-0.5c-0.3-0.3-0.5-0.8-0.5-1.4
		c0-0.3,0.1-0.7,0.2-0.9c0.1-0.3,0.3-0.5,0.6-0.7c0.3-0.2,0.6-0.3,1.1-0.3c0.8,0,1.4,0.2,1.7,0.7c0.3,0.5,0.4,1.2,0.4,2
		c0,1-0.2,1.7-0.5,2.3c-0.3,0.5-0.8,0.8-1.5,0.8c-0.5,0-0.9-0.1-1.2-0.4c-0.3-0.3-0.5-0.7-0.5-1.2H234.3z M236.9,259
		c0-0.4-0.1-0.8-0.4-1.1c-0.3-0.3-0.6-0.4-1.1-0.4c-0.4,0-0.7,0.1-1,0.4c-0.2,0.2-0.4,0.6-0.4,1c0,0.5,0.1,0.8,0.4,1.1
		c0.3,0.3,0.6,0.4,1,0.4c0.2,0,0.5,0,0.7-0.1c0.2-0.1,0.4-0.3,0.6-0.5C236.9,259.6,236.9,259.3,236.9,259z M238.4,262.4
		c0.9-0.6,1.7-1.3,2.3-1.9c0.6-0.6,0.8-1.2,0.8-1.8c0-0.3-0.1-0.6-0.3-0.8c-0.2-0.2-0.5-0.3-0.9-0.3c-0.4,0-0.7,0.1-1,0.4
		c-0.2,0.3-0.3,0.6-0.4,1h-0.6c0-0.6,0.2-1.1,0.6-1.4c0.3-0.3,0.8-0.5,1.3-0.5c0.5,0,0.9,0.1,1.2,0.4s0.5,0.7,0.5,1.2
		c0,0.4-0.1,0.9-0.4,1.4c-0.3,0.5-0.7,0.9-1.1,1.3c-0.4,0.4-0.9,0.7-1.3,1h3v0.5h-3.8V262.4z M244.9,259.7c0.4,0.1,0.7,0.2,0.9,0.3
		c0.2,0.1,0.4,0.3,0.6,0.5c0.2,0.2,0.2,0.5,0.2,0.9c0,0.3-0.1,0.5-0.2,0.7c-0.1,0.2-0.3,0.4-0.6,0.6c-0.3,0.1-0.6,0.2-1,0.2h0v0.6
		h-0.2v-0.6c-0.5,0-0.9-0.2-1.2-0.5c-0.3-0.3-0.5-0.6-0.5-1h0.6c0,0.2,0.1,0.5,0.3,0.7c0.2,0.2,0.5,0.3,0.8,0.4v-2.2
		c-0.4-0.1-0.7-0.2-0.9-0.3c-0.2-0.1-0.4-0.3-0.6-0.5c-0.2-0.2-0.2-0.5-0.2-0.8c0-0.3,0.1-0.5,0.2-0.7c0.1-0.2,0.3-0.4,0.6-0.5
		c0.3-0.1,0.6-0.2,0.9-0.2h0v-0.7h0.2v0.7c0.5,0,0.9,0.2,1.1,0.4c0.3,0.3,0.4,0.6,0.5,0.9H246c0-0.2-0.2-0.4-0.3-0.6
		c-0.2-0.2-0.4-0.3-0.7-0.3V259.7z M243.6,258.5c0,0.3,0.1,0.6,0.3,0.7c0.2,0.2,0.5,0.3,0.9,0.4v-2.1h0c-0.3,0-0.6,0.1-0.8,0.3
		C243.7,258,243.6,258.2,243.6,258.5z M244.9,262.4c0.4,0,0.6-0.1,0.8-0.3c0.2-0.2,0.3-0.4,0.3-0.7c0-0.3-0.1-0.6-0.3-0.7
		c-0.2-0.2-0.5-0.3-0.9-0.4L244.9,262.4L244.9,262.4z"/>
	<path class="st0" d="M211.8,226l-1.3-1.2c-0.3,0.1-0.5,0.1-0.8,0.1c-0.5,0-1-0.1-1.4-0.4c-0.4-0.2-0.7-0.6-1-1
		c-0.2-0.4-0.4-0.9-0.4-1.5c0-0.6,0.1-1.1,0.4-1.5c0.2-0.4,0.6-0.8,1-1c0.4-0.2,0.9-0.4,1.4-0.4c0.5,0,1,0.1,1.4,0.4
		c0.4,0.2,0.7,0.6,1,1c0.2,0.4,0.4,0.9,0.4,1.5c0,0.6-0.1,1.1-0.4,1.5c-0.3,0.4-0.6,0.8-1,1l1.5,1.4H211.8z M207.5,222
		c0,0.5,0.1,0.9,0.3,1.2c0.2,0.4,0.5,0.6,0.8,0.8c0.3,0.2,0.7,0.3,1.1,0.3c0.4,0,0.8-0.1,1.1-0.3c0.3-0.2,0.6-0.5,0.8-0.8
		c0.2-0.4,0.3-0.8,0.3-1.2c0-0.5-0.1-0.9-0.3-1.2c-0.2-0.4-0.4-0.6-0.8-0.8c-0.3-0.2-0.7-0.3-1.1-0.3c-0.4,0-0.8,0.1-1.1,0.3
		c-0.3,0.2-0.6,0.5-0.8,0.8C207.6,221.1,207.5,221.6,207.5,222z M214,219.2v3.4c0,0.6,0.1,1,0.4,1.3c0.3,0.3,0.6,0.4,1.1,0.4
		c0.5,0,0.8-0.1,1.1-0.4c0.3-0.3,0.4-0.7,0.4-1.3v-3.4h0.6v3.4c0,0.8-0.2,1.3-0.6,1.7c-0.4,0.4-0.9,0.6-1.5,0.6
		c-0.6,0-1.1-0.2-1.5-0.6c-0.4-0.4-0.6-0.9-0.6-1.7v-3.4H214z M219.2,219.7v2.1h2.2v0.4h-2.2v2.2h2.4v0.5h-3v-5.6h3v0.5H219.2z
		 M225.7,224.9l-1.5-2.4h-0.9v2.4h-0.6v-5.6h1.7c0.6,0,1.1,0.1,1.4,0.4c0.3,0.3,0.5,0.7,0.5,1.2c0,0.5-0.1,0.8-0.4,1.1
		c-0.3,0.3-0.6,0.4-1.1,0.5l1.6,2.4H225.7z M223.2,222.1h1.1c0.9,0,1.4-0.4,1.4-1.2c0-0.8-0.5-1.2-1.4-1.2h-1.1V222.1z M232.5,223.5
		H230l-0.5,1.4h-0.6l2.1-5.5h0.6l2.1,5.5H233L232.5,223.5z M232.4,223l-1.1-3l-1.1,3H232.4z M234.6,219.2l1.8,5l1.8-5h0.6l-2.1,5.6
		h-0.7l-2.1-5.6H234.6z M242.9,223.5h-2.6l-0.5,1.4h-0.6l2.1-5.5h0.6l2.1,5.5h-0.6L242.9,223.5z M242.7,223l-1.1-3l-1.1,3H242.7z
		 M247.9,224.9l-1.5-2.4l-1.4,2.4h-0.6l1.7-2.9l-1.7-2.8h0.7l1.4,2.3l1.4-2.3h0.6l-1.7,2.8l1.8,2.8H247.9z M254.7,219.2v0.5h-1.6
		v5.2h-0.6v-5.2H251v-0.5H254.7z M262.2,219.2l-1.5,5.6h-0.7l-1.4-4.8l-1.4,4.8h-0.7l-1.5-5.6h0.6l1.2,4.9l1.4-4.9h0.6l1.4,5l1.2-5
		H262.2z M266.4,223.5h-2.6l-0.5,1.4h-0.6l2.1-5.5h0.6l2.1,5.5h-0.6L266.4,223.5z M266.2,223l-1.1-3l-1.1,3H266.2z M268.8,222.5v2.4
		h-0.6v-5.6h1.7c0.6,0,1.1,0.1,1.4,0.4c0.3,0.3,0.5,0.7,0.5,1.2c0,0.5-0.2,0.9-0.5,1.2c-0.3,0.3-0.8,0.4-1.4,0.4H268.8z M269.9,222
		c0.5,0,0.8-0.1,1-0.3c0.2-0.2,0.3-0.5,0.3-0.9c0-0.4-0.1-0.7-0.3-0.9c-0.2-0.2-0.6-0.3-1-0.3h-1.1v2.3H269.9z"/>
	<path class="st0" d="M284.3,234.2c0.1-0.1,0.1-0.3,0-0.4l-1.8-1.8c-0.1-0.1-0.3-0.1-0.4,0c-0.1,0.1-0.1,0.3,0,0.4l1.6,1.6l-1.6,1.6
		c-0.1,0.1-0.1,0.3,0,0.4c0.1,0.1,0.3,0.1,0.4,0L284.3,234.2z M196.1,234.3h88v-0.6h-88V234.3z"/>
	<path class="st0" d="M195.9,247.8c-0.1,0.1-0.1,0.3,0,0.4l1.8,1.8c0.1,0.1,0.3,0.1,0.4,0c0.1-0.1,0.1-0.3,0-0.4l-1.6-1.6l1.6-1.6
		c0.1-0.1,0.1-0.3,0-0.4c-0.1-0.1-0.3-0.1-0.4,0L195.9,247.8z M284.1,247.7h-88v0.6h88V247.7z"/>
	<circle class="st0" cx="407.3" cy="316.1" r="5.1"/>
	<circle class="st0" cx="57.3" cy="191.1" r="5.1"/>
</g>
</svg>
