<?xml version="1.0" encoding="utf-8"?>
<!-- Generator: Adobe Illustrator 26.2.1, SVG Export Plug-In . SVG Version: 6.00 Build 0)  -->
<svg version="1.1" id="Layer_1" xmlns="http://www.w3.org/2000/svg" xmlns:xlink="http://www.w3.org/1999/xlink" x="0px" y="0px"
	 viewBox="0 0 674 423" style="enable-background:new 0 0 674 423;" xml:space="preserve">
<style type="text/css">
	.st0{fill:#FFFFFF;}
	.st1{fill:none;stroke:url(#SVGID_1_);stroke-width:1;stroke-miterlimit:4;}
	.st2{fill:none;stroke:url(#SVGID_00000059269989651794024880000008974173395392012987_);}
	.st3{fill:none;stroke:url(#SVGID_00000007416889665781781810000004046220437023714453_);}
</style>
<path class="st0" d="M285,59.2c0,0.2,0,0.4-0.1,0.5c-0.1,0.1-0.2,0.3-0.3,0.3c-0.1,0.1-0.3,0.2-0.5,0.2c-0.2,0-0.3,0.1-0.5,0.1
	c-0.2,0-0.4,0-0.6-0.1c-0.2-0.1-0.3-0.2-0.5-0.3c-0.1-0.1-0.3-0.3-0.4-0.4c-0.1-0.2-0.2-0.4-0.2-0.6H281c0,0.3,0.1,0.6,0.2,0.8
	c0.1,0.2,0.3,0.5,0.5,0.6c0.2,0.2,0.5,0.4,0.8,0.5c0.3,0.1,0.7,0.2,1,0.2c0.3,0,0.6,0,0.9-0.1c0.3-0.1,0.5-0.2,0.8-0.4
	c0.2-0.2,0.4-0.4,0.5-0.6c0.1-0.2,0.2-0.5,0.2-0.8c0-0.3-0.1-0.6-0.2-0.8c-0.1-0.2-0.3-0.4-0.5-0.6c-0.2-0.2-0.5-0.3-0.7-0.4
	c-0.3-0.1-0.5-0.2-0.8-0.3c-0.2,0-0.3-0.1-0.5-0.2c-0.2-0.1-0.3-0.1-0.5-0.2c-0.2-0.1-0.3-0.2-0.4-0.4c-0.1-0.1-0.2-0.3-0.2-0.5
	c0-0.2,0-0.4,0.1-0.5c0.1-0.1,0.2-0.3,0.3-0.4c0.1-0.1,0.3-0.2,0.4-0.2c0.2,0,0.3-0.1,0.5-0.1c0.2,0,0.4,0,0.6,0.1
	c0.2,0.1,0.3,0.2,0.4,0.3c0.1,0.1,0.2,0.3,0.3,0.4c0.1,0.2,0.1,0.4,0.2,0.6h0.9c0-0.3-0.1-0.6-0.2-0.9c-0.1-0.3-0.3-0.5-0.5-0.7
	c-0.2-0.2-0.5-0.3-0.8-0.4c-0.3-0.1-0.6-0.2-0.9-0.2c-0.3,0-0.6,0-0.8,0.1c-0.3,0.1-0.5,0.2-0.7,0.4c-0.2,0.2-0.4,0.4-0.5,0.6
	c-0.1,0.2-0.2,0.5-0.2,0.8c0,0.3,0.1,0.6,0.2,0.8c0.1,0.2,0.3,0.4,0.5,0.6c0.2,0.2,0.4,0.3,0.7,0.4c0.3,0.1,0.5,0.2,0.8,0.3
	c0.2,0.1,0.4,0.1,0.5,0.2c0.2,0.1,0.4,0.2,0.5,0.3c0.2,0.1,0.3,0.2,0.4,0.4C285,58.8,285,59,285,59.2z M294.8,53.9h-0.9l0,4.8
	c0,0.2,0,0.4-0.1,0.6s-0.2,0.4-0.3,0.5c-0.1,0.2-0.3,0.3-0.4,0.4c-0.2,0.1-0.4,0.1-0.6,0.1s-0.4,0-0.6-0.1c-0.2-0.1-0.3-0.2-0.4-0.4
	c-0.1-0.1-0.2-0.3-0.3-0.5c-0.1-0.2-0.1-0.4-0.1-0.6l0-4.8h-0.9l0,4.8c0,0.3,0.1,0.6,0.2,0.9c0.1,0.3,0.3,0.5,0.5,0.8
	c0.2,0.2,0.4,0.4,0.7,0.5c0.3,0.1,0.6,0.2,0.9,0.2c0.3,0,0.6-0.1,0.9-0.2c0.3-0.1,0.5-0.3,0.7-0.5c0.2-0.2,0.4-0.5,0.5-0.8
	s0.2-0.6,0.2-0.9L294.8,53.9z M299.3,61h2.3c0.3,0,0.6-0.1,0.9-0.1c0.3-0.1,0.5-0.2,0.8-0.4c0.2-0.2,0.4-0.4,0.5-0.6
	c0.1-0.3,0.2-0.5,0.2-0.9c0-0.2,0-0.4-0.1-0.6c-0.1-0.2-0.1-0.3-0.3-0.5c-0.1-0.1-0.2-0.3-0.4-0.4c-0.2-0.1-0.3-0.2-0.5-0.2v0
	c0.2-0.1,0.3-0.2,0.4-0.2c0.1-0.1,0.2-0.2,0.3-0.3c0.1-0.1,0.2-0.3,0.2-0.4c0.1-0.2,0.1-0.3,0.1-0.5c0-0.3-0.1-0.6-0.2-0.9
	c-0.1-0.2-0.3-0.4-0.5-0.6c-0.2-0.2-0.5-0.3-0.7-0.3c-0.3-0.1-0.6-0.1-0.9-0.1h-2.1V61z M300.2,57.7h1.4c0.2,0,0.4,0,0.5,0.1
	c0.2,0.1,0.3,0.1,0.4,0.2c0.1,0.1,0.2,0.2,0.3,0.4c0.1,0.2,0.1,0.3,0.1,0.5c0,0.2,0,0.4-0.1,0.5c-0.1,0.2-0.2,0.3-0.3,0.4
	c-0.1,0.1-0.3,0.2-0.4,0.3c-0.2,0.1-0.3,0.1-0.5,0.1h-1.4V57.7z M300.2,56.9v-2.3h1.2c0.2,0,0.3,0,0.5,0.1c0.2,0,0.3,0.1,0.4,0.2
	c0.1,0.1,0.2,0.2,0.3,0.3c0.1,0.1,0.1,0.3,0.1,0.5c0,0.2,0,0.3-0.1,0.5c-0.1,0.1-0.2,0.3-0.3,0.4c-0.1,0.1-0.3,0.2-0.4,0.2
	c-0.2,0-0.3,0.1-0.5,0.1H300.2z M312.1,59.2c0,0.2,0,0.4-0.1,0.5c-0.1,0.1-0.2,0.3-0.3,0.3c-0.1,0.1-0.3,0.2-0.5,0.2
	c-0.2,0-0.3,0.1-0.5,0.1c-0.2,0-0.4,0-0.6-0.1c-0.2-0.1-0.4-0.2-0.5-0.3c-0.1-0.1-0.3-0.3-0.4-0.4c-0.1-0.2-0.2-0.4-0.2-0.6h-0.9
	c0,0.3,0.1,0.6,0.2,0.8c0.1,0.2,0.3,0.5,0.5,0.6c0.2,0.2,0.5,0.4,0.9,0.5c0.3,0.1,0.7,0.2,1,0.2c0.3,0,0.6,0,0.8-0.1
	c0.3-0.1,0.5-0.2,0.8-0.4c0.2-0.2,0.4-0.4,0.5-0.6c0.1-0.2,0.2-0.5,0.2-0.8c0-0.3-0.1-0.6-0.2-0.8c-0.1-0.2-0.3-0.4-0.5-0.6
	c-0.2-0.2-0.5-0.3-0.7-0.4c-0.3-0.1-0.5-0.2-0.8-0.3c-0.2,0-0.3-0.1-0.5-0.2c-0.2-0.1-0.3-0.1-0.5-0.2c-0.2-0.1-0.3-0.2-0.4-0.4
	c-0.1-0.1-0.2-0.3-0.2-0.5c0-0.2,0-0.4,0.1-0.5c0.1-0.1,0.2-0.3,0.3-0.4c0.1-0.1,0.3-0.2,0.4-0.2c0.2,0,0.3-0.1,0.5-0.1
	c0.2,0,0.4,0,0.6,0.1c0.2,0.1,0.3,0.2,0.4,0.3c0.1,0.1,0.2,0.3,0.3,0.4c0.1,0.2,0.1,0.4,0.2,0.6h0.9c0-0.3-0.1-0.6-0.2-0.9
	c-0.1-0.3-0.3-0.5-0.5-0.7c-0.2-0.2-0.5-0.3-0.8-0.4c-0.3-0.1-0.6-0.2-0.9-0.2c-0.3,0-0.6,0-0.8,0.1c-0.3,0.1-0.5,0.2-0.7,0.4
	c-0.2,0.2-0.4,0.4-0.5,0.6c-0.1,0.2-0.2,0.5-0.2,0.8c0,0.3,0.1,0.6,0.2,0.8c0.1,0.2,0.3,0.4,0.5,0.6c0.2,0.2,0.4,0.3,0.7,0.4
	c0.3,0.1,0.5,0.2,0.8,0.3c0.2,0.1,0.4,0.1,0.5,0.2c0.2,0.1,0.4,0.2,0.5,0.3c0.2,0.1,0.3,0.2,0.4,0.4C312,58.8,312.1,59,312.1,59.2z
	 M321.9,58.9H321c0,0.2-0.1,0.4-0.2,0.6c-0.1,0.2-0.2,0.3-0.3,0.5c-0.1,0.1-0.3,0.2-0.4,0.3c-0.2,0.1-0.4,0.1-0.6,0.1
	c-0.2,0-0.4,0-0.6-0.1c-0.2-0.1-0.3-0.2-0.4-0.3c-0.1-0.1-0.2-0.3-0.3-0.4s-0.1-0.3-0.2-0.5c0-0.2-0.1-0.4-0.1-0.5
	c0-0.2,0-0.4,0-0.5v-1c0-0.2,0-0.4,0-0.5c0-0.2,0.1-0.4,0.1-0.6c0-0.2,0.1-0.3,0.2-0.5c0.1-0.2,0.2-0.3,0.3-0.4
	c0.1-0.1,0.3-0.2,0.4-0.3c0.2-0.1,0.4-0.1,0.6-0.1c0.2,0,0.4,0,0.6,0.1c0.2,0.1,0.3,0.2,0.4,0.3c0.1,0.1,0.2,0.3,0.3,0.5
	c0.1,0.2,0.1,0.4,0.2,0.6h0.9c0-0.3-0.1-0.6-0.2-0.9c-0.1-0.3-0.3-0.5-0.5-0.7c-0.2-0.2-0.4-0.4-0.7-0.5c-0.3-0.1-0.6-0.2-1-0.2
	c-0.3,0-0.6,0-0.8,0.1c-0.2,0.1-0.4,0.2-0.6,0.3c-0.2,0.1-0.4,0.3-0.5,0.5c-0.1,0.2-0.2,0.4-0.3,0.6c-0.1,0.2-0.2,0.5-0.2,0.7
	c0,0.3-0.1,0.5-0.1,0.8v1c0,0.3,0,0.5,0.1,0.8c0,0.3,0.1,0.5,0.2,0.7c0.1,0.2,0.2,0.5,0.3,0.6c0.1,0.2,0.3,0.4,0.5,0.5
	c0.2,0.1,0.4,0.3,0.6,0.3c0.2,0.1,0.5,0.1,0.8,0.1c0.3,0,0.7-0.1,0.9-0.2c0.3-0.1,0.5-0.3,0.7-0.5c0.2-0.2,0.4-0.4,0.5-0.7
	C321.8,59.5,321.9,59.2,321.9,58.9z M328.7,58.1l1.4,2.9h1l0-0.1l-1.5-3c0.2-0.1,0.4-0.2,0.5-0.3c0.2-0.1,0.3-0.3,0.4-0.4
	c0.1-0.2,0.2-0.3,0.3-0.5c0.1-0.2,0.1-0.4,0.1-0.6c0-0.4-0.1-0.7-0.2-0.9c-0.1-0.3-0.3-0.5-0.5-0.7c-0.2-0.2-0.5-0.3-0.8-0.4
	s-0.6-0.1-0.9-0.1h-2.1V61h0.9v-2.9H328.7z M327.3,57.4v-2.7h1.2c0.2,0,0.4,0,0.6,0.1c0.2,0.1,0.3,0.1,0.5,0.3
	c0.1,0.1,0.2,0.3,0.3,0.4c0.1,0.2,0.1,0.4,0.1,0.6c0,0.2,0,0.4-0.1,0.6c-0.1,0.2-0.2,0.3-0.3,0.4c-0.1,0.1-0.3,0.2-0.5,0.3
	c-0.2,0.1-0.4,0.1-0.6,0.1H327.3z M335.4,53.9v0.8h1.7v5.5h-1.7V61h4.3v-0.8h-1.7v-5.5h1.7v-0.8H335.4z M345.3,58.1h1.4
	c0.3,0,0.6-0.1,0.9-0.1c0.3-0.1,0.5-0.2,0.8-0.4c0.2-0.2,0.4-0.4,0.5-0.7c0.1-0.3,0.2-0.6,0.2-0.9s-0.1-0.6-0.2-0.9
	c-0.1-0.3-0.3-0.5-0.5-0.7c-0.2-0.2-0.5-0.3-0.8-0.4c-0.3-0.1-0.6-0.1-0.9-0.2h-2.3V61h0.9V58.1z M345.3,57.4v-2.8h1.4
	c0.2,0,0.4,0,0.6,0.1c0.2,0.1,0.3,0.2,0.5,0.3c0.1,0.1,0.2,0.3,0.3,0.4c0.1,0.2,0.1,0.4,0.1,0.6c0,0.2,0,0.4-0.1,0.6
	c-0.1,0.2-0.2,0.3-0.3,0.4c-0.1,0.1-0.3,0.2-0.5,0.3c-0.2,0.1-0.4,0.1-0.6,0.1H345.3z M358.2,54.7v-0.8h-5.3v0.8h2.2V61h0.9v-6.3
	H358.2z M362.4,53.9v0.8h1.7v5.5h-1.7V61h4.3v-0.8H365v-5.5h1.7v-0.8H362.4z M376,57.9V57c0-0.3,0-0.5-0.1-0.8
	c0-0.3-0.1-0.5-0.2-0.8c-0.1-0.2-0.2-0.5-0.3-0.7c-0.1-0.2-0.3-0.4-0.5-0.6c-0.2-0.2-0.4-0.3-0.6-0.4c-0.2-0.1-0.5-0.1-0.8-0.1
	c-0.3,0-0.6,0-0.8,0.1c-0.2,0.1-0.4,0.2-0.6,0.4c-0.2,0.2-0.3,0.3-0.5,0.6c-0.1,0.2-0.2,0.4-0.3,0.7c-0.1,0.2-0.2,0.5-0.2,0.8
	c0,0.3-0.1,0.5-0.1,0.8v0.8c0,0.3,0,0.5,0.1,0.8c0,0.3,0.1,0.5,0.2,0.7c0.1,0.2,0.2,0.5,0.3,0.7c0.1,0.2,0.3,0.4,0.5,0.5
	c0.2,0.2,0.4,0.3,0.6,0.4c0.2,0.1,0.5,0.1,0.8,0.1s0.6,0,0.8-0.1c0.2-0.1,0.4-0.2,0.6-0.4c0.2-0.2,0.3-0.3,0.5-0.5
	c0.1-0.2,0.2-0.4,0.3-0.7c0.1-0.2,0.1-0.5,0.2-0.7C376,58.4,376,58.1,376,57.9z M375.1,57v0.8c0,0.2,0,0.3,0,0.5
	c0,0.2,0,0.4-0.1,0.5c0,0.2-0.1,0.4-0.2,0.5c-0.1,0.2-0.2,0.3-0.3,0.4c-0.1,0.1-0.3,0.2-0.4,0.3c-0.2,0.1-0.3,0.1-0.6,0.1
	c-0.2,0-0.4,0-0.6-0.1c-0.2-0.1-0.3-0.2-0.4-0.3c-0.1-0.1-0.2-0.3-0.3-0.4c-0.1-0.2-0.1-0.3-0.2-0.5c0-0.2-0.1-0.4-0.1-0.5
	c0-0.2,0-0.4,0-0.5V57c0-0.2,0-0.3,0-0.5c0-0.2,0.1-0.4,0.1-0.6c0-0.2,0.1-0.3,0.2-0.5c0.1-0.2,0.2-0.3,0.3-0.4
	c0.1-0.1,0.3-0.2,0.4-0.3c0.2-0.1,0.3-0.1,0.6-0.1c0.2,0,0.4,0,0.6,0.1c0.2,0.1,0.3,0.2,0.4,0.3c0.1,0.1,0.2,0.3,0.3,0.4
	c0.1,0.2,0.1,0.3,0.2,0.5c0,0.2,0.1,0.4,0.1,0.6C375.1,56.7,375.1,56.9,375.1,57z M384.8,61v-7.1h-0.9l0,5.3l-2.8-5.3h-0.9V61h0.9
	l0-5.3l2.8,5.3H384.8z M393.1,59.2c0,0.2,0,0.4-0.1,0.5c-0.1,0.1-0.2,0.3-0.3,0.3c-0.1,0.1-0.3,0.2-0.5,0.2c-0.2,0-0.3,0.1-0.5,0.1
	c-0.2,0-0.4,0-0.6-0.1c-0.2-0.1-0.3-0.2-0.5-0.3c-0.1-0.1-0.3-0.3-0.4-0.4c-0.1-0.2-0.2-0.4-0.2-0.6h-0.9c0,0.3,0.1,0.6,0.2,0.8
	c0.1,0.2,0.3,0.5,0.5,0.6c0.2,0.2,0.5,0.4,0.8,0.5c0.3,0.1,0.7,0.2,1,0.2c0.3,0,0.6,0,0.8-0.1c0.3-0.1,0.5-0.2,0.8-0.4
	c0.2-0.2,0.4-0.4,0.5-0.6c0.1-0.2,0.2-0.5,0.2-0.8c0-0.3-0.1-0.6-0.2-0.8c-0.1-0.2-0.3-0.4-0.5-0.6c-0.2-0.2-0.5-0.3-0.7-0.4
	c-0.3-0.1-0.5-0.2-0.8-0.3c-0.2,0-0.3-0.1-0.5-0.2c-0.2-0.1-0.3-0.1-0.5-0.2c-0.2-0.1-0.3-0.2-0.4-0.4c-0.1-0.1-0.2-0.3-0.2-0.5
	c0-0.2,0-0.4,0.1-0.5c0.1-0.1,0.2-0.3,0.3-0.4c0.1-0.1,0.3-0.2,0.4-0.2c0.2,0,0.3-0.1,0.5-0.1c0.2,0,0.4,0,0.6,0.1
	c0.2,0.1,0.3,0.2,0.4,0.3c0.1,0.1,0.2,0.3,0.3,0.4c0.1,0.2,0.1,0.4,0.2,0.6h0.9c0-0.3-0.1-0.6-0.2-0.9c-0.1-0.3-0.3-0.5-0.5-0.7
	c-0.2-0.2-0.5-0.3-0.8-0.4c-0.3-0.1-0.6-0.2-0.9-0.2c-0.3,0-0.6,0-0.8,0.1c-0.3,0.1-0.5,0.2-0.7,0.4c-0.2,0.2-0.4,0.4-0.5,0.6
	c-0.1,0.2-0.2,0.5-0.2,0.8c0,0.3,0.1,0.6,0.2,0.8c0.1,0.2,0.3,0.4,0.5,0.6c0.2,0.2,0.4,0.3,0.7,0.4c0.3,0.1,0.5,0.2,0.8,0.3
	c0.2,0.1,0.4,0.1,0.5,0.2c0.2,0.1,0.4,0.2,0.5,0.3c0.2,0.1,0.3,0.2,0.4,0.4C393.1,58.8,393.1,59,393.1,59.2z"/>
<linearGradient id="SVGID_1_" gradientUnits="userSpaceOnUse" x1="-53.0281" y1="406.6858" x2="237.4074" y2="-36.6502" gradientTransform="matrix(0.5272 -0.8498 -0.8498 -0.5272 431.0842 411.1275)">
	<stop  offset="0" style="stop-color:#FFFFFF"/>
	<stop  offset="0.257" style="stop-color:#FFFFFF;stop-opacity:0.1613"/>
	<stop  offset="1" style="stop-color:#FFFFFF;stop-opacity:4.000000e-02"/>
</linearGradient>
<circle class="st1" cx="165.1" cy="239.1" r="101.9"/>
<path class="st0" d="M320.5,258.4L320.5,258.4l0,6.2h-0.6v-7h0.8l3.7,6.2h0v-6.2h0.6v7h-0.8L320.5,258.4z M328.7,264.7
	c-0.3,0-0.6-0.1-0.9-0.2c-0.3-0.1-0.5-0.3-0.7-0.5c-0.2-0.2-0.3-0.5-0.4-0.9c-0.1-0.3-0.1-0.7-0.1-1.1c0-0.4,0-0.8,0.1-1.1
	c0.1-0.3,0.3-0.6,0.4-0.8c0.2-0.2,0.4-0.4,0.7-0.5c0.3-0.1,0.6-0.2,0.9-0.2c0.3,0,0.6,0.1,0.9,0.2c0.3,0.1,0.5,0.3,0.7,0.5
	c0.2,0.2,0.3,0.5,0.4,0.8c0.1,0.3,0.2,0.6,0.2,1v0.3H327v0.2c0,0.3,0,0.5,0.1,0.7c0.1,0.2,0.2,0.4,0.3,0.6c0.1,0.2,0.3,0.3,0.5,0.4
	c0.2,0.1,0.4,0.1,0.7,0.1c0.7,0,1.3-0.3,1.5-1l0.4,0.3c-0.2,0.4-0.4,0.7-0.8,0.9C329.6,264.6,329.2,264.7,328.7,264.7z M328.7,259.8
	c-0.2,0-0.5,0-0.7,0.1c-0.2,0.1-0.4,0.2-0.5,0.4c-0.1,0.2-0.2,0.4-0.3,0.6c-0.1,0.2-0.1,0.5-0.1,0.7v0.1h3.2v-0.1
	c0-0.3,0-0.5-0.1-0.7c-0.1-0.2-0.2-0.4-0.3-0.6c-0.1-0.2-0.3-0.3-0.5-0.4C329.1,259.9,328.9,259.8,328.7,259.8z M333.1,264.6
	c-0.2,0-0.4-0.1-0.5-0.2c-0.1-0.1-0.2-0.3-0.2-0.5v-4h-0.9v-0.5h0.6c0.1,0,0.2,0,0.3-0.1c0.1-0.1,0.1-0.2,0.1-0.3v-1h0.5v1.4h1.2
	v0.5h-1.2v4.1h1.1v0.5H333.1z M335,259.5h0.6l1.2,4.6h0l1.4-4.6h0.5l1.4,4.6h0l1.2-4.6h0.5l-1.4,5.1h-0.7l-1.3-4.3h0l-1.3,4.3h-0.7
	L335,259.5z M344.9,264.7c-0.3,0-0.6-0.1-0.9-0.2c-0.3-0.1-0.5-0.3-0.7-0.5c-0.2-0.2-0.3-0.5-0.4-0.9c-0.1-0.3-0.2-0.7-0.2-1.1
	c0-0.4,0.1-0.8,0.2-1.1c0.1-0.3,0.3-0.6,0.4-0.8c0.2-0.2,0.4-0.4,0.7-0.5c0.3-0.1,0.6-0.2,0.9-0.2s0.6,0.1,0.9,0.2
	c0.3,0.1,0.5,0.3,0.7,0.5c0.2,0.2,0.3,0.5,0.4,0.8c0.1,0.3,0.2,0.7,0.2,1.1c0,0.4-0.1,0.8-0.2,1.1c-0.1,0.3-0.3,0.6-0.4,0.9
	c-0.2,0.2-0.4,0.4-0.7,0.5C345.6,264.7,345.3,264.7,344.9,264.7z M344.9,264.2c0.5,0,0.9-0.2,1.2-0.5c0.3-0.3,0.4-0.8,0.4-1.4v-0.6
	c0-0.6-0.1-1.1-0.4-1.4c-0.3-0.3-0.7-0.5-1.2-0.5s-0.9,0.2-1.2,0.5c-0.3,0.3-0.4,0.8-0.4,1.4v0.6c0,0.6,0.1,1.1,0.4,1.4
	C344,264.1,344.4,264.2,344.9,264.2z M348.6,264.6v-5.1h0.6v0.9h0c0.1-0.2,0.3-0.5,0.5-0.6c0.2-0.2,0.6-0.3,1-0.3h0.3v0.6h-0.5
	c-0.4,0-0.8,0.1-1,0.3c-0.3,0.2-0.4,0.4-0.4,0.8v3.5H348.6z M352.2,257.2h0.6v4.9h0l0.8-0.9l1.7-1.8h0.7l-2,2.1l2.2,3h-0.7l-1.9-2.7
	l-0.8,0.8v1.9h-0.6V257.2z"/>
<path class="st0" d="M277.8,225.1h1.6l3.2,16.9h0.1l4.9-16.9h1.5l4.8,16.9h0.1l3.1-16.9h1.6l-3.8,19.2h-1.8l-4.8-16.9h-0.1l-5,16.9
	h-1.8L277.8,225.1z M300.6,241.9V233l2.4-2.4h6.8l2.4,2.4v8.9l-2.4,2.4h-6.8L300.6,241.9z M309.1,242.9l1.5-1.5v-7.9l-1.5-1.5h-5.5
	l-1.5,1.5v7.9l1.5,1.5H309.1z M316.2,230.6h1.5v2.5l2.6-2.5h3.4v1.4h-2.9l-3,3v9.3h-1.5V230.6z M326.5,230.6h1.5v2.8l2.8-2.8h3.2
	l2.2,2.2l2.2-2.2h4.2l2.4,2.4v11.2h-1.5v-10.8l-1.5-1.5h-3.2l-2.1,2.1v10.2h-1.5v-10.6l-1.6-1.6h-2.3l-3.1,3.1v9.1h-1.5V230.6z
	 M349.2,224.7h1.5v9.1l3.1-3.1h4.1l2.4,2.4v11.2h-1.5v-10.8l-1.5-1.5h-3l-3.6,3.6v8.6h-1.5V224.7z M364.3,241.9V233l2.4-2.4h6.8
	l2.4,2.4v8.9l-2.4,2.4h-6.8L364.3,241.9z M372.8,242.9l1.5-1.5v-7.9l-1.5-1.5h-5.5l-1.5,1.5v7.9l1.5,1.5H372.8z M380.1,224.7h1.5
	v19.5h-1.5V224.7z M385.9,241.9V233l2.4-2.4h6.7l2.4,2.4v4.8h-9.9v3.5l1.5,1.5h5.3l1.5-1.5v-1.2h1.5v1.7l-2.4,2.4h-6.6L385.9,241.9z
	 M395.8,236.5v-3l-1.5-1.5h-5.4l-1.5,1.5v3H395.8z"/>
<path class="st0" d="M520.6,256.9v6.4H520v-6.4h-2.3v-0.5h5.3v0.5H520.6z M523.6,263.4v-5.1h0.6v0.9h0c0.1-0.2,0.3-0.5,0.5-0.6
	c0.2-0.2,0.6-0.3,1-0.3h0.3v0.6h-0.5c-0.4,0-0.8,0.1-1,0.3c-0.3,0.2-0.4,0.4-0.4,0.8v3.5H523.6z M530.7,263.4
	c-0.2,0-0.4-0.1-0.5-0.2c-0.1-0.1-0.2-0.3-0.2-0.5v-0.2h0c-0.1,0.3-0.3,0.5-0.6,0.7c-0.3,0.2-0.6,0.2-1,0.2c-0.5,0-1-0.1-1.2-0.4
	c-0.3-0.3-0.4-0.6-0.4-1.1c0-0.5,0.2-0.8,0.5-1.1c0.3-0.3,0.9-0.4,1.6-0.4h1.2v-0.6c0-0.8-0.4-1.3-1.3-1.3c-0.3,0-0.6,0.1-0.9,0.2
	c-0.2,0.1-0.4,0.3-0.5,0.6l-0.4-0.3c0.1-0.3,0.4-0.5,0.6-0.7c0.3-0.2,0.7-0.3,1.1-0.3c0.6,0,1.1,0.1,1.4,0.4
	c0.3,0.3,0.5,0.7,0.5,1.3v3h0.7v0.5H530.7z M528.5,263c0.2,0,0.4,0,0.6-0.1c0.2-0.1,0.3-0.1,0.5-0.2c0.1-0.1,0.2-0.2,0.3-0.4
	c0.1-0.1,0.1-0.3,0.1-0.5v-1h-1.2c-0.5,0-0.9,0.1-1.1,0.2c-0.2,0.2-0.3,0.4-0.3,0.7v0.2c0,0.3,0.1,0.5,0.3,0.7
	C527.9,262.9,528.2,263,528.5,263z M535.8,262.5L535.8,262.5c-0.2,0.3-0.4,0.5-0.6,0.7c-0.3,0.2-0.6,0.2-1,0.2
	c-0.7,0-1.2-0.2-1.5-0.7c-0.4-0.5-0.6-1.1-0.6-2c0-0.9,0.2-1.5,0.6-2c0.4-0.5,0.9-0.7,1.5-0.7c0.4,0,0.7,0.1,1,0.3
	c0.3,0.2,0.5,0.4,0.6,0.7h0V256h0.6v7.4h-0.6V262.5z M534.3,263c0.2,0,0.4,0,0.6-0.1c0.2-0.1,0.3-0.1,0.5-0.2
	c0.1-0.1,0.2-0.2,0.3-0.4c0.1-0.1,0.1-0.3,0.1-0.5v-2c0-0.2,0-0.3-0.1-0.5c-0.1-0.1-0.2-0.3-0.3-0.4c-0.1-0.1-0.3-0.2-0.5-0.2
	c-0.2-0.1-0.4-0.1-0.6-0.1c-0.5,0-0.9,0.2-1.2,0.5c-0.3,0.3-0.4,0.8-0.4,1.3v0.7c0,0.6,0.1,1,0.4,1.3
	C533.4,262.8,533.8,263,534.3,263z M540,263.5c-0.3,0-0.7-0.1-0.9-0.2c-0.3-0.1-0.5-0.3-0.7-0.5c-0.2-0.2-0.3-0.5-0.5-0.9
	c-0.1-0.3-0.1-0.7-0.1-1.1c0-0.4,0-0.8,0.1-1.1c0.1-0.3,0.3-0.6,0.5-0.8c0.2-0.2,0.4-0.4,0.7-0.5c0.3-0.1,0.6-0.2,0.9-0.2
	c0.3,0,0.6,0.1,0.9,0.2c0.3,0.1,0.5,0.3,0.7,0.5c0.2,0.2,0.3,0.5,0.4,0.8c0.1,0.3,0.2,0.6,0.2,1v0.3h-3.8v0.2c0,0.3,0,0.5,0.1,0.7
	c0.1,0.2,0.2,0.4,0.3,0.6c0.1,0.2,0.3,0.3,0.5,0.4c0.2,0.1,0.4,0.1,0.7,0.1c0.7,0,1.3-0.3,1.6-1l0.4,0.3c-0.2,0.4-0.4,0.7-0.8,0.9
	C540.9,263.4,540.5,263.5,540,263.5z M540,258.6c-0.2,0-0.5,0-0.7,0.1c-0.2,0.1-0.4,0.2-0.5,0.4c-0.1,0.2-0.2,0.4-0.3,0.6
	c-0.1,0.2-0.1,0.5-0.1,0.7v0.1h3.2v-0.1c0-0.3,0-0.5-0.1-0.7c-0.1-0.2-0.2-0.4-0.3-0.6c-0.1-0.2-0.3-0.3-0.5-0.4
	C540.4,258.6,540.2,258.6,540,258.6z M543.6,263.4v-5.1h0.6v0.9h0c0.1-0.2,0.3-0.5,0.5-0.6c0.2-0.2,0.6-0.3,1-0.3h0.3v0.6h-0.5
	c-0.4,0-0.8,0.1-1,0.3c-0.3,0.2-0.4,0.4-0.4,0.8v3.5H543.6z M550.1,256.4v5.2c0,0.6-0.2,1.1-0.5,1.4c-0.3,0.3-0.8,0.5-1.4,0.5
	c-0.5,0-0.9-0.1-1.2-0.4c-0.3-0.3-0.5-0.6-0.6-1.1l0.5-0.1c0.1,0.3,0.2,0.6,0.4,0.8c0.2,0.2,0.5,0.3,0.9,0.3c0.4,0,0.7-0.1,1-0.4
	c0.2-0.3,0.3-0.6,0.3-1.1v-4.5h-2.4v-0.5H550.1z M553.8,263.5c-0.3,0-0.6-0.1-0.9-0.2c-0.3-0.1-0.5-0.3-0.7-0.5
	c-0.2-0.2-0.3-0.5-0.5-0.9c-0.1-0.3-0.2-0.7-0.2-1.1c0-0.4,0.1-0.8,0.2-1.1c0.1-0.3,0.3-0.6,0.5-0.8c0.2-0.2,0.4-0.4,0.7-0.5
	c0.3-0.1,0.6-0.2,0.9-0.2c0.3,0,0.6,0.1,0.9,0.2c0.3,0.1,0.5,0.3,0.7,0.5c0.2,0.2,0.3,0.5,0.5,0.8c0.1,0.3,0.2,0.7,0.2,1.1
	c0,0.4-0.1,0.8-0.2,1.1c-0.1,0.3-0.3,0.6-0.5,0.9c-0.2,0.2-0.4,0.4-0.7,0.5C554.5,263.4,554.2,263.5,553.8,263.5z M553.8,263
	c0.5,0,0.9-0.2,1.2-0.5c0.3-0.3,0.4-0.8,0.4-1.4v-0.6c0-0.6-0.1-1.1-0.4-1.4c-0.3-0.3-0.7-0.5-1.2-0.5s-0.9,0.2-1.2,0.5
	c-0.3,0.3-0.4,0.8-0.4,1.4v0.6c0,0.6,0.1,1.1,0.4,1.4C552.9,262.8,553.3,263,553.8,263z M559.3,263.5c-0.3,0-0.6-0.1-0.9-0.2
	c-0.3-0.1-0.5-0.3-0.7-0.5c-0.2-0.2-0.3-0.5-0.4-0.9c-0.1-0.3-0.2-0.7-0.2-1.1c0-0.4,0-0.8,0.2-1.1c0.1-0.3,0.3-0.6,0.4-0.8
	c0.2-0.2,0.4-0.4,0.7-0.5c0.3-0.1,0.6-0.2,0.9-0.2c0.3,0,0.6,0.1,0.9,0.2c0.3,0.1,0.5,0.3,0.7,0.5c0.2,0.2,0.3,0.5,0.4,0.8
	c0.1,0.3,0.2,0.6,0.2,1v0.3h-3.8v0.2c0,0.3,0,0.5,0.1,0.7c0.1,0.2,0.2,0.4,0.3,0.6c0.1,0.2,0.3,0.3,0.5,0.4c0.2,0.1,0.4,0.1,0.7,0.1
	c0.7,0,1.3-0.3,1.5-1l0.4,0.3c-0.2,0.4-0.4,0.7-0.8,0.9C560.2,263.4,559.8,263.5,559.3,263.5z M559.3,258.6c-0.2,0-0.5,0-0.7,0.1
	c-0.2,0.1-0.4,0.2-0.5,0.4c-0.1,0.2-0.2,0.4-0.3,0.6c-0.1,0.2-0.1,0.5-0.1,0.7v0.1h3.2v-0.1c0-0.3,0-0.5-0.1-0.7
	c-0.1-0.2-0.2-0.4-0.3-0.6c-0.1-0.2-0.3-0.3-0.5-0.4C559.8,258.6,559.6,258.6,559.3,258.6z"/>
<path class="st0" d="M518.3,225.1h1.9l6.7,19.2h-1.6l-1.9-5.5h-8.2l-1.9,5.5h-1.6L518.3,225.1z M522.9,237.4l-3.6-10.6h-0.1
	l-3.6,10.6H522.9z M527,230.6h1.6l4.2,12.2h0.1l4.2-12.2h1.6l-4.9,13.6H532L527,230.6z M540.7,242.1v-3.6l2.1-2.1h7.4v-3l-1.5-1.5
	h-4.8l-1.5,1.5v1.2h-1.5V233l2.4-2.4h6.2l2.4,2.4v11.2h-1.5v-2.7l-2.7,2.7h-4.7L540.7,242.1z M547.1,242.9l3.1-3v-2h-6.8l-1.2,1.2
	v2.7l1.2,1.2H547.1z M564.2,244.3l-4.1-5.7l-4.1,5.7h-1.8l5-6.9l-4.9-6.7h1.8l4,5.5l4-5.5h1.8l-4.8,6.8l5,6.9H564.2z"/>
<path class="st0" d="M124.7,260.2c0-0.5,0-1,0.1-1.4c0.1-0.4,0.2-0.9,0.4-1.2c0.2-0.4,0.4-0.7,0.6-1c0.2-0.3,0.5-0.6,0.7-0.8h0.6
	c-0.3,0.2-0.5,0.5-0.7,0.8c-0.2,0.3-0.4,0.7-0.6,1c-0.2,0.4-0.3,0.7-0.4,1.1c-0.1,0.4-0.1,0.8-0.1,1.2v0.7c0,0.4,0,0.8,0.1,1.2
	c0.1,0.4,0.2,0.8,0.4,1.1c0.2,0.4,0.4,0.7,0.6,1c0.2,0.3,0.5,0.6,0.7,0.8h-0.6c-0.2-0.2-0.5-0.5-0.7-0.8c-0.2-0.3-0.4-0.6-0.6-1
	c-0.2-0.4-0.3-0.8-0.4-1.2C124.8,261.2,124.7,260.7,124.7,260.2z M128.2,263.4v-7h4.1v0.5h-3.5v2.6h3.3v0.5h-3.3v2.8h3.5v0.5H128.2z
	 M136,256.9v6.4h-0.6v-6.4h-2.3v-0.5h5.3v0.5H136z M144,260.1h-3.8v3.3h-0.6v-7h0.6v3.2h3.8v-3.2h0.6v7H144V260.1z M148,260.2
	c0,0.5-0.1,1-0.2,1.4c-0.1,0.4-0.2,0.9-0.4,1.2c-0.2,0.4-0.4,0.7-0.6,1c-0.2,0.3-0.4,0.6-0.7,0.8h-0.6c0.3-0.2,0.5-0.5,0.7-0.8
	c0.2-0.3,0.4-0.7,0.6-1c0.2-0.4,0.3-0.7,0.4-1.1c0.1-0.4,0.1-0.8,0.1-1.2v-0.7c0-0.4,0-0.8-0.1-1.2c-0.1-0.4-0.2-0.8-0.4-1.1
	c-0.2-0.4-0.4-0.7-0.6-1c-0.2-0.3-0.5-0.6-0.7-0.8h0.6c0.2,0.2,0.5,0.5,0.7,0.8c0.2,0.3,0.4,0.7,0.6,1c0.2,0.4,0.3,0.8,0.4,1.2
	C148,259.3,148,259.7,148,260.2z"/>
<path class="st0" d="M99.1,241.4V228l2.9-2.9h8.4l2.9,2.9v13.4l-2.9,2.9h-8.4L99.1,241.4z M109.7,242.8l2-2v-12.3l-2-2h-7l-2,2v12.3
	l2,2H109.7z M117.5,230.6h1.5v2.5l2.6-2.5h3.4v1.4H122l-3,3v9.3h-1.5V230.6z M126.7,242.1v-3.6l2.1-2.1h7.4v-3l-1.5-1.5h-4.8
	l-1.5,1.5v1.2h-1.5V233l2.4-2.4h6.2l2.4,2.4v11.2h-1.5v-2.7l-2.7,2.7h-4.7L126.7,242.1z M133.1,242.9l3.1-3v-2h-6.8l-1.2,1.2v2.7
	l1.2,1.2H133.1z M141.7,241.9V233l2.4-2.4h6.3l2.4,2.4v1.4h-1.5v-0.9l-1.5-1.5h-5l-1.5,1.5v7.9l1.5,1.5h5l1.5-1.5v-0.9h1.5v1.4
	l-2.4,2.4h-6.3L141.7,241.9z M156.5,224.7h1.5v19.5h-1.5V224.7z M162.3,241.9V233l2.4-2.4h6.7l2.4,2.4v4.8h-9.9v3.5l1.5,1.5h5.3
	l1.5-1.5v-1.2h1.5v1.7l-2.4,2.4h-6.6L162.3,241.9z M172.2,236.5v-3l-1.5-1.5h-5.4l-1.5,1.5v3H172.2z"/>
<linearGradient id="SVGID_00000161610247146525036890000012818125822244510136_" gradientUnits="userSpaceOnUse" x1="622.3467" y1="650.2596" x2="912.7827" y2="206.9247" gradientTransform="matrix(-0.8857 0.4643 0.4643 0.8857 853.9204 -572.9781)">
	<stop  offset="0" style="stop-color:#FFFFFF"/>
	<stop  offset="0.257" style="stop-color:#FFFFFF;stop-opacity:0.1613"/>
	<stop  offset="1" style="stop-color:#FFFFFF;stop-opacity:4.000000e-02"/>
</linearGradient>
<ellipse transform="matrix(0.7071 -0.7071 0.7071 0.7071 -19.8391 431.2962)" style="fill:none;stroke:url(#SVGID_00000161610247146525036890000012818125822244510136_);" cx="510.7" cy="239.6" rx="102" ry="101.9"/>
<circle class="st0" cx="64" cy="250" r="5.1"/>
<circle class="st0" cx="584" cy="310.9" r="5.1"/>
<linearGradient id="SVGID_00000065046003501645160090000011391632324528220326_" gradientUnits="userSpaceOnUse" x1="502.8656" y1="452.0206" x2="888.0296" y2="-135.9134" gradientTransform="matrix(9.534883e-02 0.9954 0.9954 -9.534883e-02 -48.8826 -305.2253)">
	<stop  offset="0" style="stop-color:#FFFFFF"/>
	<stop  offset="0.257" style="stop-color:#FFFFFF;stop-opacity:0.1613"/>
	<stop  offset="1" style="stop-color:#FFFFFF;stop-opacity:4.000000e-02"/>
</linearGradient>
<circle style="fill:none;stroke:url(#SVGID_00000065046003501645160090000011391632324528220326_);" cx="337.7" cy="241.4" r="135.4"/>
<circle class="st0" cx="397.1" cy="120.1" r="5.1"/>
<path class="st0" d="M229.5,261.3c0.4,0.1,0.7,0.2,0.9,0.3c0.2,0.1,0.4,0.3,0.6,0.5c0.2,0.2,0.2,0.5,0.2,0.9c0,0.3-0.1,0.5-0.2,0.7
	c-0.1,0.2-0.3,0.4-0.6,0.6c-0.3,0.1-0.6,0.2-1,0.2h0v0.6h-0.2v-0.6c-0.5,0-0.9-0.2-1.2-0.5c-0.3-0.3-0.5-0.6-0.5-1h0.6
	c0,0.2,0.1,0.5,0.3,0.7c0.2,0.2,0.5,0.3,0.8,0.4v-2.2c-0.4-0.1-0.7-0.2-0.9-0.3c-0.2-0.1-0.4-0.3-0.6-0.5c-0.2-0.2-0.2-0.5-0.2-0.8
	c0-0.3,0.1-0.5,0.2-0.7c0.1-0.2,0.3-0.4,0.6-0.5c0.3-0.1,0.6-0.2,0.9-0.2h0V258h0.2v0.7c0.5,0,0.9,0.2,1.1,0.4
	c0.3,0.3,0.4,0.6,0.5,0.9h-0.6c0-0.2-0.2-0.4-0.3-0.6c-0.2-0.2-0.4-0.3-0.7-0.3V261.3z M228.2,260.1c0,0.3,0.1,0.6,0.3,0.7
	c0.2,0.2,0.5,0.3,0.9,0.4v-2.1h0c-0.3,0-0.6,0.1-0.8,0.3C228.3,259.5,228.2,259.8,228.2,260.1z M229.6,264c0.4,0,0.6-0.1,0.8-0.3
	c0.2-0.2,0.3-0.4,0.3-0.7c0-0.3-0.1-0.6-0.3-0.7c-0.2-0.2-0.5-0.3-0.9-0.4L229.6,264L229.6,264z M232.9,262.8
	c0.1,0.4,0.2,0.7,0.4,0.9c0.2,0.2,0.5,0.3,0.8,0.3c0.5,0,0.9-0.2,1.1-0.6c0.3-0.4,0.4-1,0.4-1.8c0-0.1,0-0.3,0-0.3
	c-0.1,0.3-0.3,0.6-0.6,0.8c-0.3,0.2-0.7,0.3-1.1,0.3c-0.6,0-1-0.2-1.3-0.5c-0.3-0.3-0.5-0.8-0.5-1.4c0-0.3,0.1-0.7,0.2-0.9
	c0.1-0.3,0.3-0.5,0.6-0.7c0.3-0.2,0.6-0.3,1.1-0.3c0.8,0,1.4,0.2,1.7,0.7c0.3,0.5,0.4,1.2,0.4,2c0,1-0.2,1.7-0.5,2.3
	c-0.3,0.5-0.8,0.8-1.5,0.8c-0.5,0-0.9-0.1-1.2-0.4c-0.3-0.3-0.5-0.7-0.5-1.2H232.9z M235.5,260.6c0-0.4-0.1-0.8-0.4-1.1
	c-0.2-0.3-0.6-0.4-1.1-0.4c-0.4,0-0.7,0.1-1,0.4c-0.2,0.2-0.4,0.6-0.4,1c0,0.5,0.1,0.8,0.4,1.1c0.3,0.3,0.6,0.4,1,0.4
	c0.2,0,0.5,0,0.7-0.1c0.2-0.1,0.4-0.3,0.6-0.5C235.4,261.2,235.5,260.9,235.5,260.6z M236.8,263v-0.5l3-3.8h0.6v3.8h0.9v0.5h-0.9
	v1.4h-0.6V263H236.8z M239.9,259.4l-2.4,3.1h2.4V259.4z"/>
<path class="st0" d="M230.4,225.4c0.4,0.1,0.7,0.2,0.9,0.3c0.2,0.1,0.4,0.3,0.6,0.5c0.2,0.2,0.2,0.5,0.2,0.9c0,0.3-0.1,0.5-0.2,0.7
	c-0.1,0.2-0.3,0.4-0.6,0.6c-0.3,0.1-0.6,0.2-1,0.2h0v0.6h-0.2v-0.6c-0.5,0-0.9-0.2-1.2-0.5c-0.3-0.3-0.5-0.6-0.5-1h0.6
	c0,0.2,0.1,0.5,0.3,0.7c0.2,0.2,0.5,0.3,0.8,0.4v-2.2c-0.4-0.1-0.7-0.2-0.9-0.3c-0.2-0.1-0.4-0.3-0.6-0.5c-0.2-0.2-0.2-0.5-0.2-0.8
	c0-0.3,0.1-0.5,0.2-0.7c0.1-0.2,0.3-0.4,0.6-0.5c0.3-0.1,0.6-0.2,0.9-0.2h0v-0.7h0.2v0.7c0.5,0,0.9,0.2,1.1,0.4
	c0.3,0.3,0.4,0.6,0.5,0.9h-0.6c0-0.2-0.2-0.4-0.3-0.6c-0.2-0.2-0.4-0.3-0.7-0.3V225.4z M229.1,224.2c0,0.3,0.1,0.6,0.3,0.7
	c0.2,0.2,0.5,0.3,0.9,0.4v-2.1h0c-0.3,0-0.6,0.1-0.8,0.3C229.2,223.7,229.1,223.9,229.1,224.2z M230.5,228.1c0.4,0,0.6-0.1,0.8-0.3
	c0.2-0.2,0.3-0.4,0.3-0.7c0-0.3-0.1-0.6-0.3-0.7c-0.2-0.2-0.5-0.3-0.9-0.4L230.5,228.1L230.5,228.1z M233.8,227
	c0.1,0.4,0.2,0.7,0.4,0.9c0.2,0.2,0.5,0.3,0.8,0.3c0.5,0,0.9-0.2,1.1-0.6c0.3-0.4,0.4-1,0.4-1.8c0-0.1,0-0.3,0-0.3
	c-0.1,0.3-0.3,0.6-0.6,0.8c-0.3,0.2-0.7,0.3-1.1,0.3c-0.6,0-1-0.2-1.3-0.5c-0.3-0.3-0.5-0.8-0.5-1.4c0-0.3,0.1-0.7,0.2-0.9
	c0.1-0.3,0.3-0.5,0.6-0.7c0.3-0.2,0.6-0.3,1.1-0.3c0.8,0,1.4,0.2,1.7,0.7c0.3,0.5,0.4,1.2,0.4,2c0,1-0.2,1.7-0.5,2.3
	c-0.3,0.5-0.8,0.8-1.5,0.8c-0.5,0-0.9-0.1-1.2-0.4c-0.3-0.3-0.5-0.7-0.5-1.2H233.8z M236.4,224.8c0-0.4-0.1-0.8-0.4-1.1
	c-0.3-0.3-0.6-0.4-1.1-0.4c-0.4,0-0.7,0.1-1,0.4c-0.2,0.2-0.4,0.6-0.4,1c0,0.5,0.1,0.8,0.4,1.1c0.2,0.2,0.6,0.4,1,0.4
	c0.2,0,0.5,0,0.7-0.1c0.2-0.1,0.4-0.3,0.6-0.5C236.3,225.3,236.4,225.1,236.4,224.8z M237.8,228.1c0.9-0.6,1.7-1.3,2.3-1.9
	c0.6-0.6,0.8-1.2,0.8-1.8c0-0.3-0.1-0.6-0.3-0.8c-0.2-0.2-0.5-0.3-0.9-0.3c-0.4,0-0.7,0.1-1,0.4c-0.2,0.3-0.3,0.6-0.4,1h-0.6
	c0-0.6,0.2-1.1,0.6-1.4c0.3-0.3,0.8-0.5,1.3-0.5c0.5,0,0.9,0.1,1.2,0.4c0.3,0.3,0.5,0.7,0.5,1.2c0,0.4-0.1,0.9-0.4,1.4
	c-0.3,0.5-0.7,0.9-1.1,1.3c-0.4,0.4-0.9,0.7-1.3,1h3v0.5h-3.8V228.1z"/>
<path class="st0" d="M259.2,239.2c0.1-0.1,0.1-0.3,0-0.4l-2-2c-0.1-0.1-0.3-0.1-0.4,0c-0.1,0.1-0.1,0.3,0,0.4l1.8,1.8l-1.8,1.8
	c-0.1,0.1-0.1,0.3,0,0.4c0.1,0.1,0.3,0.1,0.4,0L259.2,239.2z M211,239.3h48v-0.6h-48V239.3z"/>
<path class="st0" d="M210.8,248.8c-0.1,0.1-0.1,0.3,0,0.4l2,2c0.1,0.1,0.3,0.1,0.4,0c0.1-0.1,0.1-0.3,0-0.4l-1.8-1.8l1.8-1.8
	c0.1-0.1,0.1-0.3,0-0.4c-0.1-0.1-0.3-0.1-0.4,0L210.8,248.8z M259,248.7h-48v0.6h48V248.7z"/>
<path class="st0" d="M415.8,243.8c-0.1,0.1-0.1,0.3,0,0.4l2,2c0.1,0.1,0.3,0.1,0.4,0c0.1-0.1,0.1-0.3,0-0.4l-1.8-1.8l1.8-1.8
	c0.1-0.1,0.1-0.3,0-0.4c-0.1-0.1-0.3-0.1-0.4,0L415.8,243.8z M465.2,244.2c0.1-0.1,0.1-0.3,0-0.4l-2-2c-0.1-0.1-0.3-0.1-0.4,0
	c-0.1,0.1-0.1,0.3,0,0.4l1.8,1.8l-1.8,1.8c-0.1,0.1-0.1,0.3,0,0.4c0.1,0.1,0.3,0.1,0.4,0L465.2,244.2z M416,244.3h49v-0.6h-49V244.3
	z"/>
</svg>
