<svg width="783" height="501" viewBox="0 0 783 501" fill="none" xmlns="http://www.w3.org/2000/svg">
<path d="M403.485 311.067L403.867 313.211L404.286 315.535L404.75 318.075L405.251 320.854L405.807 323.909L406.417 327.286L407.1 331.021L407.856 335.212L408.712 339.933L409.677 345.275L410.788 351.385L412.063 358.43L413.547 366.648L415.304 376.359L417.417 388.013L419.994 402.207L423.208 419.987L427.342 442.831M569.459 442.876H214.171H569.459ZM782.631 442.876H569.459L547.605 420.032L530.595 402.252L516.982 388.058L505.809 376.367L496.512 366.655L488.653 358.438L481.915 351.393L476.069 345.282L470.951 339.941L466.398 335.219L462.382 331.028L458.795 327.293L455.562 323.916L452.639 320.861L449.98 318.082L447.549 315.542L445.327 313.219L443.278 311.075H343.667L341.564 313.219L339.278 315.542L336.783 318.082L334.052 320.861L331.047 323.916L327.732 327.293L324.09 331.028L319.974 335.219L315.339 339.941L310.085 345.282L304.084 351.393L297.163 358.438L289.086 366.655L279.552 376.367L268.106 388.021L254.128 402.215L236.663 419.994L214.217 442.839H1.04557L782.631 442.876ZM782.676 442.839L734.251 419.994H609.808L585.905 402.215L566.782 388.021L551.12 376.367L538.062 366.655L527.017 358.438L517.537 351.393L509.342 345.282L502.157 339.941L495.783 335.219L490.137 331.028L485.093 327.293L480.54 323.916H306.133L301.507 327.293L296.362 331.028L290.616 335.219L284.151 339.941L276.866 345.282L268.498 351.393L258.836 358.438L247.572 366.655L234.268 376.367L218.314 388.021L198.809 402.215L174.451 419.994H50.0175L1 442.839H782.676ZM666.338 387.983H118.704H666.338ZM711.604 442.876L672.029 420.032L641.233 402.252H143.5L112.248 420.032L72.0904 442.876H711.604ZM143.727 376.389H641.67H143.727ZM734.232 420.054L696.534 402.274H641.233L616.583 388.08L596.404 376.426L579.585 366.715L565.344 358.497H220.491L206.04 366.715L188.966 376.426L168.486 388.08L143.472 402.274H88.1716L50.0175 420.054H734.232ZM621.054 366.685H164.534H621.054ZM640.514 442.884L609.808 420.039H174.414L143.117 442.884H640.514ZM197.289 351.4H588.673H197.289ZM696.488 402.259L666.32 388.066L641.624 376.412L621.036 366.7L603.616 358.482H565.298L553.096 351.438L542.515 345.327L533.254 339.985L525.059 335.264L517.774 331.073L511.272 327.338L505.417 323.961H480.503L476.387 320.906L472.654 318.127L469.239 315.587L466.116 313.264H320.793L317.606 315.587L314.128 318.127L310.321 320.906L306.133 323.961H281.209L275.272 327.338L268.68 331.073L261.304 335.264L253.008 339.985L243.611 345.327L232.875 351.438L220.491 358.482H182.173L164.534 366.7L143.7 376.412L118.704 388.066L88.1716 402.259H696.488ZM210.401 345.29H575.743H210.401ZM564.415 339.948H221.866H564.415ZM363.6 311.06L362.335 313.204L360.951 315.527L359.439 318.067L357.791 320.846L355.97 323.902L353.957 327.278L351.726 331.013L349.231 335.204L346.427 339.926L343.249 345.267L339.606 351.378L335.408 358.423L330.528 366.64L324.754 376.352L317.825 388.006L309.365 402.2L298.793 419.979L285.216 442.824L363.6 311.06ZM231.973 335.167H554.389H231.973ZM383.524 311L383.078 313.144L382.605 315.467L382.077 318.007L381.503 320.786L380.865 323.842L380.173 327.218L379.399 330.954L378.489 335.145L377.514 339.866L376.413 345.207L375.147 351.318L373.69 358.363L371.996 366.58L369.984 376.292L367.58 387.946L364.629 402.14L360.987 419.92L356.261 442.764L383.524 311ZM545.52 331.021H240.988H545.52ZM537.561 327.286H249.02H537.561ZM512.62 315.535L507.685 313.211L503.132 311.067H463.256L512.62 315.535ZM530.358 323.909L523.875 320.854L517.984 318.075L512.602 315.535H490.929L486.905 313.211H466.134L463.256 311.067H443.314L530.358 323.909ZM603.58 358.452L588.637 351.408L575.688 345.297L564.36 339.956L554.344 335.234L545.456 331.043L537.498 327.308L530.34 323.931H505.417L500.127 320.876L495.309 318.097L490.911 315.557H295.934L291.472 318.097L286.591 320.876L281.209 323.931H256.305L249.02 327.308L240.961 331.043L231.964 335.234L221.838 339.956L210.374 345.297L197.261 351.408L182.145 358.452H603.58ZM523.893 320.854H262.825L256.268 323.909L523.893 320.854ZM518.002 318.075H268.816L262.852 320.854L518.002 318.075ZM343.667 311.067H303.783L300.022 313.211L295.934 315.535H274.262L268.798 318.075L343.667 311.067ZM323.707 311.067L320.775 313.211H279.252L274.262 315.535L323.707 311.067ZM303.783 311.052H283.85L279.297 313.196L303.783 311.052ZM483.271 311.052L486.987 313.196H507.748L483.271 311.052ZM498.442 442.876L485.448 420.032L475.331 402.252L467.236 388.058L460.607 376.404L455.088 366.692L450.408 358.475L446.401 351.43L442.932 345.319L439.891 339.978L437.159 335.257L434.782 331.021L432.651 327.286L430.73 323.909L428.99 320.854L427.406 318.075L425.958 315.535L424.638 313.211L423.418 311.067L498.442 442.876Z" stroke="white" stroke-width="0.5" stroke-linecap="round" stroke-linejoin="round"/>
<path d="M202.852 1H178.773V20.4483" stroke="white" stroke-width="0.481018"/>
<path d="M601.078 1H625.157V20.4483" stroke="white" stroke-width="0.481018"/>
<path d="M601.079 500.448L625.158 500.448L625.158 481" stroke="white" stroke-width="0.481018"/>
<path d="M202.853 500.448L178.774 500.448L178.774 481" stroke="white" stroke-width="0.481018"/>
<path d="M516.135 368.068L516.135 242.275" stroke="url(#paint0_linear_1131_364)" stroke-width="0.962035"/>
<circle r="40.6291" transform="matrix(-1 0 0 1 515.314 201.73)" fill="#111024" stroke="white" stroke-width="0.962035"/>
<path d="M502.142 188.021L496.096 194.617C495.813 194.925 496.032 195.423 496.451 195.423H528.538C528.666 195.423 528.788 195.372 528.878 195.282L535.474 188.686C535.777 188.383 535.563 187.865 535.134 187.865H502.497C502.362 187.865 502.233 187.922 502.142 188.021Z" fill="white"/>
<path d="M529.51 199.359L535.556 205.955C535.839 206.263 535.62 206.761 535.201 206.761H503.114C502.986 206.761 502.864 206.71 502.774 206.62L496.178 200.024C495.875 199.721 496.09 199.203 496.518 199.203H529.155C529.29 199.203 529.419 199.26 529.51 199.359Z" fill="white"/>
<path d="M502.142 210.694L496.096 217.29C495.813 217.598 496.032 218.096 496.451 218.096H528.538C528.666 218.096 528.788 218.045 528.878 217.955L535.474 211.359C535.777 211.056 535.563 210.538 535.134 210.538H502.497C502.362 210.538 502.233 210.595 502.142 210.694Z" fill="white"/>
<path d="M316.629 67.5195L315.948 65.2222H313.12L312.438 67.5195H311.434L313.905 59.4615H315.186L317.656 67.5195H316.629ZM314.586 60.489H314.482L313.35 64.3794H315.717L314.586 60.489ZM322.847 67.5195V59.4615H323.817V66.6768H327.638V67.5195H322.847ZM333.232 67.5195V59.4615H334.202V66.6768H338.023V67.5195H333.232ZM356.347 67.6581C355.362 67.6581 354.627 67.3002 354.142 66.5844C353.665 65.8687 353.426 64.8374 353.426 63.4905C353.426 62.1437 353.665 61.1124 354.142 60.3966C354.627 59.6809 355.362 59.323 356.347 59.323C356.716 59.323 357.036 59.373 357.305 59.4731C357.574 59.5731 357.805 59.7078 357.998 59.8771C358.19 60.0464 358.352 60.2388 358.483 60.4543C358.613 60.6621 358.729 60.8738 358.829 61.0893L357.998 61.4703C357.928 61.2932 357.848 61.1278 357.755 60.9738C357.663 60.8122 357.551 60.6737 357.421 60.5582C357.297 60.4351 357.147 60.3389 356.97 60.2696C356.801 60.2004 356.593 60.1657 356.347 60.1657C355.708 60.1657 355.231 60.4082 354.915 60.893C354.608 61.3779 354.454 62.0244 354.454 62.8325V64.1486C354.454 64.9567 354.608 65.6032 354.915 66.088C355.231 66.5729 355.708 66.8153 356.347 66.8153C356.593 66.8153 356.801 66.7807 356.97 66.7114C357.147 66.6422 357.297 66.5498 357.421 66.4344C357.551 66.3112 357.663 66.1727 357.755 66.0188C357.848 65.8571 357.928 65.6878 357.998 65.5108L358.829 65.8918C358.729 66.115 358.613 66.3305 358.483 66.5383C358.352 66.7461 358.19 66.9346 357.998 67.1039C357.805 67.2733 357.574 67.4079 357.305 67.508C357.036 67.608 356.716 67.6581 356.347 67.6581ZM368.037 63.86H364.897V67.5195H363.927V59.4615H364.897V63.0172H368.037V59.4615H369.007V67.5195H368.037V63.86ZM378.942 67.5195L378.261 65.2222H375.432L374.751 67.5195H373.747L376.217 59.4615H377.499L379.969 67.5195H378.942ZM376.898 60.489H376.795L375.663 64.3794H378.03L376.898 60.489ZM384.744 67.5195V66.7461H386.753V60.235H384.744V59.4615H389.731V60.235H387.723V66.7461H389.731V67.5195H384.744ZM396.042 60.6968H395.961V67.5195H395.083V59.4615H396.457L399.205 66.215H399.286V59.4615H400.163V67.5195H398.789L396.042 60.6968ZM407.986 67.6581C407.262 67.6581 406.67 67.5272 406.208 67.2656C405.746 66.9962 405.365 66.6537 405.065 66.2381L405.769 65.6609C406.085 66.0534 406.416 66.3458 406.762 66.5383C407.116 66.7307 407.535 66.8269 408.02 66.8269C408.605 66.8269 409.052 66.6922 409.359 66.4228C409.667 66.1534 409.821 65.7763 409.821 65.2915C409.821 64.8989 409.71 64.5949 409.486 64.3794C409.263 64.1563 408.875 63.9985 408.32 63.9061L407.42 63.7561C407.027 63.6868 406.696 63.5829 406.427 63.4444C406.165 63.3058 405.954 63.1403 405.792 62.9479C405.631 62.7478 405.515 62.5323 405.446 62.3015C405.377 62.0629 405.342 61.8166 405.342 61.5626C405.342 60.8238 405.584 60.2658 406.069 59.8887C406.554 59.5116 407.208 59.323 408.032 59.323C408.678 59.323 409.221 59.4307 409.66 59.6462C410.106 59.8617 410.464 60.1657 410.733 60.5582L410.052 61.147C409.829 60.8546 409.56 60.616 409.244 60.4313C408.928 60.2465 408.521 60.1542 408.02 60.1542C407.474 60.1542 407.054 60.2696 406.762 60.5005C406.469 60.7314 406.323 61.0777 406.323 61.5395C406.323 61.9012 406.431 62.1976 406.646 62.4284C406.87 62.6516 407.266 62.8133 407.836 62.9133L408.701 63.0634C409.094 63.1327 409.425 63.2366 409.694 63.3751C409.964 63.5136 410.179 63.6791 410.341 63.8715C410.51 64.0639 410.629 64.2794 410.699 64.518C410.768 64.7566 410.802 65.0067 410.802 65.2684C410.802 66.0149 410.556 66.5998 410.064 67.0231C409.579 67.4464 408.886 67.6581 407.986 67.6581ZM430.869 67.5195L430.188 65.2222H427.36L426.679 67.5195H425.674L428.145 59.4615H429.426L431.897 67.5195H430.869ZM428.826 60.489H428.722L427.591 64.3794H429.957L428.826 60.489ZM439.65 60.3043V67.5195H438.68V60.3043H435.99V59.4615H442.34V60.3043H439.65ZM459.936 67.6581C459.443 67.6581 459.02 67.5657 458.666 67.381C458.312 67.1886 458.02 66.9154 457.789 66.5613C457.558 66.2073 457.389 65.7725 457.281 65.2568C457.173 64.7412 457.119 64.1524 457.119 63.4905C457.119 62.8363 457.173 62.2514 457.281 61.7358C457.389 61.2124 457.558 60.7737 457.789 60.4197C458.02 60.0657 458.312 59.7963 458.666 59.6116C459.02 59.4192 459.443 59.323 459.936 59.323C460.429 59.323 460.852 59.4192 461.206 59.6116C461.56 59.7963 461.852 60.0657 462.083 60.4197C462.314 60.7737 462.484 61.2124 462.591 61.7358C462.699 62.2514 462.753 62.8363 462.753 63.4905C462.753 64.1524 462.699 64.7412 462.591 65.2568C462.484 65.7725 462.314 66.2073 462.083 66.5613C461.852 66.9154 461.56 67.1886 461.206 67.381C460.852 67.5657 460.429 67.6581 459.936 67.6581ZM459.936 66.8153C460.259 66.8153 460.533 66.7538 460.756 66.6306C460.979 66.4998 461.164 66.3189 461.31 66.088C461.456 65.8571 461.56 65.5801 461.622 65.2568C461.691 64.9259 461.725 64.5565 461.725 64.1486V62.8325C461.725 62.4323 461.691 62.0667 461.622 61.7358C461.56 61.4048 461.456 61.1239 461.31 60.893C461.164 60.6621 460.979 60.4851 460.756 60.362C460.533 60.2312 460.259 60.1657 459.936 60.1657C459.613 60.1657 459.34 60.2312 459.116 60.362C458.893 60.4851 458.709 60.6621 458.562 60.893C458.416 61.1239 458.308 61.4048 458.239 61.7358C458.177 62.0667 458.147 62.4323 458.147 62.8325V64.1486C458.147 64.5565 458.177 64.9259 458.239 65.2568C458.308 65.5801 458.416 65.8571 458.562 66.088C458.709 66.3189 458.893 66.4998 459.116 66.6306C459.34 66.7538 459.613 66.8153 459.936 66.8153ZM468.74 60.6968H468.659V67.5195H467.782V59.4615H469.156L471.903 66.215H471.984V59.4615H472.861V67.5195H471.488L468.74 60.6968ZM480.973 67.6581C479.987 67.6581 479.252 67.3002 478.768 66.5844C478.29 65.8687 478.052 64.8374 478.052 63.4905C478.052 62.1437 478.29 61.1124 478.768 60.3966C479.252 59.6809 479.987 59.323 480.973 59.323C481.342 59.323 481.661 59.373 481.931 59.4731C482.2 59.5731 482.431 59.7078 482.623 59.8771C482.816 60.0464 482.977 60.2388 483.108 60.4543C483.239 60.6621 483.355 60.8738 483.455 61.0893L482.623 61.4703C482.554 61.2932 482.473 61.1278 482.381 60.9738C482.289 60.8122 482.177 60.6737 482.046 60.5582C481.923 60.4351 481.773 60.3389 481.596 60.2696C481.427 60.2004 481.219 60.1657 480.973 60.1657C480.334 60.1657 479.857 60.4082 479.541 60.893C479.233 61.3779 479.079 62.0244 479.079 62.8325V64.1486C479.079 64.9567 479.233 65.6032 479.541 66.088C479.857 66.5729 480.334 66.8153 480.973 66.8153C481.219 66.8153 481.427 66.7807 481.596 66.7114C481.773 66.6422 481.923 66.5498 482.046 66.4344C482.177 66.3112 482.289 66.1727 482.381 66.0188C482.473 65.8571 482.554 65.6878 482.623 65.5108L483.455 65.8918C483.355 66.115 483.239 66.3305 483.108 66.5383C482.977 66.7461 482.816 66.9346 482.623 67.1039C482.431 67.2733 482.2 67.4079 481.931 67.508C481.661 67.608 481.342 67.6581 480.973 67.6581ZM488.668 67.5195V59.4615H493.632V60.3043H489.638V63.0172H493.494V63.86H489.638V66.6768H493.632V67.5195H488.668Z" fill="white"/>
<path d="M314.32 383.256L314.32 300.726" stroke="url(#paint1_linear_1131_364)" stroke-width="0.962035"/>
<circle r="29.519" transform="matrix(-1 0 0 1 315 271)" fill="#1B142D" stroke="white" stroke-width="0.962035"/>
<path fill-rule="evenodd" clip-rule="evenodd" d="M329.053 270.773C329.053 278.762 322.568 285.238 314.569 285.238C306.57 285.238 300.085 278.762 300.085 270.773C300.085 262.784 306.57 256.308 314.569 256.308C322.568 256.308 329.053 262.784 329.053 270.773ZM321.492 271.148C320.99 270.282 320.181 270.282 319.679 271.148L316.497 276.626C316.007 277.492 316.417 278.198 317.409 278.198H323.705C324.708 278.198 325.119 277.492 324.617 276.626L321.492 271.148ZM315.436 260.601C314.935 259.735 314.136 259.735 313.634 260.601L304.522 276.626C304.02 277.503 304.431 278.198 305.435 278.198H310.008C310.932 278.141 311.764 277.651 312.266 276.877L317.774 267.343C318.174 266.523 318.174 265.555 317.774 264.735L316.132 261.853L315.436 260.601Z" fill="white"/>
<path d="M409.86 320.327L409.86 174.574" stroke="url(#paint2_linear_1131_364)" stroke-width="0.962035"/>
<circle r="25.7483" transform="matrix(-1 0 0 1 409.673 148.88)" fill="#141127" stroke="white" stroke-width="0.962035"/>
<path d="M401.481 158.338C402.123 158.667 402.765 158.994 403.404 159.326C405.364 160.343 407.322 161.362 409.281 162.381C409.543 162.517 409.805 162.512 410.067 162.375C411.458 161.651 412.85 160.926 414.242 160.203C415.461 159.57 416.678 158.935 417.899 158.308C418.243 158.131 418.416 157.878 418.416 157.495C418.412 151.838 418.411 146.181 418.414 140.524C418.414 140.138 418.254 139.876 417.91 139.683C415.397 138.272 412.887 136.856 410.378 135.438C410.171 135.321 409.96 135.263 409.723 135.283C409.614 135.332 409.505 135.378 409.398 135.43C409.123 135.565 408.849 135.701 408.574 135.837C407.429 136.429 406.284 137.021 405.139 137.612C404.436 137.975 403.732 138.334 403.029 138.696C402.522 138.956 402.016 139.221 401.506 139.478C401.34 139.561 401.193 139.665 401.06 139.791C400.97 139.977 400.93 140.17 400.93 140.378C400.932 145.904 400.931 151.429 400.931 156.955C400.931 157.17 400.931 157.386 400.933 157.601C400.937 157.876 401.072 158.08 401.305 158.229C401.364 158.266 401.423 158.302 401.481 158.338V158.338ZM415.725 157.713L415.722 157.723L415.711 157.72C415.687 157.73 415.663 157.74 415.638 157.75C415.289 157.959 414.923 158.139 414.558 158.319C414.503 158.349 414.449 158.382 414.393 158.411C412.884 159.196 411.374 159.979 409.868 160.77C409.719 160.848 409.611 160.842 409.467 160.766C407.905 159.947 406.339 159.134 404.774 158.32L404.757 158.318L404.751 158.302L404.741 158.294C404.172 158.014 403.605 157.728 403.054 157.415C403.001 157.416 402.986 157.382 402.977 157.34C402.616 157.291 402.49 157.155 402.49 156.816C402.49 154.647 402.489 152.478 402.489 150.309C402.489 150.246 402.495 150.182 402.499 150.104C402.687 150.193 402.859 150.255 403.011 150.358C403.052 150.374 403.094 150.387 403.133 150.406C404.155 150.895 405.174 151.39 406.199 151.873C406.868 152.188 407.53 152.516 408.204 152.823C408.551 152.981 408.899 153.153 409.237 153.335C409.529 153.491 409.816 153.49 410.109 153.327C410.567 153.073 411.03 152.827 411.492 152.579C412.32 152.133 413.149 151.688 413.978 151.243C414.313 151.043 414.656 150.854 415.01 150.686C415.256 150.539 415.502 150.389 415.77 150.279C416.104 150.057 416.47 149.89 416.849 149.678C416.849 149.783 416.849 149.854 416.849 149.926C416.849 151.995 416.849 154.064 416.849 156.132C416.849 156.428 416.85 156.724 416.847 157.019C416.847 157.07 416.868 157.126 416.795 157.161C416.454 157.327 416.133 157.53 415.78 157.673L415.781 157.672L415.744 157.702C415.741 157.711 415.735 157.714 415.726 157.711L415.725 157.713ZM403.392 140.235C403.471 140.189 403.512 140.161 403.556 140.138C404.169 139.823 404.782 139.507 405.395 139.193C406.784 138.479 408.181 137.778 409.558 137.042C409.843 136.889 410.022 136.969 410.238 137.102C410.27 137.121 410.301 137.144 410.334 137.162C412.04 138.124 413.747 139.085 415.453 140.047C415.643 140.153 415.829 140.264 416.031 140.382C415.978 140.416 415.953 140.435 415.925 140.449C413.984 141.484 412.041 142.517 410.101 143.553C410.003 143.606 409.927 143.593 409.836 143.546C408.16 142.685 406.483 141.825 404.806 140.964C404.346 140.728 403.887 140.49 403.393 140.235H403.392ZM402.504 147.597V141.49C404.456 142.49 406.385 143.48 408.346 144.485C406.378 145.533 404.453 146.559 402.504 147.597ZM416 148.41C414.141 149.415 412.311 150.405 410.463 151.405V145.57C412.314 146.52 414.141 147.457 416 148.41ZM408.884 145.92C408.884 146.019 408.884 146.081 408.884 146.142C408.884 147.095 408.874 148.049 408.886 149.002C408.896 149.794 408.84 150.586 408.916 151.377C408.926 151.476 408.873 151.477 408.8 151.442C408.68 151.384 408.56 151.327 408.44 151.27C407.154 150.654 405.868 150.039 404.584 149.422C404.199 149.238 403.818 149.047 403.398 148.841C405.239 147.86 407.046 146.899 408.884 145.92V145.92ZM411.634 144.462C411.71 144.418 411.757 144.389 411.807 144.363C412.4 144.046 412.994 143.73 413.588 143.414C414.615 142.868 415.643 142.325 416.667 141.775C416.815 141.695 416.852 141.704 416.852 141.875C416.847 143.566 416.848 145.258 416.852 146.95C416.852 147.106 416.824 147.127 416.677 147.05C415.942 146.666 415.203 146.294 414.466 145.916C413.532 145.437 412.599 144.957 411.634 144.461V144.462Z" fill="white"/>
<circle r="32.9359" transform="matrix(-1 0 0 1 353.886 191.26)" fill="#1B142D" stroke="white" stroke-width="0.962035"/>
<path d="M362.48 185.575C361.87 185.228 361.084 185.228 360.386 185.575L355.5 188.439L352.185 190.261L347.386 193.124C346.775 193.471 345.99 193.471 345.292 193.124L341.54 190.868C340.93 190.521 340.493 189.827 340.493 189.046V184.708C340.493 184.014 340.842 183.32 341.54 182.886L345.292 180.717C345.903 180.37 346.688 180.37 347.386 180.717L351.138 182.973C351.749 183.32 352.185 184.014 352.185 184.795V187.658L355.5 185.749V182.799C355.5 182.105 355.151 181.411 354.453 180.977L347.473 176.899C346.863 176.552 346.077 176.552 345.379 176.899L338.225 181.064C337.527 181.411 337.178 182.105 337.178 182.799V190.955C337.178 191.649 337.527 192.343 338.225 192.777L345.292 196.855C345.903 197.202 346.688 197.202 347.386 196.855L352.185 194.078L355.5 192.17L360.299 189.393C360.91 189.046 361.695 189.046 362.393 189.393L366.145 191.562C366.756 191.909 367.192 192.603 367.192 193.384V197.723C367.192 198.417 366.843 199.111 366.145 199.545L362.48 201.714C361.87 202.061 361.084 202.061 360.386 201.714L356.635 199.545C356.024 199.198 355.588 198.503 355.588 197.723V194.946L352.272 196.855V199.718C352.272 200.412 352.621 201.106 353.319 201.54L360.386 205.618C360.997 205.965 361.782 205.965 362.48 205.618L369.548 201.54C370.158 201.193 370.595 200.499 370.595 199.718V191.475C370.595 190.781 370.246 190.087 369.548 189.653L362.48 185.575Z" fill="white"/>
<path d="M353.809 316.207L353.809 224.522" stroke="url(#paint3_linear_1131_364)" stroke-width="0.962035"/>
<circle r="42.3561" transform="matrix(-1 0 0 1 443.837 279.837)" fill="#141328" stroke="white" stroke-width="0.962035"/>
<path d="M443.925 256.581L444.239 257.641V288.376L443.925 288.688L429.549 280.254L443.925 256.581Z" fill="#CFCFCF"/>
<path d="M443.927 256.581L458.305 280.254L443.927 288.688V256.581Z" fill="white"/>
<path d="M443.927 291.393L444.104 291.607V302.556L443.927 303.069L429.541 282.964L443.927 291.393Z" fill="#D2D2D2"/>
<path d="M443.927 303.065V291.392L458.305 282.96L443.927 303.065Z" fill="white"/>
<path d="M443.925 288.689L429.548 280.256L443.925 273.771V288.689Z" fill="#ADADAD"/>
<path d="M458.305 280.256L443.927 288.689V273.771L458.305 280.256Z" fill="#D9D9D9"/>
<path d="M444.187 403.916L444.188 321.041" stroke="url(#paint4_linear_1131_364)" stroke-width="0.962035"/>
<path d="M588.231 379.814L588.231 294.965" stroke="url(#paint5_linear_1131_364)" stroke-width="0.962035"/>
<circle r="28.7588" transform="matrix(-1 0 0 1 587.718 265.801)" fill="#111024" stroke="white" stroke-width="0.962035"/>
<path d="M587.731 254.569C586.672 254.569 585.702 255.16 585.234 256.108L577.385 271.81C576.694 273.192 577.252 274.865 578.634 275.556C579.024 275.746 579.448 275.846 579.883 275.846H595.58C597.118 275.846 598.367 274.597 598.367 273.059C598.367 272.624 598.267 272.2 598.077 271.81L590.228 256.119C589.76 255.172 588.79 254.569 587.731 254.569ZM587.731 252.651C589.515 252.651 591.143 253.655 591.945 255.25L599.794 270.951C600.953 273.282 600.017 276.103 597.687 277.274C597.029 277.597 596.316 277.776 595.58 277.776H579.883C577.285 277.776 575.167 275.668 575.167 273.07C575.167 272.334 575.334 271.62 575.668 270.962L583.517 255.261C584.32 253.666 585.947 252.651 587.731 252.651Z" fill="white"/>
<path d="M196.943 376.965L196.943 283.884" stroke="url(#paint6_linear_1131_364)" stroke-width="0.962035"/>
<circle r="39.3128" transform="matrix(-1 0 0 1 197.794 245.794)" fill="#141127" stroke="white" stroke-width="0.962035"/>
<path d="M208.128 246.416L212.235 250.528L216.354 246.416L212.246 242.315L208.128 246.416ZM198.146 236.438L191.099 243.483L186.987 239.378L198.146 228.215L209.313 239.378L205.199 243.483L198.146 236.438ZM184.047 242.315L188.156 246.416L184.048 250.522L179.939 246.416L184.047 242.315ZM198.146 256.403L205.187 249.358L209.296 253.466L198.142 264.629L186.987 253.466L191.094 249.358L198.146 256.403ZM198.146 250.528L194.033 246.416L198.146 242.315L202.26 246.416L198.146 250.528Z" fill="white"/>
<path d="M261.598 340.285L261.598 218.551" stroke="url(#paint7_linear_1131_364)" stroke-width="0.962035"/>
<circle r="35.8684" transform="matrix(-1 0 0 1 261.428 183.078)" fill="#1B142E" stroke="white" stroke-width="0.962035"/>
<path fill-rule="evenodd" clip-rule="evenodd" d="M274.905 173.827C272.445 170.682 268.843 168.678 264.861 168.678C257.151 168.678 251.495 175.856 251.495 183.616C251.495 189.019 255.097 193.077 259.079 193.077C259.459 193.077 259.814 193.051 260.195 192.975C257.506 191.022 255.807 187.472 255.807 183.616C255.807 177.479 259.966 172.685 264.861 172.685C270.213 172.685 273.916 177.986 273.916 183.616C273.89 187.776 272.419 191.91 269.807 194.953C267.524 197.616 264.582 199.29 261.336 199.823C261.336 199.823 261.615 199.848 261.97 199.848C270.923 199.848 278.202 192.569 278.202 183.616C278.202 179.939 276.984 176.54 274.905 173.827ZM272.445 183.616C272.445 178.214 268.843 174.156 264.861 174.156C264.481 174.156 264.126 174.182 263.745 174.258C266.434 176.211 268.133 179.761 268.133 183.616C268.133 189.754 263.974 194.548 259.079 194.548C253.727 194.548 250.024 189.247 250.024 183.616C250.05 179.457 251.521 175.323 254.133 172.28C256.416 169.617 259.358 167.943 262.604 167.41C262.604 167.41 262.325 167.385 261.97 167.385C253.017 167.385 245.738 174.664 245.738 183.616C245.738 187.294 246.956 190.693 249.035 193.406C251.495 196.551 255.097 198.529 259.079 198.529C266.789 198.555 272.445 191.377 272.445 183.616Z" fill="white"/>
<defs>
<linearGradient id="paint0_linear_1131_364" x1="516.635" y1="242.275" x2="516.635" y2="368.068" gradientUnits="userSpaceOnUse">
<stop stop-color="white"/>
<stop offset="1" stop-color="white" stop-opacity="0"/>
</linearGradient>
<linearGradient id="paint1_linear_1131_364" x1="314.82" y1="300.726" x2="314.82" y2="383.256" gradientUnits="userSpaceOnUse">
<stop stop-color="white"/>
<stop offset="1" stop-color="white" stop-opacity="0"/>
</linearGradient>
<linearGradient id="paint2_linear_1131_364" x1="410.36" y1="174.574" x2="410.36" y2="320.327" gradientUnits="userSpaceOnUse">
<stop stop-color="white"/>
<stop offset="1" stop-color="white" stop-opacity="0"/>
</linearGradient>
<linearGradient id="paint3_linear_1131_364" x1="354.309" y1="224.522" x2="354.309" y2="316.207" gradientUnits="userSpaceOnUse">
<stop stop-color="white"/>
<stop offset="1" stop-color="white" stop-opacity="0"/>
</linearGradient>
<linearGradient id="paint4_linear_1131_364" x1="444.688" y1="321.041" x2="444.687" y2="403.916" gradientUnits="userSpaceOnUse">
<stop stop-color="white"/>
<stop offset="1" stop-color="white" stop-opacity="0"/>
</linearGradient>
<linearGradient id="paint5_linear_1131_364" x1="588.731" y1="294.965" x2="588.731" y2="379.814" gradientUnits="userSpaceOnUse">
<stop stop-color="white"/>
<stop offset="1" stop-color="white" stop-opacity="0"/>
</linearGradient>
<linearGradient id="paint6_linear_1131_364" x1="197.443" y1="283.884" x2="197.443" y2="376.965" gradientUnits="userSpaceOnUse">
<stop stop-color="white"/>
<stop offset="1" stop-color="white" stop-opacity="0"/>
</linearGradient>
<linearGradient id="paint7_linear_1131_364" x1="262.098" y1="218.551" x2="262.098" y2="340.285" gradientUnits="userSpaceOnUse">
<stop stop-color="white"/>
<stop offset="1" stop-color="white" stop-opacity="0"/>
</linearGradient>
</defs>
</svg>
