<svg width="99" height="65" viewBox="0 0 99 65" fill="none" xmlns="http://www.w3.org/2000/svg">
<path d="M5.4531e-05 18.3574C0.0105596 19.0864 0.129282 19.8058 0.349696 20.4762C0.569914 21.1435 0.860082 21.7679 1.21195 22.3318C1.56172 22.8964 1.94944 23.4193 2.37051 23.8946C2.58056 24.1334 2.79653 24.3628 3.01843 24.5828L3.70093 25.2146C4.6248 26.0312 5.59484 26.7559 6.60276 27.3823L6.97907 27.6211C7.10352 27.7033 7.22994 27.7816 7.35834 27.8522L8.12577 28.2901C8.25417 28.362 8.38159 28.4378 8.51097 28.5071L8.90111 28.7075L9.6804 29.1068C11.7752 30.1289 13.9115 31.0013 16.0796 31.72C18.2466 32.4481 20.4373 33.0555 22.6389 33.5807C23.7382 33.8542 24.8444 34.0854 25.9486 34.3217L27.6099 34.6427C27.8865 34.6979 28.164 34.7467 28.4416 34.7929L29.2742 34.9354L30.1068 35.0767L30.9414 35.2051C31.4975 35.286 32.0535 35.3747 32.6106 35.4504C33.7257 35.5904 34.8388 35.7457 35.9549 35.8639C37.071 35.982 38.1891 36.0911 39.3061 36.199L40.9852 36.3274L41.8247 36.3904L42.6643 36.4379L44.3434 36.538L46.0224 36.6074L46.8629 36.6421L47.7035 36.6613L49.3825 36.7063L47.7035 36.7191H46.862L46.0214 36.7063L44.3424 36.6806L42.6633 36.6228L41.8228 36.5894L40.9822 36.5406L39.3032 36.4392C38.1831 36.3493 37.0631 36.2761 35.945 36.1567C33.7069 35.9525 31.4748 35.643 29.2485 35.2822L28.4129 35.1447C28.1354 35.0998 27.8568 35.0523 27.5793 34.9984L25.9131 34.6863C24.8059 34.4539 23.6967 34.2305 22.5934 33.9583C20.3869 33.4215 18.1923 32.8025 16.0194 32.059C13.8426 31.3332 11.7011 30.4392 9.60632 29.3816L8.82605 28.9682L8.43591 28.7601C8.30751 28.6882 8.1801 28.6112 8.0517 28.5354L7.28327 28.0834C7.15487 28.0115 7.02845 27.9293 6.904 27.8458L6.52769 27.5993C5.5179 26.953 4.54777 26.2069 3.62586 25.3675L2.94732 24.7138C2.72805 24.4865 2.51273 24.249 2.30433 24.0024C1.88565 23.5121 1.50155 22.974 1.15664 22.3947C0.809693 21.8164 0.526463 21.178 0.315128 20.498C0.104244 19.8178 -0.00277115 19.0908 5.4531e-05 18.3574Z" fill="url(#paint0_linear_2437_624)"/>
<path d="M0.0644531 17.4131C0.141089 18.1698 0.331727 18.8994 0.62546 19.5602C0.910817 20.2239 1.24596 20.8493 1.62599 21.4273C1.81812 21.7135 2.02222 21.9857 2.23737 22.2427L2.87838 23.0222C3.31099 23.5358 3.78113 23.9878 4.24337 24.4591C4.47547 24.6902 4.70363 24.9342 4.93475 25.159C5.16587 25.3837 5.41082 25.5929 5.65873 25.792C5.90664 25.991 6.16541 26.1772 6.41826 26.3634C6.67111 26.5496 6.92494 26.7487 7.18174 26.9233C7.69534 27.279 8.23067 27.5847 8.76205 27.898L9.56504 28.3679C9.82974 28.5272 10.0964 28.6787 10.367 28.8225C10.6377 28.9663 10.9073 29.1076 11.1839 29.2322L12.0125 29.6059C12.5607 29.8627 13.1227 30.0823 13.6817 30.307C14.2408 30.5317 14.8057 30.7372 15.3687 30.949L17.0606 31.5718C17.6236 31.7837 18.1905 31.9738 18.7565 32.1664L19.6069 32.4553L20.4622 32.7121L21.3176 32.969L21.5309 33.0332L21.7462 33.0845L22.1778 33.1885C22.7537 33.3247 23.3245 33.471 23.9043 33.5982L25.6387 33.9963C26.2155 34.1247 26.7923 34.2595 27.3701 34.3686C27.9479 34.4778 28.5316 34.5664 29.1114 34.6653L29.9835 34.8117C30.2752 34.8579 30.566 34.9007 30.8557 34.9401C31.1461 34.9773 31.4374 35.0095 31.7278 35.0352C32.0182 35.0608 32.3105 35.0737 32.6039 35.1058L34.3639 35.2675C35.5344 35.3844 36.6979 35.5244 37.8693 35.6464C38.454 35.708 39.0397 35.7748 39.6244 35.8338L41.3765 35.9944C42.546 36.0958 43.7203 36.151 44.8907 36.2422L46.6469 36.3783L48.404 36.499L49.283 36.5594C49.5793 36.5773 49.8687 36.5864 50.162 36.6005L51.9201 36.6839C49.5734 36.6737 47.2276 36.5555 44.8838 36.4271L43.1257 36.3346L42.2467 36.2897L41.8072 36.2666L41.3677 36.2332L39.6086 36.0984C39.0219 36.0522 38.4382 35.9905 37.8535 35.9379L34.3432 35.5963L32.594 35.4409C32.3036 35.4114 32.0083 35.3985 31.714 35.3741C31.4196 35.3497 31.1214 35.3189 30.833 35.2829C30.5445 35.247 30.2473 35.2072 29.9549 35.1623L29.0818 35.0197C28.499 34.9221 27.9183 34.8335 27.3336 34.7295C26.7489 34.6255 26.1701 34.4958 25.5913 34.3648L23.8599 33.9796C23.2831 33.8512 22.7033 33.6984 22.1255 33.5584L21.6909 33.4518L21.4746 33.3992L21.2593 33.3337L20.401 33.0769L19.5427 32.82L18.6903 32.526C18.1224 32.3295 17.5535 32.1407 16.9905 31.9212L15.2986 31.2893C14.7356 31.0749 14.1696 30.8733 13.6096 30.6383C13.0496 30.4033 12.4846 30.194 11.9306 29.9217L11.0999 29.5365C10.8234 29.4081 10.5508 29.2591 10.2791 29.1115C10.0075 28.9638 9.73887 28.8046 9.4722 28.6389L8.67513 28.1586C8.14375 27.8376 7.60744 27.5166 7.08791 27.1532C6.82815 26.9695 6.57826 26.7679 6.32344 26.5779C6.06862 26.3878 5.81577 26.1926 5.56588 25.9923C5.316 25.792 5.07204 25.5699 4.83598 25.3375C4.59992 25.105 4.37572 24.8597 4.1446 24.6222C3.69026 24.1406 3.22605 23.6706 2.79541 23.1454L2.16329 22.3467C1.94975 22.0828 1.74794 21.8032 1.55883 21.5095C1.18412 20.9186 0.855573 20.2806 0.578053 19.6051C0.297417 18.9256 0.12287 18.1806 0.0644531 17.4131Z" fill="url(#paint1_linear_2437_624)"/>
<path d="M0.254883 16.4814C0.399085 17.2609 0.70132 17.971 1.05096 18.6221C1.13854 18.7847 1.22841 18.9461 1.3206 19.1062L1.60703 19.5749C1.79864 19.8856 1.98531 20.2041 2.18878 20.5007C2.58385 21.1043 3.04115 21.6449 3.4787 22.2035C3.69896 22.4796 3.93106 22.7416 4.15724 23.0112C4.38342 23.2809 4.61158 23.5479 4.84073 23.8125L5.52717 24.6138C5.75434 24.8822 5.98249 25.1428 6.21855 25.3907C6.69592 25.8867 7.19523 26.3459 7.71391 26.766C7.84561 26.8713 7.9773 26.9748 8.10899 27.0767C8.24134 27.1769 8.37665 27.2706 8.50999 27.3682L9.31298 27.9474C9.57768 28.1464 9.85621 28.3172 10.1278 28.5021L10.9476 29.0466C11.4936 29.4051 12.0541 29.7248 12.6267 30.0045C13.1976 30.2858 13.7754 30.5464 14.363 30.775C14.9507 31.0036 15.5364 31.2334 16.1271 31.4492L17.9049 32.099C18.4975 32.3173 19.0852 32.5432 19.6768 32.7551L21.4546 33.3843L23.2434 33.9249C23.836 34.1034 24.4424 34.237 25.0459 34.3577C25.6494 34.4784 26.2617 34.5696 26.8692 34.6775L27.7828 34.8341L28.6964 34.9741L29.61 35.1153L30.0663 35.1847L30.5236 35.2425C31.134 35.3157 31.7444 35.3709 32.3558 35.4107C32.9672 35.4505 33.5785 35.4634 34.1899 35.4505L35.1104 35.4197C35.4186 35.412 35.7268 35.4107 36.0349 35.412C36.3431 35.4132 36.6512 35.4184 36.9584 35.4261L37.8809 35.4685C38.4953 35.5018 39.1106 35.525 39.7239 35.5648L41.564 35.6842C42.1783 35.7266 42.7907 35.7484 43.4041 35.7805C44.0174 35.8126 44.6308 35.8408 45.2461 35.8781C45.8614 35.9153 46.4748 35.941 47.0891 35.9886C49.5416 36.2107 51.9891 36.4714 54.4445 36.6088C51.9871 36.5587 49.5337 36.3352 47.0802 36.1773C46.4679 36.1413 45.8545 36.1221 45.2412 36.0938C44.6278 36.0656 44.0145 36.0438 43.3991 36.0245C42.7838 36.0052 42.1695 35.9873 41.5551 35.9539L39.7141 35.8614C39.0997 35.8306 38.4874 35.8152 37.874 35.7908L36.9535 35.7548C36.6473 35.748 36.3411 35.7445 36.0349 35.7445C35.7287 35.7445 35.4226 35.7488 35.1164 35.7574L34.1949 35.7921C33.5775 35.8088 32.9602 35.7921 32.3439 35.7613C31.7276 35.7305 31.1123 35.6714 30.4989 35.5994L30.0396 35.5443L29.5804 35.4762L28.6638 35.34L27.7462 35.2039L26.8326 35.0511C26.2232 34.9458 25.6148 34.8547 25.0024 34.7378C24.3901 34.6209 23.7836 34.481 23.1831 34.2922L21.3835 33.74L19.6057 33.098C19.0131 32.8822 18.4254 32.6537 17.8358 32.4328L16.0638 31.774C15.4712 31.5557 14.8836 31.3169 14.2939 31.0896C13.108 30.6349 11.957 30.0382 10.8558 29.3072L10.0389 28.75C9.76831 28.5612 9.49175 28.3866 9.22607 28.1824L8.42307 27.5878C8.28974 27.4877 8.15442 27.3914 8.02207 27.2886C7.88972 27.1859 7.75935 27.078 7.627 26.9689C7.10571 26.5373 6.60472 26.0656 6.1267 25.5563C5.88768 25.2995 5.65656 25.0324 5.43531 24.7602L4.75776 23.9499C4.53191 23.6785 4.30737 23.4054 4.08416 23.1306C3.86094 22.8545 3.63377 22.5875 3.41549 22.305C2.98387 21.7335 2.53743 21.1813 2.14335 20.5637C1.94581 20.2606 1.76012 19.9383 1.57246 19.6211L1.29196 19.1447C1.20208 18.9829 1.11319 18.8185 1.02824 18.6516C0.674651 17.9903 0.38427 17.266 0.254883 16.4814Z" fill="url(#paint2_linear_2437_624)"/>
<path d="M0.569336 15.5635C0.683686 15.9555 0.835322 16.3274 1.02071 16.6704C1.19849 17.0184 1.36838 17.3741 1.57085 17.6977C1.77333 18.0213 1.97877 18.3398 2.18915 18.6608C2.39953 18.9818 2.60595 19.3028 2.82324 19.6071L3.46623 20.542C3.68648 20.8476 3.91168 21.1455 4.13391 21.4473L4.46873 21.8993L4.80949 22.3436L5.49297 23.2322L6.86092 25.0043C7.31789 25.5882 7.79659 26.1421 8.29702 26.666C8.79745 27.1899 9.31368 27.6843 9.84571 28.1491C10.1114 28.3828 10.381 28.6088 10.6527 28.831C10.789 28.9414 10.9253 29.0506 11.0635 29.1572L11.4813 29.4679L12.3179 30.0882C12.5954 30.2988 12.8769 30.494 13.1653 30.6737C13.4537 30.8535 13.7431 31.0281 14.0385 31.1874C14.1846 31.2708 14.3348 31.3453 14.4849 31.4198L14.9343 31.6445L15.8331 32.094C16.1294 32.2429 16.4356 32.3752 16.7408 32.5023C17.046 32.6294 17.3522 32.7501 17.6613 32.8657L18.5907 33.2047C19.211 33.4299 19.8303 33.6584 20.4486 33.8904C21.0678 34.1216 21.6861 34.3578 22.3074 34.5646C22.6175 34.6686 22.9286 34.7675 23.2417 34.8587C23.5548 34.9498 23.8709 35.0282 24.185 35.1155L25.1292 35.3723L25.6013 35.5007L26.0754 35.6112C26.7066 35.7525 27.3397 35.8757 27.9777 35.9515L29.8988 36.1697L30.1388 36.1967L30.3798 36.2121L30.8608 36.2442L31.8228 36.3084C32.4648 36.3611 33.1068 36.3765 33.7488 36.374C34.3908 36.3714 35.0328 36.347 35.6718 36.2982C35.9918 36.2738 36.3118 36.2443 36.6309 36.2057L37.5919 36.0773C38.2345 35.9977 38.8785 35.9365 39.5238 35.8937L41.4577 35.8128L41.9417 35.7922C42.1027 35.7858 42.2637 35.7922 42.4247 35.7858L43.3916 35.7768C44.0366 35.7704 44.6756 35.764 45.3245 35.7691L47.2574 35.7755C47.9034 35.7845 48.5483 35.8154 49.1913 35.8577C51.7642 36.0401 54.3352 36.2815 56.9062 36.4908L54.9752 36.3881C54.3312 36.3534 53.6912 36.3059 53.0453 36.2597L52.0813 36.1967L51.1153 36.1428L49.1854 36.0401C48.5424 36.0093 47.9014 35.9849 47.2564 35.9862L45.3255 36.0054C44.6815 36.0054 44.0415 36.0247 43.3946 36.0401L42.4296 36.0619C42.2686 36.0619 42.1076 36.0619 41.9466 36.0748L41.4646 36.1017L39.5376 36.2096C38.8966 36.2584 38.2536 36.32 37.6166 36.4022L36.6556 36.5306C36.3326 36.5704 36.0106 36.6025 35.6876 36.6282C35.0423 36.6804 34.3964 36.7086 33.7498 36.7129C33.1038 36.7129 32.4569 36.7129 31.8129 36.6564L30.845 36.5961L30.361 36.5666L30.12 36.5512L29.878 36.5254L27.952 36.3225C27.3071 36.2481 26.668 36.1287 26.027 35.9862L25.55 35.8719L25.0769 35.7434L24.1287 35.4866C23.8126 35.3993 23.4976 35.3197 23.1815 35.2298C22.8654 35.1399 22.5514 35.0346 22.2392 34.9293C21.613 34.7174 20.9948 34.4786 20.3765 34.2449C19.7582 34.0112 19.1399 33.7774 18.5196 33.5501L17.5902 33.206C17.2801 33.0892 16.9709 32.9671 16.6627 32.8362C16.3546 32.7052 16.0474 32.5704 15.7462 32.4188L14.8424 31.9617L14.3911 31.7344C14.2409 31.6586 14.0898 31.5829 13.9417 31.4981C13.6454 31.3312 13.349 31.1566 13.0587 30.9678C12.7683 30.779 12.4819 30.5825 12.2053 30.3617L11.3687 29.7196L10.95 29.4025C10.8127 29.2933 10.6764 29.1803 10.5401 29.0673C10.2675 28.8413 9.99815 28.6089 9.73213 28.37C9.19977 27.8923 8.68123 27.3876 8.18245 26.8521C7.68366 26.3167 7.20365 25.7517 6.74733 25.1558L5.39222 23.3581L4.72158 22.4592L4.38577 22.0072L4.05687 21.5462C3.8376 21.238 3.61636 20.9336 3.39907 20.6242L2.76695 19.6727C2.55361 19.3581 2.35113 19.0306 2.1447 18.7108C1.93827 18.3911 1.73086 18.0688 1.53826 17.7311C1.34566 17.3933 1.17677 17.0364 1.00392 16.6819C0.82397 16.334 0.677989 15.9583 0.569336 15.5635Z" fill="url(#paint3_linear_2437_624)"/>
<path d="M1.00391 14.6611C1.08095 14.8563 1.1649 15.0464 1.25379 15.2326C1.29857 15.3259 1.344 15.4184 1.39009 15.51C1.4375 15.6012 1.48886 15.6885 1.53726 15.7783L1.83356 16.3126C1.88295 16.4012 1.93233 16.4923 1.98271 16.5783L2.14172 16.8352L2.45877 17.3488C2.56446 17.5196 2.66915 17.693 2.78076 17.8625L3.4435 18.8589C4.34229 20.1674 5.26085 21.4541 6.18928 22.7293L7.57698 24.6491C8.0402 25.2911 8.49652 25.9332 8.98147 26.5393C9.94661 27.7588 10.9821 28.8806 12.0789 29.8947C13.1763 30.907 14.3272 31.8175 15.5229 32.6196C16.7187 33.4211 17.9533 34.1207 19.2189 34.714C19.8523 35.0119 20.4913 35.2855 21.136 35.5346C21.297 35.5962 21.458 35.6629 21.6209 35.7156L22.1098 35.8787L23.0877 36.2036L23.5766 36.3654L24.0704 36.4938L25.0581 36.7506C25.7159 36.9432 26.3846 37.046 27.0493 37.1821C27.3831 37.2463 27.715 37.3195 28.0478 37.3773C28.3807 37.4351 28.7165 37.4813 29.0513 37.525C29.721 37.6106 30.3919 37.6803 31.0642 37.7343C32.4085 37.8331 33.7567 37.8524 35.1009 37.7792C36.446 37.7084 37.7869 37.5369 39.1169 37.2656C39.4497 37.1988 39.7786 37.1192 40.1134 37.0434C40.4483 36.9677 40.7821 36.8996 41.1169 36.8354C41.4518 36.7712 41.7876 36.7134 42.1234 36.6594L43.1328 36.531L44.1432 36.4026L44.6479 36.3358L45.1536 36.296L47.1794 36.1329L49.2061 36.0546L49.7128 36.0354H50.2195H51.2338C53.9371 36.0444 56.6375 36.1638 59.3329 36.3461C56.6325 36.2472 53.9312 36.1689 51.2338 36.2177L50.2215 36.2383L49.7158 36.2472L49.2101 36.2729L47.1873 36.3782L45.1694 36.5657L44.6647 36.6132L44.162 36.6851L43.1624 36.82L42.158 36.9664C41.8241 37.0254 41.4906 37.0884 41.1574 37.1552C40.8246 37.2219 40.4927 37.2913 40.1609 37.367C39.829 37.4428 39.4961 37.525 39.1613 37.5943C37.8205 37.8726 36.4684 38.0496 35.1118 38.1246C33.7577 38.2043 32.4006 38.1901 31.0474 38.0964C30.3712 38.0501 29.696 37.983 29.0217 37.8948C28.6839 37.8511 28.3471 37.8036 28.0113 37.7497C27.6755 37.6958 27.3406 37.6213 27.0058 37.5571C26.3372 37.4171 25.6635 37.3118 25.0028 37.1153L24.0072 36.8495L23.5133 36.7211L23.0195 36.5567L22.0318 36.2254L21.538 36.0598C21.374 36.0007 21.212 35.9378 21.0501 35.8749C20.4002 35.618 19.7568 35.3393 19.1201 35.0389C16.5748 33.8279 14.1323 32.2138 11.9396 30.131C10.8424 29.0942 9.80759 27.9502 8.84419 26.7088C8.36022 26.0899 7.90588 25.4362 7.44759 24.7916L6.07668 22.8526C5.16405 21.5582 4.26427 20.2475 3.37732 18.9206L2.72644 17.91C2.6168 17.7431 2.51408 17.5684 2.41037 17.3964L2.09925 16.875L1.94517 16.6182C1.89381 16.5308 1.84641 16.4384 1.79998 16.3485L1.51257 15.8053C1.46516 15.7141 1.4138 15.6243 1.37034 15.5318C1.32688 15.4393 1.28145 15.3456 1.23898 15.2506C1.15897 15.0515 1.07798 14.8589 1.00391 14.6611Z" fill="url(#paint4_linear_2437_624)"/>
<path d="M1.55469 13.7734L1.86087 14.3384C1.95964 14.5272 2.06335 14.716 2.17397 14.897C2.39126 15.2605 2.60263 15.6303 2.82486 15.9885L3.48859 17.0685L4.16021 18.1395L4.49702 18.6749L4.8437 19.1975L5.53508 20.2441L6.94747 22.3115L9.793 26.4207C10.7475 27.777 11.7623 29.0595 12.8321 30.2615C13.9033 31.46 15.0297 32.5724 16.2051 33.5926C17.3692 34.6281 18.5907 35.55 19.8595 36.3508C21.1296 37.1499 22.4488 37.8096 23.8034 38.3232C25.164 38.8099 26.5506 39.1644 27.9517 39.384C29.3524 39.6164 30.763 39.7335 32.175 39.7345H32.7044L33.2348 39.7178L34.2956 39.6832C34.6492 39.6678 35.0028 39.6664 35.3564 39.642C35.71 39.6176 36.0616 39.5881 36.4132 39.5522C36.7648 39.5162 37.1164 39.4726 37.4671 39.4238C37.8177 39.375 38.1673 39.2954 38.518 39.2389L39.5689 39.0513L40.1003 38.9538L40.6227 38.8382C41.3191 38.6777 42.0055 38.4864 42.6969 38.2603C43.3883 38.0343 44.0856 37.8584 44.7839 37.6889L46.8827 37.2253C47.581 37.0661 48.2862 36.9351 48.9904 36.8221C49.6947 36.7091 50.4009 36.6218 51.1061 36.528L52.1649 36.3893C52.5175 36.3444 52.8721 36.3123 53.2257 36.2764C54.639 36.1107 56.0584 36.0478 57.4727 36.008C58.1819 36.008 58.891 36.008 59.6002 36.0157L61.7307 36.1287C58.8967 35.9916 56.0589 36.1035 53.2365 36.4638C52.8839 36.5088 52.5313 36.5422 52.1787 36.5922L51.1229 36.7438C50.4186 36.8452 49.7134 36.9389 49.0122 37.0635C48.3109 37.1881 47.6116 37.3203 46.9153 37.4911L44.8244 37.9804C44.133 38.1576 43.4416 38.3515 42.7502 38.5737C42.0588 38.7958 41.3675 39.0013 40.6652 39.1656L40.1398 39.2851L39.6123 39.3826L38.5565 39.5753C38.2049 39.6382 37.8542 39.7037 37.5007 39.7653C37.1471 39.8269 36.7925 39.8642 36.4379 39.9014C36.0833 39.9387 35.7287 39.9708 35.3732 39.9965C35.0176 40.0222 34.663 40.026 34.3084 40.0427L33.2437 40.0812L32.7104 40.1005H32.177C30.7527 40.1052 29.3295 39.9929 27.9161 39.7641C26.5014 39.5355 25.1016 39.171 23.7283 38.6738C22.363 38.1487 21.0336 37.4769 19.7539 36.6655C18.4736 35.8522 17.2415 34.9165 16.0678 33.8661C14.8839 32.8346 13.7535 31.703 12.684 30.4786C11.6172 29.2557 10.606 27.9531 9.65572 26.5774L6.8408 22.4297L5.4531 20.334L4.7706 19.272L4.42985 18.7404L4.09898 18.1985L3.44019 17.1134L2.7893 16.0193C2.573 15.6546 2.36756 15.2784 2.15619 14.9086C2.04853 14.725 1.95075 14.5323 1.85198 14.341L1.55469 13.7734Z" fill="url(#paint5_linear_2437_624)"/>
<path d="M2.2207 12.9023L3.64396 15.1457C4.1141 15.8995 4.58325 16.6533 5.04352 17.416L6.43814 19.6915L6.78778 20.2591L7.14433 20.8189L7.85646 21.94C8.80925 23.4304 9.76862 24.9145 10.7346 26.3921C11.6907 27.8804 12.6833 29.3225 13.7312 30.6965C14.7792 32.0705 15.8735 33.3828 17.0163 34.6194C18.1537 35.8633 19.3559 37.0033 20.6144 38.0313C21.8715 39.0566 23.2006 39.9244 24.584 40.6227C25.9696 41.3084 27.4102 41.7895 28.8784 42.0571C30.3468 42.3351 31.8307 42.4507 33.3141 42.4025C34.0569 42.3802 34.7977 42.3199 35.5365 42.2215C36.2752 42.123 37.0134 42.0057 37.7509 41.8696C39.2238 41.5922 40.6846 41.2305 42.1332 40.7845C42.8575 40.561 43.5766 40.3141 44.2903 40.0436C44.6479 39.9152 45.0015 39.7649 45.359 39.6249L46.4336 39.2127C49.3001 38.1207 52.2094 37.2283 55.149 36.5392C56.6194 36.2017 58.1033 35.9719 59.5936 35.8509C61.0834 35.7267 62.578 35.7362 64.0669 35.8792C61.0884 35.6944 58.1037 35.9785 55.1777 36.7254C52.2497 37.449 49.3534 38.374 46.5008 39.4965L45.4331 39.9203C45.0765 40.0641 44.72 40.2156 44.3624 40.353C43.6454 40.6304 42.9224 40.8795 42.1955 41.1081C40.7416 41.5639 39.2709 41.9312 37.7923 42.2163C37.0522 42.3584 36.3101 42.4791 35.5661 42.5784C34.822 42.6777 34.0743 42.7419 33.323 42.771C31.8231 42.8255 30.3223 42.7138 28.837 42.4372C27.3482 42.1605 25.8881 41.6669 24.4842 40.9656C23.0863 40.2541 21.7436 39.3713 20.4742 38.3293C19.2079 37.2879 17.9984 36.1342 16.8543 34.8763C15.7072 33.6281 14.6113 32.3023 13.5712 30.9044C12.5282 29.5125 11.5405 28.0499 10.5943 26.55C9.64813 25.0502 8.6871 23.5657 7.74682 22.0556L7.04655 20.9217L6.69691 20.3541L6.3532 19.7789L4.98426 17.4777C4.07756 15.938 3.14814 14.4266 2.2207 12.9023Z" fill="url(#paint6_linear_2437_624)"/>
<path d="M2.99609 12.0508C4.09934 13.5083 5.04851 15.1442 6.01447 16.7519C6.98043 18.3597 7.90096 20.0149 8.87087 21.6187C10.785 24.8534 12.7278 28.0651 14.7792 31.1495C15.2961 31.9149 15.8229 32.6669 16.3595 33.4057C16.9067 34.1351 17.4638 34.8516 18.0159 35.5759L18.4307 36.1165L18.8643 36.643C19.1507 36.991 19.4391 37.3338 19.7325 37.6703C20.3179 38.3457 20.9204 38.9938 21.54 39.6145C22.1596 40.2351 22.798 40.8206 23.4551 41.3711C24.1129 41.9207 24.7835 42.4433 25.4769 42.9043C26.8631 43.8349 28.3405 44.5153 29.8682 44.9268C30.6305 45.1334 31.4026 45.2737 32.1794 45.3467C32.9579 45.4122 33.7386 45.4251 34.5182 45.3853C35.2985 45.3493 36.0764 45.2667 36.8521 45.1374C37.6255 45.009 38.3939 44.8177 39.1594 44.6033C39.5413 44.4954 39.9225 44.3802 40.3031 44.2578L41.438 43.8598C42.1935 43.5914 42.9531 43.3461 43.6988 43.0277C44.4445 42.7092 45.1902 42.4048 45.924 42.0453C46.6579 41.6857 47.3996 41.3557 48.1345 40.9961C51.063 39.5322 54.0261 38.148 57.0484 37.0282L57.6143 36.8138C57.805 36.747 57.9956 36.6853 58.1862 36.6224C58.5681 36.4991 58.9517 36.3853 59.3369 36.2809C60.1063 36.0728 60.8826 35.8956 61.6609 35.7608C62.4393 35.6136 63.2234 35.524 64.0096 35.4924C64.7953 35.4656 65.5815 35.4986 66.3643 35.5913C64.7973 35.4462 63.2227 35.5371 61.6718 35.8622C60.8967 36.0155 60.1264 36.2025 59.3606 36.4234C58.9773 36.5347 58.5964 36.655 58.2178 36.7842C58.0282 36.8484 57.8392 36.9152 57.6509 36.9846L57.0889 37.2105C54.0794 38.3663 51.1321 39.7788 48.2125 41.2774C47.4797 41.6446 46.7399 41.9952 46.004 42.3547L45.4509 42.6219L44.8929 42.8722C44.5209 43.0366 44.1472 43.1963 43.7719 43.3513C43.0222 43.6684 42.2597 43.9227 41.5002 44.1949L40.3633 44.6045C39.9811 44.7329 39.5979 44.8459 39.2127 44.9551C38.4433 45.1747 37.6679 45.3699 36.8847 45.5034C36.1015 45.637 35.3133 45.7243 34.5251 45.7602C33.7351 45.8043 32.9439 45.7945 32.1547 45.7307C31.3647 45.6602 30.5793 45.5199 29.804 45.3108C28.2521 44.8868 26.7518 44.1899 25.3445 43.2395C24.6403 42.7683 23.9618 42.2366 23.302 41.6793C22.6422 41.122 21.9963 40.5236 21.3721 39.8995C20.7478 39.2754 20.1424 38.6154 19.5537 37.9335C19.26 37.5911 18.97 37.2453 18.6836 36.896L18.2559 36.3656L17.8411 35.8198C17.2889 35.0917 16.7299 34.3713 16.1847 33.6368C15.6395 32.9023 15.122 32.1267 14.6044 31.3537C13.596 29.7845 12.5866 28.2166 11.6245 26.6024L10.8966 25.3979L10.1786 24.1832L9.46052 22.9696L8.75235 21.7446C7.80219 20.1189 6.89845 18.4457 5.94928 16.8213C5.4831 16.0007 4.99715 15.1982 4.51911 14.3892L3.77736 13.2C3.65686 12.9984 3.52154 12.8148 3.39018 12.6247L2.99609 12.0508Z" fill="url(#paint7_linear_2437_624)"/>
<path d="M3.88086 11.2178C4.50903 11.9215 4.99398 12.8024 5.52734 13.6204C5.78216 14.0428 6.02711 14.4743 6.27798 14.9045C6.52885 15.3347 6.77676 15.7597 7.01875 16.195L9.93539 21.4008C11.8782 24.868 13.8457 28.3184 15.9524 31.6199C16.463 32.4623 17.0142 33.2597 17.5515 34.0726L18.3594 35.2899C18.629 35.6944 18.9086 36.0886 19.1871 36.4841C20.3032 38.0597 21.4588 39.5853 22.6815 41.0223C23.893 42.4694 25.1866 43.7958 26.5513 44.9902C27.9183 46.1652 29.381 47.1732 30.9426 47.8011C32.5041 48.4291 34.1555 48.6178 35.7892 48.5023C37.4228 48.3867 39.0485 47.9886 40.6348 47.4326C42.2226 46.8652 43.7854 46.1857 45.3164 45.3972L47.6059 44.1812C48.3654 43.7652 49.119 43.3273 49.8776 42.8971C52.8969 41.1661 55.8847 39.3247 58.9712 37.7799C59.3574 37.5872 59.7416 37.3946 60.1288 37.2033C60.516 37.0119 60.9091 36.8488 61.3022 36.6896C62.0923 36.3583 62.8825 36.0617 63.6904 35.8164C65.2974 35.331 66.9616 35.0459 68.6081 35.2655C67.7853 35.1816 66.9582 35.2043 66.1389 35.3336C65.3197 35.459 64.5078 35.6537 63.7082 35.9166C62.9081 36.1734 62.119 36.4842 61.3377 36.827C60.9472 36.9983 60.5588 37.178 60.1722 37.3663C59.788 37.559 59.4068 37.7631 59.0236 37.9609C55.9558 39.5378 52.9809 41.4062 49.9704 43.1719C49.2148 43.6072 48.4632 44.0527 47.7036 44.4778L45.4112 45.708C43.8726 46.506 42.3019 47.1949 40.7059 47.7716C39.1068 48.3328 37.4682 48.7475 35.805 48.8695C34.1417 48.9915 32.4567 48.8092 30.8566 48.1684C29.2566 47.5276 27.777 46.4901 26.3952 45.2971C25.022 44.0875 23.7206 42.7457 22.5018 41.2829C21.277 39.8319 20.1165 38.2948 18.9994 36.7102C18.7209 36.3121 18.4414 35.9153 18.1707 35.5095L17.3658 34.2844C16.8314 33.4626 16.2843 32.6575 15.7776 31.8087C13.6876 28.4764 11.7389 25.0028 9.81885 21.5113L6.95455 16.2567C6.71652 15.8175 6.47255 15.3847 6.22761 14.9533C5.98266 14.5218 5.74068 14.0865 5.49178 13.6589C4.97127 12.8267 4.49915 11.9356 3.88086 11.2178Z" fill="url(#paint8_linear_2437_624)"/>
<path d="M4.87012 10.4053C5.20971 10.7567 5.51931 11.1544 5.79361 11.5918C6.07707 12.0194 6.34671 12.4599 6.61438 12.9042C6.75068 13.1238 6.87612 13.3536 7.00452 13.5809L7.38873 14.264C7.64256 14.7212 7.90529 15.1719 8.15221 15.6342L11.137 21.1752L12.6264 23.9476L14.1337 26.7033C14.2601 26.9319 14.3835 27.1631 14.5119 27.3904L14.8981 28.0697L15.6705 29.4295C15.9293 29.8815 16.1811 30.3387 16.4458 30.7856L17.2419 32.1197C18.2889 33.9175 19.4069 35.6369 20.5013 37.3846C21.6174 39.1054 22.7835 40.7674 23.9997 42.3709C25.2055 43.9823 26.4832 45.5001 27.826 46.9167C28.4996 47.6153 29.2008 48.2677 29.9268 48.8711C30.6488 49.4793 31.4041 50.0179 32.1866 50.4827C32.9641 50.9495 33.7828 51.2903 34.6243 51.4972C35.4686 51.6911 36.327 51.7608 37.1834 51.7052C37.612 51.682 38.0426 51.6358 38.4674 51.5678C38.8921 51.4997 39.3168 51.4021 39.7375 51.2852C40.5799 51.0448 41.412 50.7473 42.2305 50.3941C43.8752 49.6987 45.4838 48.8666 47.0464 47.9029C47.8297 47.4278 48.5981 46.9026 49.3734 46.4018C49.7596 46.1449 50.1507 45.9035 50.534 45.6403L51.6876 44.8621L52.8412 44.0814L53.9889 43.289L55.1376 42.4967L56.2823 41.6941C57.0458 41.1587 57.8073 40.6206 58.5787 40.1018C59.3501 39.5831 60.1106 39.0399 60.8978 38.5609C62.4573 37.5721 64.0317 36.609 65.6782 35.8809C66.501 35.5167 67.344 35.2347 68.1998 35.0373C69.0541 34.8266 69.9273 34.7769 70.7925 34.8896C69.9282 34.799 69.0583 34.8703 68.2096 35.1015C67.3592 35.3139 66.5222 35.6092 65.7059 35.9849C64.0732 36.7374 62.5107 37.7249 60.9649 38.7381C60.5788 38.9949 60.1847 39.2261 59.8054 39.4996L58.6597 40.2958C57.8942 40.8223 57.1347 41.368 56.3752 41.9112L55.2344 42.7253L54.0906 43.5305L52.9459 44.3356L51.7962 45.1279L50.6466 45.9202C50.2643 46.186 49.8742 46.4339 49.489 46.6907L48.3284 47.4612C47.9419 47.718 47.5521 47.9675 47.159 48.2098C45.5891 49.1845 43.9725 50.027 42.3193 50.7318C41.4926 51.0922 40.6519 51.3961 39.8007 51.6423C39.3731 51.7617 38.9424 51.8606 38.5079 51.9338C38.0733 52.007 37.6377 52.0519 37.2002 52.0789C36.3226 52.1376 35.4427 52.0686 34.5769 51.8734C33.7115 51.6646 32.8695 51.3169 32.0701 50.8384C31.2756 50.3631 30.5088 49.8134 29.7757 49.1935C29.0422 48.5785 28.3343 47.9132 27.6551 47.2005C26.3061 45.7712 25.0232 44.2395 23.813 42.6136C22.5955 41.0016 21.4281 39.3293 20.3107 37.5966C19.2133 35.8463 18.1032 34.1115 17.0661 32.2996C14.9594 28.713 12.9741 25.0083 11.0224 21.2817L8.09196 15.6932C7.84899 15.2245 7.59219 14.7726 7.3423 14.3116L6.96599 13.6233C6.84056 13.3934 6.71611 13.1623 6.58376 12.9388C6.32202 12.4907 6.05732 12.0399 5.78077 11.6098C5.51083 11.1675 5.20557 10.7638 4.87012 10.4053Z" fill="url(#paint9_linear_2437_624)"/>
<path d="M5.96094 9.61523C6.1519 9.77635 6.33109 9.95989 6.49626 10.1636C6.6622 10.3652 6.82121 10.5784 6.97529 10.7967C7.28246 11.2345 7.56791 11.6955 7.85434 12.1565L8.06373 12.5071L8.26127 12.8654L8.66424 13.5819C8.93191 14.0609 9.20451 14.5347 9.46822 15.0175L11.0169 17.9428L12.538 20.8963C14.5449 24.8436 16.5598 28.7846 18.6903 32.6177L20.3061 35.4762L21.9704 38.2845L22.3862 38.987L22.8198 39.6714L23.688 41.0377L24.5562 42.404C24.8475 42.856 25.1488 43.3029 25.451 43.7395C26.6518 45.5097 27.9269 47.1923 29.2704 48.7796C30.6196 50.3501 32.0547 51.8115 33.6281 52.9633C34.4099 53.5478 35.2377 54.0213 36.0973 54.3759C36.9567 54.7141 37.8485 54.8931 38.7463 54.9075C39.6471 54.9172 40.546 54.7984 41.4269 54.5531C42.3107 54.3069 43.1801 53.9799 44.0285 53.5746C44.8799 53.1739 45.7184 52.7219 46.5372 52.2198C47.356 51.7177 48.16 51.1656 48.9511 50.589C49.3462 50.3005 49.7413 50.0052 50.1363 49.703C50.5314 49.4051 50.9117 49.0879 51.3008 48.781C52.0762 48.1633 52.8525 47.5508 53.6258 46.9241C55.1755 45.6798 56.7163 44.4278 58.2472 43.1475C59.7782 41.8672 61.2943 40.5587 62.838 39.3028L64.0114 38.3899C64.4065 38.0894 64.7887 37.7735 65.1897 37.491C65.9878 36.9182 66.7997 36.3763 67.6343 35.8999C68.4669 35.4161 69.3308 35.0293 70.2161 34.7442C71.105 34.4745 72.0245 34.341 72.9283 34.5028C72.0226 34.3616 71.105 34.5131 70.2269 34.8007C69.3479 35.1009 68.4911 35.5023 67.6668 36.0001C66.8392 36.4881 66.0342 37.0402 65.245 37.6232C64.8499 37.9108 64.4657 38.2319 64.0766 38.5388L62.9161 39.4531C61.3832 40.7256 59.868 42.0354 58.35 43.3427C56.8319 44.6499 55.2881 45.911 53.7473 47.1668C52.9799 47.7999 52.2036 48.4214 51.4312 49.0481C50.6588 49.6747 49.8776 50.2872 49.0825 50.8702C48.2874 51.4532 47.4814 52.0092 46.6557 52.519C45.83 53.0288 44.9855 53.4873 44.1262 53.8956C43.2663 54.3089 42.3851 54.6432 41.4891 54.896C40.5887 55.1495 39.6696 55.2735 38.7483 55.2658C37.8233 55.2547 36.9042 55.0735 36.0183 54.7277C35.1392 54.3692 34.2925 53.8883 33.4928 53.2934C31.8927 52.1158 30.4477 50.634 29.0897 49.0481C27.74 47.4461 26.4593 45.7484 25.2535 43.9629C24.9522 43.5186 24.65 43.0743 24.3576 42.6197L23.4895 41.247L22.6213 39.873L22.1887 39.186L21.7729 38.481L20.1116 35.656L18.5105 32.7911C16.3988 28.931 14.4037 24.9695 12.4214 21.0003L10.928 18.0237L9.40797 15.0702C9.1492 14.5835 8.88153 14.1071 8.61782 13.6243L8.22275 12.9013L8.02521 12.5404L7.81977 12.186C7.5442 11.7173 7.26074 11.2538 6.95949 10.8108C6.80837 10.5899 6.65331 10.3742 6.48935 10.1687C6.32696 9.96306 6.15004 9.77775 5.96094 9.61523Z" fill="url(#paint10_linear_2437_624)"/>
<path d="M7.14941 8.8457C7.35676 8.99815 7.55168 9.17762 7.73116 9.38123C7.9129 9.58156 8.08476 9.79729 8.25069 10.0233C8.58354 10.4676 8.89367 10.9388 9.19196 11.4217L9.4132 11.7851L9.62555 12.1588L10.0493 12.9061L10.8957 14.4034L12.5057 17.4712L14.0563 20.589C16.1018 24.7624 18.1384 28.9461 20.2788 33.0373L21.9094 36.0819C22.1771 36.5956 22.4596 37.09 22.7391 37.5895L23.5786 39.0881L24.4182 40.588L25.2943 42.0505L26.1703 43.5132C26.4666 43.9999 26.7501 44.493 27.0543 44.9681C28.2481 46.888 29.5205 48.7231 30.8658 50.4654C31.5414 51.3309 32.2397 52.1668 32.9637 52.9604C33.6842 53.758 34.4405 54.4994 35.2284 55.1807C36.0123 55.8619 36.8452 56.4425 37.7154 56.9143C38.583 57.3826 39.5001 57.6779 40.4355 57.7901C41.3722 57.8943 42.3156 57.8295 43.2386 57.5974C44.1653 57.3604 45.0744 57.0193 45.9557 56.5779C46.8396 56.1372 47.7024 55.6282 48.5395 55.0536C48.9573 54.7659 49.3692 54.4616 49.7761 54.1457C49.9796 53.9877 50.1821 53.826 50.3826 53.6629L50.6789 53.415L50.9752 53.1582L52.1604 52.1309L52.753 51.6172C52.9505 51.4465 53.1481 51.277 53.3456 51.0946L55.6677 48.9424L57.9868 46.771L60.2861 44.5803L64.8216 40.0679C66.3357 38.5693 67.8884 37.1144 69.5625 35.9214C69.9813 35.6235 70.406 35.3436 70.8406 35.0881C71.2739 34.8286 71.7192 34.6043 72.1739 34.4165C73.0826 34.0492 74.0506 33.863 74.9958 34.0556C74.0496 33.8823 73.0866 34.089 72.1878 34.4716C71.2895 34.8762 70.4232 35.3922 69.601 36.0126C67.9447 37.2287 66.4108 38.699 64.9115 40.2194L60.4017 44.7742L58.1073 46.9932L55.804 49.1762L53.4878 51.3592C53.2972 51.5454 53.0987 51.7162 52.8952 51.8882L52.3026 52.4019L51.1174 53.4382L50.8211 53.695L50.5189 53.9454C50.3164 54.1098 50.1139 54.2728 49.9085 54.4334C49.4996 54.7531 49.0837 55.0626 48.661 55.3541C47.8155 55.9386 46.9438 56.4566 46.0505 56.9053C45.1536 57.3563 44.2283 57.7056 43.285 57.9493C42.3366 58.1908 41.367 58.26 40.4039 58.1547C39.4404 58.0421 38.4954 57.7412 37.6009 57.2622C36.7125 56.7827 35.8623 56.1913 35.0625 55.4966C34.2659 54.8053 33.502 54.0523 32.775 53.2416C32.0451 52.4391 31.3429 51.5941 30.6643 50.7209C29.3149 48.9659 28.0392 47.1175 26.843 45.1838C24.4679 41.3083 22.2163 37.313 20.0881 33.1978C17.9705 29.0796 15.9547 24.8806 13.9338 20.6853L12.4128 17.5444L10.8325 14.4561L10.0009 12.9485L9.58407 12.196L9.37566 11.8197L9.15837 11.4525C8.86207 10.9645 8.56576 10.4881 8.23587 10.04C8.0729 9.81525 7.90401 9.59695 7.72524 9.39791C7.54842 9.18859 7.35545 9.00352 7.14941 8.8457Z" fill="url(#paint11_linear_2437_624)"/>
<path d="M8.43359 8.10156C8.65542 8.24468 8.86304 8.42229 9.05189 8.63057C9.24258 8.83593 9.42489 9.05415 9.59808 9.28423C9.94574 9.74267 10.2677 10.2319 10.5798 10.7314C11.2021 11.7331 11.7799 12.7783 12.3448 13.8352L13.9923 17.0455C14.5306 18.1241 15.058 19.2118 15.5914 20.2956C17.6991 24.6488 19.7733 29.0276 21.9422 33.3268C24.13 37.6094 26.372 41.8457 28.777 45.9215C29.9869 47.9517 31.2463 49.928 32.5915 51.8079C33.9367 53.6879 35.357 55.4702 36.9304 57.006C37.7099 57.7803 38.5408 58.4627 39.4135 59.0452C40.281 59.6301 41.2145 60.0324 42.179 60.2369C43.1446 60.4238 44.1269 60.4081 45.0887 60.1906C46.054 59.971 46.9977 59.6136 47.9026 59.1248C49.722 58.1592 51.4129 56.8134 53.0386 55.3598C53.8495 54.6304 54.6436 53.8664 55.4288 53.0895C56.2141 52.3126 56.9864 51.5061 57.7657 50.7164L60.0878 48.3279C60.2853 48.1276 60.4769 47.9298 60.6685 47.7269L61.2414 47.117L62.3871 45.8958L62.96 45.2845L63.52 44.6528L64.639 43.3879L66.8742 40.8505L67.4332 40.2174L68.0041 39.5985L69.1449 38.3631C69.3365 38.159 69.5222 37.9484 69.7177 37.7506C69.9133 37.5529 70.1128 37.3538 70.3044 37.1586C70.6995 36.7683 71.1005 36.3908 71.5074 36.0261C72.3181 35.2831 73.1856 34.6509 74.0962 34.1396C74.5536 33.8898 75.0304 33.7051 75.5184 33.5888C76.0062 33.472 76.5059 33.4668 76.995 33.5734C76.5058 33.4751 76.0072 33.4881 75.5214 33.6119C75.0365 33.7357 74.5633 33.9273 74.11 34.1833C73.2077 34.7093 72.3494 35.3548 71.5489 36.1095C71.145 36.4781 70.7489 36.8633 70.3637 37.2588C70.1662 37.4552 69.9755 37.6556 69.7839 37.8572C69.5923 38.0588 69.4066 38.2733 69.218 38.48L68.0861 39.7243L67.5231 40.351L66.97 40.993C66.2302 41.847 65.4934 42.7022 64.7497 43.551L63.6356 44.8261L63.0785 45.4682L62.5076 46.0859L61.3649 47.3199L60.794 47.9376C60.6033 48.1417 60.4088 48.3408 60.2162 48.5424L57.902 50.9552C57.1257 51.754 56.3553 52.5617 55.574 53.3527C54.7928 54.1437 53.9937 54.9052 53.1779 55.641C51.5502 57.1075 49.8474 58.4661 48.0014 59.4574C47.0787 59.959 46.1161 60.3263 45.1312 60.5528C44.1403 60.7789 43.1281 60.798 42.1326 60.6093C41.1395 60.4007 40.1781 59.989 39.2841 59.3894C38.3944 58.8001 37.5472 58.1081 36.7526 57.3219C35.1624 55.7604 33.7323 53.955 32.3841 52.0647C31.0359 50.1745 29.7736 48.1829 28.5647 46.1437C27.3854 44.075 26.1784 42.0345 25.0683 39.9003C23.9206 37.802 22.846 35.6408 21.7526 33.4963C19.6044 29.1727 17.55 24.7759 15.4689 20.3983C14.9464 19.3081 14.4299 18.2152 13.9014 17.125L12.2846 13.8916C11.7315 12.8271 11.1636 11.7741 10.5522 10.7648C10.245 10.2614 9.92797 9.76831 9.58524 9.30474C9.41447 9.07222 9.23446 8.85149 9.04596 8.64343C8.85946 8.43124 8.65383 8.24931 8.43359 8.10156Z" fill="url(#paint12_linear_2437_624)"/>
<path d="M9.81055 7.38184C10.0442 7.51722 10.2625 7.6935 10.4595 7.90577C10.658 8.11514 10.8476 8.33847 11.0274 8.57479C11.3879 9.04478 11.7188 9.54813 12.0477 10.0605C12.6995 11.0878 13.2961 12.1652 13.8729 13.2605C14.4497 14.3559 14.9969 15.4782 15.5589 16.5864C16.1209 17.6946 16.6552 18.8272 17.2044 19.947C19.3694 24.4517 21.4702 29.0038 23.6668 33.4777C23.9365 34.0415 24.219 34.5936 24.4955 35.1471L25.3291 36.8164L26.1617 38.4858L27.0191 40.1347L27.8754 41.7835C28.1618 42.3318 28.4423 42.8852 28.7376 43.4271C29.3217 44.5135 29.9183 45.5883 30.5273 46.6516C31.7442 48.7794 33.0203 50.8468 34.3704 52.832C35.7206 54.8173 37.1291 56.7383 38.7044 58.4025C39.4863 59.2467 40.316 60.0129 41.1865 60.6947C42.0566 61.3586 42.9831 61.912 43.9639 62.1804C44.9512 62.4378 45.9664 62.4587 46.9595 62.2421C47.4594 62.1403 47.9541 61.9997 48.4411 61.8209C48.9271 61.6416 49.4044 61.4242 49.8702 61.1698C50.8032 60.6509 51.7081 60.0503 52.5785 59.372C53.4569 58.7034 54.3099 57.9844 55.1376 57.2147C55.9663 56.4443 56.7712 55.634 57.5614 54.798C57.9565 54.3811 58.3473 53.9557 58.7338 53.5216L59.8963 52.2272C60.6746 51.3694 61.441 50.4923 62.2104 49.6204L63.3631 48.3107C63.7453 47.8728 64.1226 47.4259 64.496 46.9752C65.2456 46.0763 65.9696 45.1415 66.7005 44.2143L68.8902 41.4303C69.2576 40.968 69.6201 40.5006 69.9905 40.0435C70.3609 39.5863 70.7362 39.1343 71.1164 38.6913C71.4967 38.2483 71.8858 37.8155 72.276 37.3879C72.6661 36.9603 73.0582 36.534 73.4612 36.1192C74.2603 35.2935 75.087 34.4935 76.0025 33.8964C76.4552 33.5851 76.9324 33.3384 77.4258 33.1606C77.9194 32.9776 78.4388 32.9442 78.9439 33.063C78.4387 32.9518 77.9207 32.9931 77.4297 33.1837C76.9402 33.3684 76.4673 33.6211 76.0193 33.9375C75.1126 34.5474 74.2968 35.3564 73.5066 36.1924C73.1116 36.6123 72.7244 37.0425 72.3382 37.4765C71.952 37.9105 71.5678 38.3459 71.1935 38.7953C70.8191 39.2447 70.4478 39.7006 70.0823 40.1629C69.7169 40.6252 69.3583 41.0977 68.9959 41.5651L66.8229 44.3684C66.097 45.3032 65.377 46.2458 64.6293 47.1536C64.2579 47.6082 63.8816 48.0577 63.5004 48.502L62.3527 49.8233C61.5882 50.7017 60.8267 51.5852 60.0513 52.4519L58.8938 53.7579C58.5096 54.1945 58.1194 54.626 57.7244 55.042C56.9342 55.887 56.1253 56.7037 55.2927 57.4818C54.46 58.26 53.5998 58.9881 52.7178 59.6649C51.8383 60.3559 50.9235 60.9682 49.9799 61.4973C49.5045 61.7588 49.0173 61.9827 48.5211 62.1676C48.0246 62.3503 47.5203 62.4952 47.0109 62.6017C45.9846 62.8268 44.9355 62.8076 43.9145 62.5452C42.8922 62.2678 41.9391 61.6976 41.0502 61.0235C40.1673 60.3368 39.3256 59.5641 38.5326 58.712C37.7392 57.8661 36.9809 56.9659 36.2609 56.0154C35.5389 55.069 34.8465 54.0892 34.1709 53.0889C32.8198 51.0921 31.5407 49.0105 30.3189 46.875C29.7099 45.8066 29.1136 44.7271 28.5302 43.6365C28.2339 43.092 27.9554 42.5372 27.669 41.9876L26.8146 40.3337L25.9593 38.6797L25.1296 37.0039L24.297 35.3179C24.0224 34.758 23.7429 34.202 23.4762 33.6357L21.8594 30.2521C21.3211 29.1233 20.7976 27.983 20.2652 26.8504L18.677 23.4449C18.1457 22.3123 17.6242 21.1707 17.0829 20.0458C16.5417 18.9209 16.0152 17.7832 15.469 16.6622C14.9228 15.5412 14.3717 14.424 13.8146 13.3132C13.2576 12.2024 12.662 11.1225 12.021 10.09C11.701 9.57638 11.3711 9.06274 11.0155 8.59147C10.8382 8.35273 10.6509 8.12681 10.4545 7.91473C10.2595 7.69983 10.0429 7.52055 9.81055 7.38184Z" fill="url(#paint13_linear_2437_624)"/>
<path d="M11.2773 6.68848C11.5219 6.81306 11.7524 6.97976 11.9628 7.18413C12.1746 7.38535 12.3761 7.60412 12.5663 7.83905C12.9469 8.30865 13.3061 8.80685 13.6419 9.33115C14.3175 10.3751 14.9377 11.477 15.5392 12.5954C16.1407 13.7139 16.6978 14.867 17.2785 16.0034C17.4257 16.2859 17.564 16.5762 17.7013 16.8664L18.1161 17.7344L18.9458 19.4719L19.3596 20.3412L19.7646 21.2183L20.5725 22.9724L22.1864 26.4819C22.7247 27.6517 23.257 28.8254 23.8003 29.9914L25.4329 33.4842C25.7025 34.0685 25.9801 34.6464 26.2586 35.2229L27.0922 36.9565L27.9239 38.6901C28.2014 39.2679 28.4918 39.8342 28.7762 40.4069L30.4879 43.833C31.072 44.9647 31.6662 46.0853 32.2707 47.1948C33.4846 49.4138 34.7518 51.5801 36.1177 53.6411C37.4837 55.7021 38.9139 57.6925 40.4932 59.4646C41.2771 60.3557 42.1129 61.1667 42.993 61.8903C43.8741 62.5991 44.8143 63.1988 45.8109 63.5391C46.8123 63.8734 47.8535 63.9562 48.8787 63.7831C49.9077 63.6058 50.9146 63.2558 51.8743 62.7417C52.8391 62.2298 53.7728 61.6241 54.6675 60.9298C55.1169 60.5856 55.5624 60.2273 55.997 59.8536C56.4315 59.48 56.8562 59.0832 57.274 58.6787C58.9442 57.0466 60.5008 55.2205 62.0149 53.3419L63.1597 51.9435L64.2906 50.5233C65.0432 49.573 65.8057 48.6395 66.5386 47.6687C66.9047 47.1833 67.2668 46.6927 67.625 46.1971C67.9826 45.7001 68.3342 45.1942 68.6898 44.6934L70.8192 41.6859L71.8899 40.1861C72.2464 39.6865 72.6148 39.2011 72.9872 38.7183C73.7299 37.7539 74.5161 36.8486 75.3053 35.951C76.0945 35.0534 76.9142 34.1931 77.813 33.4817C78.2589 33.1188 78.7381 32.8302 79.2393 32.6226C79.7413 32.411 80.2772 32.3734 80.7939 32.5134C80.2775 32.3803 79.7434 32.4245 79.2442 32.6419C78.7471 32.8559 78.2726 33.1501 77.8318 33.5176C76.9429 34.2393 76.1389 35.1202 75.3537 36.0191C74.5685 36.918 73.7951 37.8412 73.0642 38.8146C72.6978 39.3013 72.3343 39.7906 71.9778 40.2952L70.9219 41.8092L68.8083 44.8371C68.4557 45.3405 68.106 45.849 67.7495 46.3499C67.3929 46.8507 67.0314 47.3451 66.663 47.8343C65.9321 48.8167 65.1726 49.7605 64.4259 50.7133L63.3108 52.1477L62.171 53.5602L61.0302 54.9727C60.6509 55.444 60.2569 55.8973 59.8647 56.3506C59.0746 57.2495 58.2667 58.1278 57.4261 58.9509C57.0054 59.3619 56.5767 59.76 56.1421 60.1401C55.7076 60.5202 55.2532 60.881 54.8028 61.229C53.8978 61.9345 52.9532 62.5504 51.9771 63.0717C50.9964 63.6001 49.9673 63.961 48.9152 64.1452C47.8554 64.3265 46.7788 64.2436 45.7428 63.9012C44.7077 63.5493 43.7427 62.9368 42.8429 62.2152C41.9463 61.4834 41.0952 60.6612 40.2976 59.7561C38.7035 57.9583 37.2644 55.9551 35.9004 53.88C34.5364 51.8048 33.2613 49.6256 32.0485 47.3977C31.442 46.2848 30.8494 45.1595 30.2706 44.0218L28.5619 40.5867C28.2784 40.0127 27.9881 39.4438 27.7115 38.8647L26.8838 37.126L26.0581 35.3847C25.7826 34.8056 25.507 34.229 25.2393 33.6383L23.6235 30.1288C23.0862 28.9577 22.5597 27.7802 22.0274 26.6065L20.4312 23.0829L19.6312 21.3223L19.2312 20.4427L18.8243 19.5695L18.0104 17.8205L17.6035 16.9473C17.4682 16.6545 17.3329 16.363 17.1887 16.0792C16.6188 14.9364 16.0568 13.7858 15.4809 12.648C14.8883 11.5232 14.2809 10.4137 13.6152 9.362C13.2849 8.83337 12.931 8.33042 12.5554 7.85572C12.3669 7.61912 12.1673 7.39781 11.9579 7.1931C11.7495 6.98585 11.5206 6.81614 11.2773 6.68848Z" fill="url(#paint14_linear_2437_624)"/>
<path d="M12.8291 6.02441C13.0823 6.13605 13.3231 6.29063 13.5452 6.48414C13.7687 6.67505 13.9819 6.88567 14.1832 7.1146C14.5839 7.57354 14.9601 8.06738 15.3092 8.59266C16.0104 9.64179 16.6505 10.7551 17.2698 11.8877C17.889 13.0203 18.4787 14.1786 19.0525 15.3549C19.6264 16.5311 20.1657 17.724 20.7227 18.9093C22.9114 23.6772 25.0142 28.5119 27.1911 33.2914L27.597 34.1903L28.0109 35.0815L28.8405 36.8485L29.6662 38.6308C29.9369 39.2292 30.2302 39.8084 30.5127 40.3965L32.2194 43.9137C32.812 45.0694 33.4145 46.211 34.0121 47.3603C34.3084 47.9317 34.6047 48.516 34.9138 49.0772C35.223 49.6383 35.5351 50.2034 35.8531 50.7594C36.4882 51.8714 37.144 52.9603 37.8285 54.0223C39.1945 56.145 40.6424 58.1867 42.2455 59.9986C43.0414 60.9096 43.8908 61.7387 44.7858 62.4783C45.6744 63.2218 46.6385 63.8006 47.6501 64.1977C48.6643 64.5684 49.7219 64.6954 50.7712 64.5727C51.8234 64.443 52.8569 64.1263 53.8429 63.6314C54.8334 63.1392 55.7897 62.5378 56.7013 61.8336C57.1582 61.4843 57.607 61.1158 58.0475 60.728C58.486 60.3428 58.9137 59.9305 59.3315 59.5042C60.1691 58.6528 60.9701 57.7398 61.7573 56.8076C62.5444 55.8753 63.3218 54.9251 64.0714 53.9414C64.4481 53.45 64.8201 52.9535 65.1875 52.4518L66.2878 50.9404L67.3881 49.4277C67.7555 48.9244 68.12 48.421 68.4745 47.906C69.1906 46.8787 69.885 45.8257 70.5823 44.7741C71.2796 43.7224 71.9729 42.6681 72.6781 41.6254L73.735 40.0614C74.0856 39.5374 74.4402 39.0186 74.8027 38.5076C75.1651 37.9965 75.5326 37.4931 75.9128 37.0039C76.2931 36.5146 76.6812 36.0395 77.0734 35.5669C77.8635 34.6282 78.6675 33.7075 79.5712 32.9614C80.0198 32.5811 80.5028 32.2745 81.0093 32.0485C81.2654 31.94 81.5308 31.8722 81.7994 31.8468C82.0649 31.8229 82.3317 31.8541 82.5896 31.9393C82.3311 31.8585 82.0645 31.8312 81.7994 31.8584C81.5338 31.8883 81.2719 31.9595 81.0192 32.0703C80.5166 32.3027 80.0382 32.6154 79.5949 33.0013C78.706 33.7576 77.903 34.6873 77.1257 35.6363C76.7395 36.1127 76.3563 36.5968 75.98 37.0873C75.6037 37.5778 75.2422 38.0876 74.8856 38.6026C74.5291 39.1175 74.1794 39.6414 73.8328 40.1692L72.7927 41.7474C72.0944 42.7978 71.41 43.8572 70.7136 44.9141C70.0173 45.9709 69.3309 47.0303 68.6187 48.0666C68.2632 48.5802 67.8987 49.0939 67.5323 49.6011L66.4399 51.1241L65.3465 52.6444C64.9791 53.1491 64.6097 53.6512 64.2344 54.1469C63.4867 55.1421 62.7104 56.1 61.9262 57.0426C61.1419 57.9851 60.333 58.9033 59.4905 59.7649C59.0698 60.1964 58.6381 60.6125 58.1947 61.0054C57.7512 61.3983 57.2978 61.7759 56.8346 62.1264C55.9113 62.8439 54.9425 63.4574 53.9387 63.9601C52.9303 64.4693 51.8727 64.7955 50.7959 64.9296C49.7132 65.0602 48.6213 64.9323 47.574 64.5521C46.537 64.1476 45.5484 63.5573 44.6367 62.798C43.7277 62.0504 42.8651 61.2115 42.0568 60.2889C40.438 58.4526 38.9861 56.3941 37.6122 54.2535C36.9267 53.1851 36.2683 52.0902 35.6368 50.9687C35.3188 50.4097 35.0057 49.8463 34.6975 49.2788C34.3904 48.7099 34.097 48.1231 33.7958 47.5555C33.2032 46.3998 32.5947 45.2556 32.0061 44.0973L30.3013 40.5686C29.7245 39.3974 29.1823 38.2019 28.6351 37.0103L27.8094 35.2305L27.3995 34.3316L26.9975 33.4327L25.3925 29.8269L23.8033 26.2108C23.2765 25.0046 22.7455 23.801 22.2102 22.5999L21.4101 20.7956L21.0151 19.8968L20.6062 18.9979C20.06 17.8075 19.5197 16.6107 18.9676 15.4229C18.4155 14.2351 17.8248 13.0807 17.2174 11.9391C16.61 10.7975 15.9788 9.67902 15.2884 8.62219C14.9442 8.09294 14.5727 7.59485 14.1763 7.13134C13.7714 6.67933 13.3338 6.25042 12.8291 6.02441Z" fill="url(#paint15_linear_2437_624)"/>
<path d="M14.4648 5.38477C14.9834 5.57995 15.4397 5.98318 15.8555 6.42235C16.2677 6.87291 16.654 7.36218 17.0111 7.88623C17.7222 8.93713 18.3854 10.0412 18.9973 11.1928C19.6166 12.3383 20.2053 13.5043 20.7752 14.6921L22.4543 18.2761C24.6469 23.089 26.7438 27.9738 28.9049 32.8072L29.3068 33.7151L29.7197 34.614L30.5434 36.4117C31.0946 37.6098 31.6299 38.8246 32.2067 40.0073L33.9115 43.563C34.4853 44.7444 35.0809 45.9066 35.6893 47.061C36.8992 49.3724 38.1585 51.6286 39.5196 53.7885C40.8806 55.9483 42.3266 58.0145 43.9444 59.8354C44.7476 60.751 45.6064 61.5807 46.5124 62.3163C47.4131 63.0536 48.3857 63.6306 49.4044 64.0319C50.4244 64.4148 51.4878 64.5647 52.5472 64.4749C53.6086 64.3761 54.6538 64.0817 55.6515 63.6004C56.653 63.1188 57.6167 62.5138 58.5296 61.7937C59.4458 61.0748 60.3269 60.2826 61.1677 59.4219C62.0112 58.5641 62.8231 57.6511 63.6113 56.706C64.3995 55.7609 65.1649 54.7799 65.9136 53.7808C66.2869 53.28 66.6567 52.774 67.0228 52.2629C67.3862 51.7493 67.7408 51.2241 68.1003 50.7066C68.8174 49.6651 69.5414 48.634 70.2328 47.563C70.9241 46.4921 71.6343 45.4443 72.3257 44.372L73.3657 42.7695L73.8862 41.9681L74.4136 41.1745L75.4695 39.5887L75.9989 38.7963L76.5372 38.0143C77.2592 36.978 77.998 35.9597 78.7733 34.9877C79.5486 34.0156 80.3625 33.0897 81.2692 32.3295C81.7185 31.9413 82.2054 31.6321 82.7171 31.4101C83.2278 31.1995 83.7888 31.1276 84.3073 31.3266C83.7841 31.1579 83.2342 31.1945 82.727 31.4319C82.2191 31.6604 81.7369 31.9756 81.2929 32.3693C80.3961 33.1398 79.5951 34.0798 78.8237 35.0557C78.0523 36.0316 77.3303 37.0628 76.6182 38.1094L76.0868 38.8965L75.5653 39.6965L74.5243 41.2965L74.0028 42.0953L73.4862 42.9004L72.4531 44.512C71.7676 45.5881 71.0703 46.6513 70.3789 47.7223C69.6875 48.7933 68.9715 49.8385 68.2593 50.8876C67.9008 51.4103 67.5482 51.9381 67.1867 52.4569C66.8252 52.9757 66.4538 53.4842 66.0815 53.9875C64.5901 56.0087 63.0285 57.9516 61.3297 59.6852C60.4815 60.5567 59.5929 61.3595 58.6689 62.089C57.7424 62.8226 56.7641 63.4392 55.7473 63.9304C54.7261 64.4249 53.6558 64.7276 52.5689 64.8293C51.4772 64.9256 50.381 64.774 49.3293 64.3812C48.2859 63.9738 47.2893 63.386 46.3662 62.6335C45.4447 61.8918 44.5713 61.0535 43.7548 60.1269C42.1211 58.2804 40.6663 56.1937 39.3042 54.0222C37.9422 51.8508 36.68 49.5753 35.471 47.26C34.8675 46.1043 34.272 44.9332 33.7001 43.7479L31.9973 40.1819C31.4205 39.0005 30.8862 37.7857 30.339 36.5864L29.5232 34.7771L29.1152 33.8782L28.7202 32.9664C26.5818 28.1112 24.5077 23.2071 22.3417 18.3827L20.6962 14.7782C20.1322 13.5878 19.5544 12.4102 18.946 11.2584C18.3441 10.0959 17.6905 8.98026 16.9884 7.91708C16.6362 7.38947 16.255 6.89591 15.8476 6.44034C15.4328 5.99604 14.9824 5.58766 14.4648 5.38477Z" fill="url(#paint16_linear_2437_624)"/>
<path d="M16.1797 4.77734C16.7002 4.94942 17.1575 5.34239 17.5704 5.77643C17.98 6.22197 18.3643 6.70565 18.72 7.22363C19.4324 8.25771 20.0951 9.34784 20.7043 10.4879C21.3097 11.6294 21.9024 12.7826 22.5019 13.9306C23.1014 15.0786 23.6614 16.2612 24.2126 17.4478C24.7637 18.6343 25.2931 19.8401 25.8334 21.0357L27.4423 24.6312C27.9786 25.8293 28.508 27.0338 29.0493 28.2267L30.6898 31.794L31.1007 32.6852C31.237 32.9818 31.3802 33.2746 31.5205 33.57L32.363 35.3369C32.9269 36.5144 33.4781 37.7022 34.0559 38.8656L35.7725 42.3713C35.9127 42.6654 36.0619 42.9518 36.212 43.2381L36.6604 44.0984L37.5572 45.8192L38.4541 47.5386C38.7602 48.1053 39.0707 48.6674 39.3855 49.2247C40.0146 50.3419 40.6694 51.4346 41.344 52.4979C42.7021 54.627 44.1382 56.6764 45.7235 58.5127C46.5097 59.4356 47.3498 60.278 48.2361 61.0322C49.1154 61.7894 50.0701 62.3869 51.0738 62.8081C52.0813 63.2039 53.1363 63.3554 54.186 63.255C55.2382 63.1498 56.274 62.8546 57.2636 62.3779C58.2583 61.9045 59.219 61.3184 60.1348 60.6264C61.0557 59.9414 61.9397 59.1761 62.7808 58.3355C63.6233 57.4957 64.4293 56.593 65.2185 55.6646C66.0076 54.7361 66.7849 53.7897 67.5356 52.8086C67.9119 52.3194 68.2823 51.8225 68.6507 51.3229C69.0191 50.8234 69.3786 50.3098 69.7431 49.8038C70.4661 48.7868 71.2039 47.7852 71.9022 46.7399L72.9629 45.1848L73.4923 44.4067L74.0148 43.6195C74.7131 42.5716 75.4035 41.5148 76.1087 40.4747L77.1636 38.9106C77.5152 38.3892 77.8668 37.8692 78.2273 37.3568C78.5878 36.8444 78.9503 36.3295 79.3237 35.839C79.697 35.3485 80.0792 34.8592 80.4684 34.3841C81.2487 33.4377 82.0556 32.5195 82.9465 31.7516C83.389 31.3609 83.8666 31.0421 84.3688 30.8026C84.6207 30.6863 84.8828 30.6112 85.149 30.5792C85.4155 30.5487 85.684 30.5867 85.9392 30.691C85.6834 30.5905 85.4149 30.5564 85.149 30.5908C84.8842 30.6268 84.6238 30.7053 84.3737 30.8245C83.8757 31.071 83.4027 31.3957 82.9653 31.7914C82.0843 32.5696 81.2862 33.4968 80.5178 34.4522C80.1332 34.9324 79.7566 35.4221 79.3879 35.9212C79.0195 36.4207 78.6609 36.933 78.3073 37.4505C77.9537 37.968 77.6051 38.4933 77.2584 39.0198L76.2164 40.598C75.5191 41.6471 74.8336 42.7065 74.1422 43.7607L73.6237 44.553L73.0973 45.3363L72.0424 46.9017C71.351 47.956 70.6142 48.964 69.8952 49.9836C69.5327 50.4972 69.1771 51.0109 68.8087 51.5117C68.4403 52.0125 68.0729 52.5185 67.6976 53.0129C66.9479 54.0042 66.1726 54.9596 65.3854 55.8983C64.5982 56.8369 63.7853 57.7435 62.9369 58.5949C62.0875 59.4464 61.1949 60.2224 60.2652 60.9179C59.3376 61.6248 58.3639 62.2242 57.3555 62.7092C56.3425 63.1993 55.2822 63.5044 54.2047 63.6158C53.1214 63.7217 52.0323 63.5676 50.9918 63.1613C49.9618 62.7336 48.9818 62.1244 48.0791 61.3506C47.1787 60.5884 46.3254 59.7362 45.5269 58.8016C43.9288 56.9422 42.4868 54.8761 41.1267 52.7342C40.4452 51.6632 39.7924 50.5602 39.1622 49.4378C38.8468 48.8771 38.5364 48.3121 38.2308 47.7428L37.335 46.0157L36.4402 44.2898L35.9927 43.4268C35.8426 43.1405 35.6964 42.8528 35.5532 42.5575L33.8386 39.0429C33.2618 37.8743 32.7116 36.6878 32.1536 35.5064L31.319 33.733C31.1807 33.4364 31.0385 33.1424 30.9032 32.8444L30.4962 31.9456L28.8705 28.359C28.3342 27.1596 27.8117 25.9526 27.2813 24.7493L25.6901 21.1422C25.1558 19.9415 24.6304 18.7357 24.0891 17.5466C23.5479 16.3575 23.0026 15.1646 22.41 14.0102C21.8174 12.8557 21.2396 11.6987 20.644 10.543C20.0464 9.39591 19.3942 8.29843 18.6914 7.25699C18.3412 6.73473 17.9623 6.24635 17.5575 5.79568C17.1506 5.35651 16.6982 4.95712 16.1797 4.77734Z" fill="url(#paint17_linear_2437_624)"/>
<path d="M17.9756 4.20215C18.4882 4.34982 18.9485 4.7055 19.3653 5.11C19.7792 5.52539 20.1664 5.98409 20.5228 6.48147C21.2324 7.47809 21.8979 8.5263 22.516 9.62111C22.8321 10.163 23.1284 10.7203 23.4326 11.2712L24.3412 12.9303C24.9536 14.0295 25.5344 15.1595 26.0993 16.3011C26.6643 17.4427 27.2016 18.6061 27.7468 19.7682L29.3745 23.2457L30.9983 26.7231C31.5454 27.8771 32.1032 29.0225 32.6714 30.1593L36.1283 36.9408L37.8647 40.3258C38.1501 40.8934 38.4573 41.443 38.7536 41.9952L39.6514 43.6645L40.5482 45.3339C40.8505 45.886 41.1626 46.4279 41.4757 46.9686C42.1039 48.0498 42.7511 49.1104 43.4175 50.1506C44.7528 52.227 46.1415 54.2521 47.6645 56.0871C48.4209 57.0096 49.2262 57.8618 50.0745 58.6373C50.9146 59.4162 51.8315 60.0447 52.8005 60.5058C53.7729 60.9422 54.8019 61.1254 55.8288 61.0451C56.8591 60.9585 57.8752 60.6867 58.8482 60.2374C59.8262 59.7908 60.7738 59.2384 61.6808 58.586C62.5931 57.9401 63.4766 57.2275 64.3269 56.4517C65.1763 55.6813 65.9921 54.8338 66.7862 53.9593C67.5803 53.0848 68.3566 52.1821 69.1033 51.2369C70.6214 49.3814 72.1029 47.4668 73.5479 45.5162L74.6255 44.042L75.1638 43.3049L75.6902 42.5524L77.796 39.5411L78.8548 38.0426L79.3842 37.2927L79.9225 36.553C80.284 36.0625 80.6484 35.5758 81.0218 35.1007C81.3951 34.6256 81.7744 34.1594 82.1586 33.6997C82.9177 32.7654 83.7278 31.9037 84.5824 31.1212C85.0107 30.7304 85.4728 30.4063 85.9592 30.1555C86.2031 30.0321 86.4585 29.9517 86.7188 29.9167C86.9795 29.8801 87.2433 29.9209 87.4902 30.0361C87.243 29.9248 86.9795 29.8879 86.7198 29.9282C86.4609 29.9674 86.2071 30.0512 85.9652 30.1773C85.4832 30.4354 85.0258 30.765 84.6021 31.1597C83.7576 31.9541 82.9575 32.8257 82.208 33.7677C81.8287 34.2339 81.4534 34.7052 81.086 35.1803C80.7186 35.6554 80.3581 36.1511 79.9995 36.6455L79.4691 37.3928L78.9467 38.1505L77.9017 39.6644L75.8117 42.695L75.2882 43.4513L74.7529 44.1948L73.6813 45.6754C72.2412 47.6444 70.7666 49.5671 69.2574 51.4437C68.5127 52.3965 67.7383 53.3121 66.9442 54.1969C66.1501 55.0816 65.3274 55.9279 64.475 56.715C63.6181 57.5005 62.7278 58.2225 61.8083 58.8775C60.889 59.5414 59.9286 60.1041 58.937 60.5597C57.9409 61.0228 56.9002 61.3037 55.8446 61.3944C54.7817 61.4805 53.7161 61.2938 52.7087 60.8448C51.7144 60.3751 50.7733 59.7337 49.9106 58.9379C49.0497 58.1548 48.2325 57.2935 47.465 56.3606C45.9282 54.5037 44.5355 52.4646 43.1992 50.3766C42.5295 49.3326 41.8826 48.2616 41.2544 47.1753C40.9413 46.6321 40.6292 46.0876 40.327 45.5329L39.4302 43.8635L38.5343 42.1942C38.238 41.6356 37.9319 41.0847 37.6454 40.5145L35.913 37.1232C34.7594 34.8606 33.6133 32.592 32.4749 30.3174C31.9099 29.1745 31.3571 28.0226 30.8165 26.8618L29.2086 23.3677L27.5986 19.8774C27.0613 18.7153 26.53 17.548 25.9719 16.4026C25.4139 15.2571 24.8499 14.1181 24.2474 13.0151L23.3585 11.3457C23.0622 10.791 22.7659 10.2285 22.4567 9.68406C21.8501 8.58128 21.1952 7.52483 20.4952 6.51996C20.1443 6.01878 19.7624 5.55583 19.3534 5.13571C18.9376 4.71965 18.4823 4.35753 17.9756 4.20215Z" fill="url(#paint18_linear_2437_624)"/>
<path d="M19.8369 3.6582C20.3315 3.80481 20.7989 4.07761 21.2118 4.46078C21.6291 4.83181 22.0234 5.24487 22.3911 5.69612C22.7618 6.14471 23.118 6.61126 23.4598 7.0958C23.8015 7.5812 24.1294 8.08199 24.4474 8.59179C24.6075 8.84861 24.7655 9.10544 24.9215 9.36226L25.3798 10.1482L26.2925 11.7212C26.5957 12.2477 26.9048 12.7678 27.2011 13.3007C27.4974 13.8336 27.7937 14.3691 28.0802 14.9084C28.3666 15.4478 28.652 15.9922 28.9345 16.5367L29.7721 18.1804L31.4442 21.4677L33.1174 24.7525C33.392 25.3046 33.6863 25.8363 33.9727 26.3782L34.835 27.9949L35.6982 29.6129L36.5812 31.2142L38.3433 34.4245L40.1004 37.6348L40.5399 38.4374L40.9883 39.2297L41.8881 40.8143C42.4886 41.8685 43.0792 42.9344 43.7044 43.963C44.3296 44.9915 44.9588 46.0175 45.6097 47.0191C46.9115 49.0224 48.2369 51.0063 49.7037 52.7977C50.0704 53.2446 50.4471 53.6765 50.8336 54.0934C51.2198 54.5107 51.6138 54.9165 52.0188 55.3005C52.818 56.0817 53.6861 56.7361 54.6046 57.2498C55.063 57.497 55.54 57.6812 56.0278 57.7994C56.5165 57.9152 57.0127 57.969 57.5094 57.9599C58.509 57.9282 59.5012 57.7266 60.4606 57.3602C61.422 56.991 62.3537 56.502 63.2429 55.9001C64.1377 55.3069 65.0079 54.643 65.8573 53.9432C66.7067 53.2433 67.5245 52.4754 68.3265 51.6792C69.1285 50.8831 69.9068 50.0574 70.6654 49.1868L71.8012 47.8859L72.3692 47.2349L72.6536 46.91L72.9321 46.5774L74.0453 45.2407L74.6013 44.5729L74.8789 44.2378L75.1515 43.8962L76.2379 42.5235L76.7802 41.8378L77.0518 41.4936L77.3165 41.1417L79.4361 38.3269L80.4998 36.9221L81.0312 36.2184C81.206 35.9834 81.3927 35.76 81.5734 35.5301C82.3043 34.6223 83.0194 33.6913 83.776 32.8194C84.1513 32.3802 84.5316 31.9462 84.9217 31.5275C85.3101 31.1055 85.7164 30.7119 86.1385 30.3487C86.561 29.9852 87.0115 29.6801 87.4828 29.4383C87.7187 29.3185 87.9658 29.2398 88.2176 29.2045C88.4702 29.1663 88.7261 29.2104 88.9623 29.3329C88.726 29.2131 88.4704 29.1716 88.2186 29.2122C87.9681 29.2516 87.7227 29.3336 87.4887 29.4562C87.0219 29.7049 86.576 30.0157 86.1583 30.3834C85.7412 30.7528 85.34 31.1514 84.9563 31.5776C84.5711 32.0013 84.1957 32.4405 83.8244 32.8848C82.3428 34.6749 80.9334 36.551 79.5408 38.4541L77.435 41.292L77.1713 41.6464L76.9017 41.9931L76.3614 42.6852L75.2809 44.0695L75.0102 44.415L74.7337 44.7527L74.1806 45.4256L73.0734 46.7739L72.7929 47.1091L72.5104 47.4378L71.9444 48.0953L70.8125 49.4089C69.3036 51.1695 67.6936 52.778 65.9966 54.2205C65.1403 54.9293 64.2681 55.5997 63.3624 56.2019C62.4591 56.8173 61.5121 57.3175 60.5347 57.6953C59.5529 58.0724 58.5376 58.2813 57.5143 58.3168C56.9999 58.3278 56.4858 58.2737 55.9794 58.1551C55.4718 58.0336 54.9753 57.8438 54.4979 57.5888C53.5589 57.0658 52.6712 56.3989 51.8539 55.6022C51.442 55.217 51.042 54.8048 50.6509 54.3836C50.2597 53.9624 49.8765 53.5284 49.5061 53.0764C48.0246 51.2632 46.7001 49.2677 45.3983 47.2555C44.7464 46.2487 44.111 45.2244 43.4921 44.1825C42.8659 43.1488 42.2772 42.0804 41.6767 41.0223L40.7779 39.4326L40.3295 38.6377L39.891 37.8338L38.1388 34.6171L36.3857 31.4068L35.5106 29.7978L34.6503 28.1683L33.794 26.54C33.5105 25.9955 33.2171 25.4587 32.9455 24.9053L31.2902 21.6038L29.6308 18.3023L28.8032 16.6522C28.5246 16.1052 28.2422 15.5607 27.9597 15.0175C27.6772 14.4744 27.3888 13.9338 27.0974 13.3983C26.806 12.8628 26.5048 12.3376 26.2085 11.8086L25.3097 10.2226L24.8603 9.43036C24.7062 9.17353 24.5512 8.91029 24.3941 8.65988C24.079 8.14623 23.7571 7.64026 23.4212 7.15229C23.0854 6.66433 22.7299 6.19177 22.3674 5.73976C22.0046 5.28361 21.6153 4.86462 21.2029 4.48649C20.7941 4.09574 20.3299 3.8142 19.8369 3.6582Z" fill="url(#paint19_linear_2437_624)"/>
<path d="M21.7734 3.14648C22.2527 3.26203 22.7141 3.47893 23.1394 3.78855C23.5661 4.09314 23.9725 4.44367 24.3543 4.83641C25.1129 5.62935 25.8235 6.49697 26.4798 7.43161C27.1425 8.35747 27.7717 9.32186 28.385 10.3042C28.6902 10.796 28.9944 11.2878 29.2898 11.7899L30.1688 13.3013C32.5205 17.3283 34.727 21.4902 37.0945 25.4902C38.2659 27.5024 39.458 29.4992 40.6383 31.5076C41.8186 33.5159 42.9732 35.5462 44.1683 37.5353L45.0572 39.0326L45.5027 39.7812L45.955 40.5221C46.5615 41.5071 47.1758 42.483 47.805 43.4435C49.0491 45.3743 50.3802 47.2074 51.7913 48.9331C52.499 49.7905 53.2454 50.5924 54.0264 51.3345C54.8 52.0788 55.6308 52.717 56.5055 53.2388C56.942 53.494 57.3935 53.7031 57.8557 53.8642C58.3178 54.0234 58.7897 54.1291 59.2661 54.18C60.2231 54.2764 61.1858 54.1898 62.1235 53.9232C63.0651 53.6579 63.9844 53.2734 64.8683 52.7752C65.7551 52.2772 66.617 51.7077 67.4491 51.0699C68.2847 50.4279 69.0946 49.7447 69.8877 49.0153C70.6809 48.286 71.4582 47.5373 72.2216 46.7604C72.9851 45.9835 73.7259 45.1668 74.4775 44.3694C75.2292 43.5719 75.9591 42.7334 76.6969 41.9167C77.4347 41.1 78.1428 40.2345 78.8698 39.3934L80.9854 36.7892L82.0403 35.4833L82.5677 34.8296C82.7425 34.6113 82.9193 34.3943 83.1001 34.1812L84.1737 32.897L84.711 32.255C84.8927 32.0457 85.0764 31.8377 85.2611 31.6335C85.9932 30.7992 86.7738 30.0396 87.596 29.3618C88.0092 29.0248 88.4527 28.7552 88.9166 28.5592C89.1496 28.4653 89.3917 28.4144 89.6356 28.4078C89.8798 28.4017 90.1218 28.4689 90.3428 28.6042C90.121 28.4734 89.879 28.411 89.6356 28.4219C89.3931 28.4332 89.153 28.4889 88.9225 28.5875C88.4639 28.7914 88.0264 29.0678 87.6197 29.4107C86.8065 30.0993 86.0351 30.8682 85.3125 31.7105C85.1298 31.9172 84.949 32.1278 84.7683 32.3384L84.2379 32.9805L83.1761 34.2775C82.9983 34.4923 82.8232 34.7107 82.6507 34.9324L82.1292 35.5937L81.0862 36.9151L78.9834 39.5411C78.2634 40.3911 77.5473 41.2464 76.8223 42.09C76.0973 42.9337 75.3556 43.7479 74.6148 44.5659C73.8741 45.3839 73.1195 46.1826 72.3659 46.9826C70.8428 48.5556 69.2655 50.0529 67.5825 51.3396C66.7421 51.9887 65.8709 52.5678 64.974 53.0732C64.075 53.5829 63.1398 53.9773 62.1818 54.2507C61.2183 54.5263 60.2291 54.6176 59.2454 54.5216C58.7531 54.4702 58.2653 54.3623 57.7876 54.1994C57.3106 54.0341 56.8445 53.8194 56.3939 53.5573C55.5 53.0278 54.6507 52.3792 53.8595 51.6221C53.07 50.8729 52.3157 50.0628 51.6007 49.1964C50.1836 47.4565 48.8475 45.6084 47.5995 43.6618C46.9707 42.6962 46.3541 41.7181 45.7496 40.7276L45.2972 39.9828L44.8409 39.2496L43.952 37.7484C42.7589 35.7516 41.6023 33.7227 40.4309 31.7131C39.2595 29.7034 38.0733 27.7027 36.9108 25.6777C34.562 21.6481 32.3753 17.4683 30.0513 13.4233L29.1851 11.9003C28.8957 11.3944 28.5924 10.8988 28.2961 10.4031C27.6927 9.41432 27.0734 8.44348 26.4195 7.50993C25.7736 6.5686 25.0733 5.69286 24.3246 4.89033C23.9489 4.49177 23.5481 4.13481 23.1266 3.82322C22.7072 3.50254 22.25 3.2739 21.7734 3.14648Z" fill="url(#paint20_linear_2437_624)"/>
<path d="M23.7764 2.66797C24.2349 2.76075 24.6818 2.93352 25.1048 3.18162C25.5289 3.42727 25.9371 3.71666 26.3256 4.04708C27.0974 4.71727 27.8273 5.4657 28.5084 6.28533C29.1998 7.09561 29.8497 7.95469 30.4838 8.82661C30.8018 9.26493 31.1156 9.70836 31.425 10.1569C31.7322 10.6077 32.0285 11.0712 32.3307 11.5271L33.2325 12.9037L33.6829 13.592C33.832 13.8231 33.9792 14.0581 34.1224 14.2905L35.8785 17.0912L37.6267 19.8983L38.5018 21.3005L39.3907 22.6887L41.1637 25.4701L42.9267 28.2656C43.5193 29.1966 44.0912 30.1379 44.6739 31.0727L45.545 32.4775C45.8413 32.9462 46.1377 33.4073 46.427 33.8721L48.199 36.6561C48.7916 37.5755 49.398 38.4859 50.0193 39.3745C51.2596 41.1545 52.57 42.8497 53.9453 44.4533C55.3281 46.0405 56.7849 47.5352 58.4334 48.5869C59.2508 49.1197 60.1225 49.4981 61.0221 49.7105C61.9239 49.9109 62.8429 49.9455 63.7521 49.8132C64.6634 49.6743 65.562 49.4188 66.4347 49.0504C67.313 48.686 68.171 48.2436 69.0027 47.7265C69.8346 47.2112 70.6432 46.6345 71.4245 45.9994C72.2146 45.3702 72.9761 44.6985 73.7347 44.0102C74.4932 43.3219 75.2419 42.6196 75.9748 41.885C76.7076 41.1505 77.4336 40.4032 78.1635 39.6622C78.527 39.2885 78.8934 38.9213 79.2499 38.545C79.6065 38.1688 79.965 37.7836 80.3186 37.3958C81.0238 36.6163 81.7182 35.8201 82.4194 35.0342L84.5143 32.6624L85.58 31.5003C85.9376 31.1151 86.2843 30.7183 86.6566 30.3575C87.3866 29.6123 88.1618 28.9453 88.9747 28.3632C89.3812 28.0691 89.816 27.8467 90.2676 27.7019C90.494 27.633 90.7269 27.6066 90.959 27.6236C91.1912 27.6411 91.4176 27.7253 91.6217 27.8701C91.4163 27.7303 91.1897 27.6509 90.958 27.6377C90.7253 27.6253 90.4925 27.6565 90.2666 27.7302C89.8197 27.8832 89.3905 28.1134 88.9905 28.4146C88.186 29.0084 87.4194 29.6852 86.6981 30.4384C86.3307 30.8031 85.988 31.2088 85.6354 31.5941L84.5825 32.769L82.5083 35.1742C81.8169 35.9691 81.1256 36.7704 80.4204 37.5575C80.0687 37.9505 79.7151 38.3396 79.3556 38.7209C78.9961 39.1023 78.6307 39.4748 78.2692 39.851C77.5432 40.5997 76.8242 41.356 76.0913 42.0957C75.3585 42.8353 74.6098 43.5557 73.8562 44.2504C72.345 45.6424 70.7943 46.9882 69.1024 48.0244C68.2627 48.5508 67.3961 49.0014 66.5088 49.3728C65.6196 49.7514 64.7039 50.0146 63.7748 50.1586C62.8406 50.2981 61.896 50.2656 60.9688 50.0623C60.0423 49.8469 59.1443 49.4603 58.302 48.9143C56.6151 47.8446 55.1325 46.3345 53.7419 44.7383C52.3621 43.1213 51.0474 41.4129 49.803 39.6198C49.1797 38.7209 48.5753 37.808 47.9807 36.8847L46.2236 34.0955C45.9273 33.6294 45.631 33.1671 45.3436 32.6971L44.4744 31.2846C43.8926 30.3459 43.3168 29.4008 42.7321 28.4698L39.2199 22.8736L38.3398 21.4752L37.4727 20.0627L35.7402 17.2376L33.997 14.4267C33.8518 14.1929 33.7086 13.9554 33.5604 13.7242L33.115 13.0321L32.2261 11.6491C31.9297 11.1881 31.6334 10.7207 31.3371 10.2661C31.0408 9.81153 30.7238 9.3672 30.4107 8.92418C29.7835 8.03942 29.1375 7.17777 28.46 6.35593C27.789 5.52863 27.0687 4.77165 26.3058 4.09204C25.923 3.75454 25.5201 3.4574 25.1009 3.20344C24.68 2.948 24.2344 2.76788 23.7764 2.66797Z" fill="url(#paint21_linear_2437_624)"/>
<path d="M25.8447 2.22852C26.7169 2.37105 27.5445 2.81024 28.3139 3.34059C29.0853 3.88853 29.8227 4.51365 30.5195 5.21027C31.2187 5.89985 31.8894 6.63693 32.5422 7.39328C32.8682 7.77338 33.1905 8.15862 33.5092 8.54899L33.9833 9.14095L34.4455 9.74834L36.2905 12.1882L38.0832 14.6871C39.2783 16.3564 40.4487 18.0489 41.6389 19.7183L43.4167 22.2261L45.1876 24.7546C46.3729 26.4342 47.5196 28.1549 48.6979 29.8384C49.8762 31.5219 51.0446 33.2182 52.2822 34.8234C52.8975 35.6298 53.5297 36.4144 54.1677 37.1926C54.8058 37.9707 55.4517 38.7335 56.1184 39.4681C57.4449 40.9397 58.8326 42.3355 60.3595 43.4142C61.117 43.959 61.9208 44.387 62.7547 44.6893C63.5926 44.9753 64.4564 45.1135 65.3227 45.1002C67.0571 45.0835 68.7717 44.5391 70.4053 43.7686C72.0418 42.979 73.6197 41.9977 75.1196 40.8369C75.4969 40.5502 75.8709 40.2565 76.2416 39.956C76.612 39.6542 76.9754 39.3371 77.3428 39.0289L78.4412 38.0953C78.8056 37.782 79.1641 37.4533 79.5276 37.1348L80.6141 36.1692L81.6798 35.1726C82.0334 34.8375 82.3929 34.5139 82.7416 34.1698L83.7895 33.1425L85.8864 31.0879C86.233 30.7399 86.5935 30.4137 86.9491 30.0811C87.3047 29.7485 87.6593 29.4121 88.0208 29.0898C88.7415 28.4377 89.5011 27.8614 90.2924 27.3665C90.6899 27.1208 91.1102 26.9434 91.5429 26.8387C91.7598 26.7904 91.9811 26.783 92.1997 26.8169C92.4181 26.851 92.628 26.9479 92.814 27.1007C92.6264 26.9528 92.4159 26.8607 92.1977 26.831C91.9802 26.8023 91.7606 26.8148 91.5458 26.8682C91.1176 26.9814 90.7026 27.1666 90.3112 27.4191C89.5279 27.9259 88.7769 28.5129 88.0652 29.1745C87.7077 29.502 87.359 29.8462 87.0054 30.1813C86.6518 30.5165 86.2982 30.8503 85.9555 31.2086L83.8814 33.3004L82.8393 34.3431C82.4927 34.6898 82.1341 35.0186 81.7815 35.3576L80.7198 36.3682L79.6412 37.3454C79.2807 37.669 78.9241 38.0003 78.5607 38.3187L77.4653 39.2652C77.0989 39.5785 76.7364 39.8995 76.366 40.2064C75.9956 40.5133 75.6213 40.81 75.244 41.1053C74.4894 41.6883 73.719 42.243 72.9299 42.7477C72.139 43.251 71.3286 43.7011 70.5021 44.096C68.8517 44.8806 67.1114 45.4405 65.3335 45.4649C64.4442 45.4816 63.5572 45.3425 62.6964 45.0514C61.8408 44.7441 61.0158 44.308 60.238 43.7519C58.6805 42.6578 57.275 41.253 55.9386 39.7711C55.2719 39.0263 54.622 38.2584 53.983 37.4777C53.344 36.6969 52.7109 35.9046 52.0945 35.0918C50.854 33.475 49.6945 31.7646 48.5112 30.0837C47.328 28.4028 46.1892 26.6692 45.0099 24.987L43.2488 22.456L41.4798 19.9276C40.2946 18.2454 39.138 16.5388 37.9538 14.8617L36.176 12.3461L34.3507 9.89343L33.8954 9.27965L33.4272 8.68123C33.1131 8.28486 32.7954 7.89362 32.4741 7.50752C31.8311 6.73705 31.1694 5.99229 30.479 5.29373C29.7937 4.58785 29.0672 3.95239 28.306 3.39319C27.5327 2.84487 26.7149 2.38903 25.8447 2.22852Z" fill="url(#paint22_linear_2437_624)"/>
<path d="M27.9746 1.82324C28.7974 1.93624 29.5924 2.27526 30.351 2.69774C31.1076 3.13115 31.8394 3.63453 32.5407 4.20401C33.2439 4.77159 33.9235 5.38925 34.5823 6.03388C35.241 6.67851 35.8909 7.3463 36.5231 8.03844L38.3997 10.1418C38.7157 10.4872 39.015 10.8583 39.3192 11.2217L40.2289 12.3145L41.1385 13.4086L42.0334 14.5207L43.8221 16.746L45.6059 18.9791C46.1985 19.7213 46.7911 20.4777 47.3837 21.2263L50.9167 25.7374C53.2792 28.7295 55.7178 31.6149 58.275 34.3192C58.915 34.9921 59.5678 35.6419 60.2424 36.2454C60.917 36.849 61.6143 37.423 62.3265 37.9495C63.0346 38.481 63.776 38.9338 64.5428 39.3029C65.3101 39.661 66.1093 39.8905 66.9212 39.9861C67.7359 40.0785 68.5553 40.076 69.3697 39.9784C70.1854 39.8879 70.9939 39.7083 71.7865 39.4416C72.5767 39.1848 73.3668 38.8573 74.1412 38.5055C74.9155 38.1536 75.683 37.7594 76.4346 37.328C77.9438 36.4753 79.3779 35.4133 80.8219 34.3745C82.2528 33.3112 83.6661 32.2073 85.0621 31.0627C86.4587 29.9237 87.8523 28.7629 89.2914 27.7086C89.6496 27.4432 90.0117 27.1886 90.3778 26.9446C90.7459 26.6982 91.1248 26.4803 91.5127 26.2922C91.9012 26.1047 92.307 25.9843 92.7196 25.934C92.9263 25.911 93.1345 25.9261 93.3379 25.9789C93.541 26.0335 93.7327 26.1443 93.8999 26.3038C93.7313 26.1487 93.5389 26.0427 93.336 25.993C93.1333 25.9454 92.9264 25.9354 92.7216 25.9635C92.3122 26.0228 91.9107 26.1523 91.5275 26.3487C91.1441 26.5435 90.7697 26.7673 90.4065 27.019C90.042 27.2681 89.6815 27.5327 89.3259 27.8011C87.8997 28.8797 86.5239 30.0572 85.1362 31.2245C83.7484 32.3918 82.339 33.5064 80.9108 34.5889C79.4717 35.6393 78.0396 36.7219 76.5235 37.5976C75.0135 38.4893 73.4484 39.214 71.8448 39.7639C71.039 40.0374 70.217 40.223 69.3874 40.3187C68.5575 40.4201 67.7222 40.4253 66.8916 40.3341C66.0571 40.2385 65.2353 40.0054 64.446 39.6406C63.6632 39.2674 62.9062 38.8081 62.1832 38.2679C61.4593 37.7376 60.76 37.1623 60.0735 36.5536C59.3871 35.9449 58.7293 35.2901 58.0853 34.6146C55.5252 31.8923 53.0846 28.9876 50.7241 25.9815C48.3786 22.9612 46.0256 19.9517 43.665 16.9528L41.8872 14.7082L40.9983 13.5871L40.0975 12.4866L39.1958 11.3848C38.8994 11.0188 38.6031 10.6464 38.2851 10.2984L36.4263 8.17582C35.802 7.47555 35.1637 6.79795 34.5111 6.14305C33.8583 5.49071 33.1896 4.8589 32.4953 4.28489C31.8021 3.7048 31.0779 3.18984 30.3283 2.74395C29.5826 2.31248 28.7954 1.95551 27.9746 1.82324Z" fill="url(#paint23_linear_2437_624)"/>
<path d="M30.1621 1.45801C30.9385 1.55512 31.7039 1.76619 32.4437 2.08722C33.1841 2.40671 33.9066 2.79288 34.6057 3.24292C35.9998 4.15079 37.341 5.18984 38.6187 6.35178C39.2617 6.92578 39.8918 7.52294 40.5141 8.13162C41.1363 8.74029 41.7418 9.37977 42.3532 10.0077C43.5828 11.2533 44.7611 12.5759 45.9582 13.8742C47.1385 15.1943 48.3208 16.513 49.4912 17.8472L51.2513 19.8415L53.0202 21.8216L53.4627 22.316L53.9101 22.8027L54.8069 23.7722C55.4065 24.4143 55.9922 25.0756 56.6134 25.6894L58.4485 27.559C59.0675 28.1694 59.6953 28.7631 60.3321 29.3401C61.5957 30.5073 62.9153 31.5684 64.2828 32.5171C65.6547 33.4468 67.0928 34.2288 68.603 34.6385C70.1182 35.0401 71.6721 35.1349 73.2096 34.9197C73.9792 34.8169 74.7437 34.6561 75.499 34.4381C76.2556 34.225 77.0033 33.9604 77.743 33.6561C78.4828 33.3518 79.2127 33.014 79.9338 32.6378C80.2962 32.4567 80.6508 32.2525 81.0064 32.0471L82.0741 31.4397L82.3408 31.2869L82.6035 31.1225L83.1279 30.7925L84.1778 30.1312L86.252 28.7494C86.9434 28.2884 87.6348 27.8146 88.3321 27.3664L89.378 26.6898L90.4428 26.0631C90.7954 25.8473 91.1578 25.6598 91.5292 25.4878C91.8959 25.3136 92.2711 25.1712 92.6522 25.0615C93.0337 24.947 93.4261 24.9064 93.8167 24.9408C94.2097 24.9737 94.5842 25.1695 94.8854 25.4994C94.5812 25.1786 94.206 24.9932 93.8147 24.9703C93.427 24.9455 93.0386 24.9953 92.6621 25.118C92.2847 25.2349 91.9135 25.3838 91.551 25.5636C91.1875 25.7408 90.828 25.9346 90.4783 26.1568L89.4235 26.7989L88.3864 27.4948C87.695 27.9546 87.0115 28.4426 86.3241 28.9164L84.25 30.3289L83.202 31.0031L82.6785 31.3408L82.4158 31.5077L82.1491 31.6644L81.0893 32.2769C80.7338 32.485 80.3792 32.6969 80.0167 32.8831C79.2927 33.2683 78.5609 33.6188 77.8171 33.9334C76.3319 34.5821 74.7975 35.0221 73.2402 35.2458C71.6763 35.471 70.0951 35.38 68.5526 34.9762C67.0088 34.564 65.5451 33.7729 64.1574 32.8394C62.7756 31.8881 61.4421 30.8227 60.1651 29.6496C59.5258 29.0675 58.896 28.4682 58.2757 27.8519L56.4396 25.9681C55.8213 25.3504 55.2316 24.6839 54.6321 24.0419L53.7363 23.0659L53.2889 22.578L52.8474 22.081L51.0814 20.0919L49.3243 18.0912L45.812 14.0912C44.6268 12.7827 43.4574 11.4459 42.2386 10.19C41.6321 9.55697 41.0366 8.90589 40.4163 8.29721C39.796 7.68854 39.1738 7.08243 38.5397 6.49944C37.2769 5.31985 35.9499 4.2611 34.5692 3.33152C33.8776 2.87065 33.1625 2.47205 32.4289 2.13857C31.6954 1.80148 30.935 1.5732 30.1621 1.45801Z" fill="url(#paint24_linear_2437_624)"/>
<path d="M32.4043 1.12598C33.1393 1.19388 33.8694 1.33426 34.5881 1.54589C35.3065 1.76126 36.0135 2.03662 36.7047 2.37028C38.0883 3.03597 39.432 3.83433 40.7246 4.75876C41.3715 5.21848 42.0086 5.70899 42.6318 6.21237C42.9446 6.46919 43.256 6.72602 43.5662 6.98284L44.4827 7.78416L45.4003 8.58542C45.7045 8.85509 46.0156 9.11321 46.31 9.40085L48.1007 11.0882C48.2488 11.2307 48.397 11.3681 48.5471 11.5119L48.9846 11.9498L49.8597 12.8256L51.606 14.5823L53.3492 16.3403C53.9349 16.9181 54.5276 17.4844 55.1162 18.0558C57.4867 20.3159 59.8818 22.5503 62.3846 24.5342C63.6449 25.5063 64.9467 26.4013 66.2672 27.2232C67.595 28.0254 68.9712 28.6846 70.3819 29.1943C71.7914 29.708 73.2354 30.0675 74.6972 30.1253C76.1593 30.2239 77.6253 30.1015 79.0657 29.7606C79.7867 29.5911 80.5028 29.3754 81.2129 29.1404C81.9231 28.9054 82.6293 28.6383 83.3236 28.3353C83.6713 28.1824 84.015 28.0309 84.3607 27.8537L85.3849 27.3285L85.8966 27.0717C86.0674 26.9831 86.2363 26.8867 86.4062 26.7956L87.4235 26.2383C87.7613 26.0495 88.107 25.8813 88.4488 25.7015L88.9624 25.437C89.1332 25.3484 89.3041 25.2598 89.4789 25.1802C90.1703 24.8592 90.8617 24.5124 91.5679 24.2427C92.2707 23.9463 93.0023 23.7807 93.7408 23.7509C94.1107 23.7325 94.4805 23.7911 94.8362 23.9243C95.1908 24.0658 95.5119 24.322 95.7695 24.6691C95.5079 24.3307 95.1848 24.0838 94.8302 23.9512C94.476 23.8303 94.1094 23.7822 93.7438 23.8087C93.0101 23.8537 92.2849 24.0326 91.5896 24.3404C90.8884 24.6229 90.2069 24.9824 89.5155 25.3163C89.3426 25.3972 89.1727 25.4896 89.0029 25.5821L88.4972 25.8556C88.1584 26.0418 87.8166 26.2151 87.4798 26.4103L86.4674 26.9805C86.2986 27.0755 86.1307 27.1731 85.9598 27.263L85.4482 27.5339L84.4229 28.0745C84.0812 28.2556 83.7316 28.4136 83.3839 28.5715C82.6856 28.8848 81.9774 29.1558 81.2653 29.4062C80.5532 29.6566 79.8341 29.8775 79.1082 30.0573C78.3814 30.2467 77.6461 30.3754 76.9066 30.4425C76.1677 30.5009 75.4269 30.5099 74.6873 30.4695C73.2057 30.4168 71.7331 30.0573 70.3098 29.5436C68.8829 29.0331 67.4905 28.3713 66.1467 27.5648C64.8114 26.7404 63.5057 25.8492 62.2325 24.8681C59.7129 22.8585 57.3257 20.6151 54.9552 18.3397C54.3626 17.7644 53.77 17.1955 53.1882 16.6138L51.4479 14.8468L49.7076 13.0824L48.8394 12.1977L48.4059 11.7547C48.2597 11.6096 48.1095 11.4696 47.9634 11.327L46.1855 9.623C45.8942 9.33279 45.585 9.07344 45.2838 8.79992L44.3741 7.98832L43.4644 7.17803C43.1583 6.9212 42.8491 6.65542 42.539 6.40116C41.918 5.88751 41.2882 5.39612 40.6495 4.92699C39.372 3.98218 38.0425 3.16112 36.6721 2.47048C35.3045 1.76647 33.8681 1.31392 32.4043 1.12598Z" fill="url(#paint25_linear_2437_624)"/>
<path d="M34.7002 0.836914C36.0944 0.947379 37.4769 1.23557 38.8277 1.6973C40.18 2.1545 41.5066 2.73153 42.7983 3.42441C44.0902 4.11912 45.3495 4.905 46.591 5.73583C47.8325 6.56665 49.0493 7.46041 50.2454 8.40295C50.8427 8.87465 51.4336 9.35877 52.0183 9.8553C52.604 10.351 53.1779 10.8697 53.7527 11.3834C54.9123 12.385 56.0531 13.4226 57.2482 14.3536C59.6058 16.2798 62.0394 18.0544 64.4879 19.7687C66.9529 21.4484 69.5318 22.8286 72.1919 23.892C73.5187 24.4208 74.8717 24.8314 76.2414 25.1209C77.6108 25.4102 78.998 25.5314 80.3848 25.4831C81.0762 25.4356 81.7676 25.3688 82.4649 25.3085C83.1562 25.2237 83.8476 25.1094 84.5321 24.9592C85.2166 24.8089 85.8971 24.624 86.5677 24.3916C86.9035 24.276 87.2364 24.1476 87.5663 24.0063C87.8991 23.8779 88.2349 23.7418 88.5688 23.6108C89.2335 23.3283 89.919 23.1434 90.5975 22.9251C90.6814 22.8956 90.7674 22.8763 90.8543 22.857L91.1121 22.7967L91.6276 22.6773C91.8005 22.64 91.9714 22.5938 92.1442 22.563C92.3171 22.5321 92.4909 22.5039 92.6647 22.4795C93.0124 22.4333 93.3561 22.3935 93.7117 22.3922C94.0622 22.3887 94.4121 22.4292 94.7567 22.5129C95.1007 22.596 95.4335 22.7444 95.7443 22.9533C96.0557 23.1632 96.3299 23.4554 96.5493 23.8112C96.325 23.4634 96.0475 23.18 95.7345 22.9791C95.4224 22.7805 95.0896 22.6425 94.7468 22.5694C94.4043 22.4937 94.057 22.4615 93.7097 22.4731C93.363 22.4808 93.0183 22.5283 92.6716 22.581C92.4988 22.6092 92.3269 22.64 92.1551 22.6747C91.9832 22.7094 91.8133 22.7582 91.6425 22.8031L91.1299 22.9315L90.8741 22.997C90.7891 23.0176 90.7032 23.0381 90.6192 23.0689C89.9466 23.3013 89.2681 23.4991 88.6093 23.7932L87.6137 24.2028C87.2845 24.3483 86.95 24.4815 86.6102 24.6022C85.9346 24.8449 85.2511 25.0413 84.5617 25.2006C83.8723 25.3598 83.179 25.4831 82.4876 25.5781L81.4426 25.6834C81.093 25.7155 80.7512 25.7592 80.3956 25.781C78.9934 25.8511 77.5893 25.7406 76.2039 25.451C74.8203 25.1657 73.4534 24.7572 72.1129 24.2285C69.4342 23.1708 66.8367 21.7926 64.3536 20.1116C61.8962 18.378 59.4695 16.5905 57.1069 14.6515C55.9118 13.7128 54.7691 12.6663 53.6075 11.657C52.4668 10.6194 51.3121 9.61005 50.1289 8.65595C47.7669 6.73733 45.2996 5.04716 42.7469 3.59909C41.4682 2.88316 40.1531 2.28249 38.811 1.80132C38.1393 1.56248 37.4608 1.36127 36.7753 1.19776C36.089 1.02992 35.3963 0.909469 34.7002 0.836914Z" fill="url(#paint26_linear_2437_624)"/>
<path d="M37.0381 0.59082C38.3683 0.672279 39.693 0.866567 41.0037 1.1725C42.3167 1.46941 43.6162 1.8604 44.8961 2.34363C46.1801 2.81362 47.4286 3.4223 48.6869 3.9886C49.3161 4.27496 49.9343 4.60111 50.5497 4.93627C50.8568 5.10577 51.162 5.27914 51.4653 5.4602L52.366 6.02263L53.2678 6.58638C53.5641 6.77514 53.8703 6.95492 54.1646 7.15909C54.7572 7.55974 55.3406 7.98137 55.9148 8.42396C57.0506 9.32927 58.2023 10.1717 59.3915 10.9511L61.1693 12.1351C61.7619 12.5203 62.3545 12.8966 62.962 13.2574C63.5694 13.6183 64.1749 13.9636 64.7833 14.3129C65.3917 14.6622 65.9981 15.0192 66.6115 15.3493L68.4436 16.3624L70.3035 17.2857L70.7687 17.5168L71.2398 17.7261L72.1821 18.146C72.4971 18.2834 72.8082 18.4324 73.1263 18.5596L74.0774 18.9448L75.0286 19.33L75.9906 19.6613L76.9526 19.9939L77.9235 20.279L78.8944 20.5615C79.2193 20.6488 79.5443 20.7272 79.8712 20.8016C80.5231 20.9506 81.1789 21.0713 81.8387 21.1637C82.4965 21.2575 83.1602 21.3075 83.823 21.3756C84.483 21.4512 85.1456 21.4834 85.8082 21.4719C85.9732 21.4719 86.1381 21.4578 86.3021 21.445L86.7959 21.4077C87.1268 21.3795 87.4586 21.3628 87.7885 21.3268C88.1184 21.2909 88.4453 21.2292 88.7703 21.1535C89.0952 21.0777 89.4172 20.9685 89.7481 20.8966C90.079 20.8247 90.4089 20.758 90.7417 20.7194L91.7393 20.6244C92.4064 20.5575 93.077 20.586 93.7394 20.7092C94.0692 20.7695 94.3991 20.8376 94.727 20.9287C95.0537 21.0233 95.3728 21.1575 95.6802 21.3294C95.9862 21.5046 96.2743 21.729 96.5375 21.9972C96.8023 22.2618 97.0301 22.5836 97.2111 22.9487C97.0232 22.59 96.7893 22.276 96.5197 22.0202C96.2546 21.7598 95.9652 21.544 95.6584 21.3782C95.3522 21.2144 95.0347 21.0885 94.7103 21.002C94.3863 20.9134 94.0564 20.8581 93.7226 20.8055C93.065 20.6968 92.4002 20.683 91.7403 20.7644L90.7526 20.8799C90.4227 20.9262 90.0958 20.9955 89.7708 21.0764C89.6088 21.1175 89.4469 21.1624 89.2859 21.2048C89.1249 21.2472 88.9589 21.3011 88.792 21.3409C88.4631 21.4218 88.1313 21.4822 87.7984 21.5297C87.4656 21.5772 87.1337 21.5914 86.8008 21.6235L86.3011 21.6684C86.1351 21.6838 85.9682 21.698 85.8003 21.7031C85.1328 21.7229 84.4649 21.6989 83.7992 21.6312C83.1345 21.5721 82.4688 21.531 81.8041 21.445C80.4736 21.2791 79.1536 20.9938 77.8534 20.591L76.8775 20.3085L75.9096 19.9798L74.9417 19.6497L73.9856 19.271L73.0285 18.8921C72.7095 18.7637 72.3964 18.6173 72.0803 18.4812L71.1341 18.0638L70.66 17.8559L70.1928 17.6273L68.3162 16.7078L66.4742 15.6959C65.8579 15.3633 65.2554 15 64.646 14.6507C64.0366 14.3014 63.4291 13.9521 62.8247 13.5848C62.2202 13.2176 61.6187 12.8452 61.0251 12.4497L59.2473 11.2554C58.062 10.4721 56.8956 9.61308 55.7657 8.70393C55.1968 8.26219 54.617 7.84352 54.0313 7.43774C53.7399 7.23099 53.4387 7.05253 53.1424 6.85606L52.2534 6.28334L51.3645 5.71188C51.0735 5.52954 50.7755 5.35277 50.4707 5.18156C49.8622 4.83998 49.2489 4.5087 48.6247 4.21464C47.3743 3.63165 46.1327 3.01011 44.8586 2.52214C43.5886 2.01352 42.298 1.59595 40.9928 1.27138C40.3399 1.10958 39.6841 0.968357 39.0253 0.852786C38.3665 0.737215 37.7058 0.646038 37.0381 0.59082Z" fill="url(#paint27_linear_2437_624)"/>
<path d="M39.4316 0.384766C41.9979 0.505091 44.5554 0.841421 47.0882 1.39156C49.6222 1.96485 52.1152 2.81097 54.5413 3.92124C55.7548 4.48012 56.9443 5.1231 58.1049 5.84742C58.6876 6.20698 59.2526 6.60506 59.8255 6.97103C60.3983 7.33701 60.9751 7.70173 61.5608 8.03689L63.3229 9.02563L63.7634 9.27349C63.9115 9.3531 64.0597 9.42501 64.2108 9.50078L65.1066 9.95147L66.0015 10.4009L66.2257 10.5139L66.4519 10.6167L66.9052 10.8234C67.5097 11.0969 68.1122 11.3794 68.7186 11.6465C71.1473 12.7072 73.6057 13.6485 76.071 14.5705C78.5362 15.4925 80.9956 16.4453 83.4786 17.2389L84.412 17.5291C84.7241 17.6177 85.0392 17.6909 85.3523 17.7718C85.6654 17.8527 85.9795 17.9375 86.2945 18.0055C86.6096 18.0736 86.9257 18.1339 87.2427 18.1827C87.8762 18.2871 88.5135 18.3479 89.1519 18.365C89.47 18.3715 89.789 18.3651 90.107 18.342C90.2664 18.33 90.4254 18.3145 90.5841 18.2957C90.7421 18.2751 90.9041 18.2534 91.0651 18.2405C92.3491 18.1275 93.6647 18.3009 94.8726 18.9018C95.4781 19.197 96.0446 19.6129 96.5517 20.1346C97.0596 20.6537 97.474 21.3112 97.7656 22.0608C97.4618 21.3249 97.0381 20.6842 96.524 20.1834C96.0149 19.6787 95.4484 19.2801 94.845 19.002C93.6429 18.4344 92.3431 18.2919 91.0759 18.4318C90.7599 18.4665 90.4399 18.5256 90.1169 18.5487C89.7939 18.5718 89.4719 18.5872 89.1499 18.5859C88.5053 18.5774 87.8614 18.5251 87.221 18.4292C86.901 18.3822 86.582 18.3269 86.2639 18.2636C85.9459 18.1981 85.6308 18.1146 85.3148 18.0414C84.9987 17.9682 84.6807 17.895 84.3666 17.809L83.4263 17.5304L82.9562 17.3917L82.7211 17.3223L82.488 17.244L81.5546 16.9319C80.9314 16.7278 80.3151 16.4967 79.6968 16.2745L75.9939 14.912C73.5247 14.0003 71.0555 13.0694 68.6218 12.0151C68.0144 11.7441 67.4099 11.459 66.8045 11.1817L66.3501 10.9724L66.123 10.867L65.8988 10.754L65.0009 10.2982L64.1031 9.84106C63.954 9.76401 63.8068 9.69209 63.6557 9.61119L63.2122 9.35437L61.4443 8.35278C60.8576 8.01377 60.2798 7.64646 59.704 7.27407C59.1281 6.90167 58.5652 6.50362 57.9893 6.14406C56.8384 5.42153 55.662 4.77306 54.4603 4.19863C52.0529 3.06093 49.5772 2.1839 47.0586 1.57647L46.5865 1.46084L46.1124 1.36328L45.1632 1.16809L44.213 0.972903C43.896 0.915118 43.577 0.876609 43.2589 0.827813L42.3038 0.687801L41.8258 0.617199C41.6668 0.591517 41.5058 0.585079 41.3468 0.567101L39.4316 0.384766Z" fill="url(#paint28_linear_2437_624)"/>
<path d="M41.8633 0.224609C43.1078 0.242587 44.3503 0.236199 45.5948 0.290132C45.9059 0.304258 46.217 0.322228 46.5272 0.346626L47.4585 0.432652L49.3203 0.611163C49.9406 0.685642 50.5599 0.781956 51.1762 0.905232C51.4844 0.965585 51.7915 1.0336 52.0967 1.11578L53.0133 1.34439C54.24 1.62305 55.4499 2.01081 56.6678 2.36523C57.8805 2.74718 59.0772 3.21052 60.2531 3.75337C60.8398 4.02561 61.4235 4.32997 61.9944 4.64586C62.5653 4.96176 63.144 5.2481 63.7258 5.52932C64.0152 5.67315 64.3105 5.79897 64.6029 5.93124L65.4839 6.32419L66.3639 6.71714L67.2528 7.08055C67.8454 7.32068 68.4381 7.56853 69.0307 7.80225L70.8154 8.50851C72.0006 8.99263 73.2046 9.35598 74.4146 9.74122L75.3213 10.0289L76.227 10.3089L78.0414 10.8648C78.6478 11.0523 79.2542 11.2501 79.8508 11.5005C80.4474 11.7509 81.036 12.0141 81.6207 12.2812L85.1448 13.8658C85.4411 13.9942 85.7374 14.1137 86.0337 14.2229C86.3301 14.332 86.6333 14.4283 86.9335 14.5323L87.8353 14.838L88.739 15.1256C89.3415 15.3233 89.947 15.4967 90.5574 15.6238C90.8635 15.6867 91.1697 15.7394 91.4769 15.7753C91.631 15.7946 91.7851 15.8075 91.9391 15.8177C92.0932 15.828 92.2522 15.8357 92.4073 15.8562C93.6607 16.009 94.8637 16.5882 95.9353 17.4126C96.0697 17.5166 96.205 17.6167 96.3304 17.7349C96.4589 17.8528 96.5813 17.9815 96.6968 18.1201C96.9257 18.3969 97.1368 18.6975 97.328 19.019C97.7145 19.6574 98.0099 20.3807 98.2001 21.1545C97.9964 20.3901 97.6894 19.6791 97.2934 19.055C97.099 18.7418 96.8857 18.4494 96.6554 18.1805C96.5399 18.0473 96.4178 17.9242 96.2899 17.8119C96.1635 17.7015 96.0272 17.6039 95.8948 17.5038C94.8183 16.7089 93.6231 16.1683 92.3935 16.0463C92.2394 16.0309 92.0873 16.0219 91.9312 16.0167C91.7752 16.0116 91.6181 15.9975 91.4621 15.9808C91.15 15.9487 90.8388 15.8999 90.5307 15.8395C89.9124 15.7201 89.3 15.5557 88.6956 15.3644L87.7849 15.0896L86.8802 14.7956C86.578 14.6967 86.2777 14.6029 85.9735 14.4976C85.6693 14.3923 85.372 14.2742 85.0747 14.1509C83.8895 13.645 82.7181 13.1236 81.5388 12.5984C80.9462 12.3416 80.3654 12.0655 79.7738 11.8279C79.1821 11.5904 78.5885 11.3901 77.9811 11.2064L76.1628 10.6594L75.2531 10.3833L74.3464 10.0995C73.1404 9.72068 71.9226 9.36112 70.7295 8.87701L68.9408 8.16177C68.3482 7.9255 67.7556 7.67378 67.1629 7.4298L66.274 7.06256L65.391 6.66321L64.509 6.26512C64.2127 6.13671 63.9164 6.00828 63.628 5.85675C63.0453 5.57168 62.4658 5.27205 61.8897 4.95787C61.3168 4.63812 60.7469 4.33763 60.1632 4.05898C59.5795 3.78033 58.9918 3.53507 58.3992 3.29879C57.8066 3.06251 57.214 2.84038 56.6085 2.64262C55.4006 2.27408 54.1985 1.87217 52.9768 1.57425L52.0632 1.33411C51.758 1.25192 51.4547 1.17485 51.1486 1.11064C50.5372 0.982229 49.9218 0.876931 49.3045 0.78961L47.4487 0.568777L46.5202 0.462184C46.2114 0.430509 45.9016 0.404417 45.5908 0.383871C44.9696 0.341495 44.3493 0.317071 43.7271 0.293957L41.8633 0.224609Z" fill="url(#paint29_linear_2437_624)"/>
<path d="M44.335 0.107422C45.5409 0.107422 46.7459 0.107399 47.9529 0.116388L48.8566 0.1241H49.309L49.7613 0.14592L51.5708 0.230693C51.873 0.239681 52.1743 0.271759 52.4755 0.301294C52.7767 0.330829 53.077 0.366794 53.3782 0.407886C53.9797 0.486218 54.5783 0.60048 55.1749 0.703209L56.9675 1.01527L58.7592 1.3543C59.9543 1.57132 61.1454 1.85636 62.3228 2.22234C62.9154 2.40597 63.4971 2.60756 64.0749 2.85154C64.6527 3.09553 65.2216 3.32025 65.8014 3.53085C66.3812 3.74145 66.9659 3.9264 67.5496 4.11516C68.1333 4.30393 68.7161 4.50038 69.3047 4.66988L71.0668 5.2041L72.8249 5.77549L74.577 6.34181C74.8684 6.43427 75.1598 6.53313 75.4531 6.62045L76.3361 6.867L78.1041 7.36271C78.6967 7.53222 79.2893 7.6837 79.873 7.8699C81.0518 8.23017 82.2117 8.68781 83.3457 9.24005C83.9107 9.51485 84.4806 9.78323 85.0416 10.0644L85.8851 10.4857L86.3068 10.6975L86.7325 10.8889L88.4402 11.6594L89.2975 12.0446L90.145 12.4568C90.7099 12.738 91.2769 12.9923 91.8428 13.2555C92.1263 13.3839 92.4137 13.4982 92.7021 13.6009C92.8473 13.651 92.9925 13.6973 93.1377 13.7384C93.2829 13.7795 93.434 13.8256 93.5821 13.8821C94.1652 14.1125 94.722 14.4433 95.2375 14.8658C95.4963 15.0725 95.7452 15.296 95.9891 15.5297C96.2331 15.7634 96.4652 16.0138 96.7032 16.2539C97.1909 16.7293 97.5921 17.3382 97.8786 18.0376C98.1689 18.7278 98.3827 19.468 98.5137 20.236C98.3689 19.475 98.1421 18.7444 97.8401 18.0658C97.5471 17.3831 97.1425 16.7922 96.6548 16.3348C96.4138 16.0998 96.1778 15.8572 95.9328 15.6299C95.6879 15.4026 95.439 15.1881 95.1802 14.9878C94.6685 14.585 94.1173 14.2736 93.5416 14.062C93.3984 14.0106 93.2542 13.9669 93.1071 13.9336C92.9599 13.9002 92.8108 13.8488 92.6626 13.8051C92.3663 13.7063 92.0769 13.5984 91.7915 13.4699C91.2206 13.2131 90.6457 12.964 90.0808 12.6931L89.2314 12.2937L88.375 11.9264L86.6575 11.1817C84.3729 10.1544 82.1625 8.89079 79.8108 8.22818C79.2261 8.04583 78.6344 7.89689 78.0458 7.72995L76.2759 7.24327L75.3869 7.00055C75.0906 6.9158 74.7943 6.8169 74.5049 6.72573C73.9182 6.53825 73.3266 6.35595 72.7449 6.16462L70.9957 5.58676L69.2366 5.02941C68.6499 4.85477 68.0652 4.65449 67.4785 4.46572C66.8918 4.27696 66.3061 4.08946 65.7254 3.86987C65.1446 3.65029 64.5638 3.4243 63.992 3.17903C63.4201 2.93376 62.8433 2.73342 62.2595 2.54851C61.6758 2.36359 61.0891 2.2005 60.4985 2.05154C59.9079 1.90258 59.3133 1.76394 58.7207 1.64837L56.9359 1.28364L55.1492 0.943355C54.5566 0.832921 53.957 0.710899 53.3595 0.623579C52.7619 0.536258 52.1634 0.457947 51.5619 0.419423L49.7584 0.291011L49.307 0.260225L48.8546 0.246054L47.9509 0.216522L44.335 0.107422Z" fill="url(#paint30_linear_2437_624)"/>
<path d="M46.8428 0.0366402C48.0092 0.0366402 49.1757 0.013526 50.3431 0.0366402C50.9269 0.0443449 51.5106 0.0366602 52.0933 0.0572062L53.8445 0.123983C54.4282 0.13554 55.01 0.20103 55.5937 0.252395C56.1774 0.30376 56.7602 0.352527 57.3409 0.414164L59.0842 0.593929C59.665 0.654283 60.2477 0.706987 60.8304 0.778898C61.4132 0.850809 61.9939 0.944549 62.5727 1.03572L64.3101 1.31951C64.8888 1.42352 65.4686 1.54033 66.0444 1.688C66.3328 1.75991 66.6193 1.84728 66.9018 1.92432C67.1842 2.00137 67.4707 2.07456 67.7571 2.1439L71.2041 2.94002L72.9247 3.33943C73.4985 3.46784 74.0753 3.59622 74.6492 3.75545C75.7959 4.0829 76.9209 4.42962 78.0656 4.75065C78.6355 4.91501 79.2064 5.07166 79.7753 5.2463L80.6287 5.50312C80.9131 5.58788 81.1976 5.67264 81.48 5.7728L82.3295 6.06305C82.611 6.16321 82.8974 6.24666 83.1749 6.36865L84.0125 6.71025L84.4313 6.8823L84.6397 6.96833L84.8471 7.06338C85.3972 7.32021 85.9513 7.56291 86.4975 7.83386L88.1351 8.639L88.9529 9.0396C89.2235 9.17443 89.5021 9.30416 89.7727 9.45312C90.3149 9.74846 90.8384 10.0836 91.3658 10.4034C91.8933 10.7231 92.4187 11.0634 92.9461 11.3973C93.2089 11.5642 93.4657 11.7427 93.7274 11.9045C93.8588 11.9867 93.9901 12.065 94.1225 12.1395C94.2548 12.214 94.3931 12.2936 94.5235 12.3835C95.0519 12.7366 95.5043 13.2246 95.9793 13.6676C96.2142 13.8978 96.4357 14.1502 96.6421 14.4227C96.8495 14.6924 97.0372 14.9761 97.2436 15.2522C97.3424 15.3909 97.4411 15.527 97.5399 15.6734C97.6387 15.8198 97.7236 15.9713 97.8075 16.1292C97.9727 16.4439 98.118 16.7755 98.2421 17.1206C98.4902 17.8091 98.6472 18.5472 98.7063 19.3036C98.633 18.551 98.4624 17.8199 98.2016 17.1412C98.0741 16.8023 97.9255 16.4777 97.7572 16.1704C97.673 16.017 97.5827 15.8696 97.4865 15.7286C97.3878 15.5874 97.289 15.4551 97.1902 15.3177C96.9868 15.048 96.7882 14.7681 96.5798 14.5061C96.3722 14.2436 96.1504 14.0007 95.9161 13.7793C95.4381 13.3517 94.9788 12.8804 94.4613 12.5465C94.3319 12.4618 94.2025 12.3873 94.0662 12.3154C93.9299 12.2435 93.7956 12.1639 93.6622 12.0842C93.3965 11.9237 93.1368 11.7491 92.8721 11.586C92.3466 11.2624 91.8251 10.9311 91.2918 10.6204C90.7584 10.3096 90.232 9.97834 89.6957 9.6984C89.427 9.55458 89.1554 9.43255 88.8798 9.30157L88.0571 8.91633L86.4126 8.13432C85.8644 7.8775 85.3133 7.63224 84.7641 7.37927L84.5587 7.28553L84.3503 7.20208L83.9335 7.03385L83.1008 6.69865C82.8243 6.57794 82.5398 6.49706 82.2593 6.39819L81.4149 6.1144C81.1344 6.01552 80.8499 5.93333 80.5664 5.84986L79.7141 5.59304C79.1471 5.42225 78.5753 5.26815 78.0054 5.10635C76.8666 4.79174 75.7218 4.44758 74.5889 4.12783C74.021 3.97246 73.4482 3.84147 72.8733 3.70535L71.1498 3.29704L67.7067 2.48418C67.4203 2.41356 67.1329 2.33911 66.8464 2.25821C66.56 2.17731 66.2775 2.09123 65.9931 2.01932C65.4242 1.87036 64.8503 1.75226 64.2745 1.64568L62.5401 1.35029C61.9613 1.25013 61.3865 1.14484 60.8077 1.06908C60.2289 0.993316 59.6491 0.926524 59.0674 0.858466L57.3231 0.65174C56.7414 0.581113 56.1616 0.523332 55.5809 0.464263C55.0001 0.405193 54.4203 0.335823 53.8376 0.307572L52.0904 0.198472C51.5076 0.168937 50.9249 0.156096 50.3422 0.134266C49.7594 0.112436 49.1757 0.0944081 48.593 0.082851L46.8428 0.0366402Z" fill="url(#paint31_linear_2437_624)"/>
<path d="M49.3838 0.0128538L51.0629 0H51.9044L52.7449 0.0115997L54.424 0.0385613L56.103 0.0950551L56.9436 0.128412L57.7841 0.177194L59.4632 0.278644C60.5832 0.368533 61.7032 0.443037 62.8213 0.561176C65.0594 0.766636 67.2916 1.07483 69.5178 1.43567L70.3534 1.57305C70.631 1.61799 70.9095 1.66552 71.187 1.71946L72.8533 2.03278C73.9605 2.26392 75.0696 2.48866 76.1729 2.75961C78.3794 3.29509 80.574 3.91532 82.747 4.65883L84.3707 5.23926L85.9836 5.87229C86.516 6.10471 87.0503 6.33071 87.5817 6.5657L88.3718 6.95094L88.7669 7.14099C88.8993 7.20391 89.0306 7.2694 89.162 7.33874L89.9423 7.75351L90.3373 7.9603C90.4667 8.03221 90.5932 8.11055 90.7216 8.18502L91.49 8.63704C91.6184 8.71023 91.7448 8.79108 91.8693 8.87455L92.2465 9.12241C93.2558 9.76872 94.2256 10.5144 95.1474 11.3529L95.8259 12.0065C96.0465 12.2351 96.2608 12.4727 96.4689 12.7193C96.8878 13.2093 97.272 13.7474 97.6166 14.327C97.9635 14.9055 98.247 15.5438 98.4591 16.2236C98.6673 16.9046 98.772 17.6315 98.7673 18.3643C98.7568 17.6353 98.638 16.9159 98.4176 16.2455C98.1974 15.5782 97.9072 14.9537 97.5554 14.3899C97.2049 13.8249 96.8162 13.3019 96.3939 12.8271C96.1845 12.5883 95.9682 12.3597 95.7469 12.1388L95.0644 11.5083C94.1406 10.6913 93.1705 9.96627 92.1626 9.33942L91.7863 9.10059C91.6618 9.01969 91.5354 8.9401 91.407 8.86947L90.6386 8.43282C90.5112 8.35962 90.3838 8.28515 90.2544 8.21581L89.8593 8.01548L89.08 7.61488C86.985 6.59336 84.8488 5.721 82.6808 5.00168C80.5138 4.27358 78.3231 3.66616 76.1215 3.14096C75.0222 2.86616 73.916 2.63633 72.8118 2.39876L71.1505 2.07899C70.8739 2.02248 70.5964 1.9737 70.3189 1.92875L69.4862 1.78623L68.6536 1.64371L67.819 1.5153C67.2629 1.4344 66.7069 1.34575 66.1498 1.27127C65.0347 1.13001 63.9216 0.974639 62.8055 0.856499C61.6894 0.73836 60.5713 0.629227 59.4543 0.521361L57.7752 0.392949L56.9357 0.331314L56.0971 0.283786L54.418 0.182335L52.739 0.112988L51.8984 0.0796306L51.0579 0.0603813L49.3838 0.0128538Z" fill="url(#paint32_linear_2437_624)"/>
<defs>
<linearGradient id="paint0_linear_2437_624" x1="24.6913" y1="18.3574" x2="24.6913" y2="36.7191" gradientUnits="userSpaceOnUse">
<stop stop-color="white"/>
<stop offset="1" stop-color="white" stop-opacity="0.13"/>
</linearGradient>
<linearGradient id="paint1_linear_2437_624" x1="25.9923" y1="17.4131" x2="25.9923" y2="36.6839" gradientUnits="userSpaceOnUse">
<stop stop-color="white"/>
<stop offset="1" stop-color="white" stop-opacity="0.13"/>
</linearGradient>
<linearGradient id="paint2_linear_2437_624" x1="27.3497" y1="16.4814" x2="27.3497" y2="36.6088" gradientUnits="userSpaceOnUse">
<stop stop-color="white"/>
<stop offset="1" stop-color="white" stop-opacity="0.13"/>
</linearGradient>
<linearGradient id="paint3_linear_2437_624" x1="28.7377" y1="15.5635" x2="28.7377" y2="36.7129" gradientUnits="userSpaceOnUse">
<stop stop-color="white"/>
<stop offset="1" stop-color="white" stop-opacity="0.13"/>
</linearGradient>
<linearGradient id="paint4_linear_2437_624" x1="30.1684" y1="14.6611" x2="30.1684" y2="38.1765" gradientUnits="userSpaceOnUse">
<stop stop-color="white"/>
<stop offset="1" stop-color="white" stop-opacity="0.13"/>
</linearGradient>
<linearGradient id="paint5_linear_2437_624" x1="31.6427" y1="13.7734" x2="31.6427" y2="40.1007" gradientUnits="userSpaceOnUse">
<stop stop-color="white"/>
<stop offset="1" stop-color="white" stop-opacity="0.13"/>
</linearGradient>
<linearGradient id="paint6_linear_2437_624" x1="33.1438" y1="12.9023" x2="33.1438" y2="42.7844" gradientUnits="userSpaceOnUse">
<stop stop-color="white"/>
<stop offset="1" stop-color="white" stop-opacity="0.13"/>
</linearGradient>
<linearGradient id="paint7_linear_2437_624" x1="34.6802" y1="12.0508" x2="34.6802" y2="45.7873" gradientUnits="userSpaceOnUse">
<stop stop-color="white"/>
<stop offset="1" stop-color="white" stop-opacity="0.13"/>
</linearGradient>
<linearGradient id="paint8_linear_2437_624" x1="36.2445" y1="11.2178" x2="36.2445" y2="48.905" gradientUnits="userSpaceOnUse">
<stop stop-color="white"/>
<stop offset="1" stop-color="white" stop-opacity="0.13"/>
</linearGradient>
<linearGradient id="paint9_linear_2437_624" x1="37.8313" y1="10.4053" x2="37.8313" y2="52.0991" gradientUnits="userSpaceOnUse">
<stop stop-color="white"/>
<stop offset="1" stop-color="white" stop-opacity="0.13"/>
</linearGradient>
<linearGradient id="paint10_linear_2437_624" x1="39.4446" y1="9.61523" x2="39.4446" y2="55.2661" gradientUnits="userSpaceOnUse">
<stop stop-color="white"/>
<stop offset="1" stop-color="white" stop-opacity="0.13"/>
</linearGradient>
<linearGradient id="paint11_linear_2437_624" x1="41.0726" y1="8.8457" x2="41.0726" y2="58.2024" gradientUnits="userSpaceOnUse">
<stop stop-color="white"/>
<stop offset="1" stop-color="white" stop-opacity="0.13"/>
</linearGradient>
<linearGradient id="paint12_linear_2437_624" x1="42.7143" y1="8.10156" x2="42.7143" y2="60.7379" gradientUnits="userSpaceOnUse">
<stop stop-color="white"/>
<stop offset="1" stop-color="white" stop-opacity="0.13"/>
</linearGradient>
<linearGradient id="paint13_linear_2437_624" x1="44.3772" y1="7.38184" x2="44.3772" y2="62.7574" gradientUnits="userSpaceOnUse">
<stop stop-color="white"/>
<stop offset="1" stop-color="white" stop-opacity="0.13"/>
</linearGradient>
<linearGradient id="paint14_linear_2437_624" x1="46.0356" y1="6.68848" x2="46.0356" y2="64.2387" gradientUnits="userSpaceOnUse">
<stop stop-color="white"/>
<stop offset="1" stop-color="white" stop-opacity="0.13"/>
</linearGradient>
<linearGradient id="paint15_linear_2437_624" x1="47.7094" y1="6.02441" x2="47.7094" y2="64.9792" gradientUnits="userSpaceOnUse">
<stop stop-color="white"/>
<stop offset="1" stop-color="white" stop-opacity="0.13"/>
</linearGradient>
<linearGradient id="paint16_linear_2437_624" x1="49.3861" y1="5.38477" x2="49.3861" y2="64.8574" gradientUnits="userSpaceOnUse">
<stop stop-color="white"/>
<stop offset="1" stop-color="white" stop-opacity="0.13"/>
</linearGradient>
<linearGradient id="paint17_linear_2437_624" x1="51.0594" y1="4.77734" x2="51.0594" y2="63.6482" gradientUnits="userSpaceOnUse">
<stop stop-color="white"/>
<stop offset="1" stop-color="white" stop-opacity="0.13"/>
</linearGradient>
<linearGradient id="paint18_linear_2437_624" x1="52.7329" y1="4.20215" x2="52.7329" y2="61.4148" gradientUnits="userSpaceOnUse">
<stop stop-color="white"/>
<stop offset="1" stop-color="white" stop-opacity="0.13"/>
</linearGradient>
<linearGradient id="paint19_linear_2437_624" x1="54.3996" y1="3.6582" x2="54.3996" y2="58.3182" gradientUnits="userSpaceOnUse">
<stop stop-color="white"/>
<stop offset="1" stop-color="white" stop-opacity="0.13"/>
</linearGradient>
<linearGradient id="paint20_linear_2437_624" x1="56.0581" y1="3.14648" x2="56.0581" y2="54.5586" gradientUnits="userSpaceOnUse">
<stop stop-color="white"/>
<stop offset="1" stop-color="white" stop-opacity="0.13"/>
</linearGradient>
<linearGradient id="paint21_linear_2437_624" x1="57.6991" y1="2.66797" x2="57.6991" y2="50.2435" gradientUnits="userSpaceOnUse">
<stop stop-color="white"/>
<stop offset="1" stop-color="white" stop-opacity="0.13"/>
</linearGradient>
<linearGradient id="paint22_linear_2437_624" x1="59.3294" y1="2.22852" x2="59.3294" y2="45.4663" gradientUnits="userSpaceOnUse">
<stop stop-color="white"/>
<stop offset="1" stop-color="white" stop-opacity="0.13"/>
</linearGradient>
<linearGradient id="paint23_linear_2437_624" x1="60.9373" y1="1.82324" x2="60.9373" y2="40.3988" gradientUnits="userSpaceOnUse">
<stop stop-color="white"/>
<stop offset="1" stop-color="white" stop-opacity="0.13"/>
</linearGradient>
<linearGradient id="paint24_linear_2437_624" x1="62.5238" y1="1.45801" x2="62.5238" y2="35.3663" gradientUnits="userSpaceOnUse">
<stop stop-color="white"/>
<stop offset="1" stop-color="white" stop-opacity="0.13"/>
</linearGradient>
<linearGradient id="paint25_linear_2437_624" x1="64.0869" y1="1.12598" x2="64.0869" y2="30.4943" gradientUnits="userSpaceOnUse">
<stop stop-color="white"/>
<stop offset="1" stop-color="white" stop-opacity="0.13"/>
</linearGradient>
<linearGradient id="paint26_linear_2437_624" x1="65.6248" y1="0.836914" x2="65.6248" y2="25.8014" gradientUnits="userSpaceOnUse">
<stop stop-color="white"/>
<stop offset="1" stop-color="white" stop-opacity="0.13"/>
</linearGradient>
<linearGradient id="paint27_linear_2437_624" x1="67.1246" y1="0.59082" x2="67.1246" y2="22.9487" gradientUnits="userSpaceOnUse">
<stop stop-color="white"/>
<stop offset="1" stop-color="white" stop-opacity="0.13"/>
</linearGradient>
<linearGradient id="paint28_linear_2437_624" x1="68.5986" y1="0.384766" x2="68.5986" y2="22.0608" gradientUnits="userSpaceOnUse">
<stop stop-color="white"/>
<stop offset="1" stop-color="white" stop-opacity="0.13"/>
</linearGradient>
<linearGradient id="paint29_linear_2437_624" x1="70.0317" y1="0.224609" x2="70.0317" y2="21.1545" gradientUnits="userSpaceOnUse">
<stop stop-color="white"/>
<stop offset="1" stop-color="white" stop-opacity="0.13"/>
</linearGradient>
<linearGradient id="paint30_linear_2437_624" x1="71.4243" y1="0.107422" x2="71.4243" y2="20.236" gradientUnits="userSpaceOnUse">
<stop stop-color="white"/>
<stop offset="1" stop-color="white" stop-opacity="0.13"/>
</linearGradient>
<linearGradient id="paint31_linear_2437_624" x1="72.7746" y1="0.0263672" x2="72.7746" y2="19.3036" gradientUnits="userSpaceOnUse">
<stop stop-color="white"/>
<stop offset="1" stop-color="white" stop-opacity="0.13"/>
</linearGradient>
<linearGradient id="paint32_linear_2437_624" x1="74.0756" y1="0" x2="74.0756" y2="18.3643" gradientUnits="userSpaceOnUse">
<stop stop-color="white"/>
<stop offset="1" stop-color="white" stop-opacity="0.13"/>
</linearGradient>
</defs>
</svg>
