<svg width="17" height="16" viewBox="0 0 17 16" fill="none" xmlns="http://www.w3.org/2000/svg">
<path d="M8.63483 15.9829C6.51526 15.9815 4.48278 15.1394 2.98335 13.6413C1.48391 12.1433 0.639977 10.1115 0.636719 7.99197C0.639977 5.8723 1.48386 3.84047 2.98327 2.34222C4.48268 0.843966 6.51516 0.00162676 8.63483 0C10.7545 0.00162676 12.787 0.843966 14.2864 2.34222C15.7858 3.84047 16.6297 5.8723 16.6329 7.99197C16.6297 10.1115 15.7858 12.1433 14.2863 13.6413C12.7869 15.1394 10.7544 15.9815 8.63483 15.9829ZM8.63483 0.615239C6.67825 0.616595 4.8021 1.39403 3.41801 2.77696C2.03393 4.1599 1.25494 6.03539 1.25196 7.99197C1.25386 9.94878 2.03254 11.8248 3.41689 13.2078C4.80124 14.5908 6.67801 15.3677 8.63483 15.3677C10.5916 15.3677 12.4684 14.5908 13.8528 13.2078C15.2371 11.8248 16.0158 9.94878 16.0177 7.99197C16.0147 6.03539 15.2357 4.1599 13.8516 2.77696C12.4675 1.39403 10.5914 0.616595 8.63483 0.615239Z" fill="white"/>
<path d="M9.64564 14.7181C7.88959 14.7167 6.20578 14.0189 4.96358 12.7776C3.72138 11.5364 3.02225 9.85313 3.01953 8.09708C3.02225 6.34103 3.72138 4.65775 4.96358 3.41651C6.20578 2.17527 7.88959 1.47743 9.64564 1.47607C11.4017 1.47743 13.0855 2.17527 14.3277 3.41651C15.5699 4.65775 16.269 6.34103 16.2718 8.09708C16.269 9.85313 15.5699 11.5364 14.3277 12.7776C13.0855 14.0189 11.4017 14.7167 9.64564 14.7181ZM9.64564 1.95391C8.01641 1.95527 6.45424 2.6028 5.30182 3.75446C4.1494 4.90611 3.50083 6.46785 3.49838 8.09708C3.5011 9.72613 4.1498 11.2876 5.30219 12.439C6.45459 13.5905 8.01659 14.2379 9.64564 14.2392C11.2747 14.2379 12.8367 13.5905 13.9891 12.439C15.1415 11.2876 15.7902 9.72613 15.7929 8.09708C15.7902 6.46803 15.1415 4.90654 13.9891 3.75511C12.8367 2.60367 11.2747 1.9563 9.64564 1.95494V1.95391Z" fill="white"/>
<path d="M10.6584 13.4557C9.266 13.4546 7.93084 12.9012 6.94585 11.917C5.96086 10.9328 5.40647 9.59805 5.4043 8.2056C5.40647 6.81316 5.96086 5.47844 6.94585 4.49422C7.93084 3.50999 9.266 2.95665 10.6584 2.95557C12.051 2.95638 13.3863 3.50964 14.3713 4.49392C15.3564 5.4782 15.9107 6.81308 15.9126 8.2056C15.9104 9.59805 15.356 10.9328 14.371 11.917C13.386 12.9012 12.0509 13.4546 10.6584 13.4557ZM10.6584 3.29702C9.35647 3.29783 8.10799 3.81511 7.18698 4.73536C6.26597 5.6556 5.74764 6.90364 5.74574 8.2056C5.74791 9.50739 6.26637 10.7552 7.18735 11.6752C8.10834 12.5952 9.35665 13.1123 10.6584 13.1132C11.9602 13.1123 13.2085 12.5952 14.1295 11.6752C15.0505 10.7552 15.569 9.50739 15.5711 8.2056C15.5692 6.90364 15.0509 5.6556 14.1299 4.73536C13.2089 3.81511 11.9604 3.29783 10.6584 3.29702Z" fill="white"/>
<path d="M11.6693 12.1913C10.6404 12.1905 9.65392 11.7817 8.92614 11.0545C8.19836 10.3272 7.78874 9.34106 7.78711 8.31224C7.78847 7.28323 8.19798 6.29678 8.92579 5.56936C9.6536 4.84193 10.6402 4.43294 11.6693 4.43213C12.6983 4.43294 13.6849 4.84193 14.4127 5.56936C15.1406 6.29678 15.55 7.28323 15.5514 8.31224C15.5498 9.34106 15.1402 10.3272 14.4124 11.0545C13.6846 11.7817 12.6981 12.1905 11.6693 12.1913ZM11.6693 4.63721C10.6946 4.63802 9.76016 5.0254 9.07081 5.71437C8.38146 6.40333 7.99355 7.33762 7.99219 8.31224C7.99382 9.28667 8.38184 10.2207 9.07116 10.9094C9.76048 11.5982 10.6948 11.9854 11.6693 11.9862C12.6437 11.9854 13.578 11.5982 14.2673 10.9094C14.9567 10.2207 15.3447 9.28667 15.3463 8.31224C15.345 7.33762 14.9571 6.40333 14.2678 5.71437C13.5784 5.0254 12.6439 4.63802 11.6693 4.63721Z" fill="white"/>
</svg>
