<svg width="130" height="23" viewBox="0 0 130 23" fill="none" xmlns="http://www.w3.org/2000/svg">
<path d="M42.1815 6.91427L39.2079 15.2584C39.1942 15.2987 39.1674 15.3333 39.1317 15.3567C39.0959 15.3801 39.0533 15.391 39.0106 15.3877H38.7853C38.7425 15.3894 38.7001 15.3778 38.6641 15.3547C38.6281 15.3315 38.6003 15.2979 38.5843 15.2584L36.3551 9.40632L34.1295 15.2584C34.1147 15.2979 34.0876 15.3318 34.0521 15.355C34.0166 15.3782 33.9746 15.3897 33.9322 15.3877H33.7032C33.6607 15.39 33.6185 15.3787 33.583 15.3554C33.5474 15.3321 33.5204 15.2981 33.5059 15.2584L30.5323 6.91719C30.4867 6.78787 30.536 6.70751 30.6626 6.70751H31.5829C31.6262 6.70316 31.6698 6.7136 31.7063 6.73711C31.7428 6.76062 31.7702 6.79579 31.7839 6.83682L33.9035 13.1543L36.0584 7.36869C36.0738 7.32886 36.1016 7.29489 36.1377 7.27167C36.1738 7.24844 36.2164 7.23714 36.2594 7.23938H36.453C36.4955 7.23725 36.5375 7.24864 36.573 7.27191C36.6085 7.29517 36.6356 7.32908 36.6503 7.36869L38.8692 13.1543L40.9395 6.83682C40.9532 6.79579 40.9805 6.76062 41.0171 6.73711C41.0536 6.7136 41.0971 6.70316 41.1405 6.70751H42.0468C42.1771 6.70751 42.2264 6.78787 42.1807 6.91427" fill="white"/>
<path d="M55.1232 10.9779C55.1149 11.8373 54.8505 12.6751 54.3634 13.3856C53.8762 14.0962 53.1881 14.6478 52.3856 14.971C51.5831 15.2942 50.7022 15.3745 49.8538 15.2018C49.0055 15.0291 48.2276 14.6112 47.6181 14.0006C47.0086 13.39 46.5949 12.6141 46.429 11.7706C46.263 10.9271 46.3523 10.0537 46.6856 9.26049C47.0189 8.46726 47.5813 7.78965 48.302 7.31301C49.0226 6.83637 49.8693 6.58201 50.7353 6.58197C51.3173 6.57385 51.8951 6.68232 52.4339 6.90089C52.9727 7.11947 53.4615 7.44365 53.8712 7.85405C54.2808 8.26445 54.6028 8.75263 54.818 9.28939C55.0331 9.82615 55.1369 10.4005 55.1232 10.9779V10.9779ZM53.9062 10.9779C53.9062 8.95493 52.5766 7.56169 50.7353 7.56169C48.894 7.56169 47.5644 8.95493 47.5644 10.9779C47.5644 13.0009 48.894 14.3942 50.7353 14.3942C52.5766 14.3942 53.9062 13.0009 53.9062 10.9779Z" fill="white"/>
<path d="M66.7432 14.9018C66.7712 14.934 66.7887 14.9739 66.7934 15.0162C66.7982 15.0585 66.7898 15.1013 66.7696 15.1388C66.7493 15.1763 66.7181 15.2068 66.68 15.2263C66.6419 15.2459 66.5987 15.2535 66.5561 15.2481H65.7272C65.7002 15.2473 65.6738 15.2399 65.6504 15.2265C65.6271 15.2131 65.6074 15.1942 65.5932 15.1714L63.5126 12.0562H61.2768V15.0735C61.2762 15.1199 61.2574 15.1641 61.2244 15.1969C61.1914 15.2296 61.1467 15.2483 61.1001 15.2489H60.2902C60.2437 15.2481 60.1992 15.2294 60.1664 15.1966C60.1335 15.1639 60.1148 15.1197 60.1143 15.0735V6.88286C60.115 6.83672 60.1338 6.79266 60.1666 6.75996C60.1994 6.72726 60.2437 6.70846 60.2902 6.70752H63.4751C65.7043 6.70752 66.805 7.86989 66.805 9.38149C66.8186 9.98214 66.6152 10.5678 66.2316 11.0326C65.848 11.4974 65.3095 11.8107 64.7134 11.9159L66.7432 14.9018ZM63.2476 11.0765C65.0005 11.0765 65.5895 10.3554 65.5895 9.38222C65.5895 8.40907 65.0005 7.68797 63.2476 7.68797H61.276V11.0765H63.2476Z" fill="white"/>
<path d="M80.4387 6.56992H80.703C80.7266 6.56841 80.7503 6.57192 80.7724 6.5802C80.7945 6.58848 80.8146 6.60135 80.8313 6.61794C80.8481 6.63453 80.861 6.65447 80.8694 6.67642C80.8777 6.69838 80.8812 6.72184 80.8797 6.74526V15.074C80.8812 15.0974 80.8777 15.1209 80.8694 15.1428C80.861 15.1648 80.8481 15.1847 80.8313 15.2013C80.8146 15.2179 80.7945 15.2308 80.7724 15.2391C80.7503 15.2473 80.7266 15.2509 80.703 15.2494H79.8932C79.8696 15.2509 79.8459 15.2473 79.8238 15.2391C79.8017 15.2308 79.7816 15.2179 79.7649 15.2013C79.7482 15.1847 79.7352 15.1648 79.7269 15.1428C79.7185 15.1209 79.715 15.0974 79.7165 15.074V9.16133L76.4536 13.8481C76.4429 13.8712 76.4258 13.8909 76.4042 13.9046C76.3826 13.9184 76.3574 13.9257 76.3317 13.9257C76.3061 13.9257 76.281 13.9184 76.2594 13.9046C76.2378 13.8909 76.2206 13.8712 76.2099 13.8481L72.9477 9.16133V15.0733C72.9492 15.0967 72.9457 15.1202 72.9374 15.1421C72.929 15.1641 72.9161 15.184 72.8993 15.2006C72.8826 15.2172 72.8625 15.2301 72.8404 15.2383C72.8183 15.2466 72.7946 15.2501 72.771 15.2486H71.9612C71.9376 15.2501 71.914 15.2466 71.8918 15.2383C71.8697 15.2301 71.8496 15.2172 71.8329 15.2006C71.8162 15.184 71.8032 15.1641 71.7949 15.1421C71.7865 15.1202 71.783 15.0967 71.7845 15.0733V6.74453C71.783 6.72111 71.7865 6.69765 71.7949 6.67569C71.8032 6.65374 71.8162 6.6338 71.8329 6.61721C71.8496 6.60062 71.8697 6.58775 71.8918 6.57947C71.914 6.57119 71.9376 6.56768 71.9612 6.56919H72.2226C72.2664 6.56935 72.3096 6.58031 72.3481 6.60109C72.3867 6.62188 72.4194 6.65183 72.4434 6.68827L76.3306 12.0749L80.2208 6.68827C80.2436 6.65201 80.2752 6.62207 80.3128 6.60124C80.3504 6.58042 80.3927 6.56939 80.4358 6.56919" fill="white"/>
<path d="M93.969 6.88286V15.0728C93.9683 15.1191 93.9494 15.1632 93.9164 15.196C93.8835 15.2287 93.839 15.2474 93.7923 15.2481H92.9825C92.9359 15.2474 92.8914 15.2287 92.8584 15.196C92.8254 15.1632 92.8066 15.1191 92.8058 15.0728V11.3417H87.4484V15.0728C87.4476 15.1191 87.4288 15.1632 87.3958 15.196C87.3628 15.2287 87.3183 15.2474 87.2717 15.2481H86.4618C86.4152 15.2474 86.3707 15.2287 86.3378 15.196C86.3048 15.1632 86.2859 15.1191 86.2852 15.0728V6.88286C86.2859 6.83659 86.3048 6.79243 86.3378 6.75971C86.3707 6.72699 86.4152 6.70827 86.4618 6.70752H87.2717C87.3183 6.70827 87.3628 6.72699 87.3958 6.75971C87.4288 6.79243 87.4476 6.83659 87.4484 6.88286V10.3619H92.8058V6.88286C92.8066 6.83659 92.8254 6.79243 92.8584 6.75971C92.8914 6.72699 92.9359 6.70827 92.9825 6.70752H93.7923C93.839 6.70827 93.8835 6.72699 93.9164 6.75971C93.9494 6.79243 93.9683 6.83659 93.969 6.88286Z" fill="white"/>
<path d="M107.735 10.9779C107.727 11.8373 107.463 12.6751 106.976 13.3856C106.489 14.0962 105.8 14.6478 104.998 14.971C104.195 15.2942 103.315 15.3745 102.466 15.2018C101.618 15.0291 100.84 14.6112 100.23 14.0006C99.621 13.39 99.2072 12.6141 99.0413 11.7706C98.8753 10.9271 98.9646 10.0537 99.2979 9.26049C99.6312 8.46726 100.194 7.78965 100.914 7.31301C101.635 6.83637 102.482 6.58201 103.348 6.58197C103.93 6.57385 104.507 6.68232 105.046 6.90089C105.585 7.11947 106.074 7.44365 106.483 7.85405C106.893 8.26445 107.215 8.75263 107.43 9.28939C107.645 9.82615 107.749 10.4005 107.735 10.9779V10.9779ZM106.518 10.9779C106.518 8.95493 105.189 7.56169 103.348 7.56169C101.506 7.56169 100.177 8.95493 100.177 10.9779C100.177 13.0009 101.506 14.3942 103.348 14.3942C105.189 14.3942 106.518 13.0009 106.518 10.9779Z" fill="white"/>
<path d="M118.819 14.443V15.0728C118.82 15.0962 118.817 15.1197 118.809 15.1416C118.8 15.1636 118.787 15.1835 118.771 15.2001C118.754 15.2167 118.734 15.2296 118.712 15.2379C118.69 15.2461 118.666 15.2496 118.642 15.2481H112.904C112.858 15.2474 112.813 15.2287 112.78 15.196C112.747 15.1632 112.728 15.1191 112.728 15.0728V6.88286C112.728 6.83659 112.747 6.79243 112.78 6.75971C112.813 6.72699 112.858 6.70827 112.904 6.70752H113.714C113.761 6.70846 113.805 6.72726 113.838 6.75996C113.871 6.79266 113.889 6.83672 113.89 6.88286V14.2677H118.644C118.668 14.2662 118.692 14.2697 118.714 14.278C118.736 14.2863 118.756 14.2991 118.773 14.3157C118.79 14.3323 118.802 14.3522 118.811 14.3742C118.819 14.3961 118.823 14.4196 118.821 14.443" fill="white"/>
<path d="M129.999 14.4424V15.0722C130.001 15.0956 129.997 15.119 129.989 15.141C129.981 15.163 129.968 15.1829 129.951 15.1995C129.934 15.2161 129.914 15.2289 129.892 15.2372C129.87 15.2455 129.846 15.249 129.823 15.2475H123.626C123.579 15.2468 123.535 15.228 123.502 15.1953C123.469 15.1626 123.45 15.1184 123.449 15.0722V6.88222C123.45 6.83595 123.469 6.79179 123.502 6.75907C123.535 6.72635 123.579 6.70763 123.626 6.70688H129.682C129.706 6.70538 129.729 6.70889 129.751 6.71717C129.774 6.72545 129.794 6.73831 129.81 6.7549C129.827 6.7715 129.84 6.79143 129.848 6.81339C129.857 6.83534 129.86 6.85881 129.859 6.88222V7.512C129.86 7.53541 129.857 7.55888 129.848 7.58083C129.84 7.60279 129.827 7.62272 129.81 7.63931C129.794 7.65591 129.774 7.66877 129.751 7.67705C129.729 7.68533 129.706 7.68884 129.682 7.68734H124.61V10.3613H129.118C129.141 10.3598 129.165 10.3633 129.186 10.3713C129.208 10.3794 129.228 10.3919 129.245 10.4081C129.261 10.4243 129.274 10.4438 129.283 10.4654C129.291 10.4869 129.295 10.5099 129.294 10.533V11.1664C129.295 11.1897 129.292 11.213 129.283 11.2348C129.275 11.2567 129.262 11.2765 129.246 11.293C129.229 11.3095 129.209 11.3223 129.187 11.3306C129.165 11.3388 129.142 11.3424 129.118 11.341H124.61V14.2671H129.823C129.847 14.2656 129.871 14.2691 129.893 14.2773C129.915 14.2856 129.935 14.2985 129.952 14.3151C129.968 14.3317 129.981 14.3516 129.99 14.3736C129.998 14.3955 130.002 14.419 130 14.4424" fill="white"/>
<path d="M11.3333 22.6477C8.32989 22.6458 5.44987 21.4526 3.32517 19.3298C1.20047 17.207 0.00461709 14.328 0 11.3246C0.00461644 8.32105 1.2004 5.44195 3.32506 3.31892C5.44972 1.1959 8.32975 0.00230511 11.3333 0C14.3369 0.00230511 17.2169 1.1959 19.3415 3.31892C21.4662 5.44195 22.662 8.32105 22.6666 11.3246C22.662 14.328 21.4662 17.207 19.3415 19.3298C17.2168 21.4526 14.3368 22.6458 11.3333 22.6477ZM11.3333 0.871794C8.56085 0.873715 5.90234 1.97534 3.94109 3.93496C1.97984 5.89457 0.876026 8.55214 0.871794 11.3246C0.87449 14.0974 1.97787 16.7557 3.9395 18.7155C5.90112 20.6752 8.56051 21.776 11.3333 21.776C14.1061 21.776 16.7655 20.6752 18.7271 18.7155C20.6888 16.7557 21.7921 14.0974 21.7948 11.3246C21.7906 8.55214 20.6868 5.89457 18.7255 3.93496C16.7643 1.97534 14.1058 0.873715 11.3333 0.871794V0.871794Z" fill="white"/>
<path d="M12.7662 20.8567C10.2778 20.8548 7.89187 19.8659 6.13167 18.1071C4.37148 16.3483 3.3808 13.9631 3.37695 11.4747C3.3808 8.98641 4.37148 6.6012 6.13167 4.84237C7.89187 3.08354 10.2778 2.09469 12.7662 2.09277C15.2545 2.09469 17.6404 3.08354 19.4006 4.84237C21.1608 6.6012 22.1515 8.98641 22.1554 11.4747C22.1515 13.9631 21.1608 16.3483 19.4006 18.1071C17.6404 19.8659 15.2545 20.8548 12.7662 20.8567ZM12.7662 2.76987C10.4575 2.77179 8.24394 3.68935 6.61095 5.32124C4.97797 6.95314 4.05895 9.16612 4.05549 11.4747C4.05933 13.7831 4.97854 15.9957 6.61149 17.6273C8.24443 19.2589 10.4578 20.1762 12.7662 20.1781C15.0745 20.1762 17.2879 19.2589 18.9208 17.6273C20.5538 15.9957 21.473 13.7831 21.4768 11.4747C21.473 9.16637 20.5538 6.95375 18.9208 5.32216C17.2879 3.69058 15.0745 2.77325 12.7662 2.77133V2.76987Z" fill="white"/>
<path d="M14.199 19.0661C12.2259 19.0646 10.334 18.2805 8.93829 16.8858C7.54256 15.4912 6.75698 13.5999 6.75391 11.6268C6.75698 9.65371 7.54256 7.76241 8.93829 6.36777C10.334 4.97312 12.2259 4.18904 14.199 4.1875C16.1722 4.18865 18.0643 4.97262 19.4602 6.36734C20.856 7.76206 21.6414 9.65359 21.6441 11.6268C21.641 13.5999 20.8555 15.4912 19.4597 16.8858C18.064 18.2805 16.1721 19.0646 14.199 19.0661V19.0661ZM14.199 4.67134C12.3541 4.67249 10.585 5.40548 9.27997 6.70946C7.97489 8.01345 7.24042 9.78192 7.23773 11.6268C7.24081 13.4714 7.97546 15.2395 9.2805 16.5432C10.5855 17.8469 12.3544 18.5797 14.199 18.5808C16.0437 18.5797 17.8125 17.8469 19.1176 16.5432C20.4226 15.2395 21.1572 13.4714 21.1603 11.6268C21.1576 9.78192 20.4231 8.01345 19.118 6.70946C17.813 5.40548 16.0439 4.67249 14.199 4.67134V4.67134Z" fill="white"/>
<path d="M15.6309 17.2745C14.173 17.2734 12.7752 16.6941 11.7439 15.6636C10.7126 14.6332 10.1322 13.2357 10.1299 11.7779C10.1318 10.3198 10.7121 8.922 11.7434 7.89123C12.7747 6.86047 14.1728 6.28094 15.6309 6.27979C17.089 6.28094 18.4871 6.86047 19.5184 7.89123C20.5497 8.922 21.13 10.3198 21.1319 11.7779C21.1296 13.2357 20.5492 14.6332 19.5179 15.6636C18.4866 16.6941 17.0887 17.2734 15.6309 17.2745V17.2745ZM15.6309 6.57038C14.2498 6.57154 12.9257 7.12045 11.9489 8.09671C10.9721 9.07298 10.4224 10.3969 10.4205 11.7779C10.4228 13.1587 10.9726 14.4822 11.9494 15.4581C12.9262 16.4341 14.2501 16.9828 15.6309 16.9839C17.0117 16.9828 18.3356 16.4341 19.3124 15.4581C20.2891 14.4822 20.839 13.1587 20.8413 11.7779C20.8394 10.3969 20.2898 9.07298 19.3129 8.09671C18.3361 7.12045 17.0119 6.57154 15.6309 6.57038Z" fill="white"/>
</svg>


