<?xml version="1.0" encoding="utf-8"?>
<!-- Generator: Adobe Illustrator 26.2.1, SVG Export Plug-In . SVG Version: 6.00 Build 0)  -->
<svg version="1.1" id="Layer_1" xmlns="http://www.w3.org/2000/svg" xmlns:xlink="http://www.w3.org/1999/xlink" x="0px" y="0px"
	 viewBox="0 0 125 114" style="enable-background:new 0 0 125 114;" xml:space="preserve">
<style type="text/css">
	.st0{fill:#FFFFFF;}
</style>
<g>
	<g>
		<path class="st0" d="M124.4,54.3c0-29.6-24-53.6-53.6-53.6c-9,0-17.6,2.3-25.1,6.2c1.1-0.2,2.1-0.3,3.1-0.5
			c6.7-3,14.2-4.7,21.9-4.7c29,0,52.6,23.6,52.6,52.6c0,25.9-18.8,47.4-43.4,51.8c-1,0.5-1.9,1-2.9,1.4
			C103.7,104.4,124.4,81.8,124.4,54.3z"/>
	</g>
	<path class="st0" d="M54.2,113.3c-29.6,0-53.6-24-53.6-53.6S24.6,6,54.2,6s53.6,24,53.6,53.6S83.8,113.3,54.2,113.3z M54.2,7
		C25.2,7,1.6,30.6,1.6,59.7s23.6,52.6,52.6,52.6s52.6-23.6,52.6-52.6S83.2,7,54.2,7z"/>
	<path class="st0" d="M74.4,38H42.9c-2.5,0-4.4,2-4.4,4.4v21.1h1V42.4c0-1.9,1.6-3.4,3.4-3.4h31.5c1.9,0,3.4,1.6,3.4,3.4v31.5
		c0,1.9-1.6,3.4-3.4,3.4H50.3v1h24.1c2.5,0,4.4-2,4.4-4.4V42.4C78.8,40,76.8,38,74.4,38z"/>
	<path class="st0" d="M45.8,64.1c2.2,0,3.9,1.8,3.9,3.9v9.3h0.5V68c0-2.5-2-4.4-4.4-4.4h-6.4v0.5H45.8z"/>
	<path class="st0" d="M49.8,80.8c0,2.2-1.8,3.9-3.9,3.9H33c-2.2,0-3.9-1.8-3.9-3.9V68c0-2.2,1.8-3.9,3.9-3.9h5.4v-0.5H33
		c-2.5,0-4.4,2-4.4,4.4v12.8c0,2.5,2,4.4,4.4,4.4h12.8c2.5,0,4.4-2,4.4-4.4v-2.5h-0.5V80.8z"/>
	<rect x="38.4" y="63.6" class="st0" width="1" height="0.5"/>
	<rect x="49.8" y="77.4" class="st0" width="0.5" height="1"/>
	<path class="st0" d="M49.3,80.8c0,1.9-1.6,3.4-3.4,3.4H33c-1.9,0-3.4-1.6-3.4-3.4V68c0-1.9,1.6-3.4,3.4-3.4h5.4v-0.5H33
		c-2.2,0-3.9,1.8-3.9,3.9v12.8c0,2.2,1.8,3.9,3.9,3.9h12.8c2.2,0,3.9-1.8,3.9-3.9v-2.5h-0.5V80.8z"/>
	<path class="st0" d="M45.8,64.1h-6.4v0.5h6.4c1.9,0,3.4,1.6,3.4,3.4v9.3h0.5V68C49.8,65.9,48,64.1,45.8,64.1z"/>
	<rect x="38.4" y="64.1" class="st0" width="1" height="0.5"/>
	<rect x="49.3" y="77.4" class="st0" width="0.5" height="1"/>
</g>
</svg>
