<?xml version="1.0" encoding="utf-8"?>
<!-- Generator: Adobe Illustrator 26.2.1, SVG Export Plug-In . SVG Version: 6.00 Build 0)  -->
<svg version="1.1" id="Layer_1" xmlns="http://www.w3.org/2000/svg" xmlns:xlink="http://www.w3.org/1999/xlink" x="0px" y="0px"
	 viewBox="0 0 127 116" style="enable-background:new 0 0 127 116;" xml:space="preserve">
<style type="text/css">
	.st0{fill:#FFFFFF;}
	.st1{fill:none;}
</style>
<g>
	<g>
		<rect x="52.7" y="27.6" transform="matrix(0.7147 -0.6995 0.6995 0.7147 -27.152 54.4394)" class="st0" width="1" height="65.8"/>
	</g>
	<g>
		<rect x="25.9" y="73" transform="matrix(0.7245 -0.6893 0.6893 0.7245 -39.7393 47.5837)" class="st0" width="27.6" height="1"/>
	</g>
	<g>
		<rect x="54.9" y="46" transform="matrix(0.7245 -0.6893 0.6893 0.7245 -13.1373 60.1343)" class="st0" width="27.6" height="1"/>
	</g>
	<g>
		<g>
			<path class="st1" d="M109.5,60.5c0,20.6-11.6,38.6-28.6,47.7c25-4.5,44.1-26.4,44.1-52.7C125,26,101,2,71.5,2
				C63.6,2,56,3.8,49.2,6.9c2.1-0.2,4.1-0.4,6.3-0.4C85.3,6.5,109.5,30.7,109.5,60.5z"/>
			<path class="st0" d="M126,55.5C126,25.4,101.6,1,71.5,1C62.3,1,53.6,3.3,46,7.3c1.1-0.2,2.1-0.3,3.2-0.5C56,3.8,63.6,2,71.5,2
				C101,2,125,26,125,55.5c0,26.3-19.1,48.2-44.1,52.7c-1,0.5-1.9,1-2.9,1.4C105,106.4,126,83.4,126,55.5z"/>
		</g>
		<path class="st0" d="M55.5,115C25.4,115,1,90.6,1,60.5C1,30.4,25.4,6,55.5,6S110,30.4,110,60.5C110,90.6,85.6,115,55.5,115z
			 M55.5,7C26,7,2,31,2,60.5S26,114,55.5,114S109,90,109,60.5S85,7,55.5,7z"/>
	</g>
</g>
</svg>
