<?xml version="1.0" encoding="utf-8"?>
<!-- Generator: Adobe Illustrator 26.2.1, SVG Export Plug-In . SVG Version: 6.00 Build 0)  -->
<svg version="1.1" id="Layer_1" xmlns="http://www.w3.org/2000/svg" xmlns:xlink="http://www.w3.org/1999/xlink" x="0px" y="0px"
	 viewBox="0 0 124.9 114" style="enable-background:new 0 0 124.9 114;" xml:space="preserve">
<style type="text/css">
	.st0{fill:#FFFFFF;}
	.st1{fill:none;}
</style>
<g>
	<path class="st0" d="M62.2,59.8v1.4c-2.5,0-4.1,0.5-5,1.3c-0.9,0.9-1.3,2.5-1.3,5v11.2c0,1.5-0.2,2.9-0.5,4
		c-0.3,1.2-0.8,2.1-1.4,2.9c-0.6,0.8-1.4,1.3-2.4,1.7c-1,0.4-2.1,0.6-3.4,0.6v-1.4c1.5,0,2.7-0.3,3.6-0.8c0.9-0.5,1.6-1.4,2.1-2.5
		c0.5-1.1,0.7-2.6,0.7-4.4V67.5c0-1.4,0.1-2.6,0.4-3.6c0.3-1,0.7-1.8,1.3-2.4c0.6-0.6,1.4-1.1,2.4-1.3
		C59.6,59.9,60.8,59.8,62.2,59.8z M48.2,33.2c1.3,0,2.5,0.2,3.4,0.6c1,0.4,1.8,0.9,2.4,1.7c0.6,0.8,1.1,1.7,1.4,2.9
		c0.3,1.1,0.5,2.5,0.5,4v11.2c0,2.4,0.4,4.1,1.3,5c0.9,0.9,2.5,1.3,5,1.3v1.4c-1.4,0-2.6-0.2-3.6-0.4c-1-0.3-1.8-0.7-2.4-1.3
		s-1-1.4-1.3-2.3c-0.3-1-0.4-2.2-0.4-3.6V42.3c0-1.8-0.2-3.3-0.7-4.4c-0.4-1.2-1.1-2-2.1-2.5s-2.2-0.8-3.6-0.8V33.2z M62.2,59.8v1.4
		h-4.6v-1.4H62.2z"/>
	<g>
		<path class="st1" d="M108.4,59.5c0,20.6-11.6,38.6-28.6,47.7c25-4.5,44.1-26.4,44.1-52.7C123.9,25,99.9,1,70.4,1
			C62.5,1,55,2.8,48.2,5.9c2.1-0.2,4.1-0.4,6.3-0.4C84.3,5.5,108.4,29.7,108.4,59.5z"/>
		<path class="st0" d="M124.9,54.5C124.9,24.4,100.5,0,70.4,0C61.2,0,52.6,2.3,45,6.3C46,6.2,47.1,6,48.2,5.9C55,2.8,62.5,1,70.4,1
			c29.5,0,53.5,24,53.5,53.5c0,26.3-19.1,48.2-44.1,52.7c-1,0.5-1.9,1-2.9,1.4C103.9,105.4,124.9,82.4,124.9,54.5z"/>
	</g>
	<path class="st0" d="M54.4,114C24.4,114-0.1,89.6-0.1,59.5C-0.1,29.4,24.4,5,54.4,5s54.5,24.4,54.5,54.5
		C108.9,89.6,84.5,114,54.4,114z M54.4,6C24.9,6,0.9,30,0.9,59.5s24,53.5,53.5,53.5s53.5-24,53.5-53.5S83.9,6,54.4,6z"/>
</g>
</svg>
