<?xml version="1.0" encoding="UTF-8"?><svg id="Layer_1" xmlns="http://www.w3.org/2000/svg" viewBox="0 0 281.58 281.58"><defs><style>.cls-1{fill:#fff;fill-rule:evenodd;}</style></defs><path class="cls-1" d="M106.91,171.07l28.93-50.1-8.06-14-49.86,86.44h16.11l.15-.27c13.82-8.31,29.67-12.52,47-12.52,10.73,0,21.38,1.86,31.47,5.53l-10.81-18.68c-18.31-3.58-37.23-2.34-54.92,3.6h-.01Zm-43.7,1.72L127.48,61.28l.14,.23,.12-.22,76.17,132.14h-16.07l-19.24-33.38c-8.98-2.84-18.34-4.28-27.76-4.26-4.87-.02-9.74,.31-14.56,1l9.29-16c1.75-.09,3.51-.13,5.28-.13,5.8,0,11.6,.47,17.33,1.4l-30.57-53-56.35,97.67-8.05-13.94ZM135.21,56.72l75.1,130.27,8.05-14L151.36,56.69l-16.15,.03Zm5.86,187.53c57.29,0,103.73-46.43,103.74-103.72,0-57.29-46.43-103.73-103.72-103.74-57.28,0-103.73,46.43-103.74,103.71,0,57.29,46.44,103.73,103.73,103.73h0v.02Zm-.24,14.35c65.06-.03,117.79-52.8,117.76-117.86S205.8,22.95,140.74,22.98c-65.05,.03-117.76,52.76-117.76,117.81,0,65.07,52.76,117.82,117.83,117.81h.03Zm.58,9.77c70.46,0,127.58-57.12,127.58-127.58S211.88,13.21,141.42,13.21,13.84,70.33,13.84,140.79h0c0,70.44,57.09,127.55,127.53,127.58h.05Zm-.58,13.21c77.76-.03,140.77-63.08,140.74-140.84S218.5-.03,140.74,0C63,.03,0,63.05,0,140.79c0,77.76,63.03,140.79,140.79,140.79h.05Z"/></svg>