<svg width="15" height="14" viewBox="0 0 15 14" fill="none" xmlns="http://www.w3.org/2000/svg">
<path fill-rule="evenodd" clip-rule="evenodd" d="M7.60411 0.0456543C3.62089 0.0456543 0.405518 3.13118 0.405518 6.95355C0.405518 10.7759 3.62089 13.8614 7.60411 13.8614C11.5873 13.8614 14.8027 10.7759 14.8027 6.95355C14.8027 3.13118 11.5873 0.0456543 7.60411 0.0456543ZM3.71687 8.93381L7.17219 3.08513C7.31617 2.85487 7.41215 2.71671 7.50813 2.67065C7.60411 2.6246 7.74808 2.6246 7.84406 2.67065C7.94004 2.71671 7.98803 2.85487 8.17999 3.08513L8.89985 4.2825C9.04382 4.55881 9.13981 4.69697 9.1878 4.83513C9.23579 4.97329 9.23579 5.1575 9.1878 5.29565C9.13981 5.43381 9.09181 5.57197 8.89985 5.84829L7.07621 8.93381C6.93223 9.21013 6.83626 9.34829 6.74027 9.44039C6.5963 9.5325 6.45233 9.6246 6.30836 9.67066C6.16439 9.71671 6.02042 9.71671 5.68448 9.71671H4.29276C4.00481 9.71671 3.86084 9.71671 3.76486 9.67066C3.66888 9.6246 3.62089 9.5325 3.62089 9.39434C3.47691 9.30223 3.57289 9.16408 3.71687 8.93381ZM11.8273 9.39434C11.8273 9.48644 11.7793 9.6246 11.6833 9.67066C11.5873 9.71671 11.4434 9.71671 11.1554 9.71671H9.1398C8.85186 9.71671 8.70789 9.71671 8.61191 9.67066C8.51593 9.6246 8.46794 9.5325 8.46794 9.39434C8.46794 9.30223 8.51593 9.16408 8.6599 8.93381L9.6677 7.27592C9.81167 7.04566 9.90765 6.9075 10.0036 6.86144C10.0996 6.81539 10.2436 6.81539 10.3396 6.86144C10.4355 6.9075 10.4835 6.9996 10.6275 7.22987L11.6353 8.88776C11.6353 8.88776 11.6353 8.88776 11.6353 8.93381C11.7313 9.16408 11.8273 9.30223 11.8273 9.39434Z" fill="white"/>
</svg>
