<svg width="13" height="14" viewBox="0 0 13 14" fill="none" xmlns="http://www.w3.org/2000/svg">
<path d="M6.67909 0.0461426L2.83984 2.16456L4.23157 2.94746L6.6311 1.61193L9.03063 2.94746L10.4224 2.16456L6.67909 0.0461426Z" fill="white"/>
<path d="M9.12902 4.052L10.5207 4.8349V6.40069L8.12122 7.73621V10.4073L6.72949 11.1902L5.33776 10.4073V7.73621L2.93823 6.40069V4.8349L4.32996 4.052L6.72949 5.38753L9.12902 4.052Z" fill="white"/>
<path d="M10.5188 7.50635V9.07214L9.12708 9.85503V8.28924L10.5188 7.50635Z" fill="white"/>
<path d="M9.08022 10.9606L11.4797 9.62509V6.95404L12.8715 6.17114V10.408L9.03223 12.5264V10.9606H9.08022Z" fill="white"/>
<path d="M11.5269 4.28259L10.1351 3.49969L11.5269 2.7168L12.9186 3.49969V5.06548L11.5269 5.84838V4.28259Z" fill="white"/>
<path d="M5.28796 13.079V11.5132L6.67969 12.2961L8.07142 11.5132V13.079L6.67969 13.8619L5.28796 13.079Z" fill="white"/>
<path d="M4.28077 9.85503L2.88904 9.07214V7.50635L4.28077 8.28924V9.85503Z" fill="white"/>
<path d="M6.67969 4.28344L5.28796 3.50012L6.67969 2.7168L8.07142 3.50012L6.67969 4.28344Z" fill="white"/>
<path d="M3.27174 3.49969L1.88001 4.28259V5.84838L0.488281 5.06548V3.49969L1.88001 2.7168L3.27174 3.49969Z" fill="white"/>
<path d="M0.441422 6.17114L1.83315 6.95404V9.62509L4.23268 10.9606V12.5264L0.393433 10.408V6.17114H0.441422Z" fill="white"/>
</svg>
