<svg width="15" height="14" viewBox="0 0 15 14" fill="none" xmlns="http://www.w3.org/2000/svg">
<path d="M6.72957 5.61783L5.14587 6.53888V4.69678L6.72957 5.61783Z" fill="white"/>
<path d="M7.01633 7.87433L5.38464 6.95328L7.01633 6.03223V7.87433Z" fill="white"/>
<path d="M7.54297 6.03223L9.17465 6.95328L7.54297 7.87433V6.03223Z" fill="white"/>
<path d="M7.30427 3.17749L9.1759 4.28275L7.30427 5.29591L5.38464 4.28275L7.30427 3.17749Z" fill="white"/>
<path d="M7.83276 5.61783L9.46444 4.69678V6.53888L7.83276 5.61783Z" fill="white"/>
<path d="M7.30545 8.61183L9.46503 7.36841V9.48683L7.30545 10.7303L5.14587 9.48683V7.36841L7.30545 8.61183Z" fill="white"/>
<path d="M7.30406 0.0456543C3.32084 0.0456543 0.105469 3.13118 0.105469 6.95355C0.105469 10.7759 3.32084 13.8614 7.30406 13.8614C11.2873 13.8614 14.5026 10.7759 14.5026 6.95355C14.5026 3.13118 11.2393 0.0456543 7.30406 0.0456543ZM9.99153 9.76276L7.30406 11.2364L4.61659 9.76276V4.09829L7.30406 2.6246L9.99153 4.09829V9.76276Z" fill="white"/>
</svg>
