<svg width="15" height="14" viewBox="0 0 15 14" fill="none" xmlns="http://www.w3.org/2000/svg">
<path d="M10.6156 0.0456543L6.20051 3.91408C5.7206 4.32855 5.09673 4.55881 4.52084 4.55881H3.1771V0.0456543H0.825562V12.9404H2.12131C2.84117 12.9404 3.51304 12.5259 3.89696 11.9272C4.13691 11.5128 4.28088 10.6838 4.1849 10.1312C4.13691 8.88776 3.94495 8.56539 3.94495 8.56539C3.94495 9.44039 3.03313 9.48645 3.03313 9.48645C3.705 8.88776 3.32107 8.38118 3.32107 8.38118C2.12131 9.16408 1.83337 8.33513 1.83337 8.24302C1.88136 8.28908 2.21729 8.51934 2.88916 7.69039C3.56103 6.81539 4.47285 5.29566 5.04873 4.92723C5.62462 4.51276 6.20051 4.55881 6.20051 4.55881C6.20051 4.55881 6.48845 4.14434 7.35228 3.82197C8.21612 3.4996 8.69602 3.96013 8.69602 3.96013C7.88018 4.60487 6.68042 5.71013 6.63243 7.22987C6.58444 8.47329 9.41588 10.6378 8.88798 13.8154C9.17593 13.0786 9.3199 12.3878 9.17592 11.4667C9.07994 10.7299 8.60004 9.25618 8.60004 9.25618L11.2875 12.8022H14.2629L8.40808 5.11144L14.2149 0.0456543H10.6156Z" fill="white"/>
</svg>
