<svg width="16" height="14" viewBox="0 0 16 14" fill="none" xmlns="http://www.w3.org/2000/svg">
<path fill-rule="evenodd" clip-rule="evenodd" d="M13.6667 2.8093C12.5629 1.42772 10.9792 0.598774 9.20356 0.598774C5.79623 0.598774 3.25273 3.63825 3.25273 6.95404C3.25273 9.25667 4.83642 10.9606 6.61207 10.9606C6.80403 10.9606 6.94801 10.9606 7.09198 10.9146C5.89221 10.0856 5.12436 8.56588 5.12436 6.95404C5.12436 4.32904 6.948 2.30272 9.15557 2.30272C11.5071 2.30272 13.1868 4.5593 13.1868 6.95404C13.1868 8.70404 12.5149 10.5001 11.3631 11.7896C10.3553 12.9409 9.0596 13.6317 7.61988 13.8619C7.61988 13.8619 7.76384 13.8619 7.90781 13.8619C11.891 13.8619 15.1064 10.7764 15.1064 6.95404C15.1544 5.38825 14.5785 3.96062 13.6667 2.8093ZM12.5629 6.95404C12.5629 4.65141 10.9792 2.94746 9.20356 2.94746C9.0116 2.94746 8.86763 2.94746 8.72366 2.99351C9.92342 3.82246 10.6913 5.3422 10.6913 6.95404C10.6913 9.57904 8.86763 11.6054 6.66006 11.6054C4.30852 11.6054 2.62885 9.34878 2.62885 6.95404C2.62885 5.20404 3.30072 3.40799 4.4525 2.11851C5.4603 0.967195 6.75604 0.276406 8.19576 0.0461426C8.19576 0.0461426 8.05178 0.0461426 7.90781 0.0461426C3.92459 0.0461426 0.709229 3.13167 0.709229 6.95404C0.709229 8.51983 1.23713 9.94746 2.14895 11.0988C3.25273 12.4343 4.83642 13.2632 6.61207 13.2632C10.0674 13.3093 12.5629 10.2698 12.5629 6.95404Z" fill="white"/>
</svg>
