<svg width="18" height="14" viewBox="0 0 18 14" fill="none" xmlns="http://www.w3.org/2000/svg">
<path d="M13.3591 4.28289C13.0712 4.09868 12.6872 4.09868 12.3513 4.28289L9.95178 5.61842L8.32009 6.49342L5.96856 7.82895C5.68061 8.01316 5.29669 8.01316 4.96075 7.82895L3.13712 6.76974C2.84917 6.58553 2.60922 6.26316 2.60922 5.89474V3.86842C2.60922 3.54605 2.80118 3.22368 3.13712 2.99342L4.96075 1.98026C5.2487 1.79605 5.63262 1.79605 5.96856 1.98026L7.7922 3.03947C8.08015 3.22368 8.32009 3.54605 8.32009 3.91447V5.25L9.95178 4.32895V2.94737C9.95178 2.625 9.75981 2.30263 9.42388 2.07237L6.01655 0.138158C5.72861 -0.0460526 5.34468 -0.0460526 5.00875 0.138158L1.50543 2.11842C1.1695 2.30263 0.977539 2.625 0.977539 2.94737V6.81579C0.977539 7.13816 1.1695 7.46053 1.50543 7.69079L4.96075 9.625C5.2487 9.80921 5.63262 9.80921 5.96856 9.625L8.32009 8.33553L9.95178 7.41447L12.3033 6.125C12.5913 5.94079 12.9752 5.94079 13.3111 6.125L15.1348 7.13816C15.4227 7.32237 15.6627 7.64474 15.6627 8.01316V10.0855C15.6627 10.4079 15.4707 10.7303 15.1348 10.9605L13.3591 11.9737C13.0712 12.1579 12.6872 12.1579 12.3513 11.9737L10.5277 10.9605C10.2397 10.7763 9.99976 10.4539 9.99976 10.0855V8.79605L8.36809 9.71711V11.0526C8.36809 11.375 8.56005 11.6974 8.89599 11.9276L12.3513 13.8618C12.6393 14.0461 13.0232 14.0461 13.3591 13.8618L16.8144 11.9276C17.1024 11.7434 17.3423 11.4211 17.3423 11.0526V7.13816C17.3423 6.81579 17.1504 6.49342 16.8144 6.26316L13.3591 4.28289Z" fill="white"/>
</svg>
