<svg width="17" height="14" viewBox="0 0 17 14" fill="none" xmlns="http://www.w3.org/2000/svg">
<path fill-rule="evenodd" clip-rule="evenodd" d="M3.5089 10.5922C3.55689 10.5461 3.60488 10.5001 3.70086 10.454C3.74885 10.408 3.84484 10.408 3.94082 10.408H16.5144C16.5623 10.408 16.6103 10.408 16.6583 10.454C16.7063 10.5001 16.7543 10.5001 16.7543 10.5461C16.7543 10.5922 16.8023 10.6382 16.7543 10.6843C16.7543 10.7304 16.7063 10.7764 16.7063 10.8225L14.0188 13.6317C13.9709 13.6777 13.9229 13.7238 13.8269 13.7698C13.7789 13.8619 13.6829 13.8619 13.6349 13.8619H1.06138C1.01339 13.8619 0.9654 13.8619 0.917409 13.8159C0.869419 13.7698 0.821428 13.7698 0.821428 13.7238C0.821428 13.6777 0.773438 13.6317 0.821428 13.5856C0.821428 13.5396 0.869419 13.4935 0.869419 13.4475L3.5089 10.5922ZM16.7063 8.24351C16.7543 8.28956 16.7543 8.33562 16.7543 8.38167C16.7543 8.42772 16.7543 8.47378 16.7543 8.51983C16.7543 8.56588 16.7063 8.61193 16.6583 8.61193C16.6103 8.65799 16.5623 8.65799 16.5144 8.65799H3.94082C3.84484 8.65799 3.79684 8.65799 3.70086 8.61193C3.65287 8.56588 3.55689 8.51983 3.5089 8.47377L0.821428 5.66456C0.821428 5.61851 0.773438 5.57246 0.773438 5.52641C0.773438 5.48035 0.773438 5.4343 0.773438 5.38825C0.773438 5.3422 0.821428 5.29614 0.869419 5.29614C0.917409 5.25009 0.9654 5.25009 1.01339 5.25009H13.5869C13.6829 5.25009 13.7309 5.25009 13.8269 5.29614C13.8749 5.3422 13.9709 5.38825 14.0188 5.4343L16.7063 8.24351ZM3.5089 0.230353C3.55689 0.1843 3.65287 0.138248 3.70086 0.0921952C3.79684 0.0461426 3.84484 0.0461426 3.94082 0.0461426H16.5144C16.5623 0.0461426 16.6103 0.0461426 16.6583 0.0921952C16.7063 0.138248 16.7543 0.138248 16.7543 0.1843C16.7543 0.230353 16.8023 0.276406 16.7543 0.322458C16.7543 0.368511 16.7063 0.414564 16.7063 0.460616L14.0188 3.26983C13.9709 3.31588 13.9229 3.36193 13.8269 3.40799C13.7789 3.45404 13.6829 3.45404 13.5869 3.45404H1.01339C0.9654 3.45404 0.917409 3.45404 0.869419 3.40799C0.869419 3.40799 0.821428 3.36193 0.773438 3.31588C0.773438 3.26983 0.773438 3.22377 0.773438 3.17772C0.773438 3.13167 0.821428 3.08562 0.821428 3.03956L3.5089 0.230353Z" fill="white"/>
</svg>
