<svg width="43" height="43" viewBox="0 0 43 43" fill="none" xmlns="http://www.w3.org/2000/svg">
<path d="M14.8334 1.45288C19.0228 -0.1141 23.738 -0.117678 28.0061 1.17025C33.5621 2.89465 38.2523 7.08759 40.703 12.3502C41.3791 13.8492 42.0267 15.4126 42.0911 17.0798C38.9678 15.2695 35.5441 14.0961 32.1132 13.0264C26.6251 11.048 20.8795 9.67418 15.6849 6.95522C14.4757 6.23254 12.9337 5.49198 12.6046 3.98582C12.4722 2.68357 13.8496 1.95732 14.8334 1.45288Z" fill="white"/>
<path d="M2.18633 14.1171C3.39913 10.8257 5.38827 7.77047 8.08935 5.50586C8.77625 11.1549 11.1804 16.6143 15.1515 20.7213C19.9133 25.6692 26.6964 28.7065 33.5976 28.592C36.338 28.6779 39.0176 28.0447 41.6901 27.5331C39.0605 37.0352 28.6462 43.3424 18.9974 41.8255C13.1731 41.0814 7.79599 37.6326 4.55112 32.7635C0.891242 27.3828 -0.0317748 20.2384 2.18633 14.1171Z" fill="white"/>
<path d="M32.1123 13.0273C35.5432 14.097 38.967 15.2705 42.0902 17.0808L42.3013 17.1917C42.5911 19.3704 42.8021 21.5921 42.4158 23.7744C40.8452 23.109 39.5716 21.9391 38.2407 20.9052C35.6792 18.773 33.0639 16.333 32.1123 13.0273Z" fill="#C5C5C5"/>
</svg>
