<svg width="45" height="36" viewBox="0 0 45 36" fill="none" xmlns="http://www.w3.org/2000/svg">
<path d="M19.8232 3.76235C17.8535 1.26271 15 0 11.2374 0C7.5 0 4.62121 1.26271 2.65152 3.81389C0.656566 6.3393 0 10.0501 0 14.9463V21.3887C0.0505051 26.0787 0.732323 29.7122 2.70202 32.2119C4.67172 34.7373 7.55051 36 11.2879 36C15.0758 36 17.9545 34.7115 19.9242 32.1603C21.8939 29.5834 22.5505 25.8984 22.5505 21.0537V14.6113C22.5 9.89549 21.8182 6.28776 19.8232 3.76235ZM6.4899 13.4259C6.5404 10.7459 6.94445 8.76163 7.70202 7.5247C8.4596 6.26199 9.64647 5.64352 11.2626 5.64352C12.904 5.64352 14.1162 6.31353 14.899 7.62777C15.4798 8.60702 15.8333 10.0501 15.9848 11.9055L6.4899 18.9921V13.4259ZM16.0606 22.2906C16.0354 25.048 15.6313 27.0838 14.899 28.398C14.1667 29.738 12.9545 30.408 11.2879 30.408C9.59596 30.408 8.38384 29.7122 7.62626 28.3207C7.0202 27.2384 6.66667 25.6922 6.5404 23.7079L16.0606 16.5956V22.2906Z" fill="white"/>
<path d="M45.0003 35.5365H38.1821V8.71049L30.0508 11.2874V5.64392L44.268 0.438477H45.0003V35.5365Z" fill="white"/>
</svg>
