<svg width="131" height="30" viewBox="0 0 131 30" fill="none" xmlns="http://www.w3.org/2000/svg">
  <path fill-rule="evenodd" clip-rule="evenodd" d="M10.5796 1.01172C15.8784 1.01172 20.1689 5.32005 20.1689 10.6409V23.0696H0.990234V10.6409C1.01001 5.32005 5.28073 1.01172 10.5796 1.01172ZM6.74385 8.05991C5.63662 8.05991 4.74689 8.95334 4.74689 10.0652C4.74689 11.177 5.63662 12.0704 6.74385 12.0704C7.85107 12.0704 8.7408 11.177 8.7408 10.0652C8.7408 8.95334 7.85107 8.05991 6.74385 8.05991ZM13.8222 8.05991C12.7149 8.05991 11.8252 8.95334 11.8252 10.0652C11.8252 11.177 12.7149 12.0704 13.8222 12.0704C14.9294 12.0704 15.8191 11.177 15.8191 10.0652C15.8389 8.95334 14.9294 8.05991 13.8222 8.05991Z" fill="white"/>
  <path fill-rule="evenodd" clip-rule="evenodd" d="M10.5796 2.30176C15.8784 2.30176 20.1689 5.61739 20.1689 13.9759V23.7839H0.990234V10.4618C1.01001 5.37914 5.28073 2.30176 10.5796 2.30176ZM6.74385 8.05944C5.63662 8.05944 4.74689 8.95287 4.74689 10.0647C4.74689 11.1765 5.63662 12.07 6.74385 12.07C7.85107 12.07 8.7408 11.1765 8.7408 10.0647C8.7408 8.95287 7.85107 8.05944 6.74385 8.05944ZM13.8222 8.05944C12.7149 8.05944 11.8252 8.95287 11.8252 10.0647C11.8252 11.1765 12.7149 12.07 13.8222 12.07C14.9294 12.07 15.8191 11.1765 15.8191 10.0647C15.8389 8.95287 14.9294 8.05944 13.8222 8.05944Z" fill="white"/>
  <path fill-rule="evenodd" clip-rule="evenodd" d="M10.5792 3.23535C15.8781 3.23535 20.1686 6.43186 20.1686 14.4926V28.0926C20.1686 28.7081 19.6743 29.1846 19.0811 29.1846C18.4682 29.1846 17.9937 28.6883 17.9937 28.0926V25.0351C17.9937 24.4792 17.5192 24.0424 16.926 24.0226H16.9062C16.3131 24.0226 15.8188 24.4593 15.8188 25.0153V26.3852C15.8188 26.961 15.364 27.4176 14.7906 27.4176C14.2173 27.4176 13.7625 26.961 13.7625 26.3852V25.0351C13.7625 24.4792 13.288 24.0424 12.6948 24.0226H12.6751C12.0819 24.0226 11.5876 24.4593 11.5876 25.0153V25.2932C11.5876 25.869 11.1328 26.3256 10.5595 26.3256C9.98608 26.3256 9.53133 25.869 9.53133 25.2932V25.0351C9.53133 24.4792 9.0568 24.0424 8.46365 24.0226H8.44387C7.85072 24.0226 7.35642 24.4593 7.35642 25.0153V26.3852C7.35642 26.961 6.90167 27.4176 6.32829 27.4176C5.7549 27.4176 5.30015 26.961 5.30015 26.3852V25.0351C5.30015 24.4792 4.82562 24.0424 4.23247 24.0226H4.2127C3.61954 24.0226 3.12524 24.4593 3.12524 25.0153V25.0351V28.1522C3.12524 28.728 2.67049 29.1846 2.09711 29.1846C1.52372 29.1846 1.06897 28.728 1.06897 28.1522V11.1174C1.00965 6.21346 5.28038 3.23535 10.5792 3.23535ZM6.74349 8.05989C5.63627 8.05989 4.74654 8.95332 4.74654 10.0652C4.74654 11.177 5.63627 12.0704 6.74349 12.0704C7.85072 12.0704 8.74045 11.177 8.74045 10.0652C8.74045 8.95332 7.85072 8.05989 6.74349 8.05989ZM13.8218 8.05989C12.7146 8.05989 11.8249 8.95332 11.8249 10.0652C11.8249 11.177 12.7146 12.0704 13.8218 12.0704C14.929 12.0704 15.8188 11.177 15.8188 10.0652C15.8386 8.95332 14.929 8.05989 13.8218 8.05989Z" fill="white"/>
  <path opacity="0.2563" fill-rule="evenodd" clip-rule="evenodd" d="M2.01797 12.8643C2.29478 12.8643 2.53204 13.1025 2.53204 13.3805V15.7034C2.53204 15.9813 2.29478 16.2196 2.01797 16.2196C1.74117 16.2196 1.50391 15.9813 1.50391 15.7034V13.3805C1.50391 13.1025 1.7214 12.8643 2.01797 12.8643Z" fill="#1D1B40"/>
  <path opacity="0.2563" fill-rule="evenodd" clip-rule="evenodd" d="M19.516 16.2197C19.7928 16.2197 20.0301 16.458 20.0301 16.7359V21.084C20.0301 21.3619 19.7928 21.6002 19.516 21.6002C19.2392 21.6002 19.002 21.3619 19.002 21.084V16.7359C19.002 16.458 19.259 16.2197 19.516 16.2197Z" fill="#1D1B40"/>
  <path opacity="0.2563" fill-rule="evenodd" clip-rule="evenodd" d="M19.516 13.9766C19.7928 13.9766 20.0301 14.2148 20.0301 14.4928V14.9693C20.0301 15.2472 19.7928 15.4855 19.516 15.4855C19.2392 15.4855 19.002 15.2472 19.002 14.9693V14.4928C19.002 14.195 19.259 13.9766 19.516 13.9766Z" fill="#1D1B40"/>
  <path fill-rule="evenodd" clip-rule="evenodd" d="M10.6192 15.2071C11.4892 15.2071 12.1417 14.4924 12.1417 13.996C12.1417 13.7975 12.023 13.6188 11.8451 13.599C11.5683 13.5592 11.1531 13.7181 10.6192 13.7181C10.1249 13.7181 9.80858 13.5791 9.43291 13.5791C9.03748 13.5791 9.05725 14.0357 9.11656 14.2144C9.25497 14.7108 9.72949 15.2071 10.6192 15.2071Z" fill="#1F1B40"/>
  <path fill-rule="evenodd" clip-rule="evenodd" d="M10.639 14.7902C11.5287 14.7902 12.1812 14.135 12.1812 13.6585C12.1812 13.4798 12.0626 13.321 11.8846 13.3011C11.6078 13.2614 11.1728 13.4202 10.639 13.4202C10.1249 13.4202 9.82835 13.2812 9.43291 13.2812C9.03748 13.2812 9.05725 13.718 9.11656 13.8769C9.25497 14.3335 9.74926 14.7902 10.639 14.7902Z" fill="#1D1B40"/>
  <path fill-rule="evenodd" clip-rule="evenodd" d="M7.03996 7.72266C8.04832 7.72266 8.87874 8.73521 8.87874 9.98602C8.87874 11.2368 8.04832 12.2494 7.03996 12.2494C6.03159 12.2494 5.20117 11.2368 5.20117 9.98602C5.20117 8.73521 6.01182 7.72266 7.03996 7.72266ZM7.03996 7.96091C6.15022 7.96091 5.39889 8.87419 5.39889 9.98602C5.39889 11.0978 6.13045 12.0111 7.03996 12.0111C7.94946 12.0111 8.68102 11.0978 8.68102 9.98602C8.68102 8.87419 7.92969 7.96091 7.03996 7.96091Z" fill="#D8D8D8"/>
  <path fill-rule="evenodd" clip-rule="evenodd" d="M14.1376 7.72266C15.146 7.72266 15.9764 8.73521 15.9764 9.98602C15.9764 11.2368 15.146 12.2494 14.1376 12.2494C13.1292 12.2494 12.2988 11.2368 12.2988 9.98602C12.2988 8.73521 13.1292 7.72266 14.1376 7.72266ZM14.1376 7.96091C13.2281 7.96091 12.4965 8.87419 12.4965 9.98602C12.4965 11.0978 13.2281 12.0111 14.1376 12.0111C15.0471 12.0111 15.7787 11.0978 15.7787 9.98602C15.7984 8.87419 15.0471 7.96091 14.1376 7.96091Z" fill="#D8D8D8"/>
  <path fill-rule="evenodd" clip-rule="evenodd" d="M7.03964 7.96094C7.94915 7.96094 8.68071 8.87422 8.68071 9.98605C8.68071 10.0258 8.68071 10.0655 8.68071 10.1052V10.2243C8.68071 9.09262 7.96892 8.15948 7.07919 8.15948C6.18945 8.15948 5.49744 9.07276 5.49744 10.2243C5.49744 10.4427 5.51721 10.6611 5.57653 10.8596C5.47767 10.6015 5.41835 10.3037 5.41835 10.0059C5.39858 8.87422 6.14991 7.96094 7.03964 7.96094Z" fill="#B4B4B6"/>
  <path fill-rule="evenodd" clip-rule="evenodd" d="M14.1391 7.96094C15.0486 7.96094 15.7802 8.87422 15.7802 9.98605C15.7802 10.0258 15.7802 10.0655 15.7802 10.1052V10.2243C15.7802 9.09262 15.0684 8.15948 14.1787 8.15948C13.2889 8.15948 12.5771 9.07276 12.5771 10.2243C12.5771 10.4427 12.5969 10.6611 12.6562 10.8596C12.5574 10.6015 12.498 10.3037 12.498 10.0059C12.498 8.87422 13.2296 7.96094 14.1391 7.96094Z" fill="#B4B4B6"/>
  <path fill-rule="evenodd" clip-rule="evenodd" d="M72.4658 1.01107C73.5335 1.03092 74.4628 1.70596 74.8385 2.67881L74.8978 2.83764L84.6848 26.6625C84.7639 26.8412 84.8035 27.0199 84.8035 27.1986V27.3376C84.8233 27.8141 84.6651 28.2906 84.329 28.6678C83.9928 29.0252 83.5183 29.2038 83.024 29.184C82.6681 29.184 82.3122 29.0649 82.0156 28.8465C81.7586 28.6479 81.5609 28.4097 81.4027 28.1317L81.3236 27.953L72.0111 4.64436L68.5708 13.2015H70.2316C71.1411 13.2015 71.8925 13.9162 71.9715 14.8295V14.9685V15.0082C71.9715 15.9215 71.2598 16.6759 70.37 16.7752H70.2316H67.1472L62.659 27.953C62.5206 28.3104 62.2636 28.6082 61.967 28.8465C61.6704 29.0649 61.3145 29.184 60.9586 29.184C60.4643 29.2038 59.9898 29.0252 59.6537 28.6678C59.3373 28.3104 59.1594 27.8339 59.1791 27.3376C59.1791 27.1589 59.1989 27 59.2582 26.8214L59.3175 26.6625L63.3708 16.7553H61.6309C60.7213 16.7553 59.97 16.0406 59.8909 15.1273V14.9685C59.8909 14.0552 60.6027 13.3007 61.4925 13.2015H61.6309H64.913L69.1639 2.81778C69.4803 1.80523 70.3898 1.09048 71.4377 0.991211H71.6156L72.4658 1.01107ZM43.2232 1.01107C44.2909 1.03092 45.24 1.6861 45.6156 2.67881L45.675 2.83764L55.462 26.6625C55.5213 26.8214 55.5609 27 55.5807 27.1589V27.4964C55.5609 27.9332 55.4027 28.3303 55.1061 28.6678C54.77 29.0252 54.2955 29.2038 53.8012 29.184C53.4453 29.184 53.0894 29.0649 52.7928 28.8465C52.5358 28.6479 52.3381 28.4097 52.1799 28.1317L52.1008 27.953L42.7883 4.64436L39.3875 13.2015H41.0483C41.9776 13.2015 42.729 13.9162 42.808 14.8295V14.9685V15.0082C42.808 15.9413 42.0963 16.6958 41.1867 16.7752H41.0483H37.9442L33.4559 27.953C33.3175 28.3104 33.0605 28.6082 32.7639 28.8465C32.4674 29.0649 32.1115 29.184 31.7556 29.184C31.2613 29.2038 30.7867 29.0252 30.4506 28.6678C30.1343 28.3104 29.9563 27.8339 29.9761 27.3376C29.9761 27.1589 29.9959 27 30.0552 26.8214L30.1145 26.6625L34.1677 16.7553H32.4278C31.5183 16.7553 30.767 16.0406 30.6879 15.1273V14.9685C30.6879 14.0552 31.3997 13.3007 32.2894 13.2015H32.4278H35.6506L39.9016 2.81778C40.2179 1.80523 41.1274 1.09048 42.1753 0.991211H42.3533L43.2232 1.01107ZM84.1312 1.01107C84.4871 1.01107 84.843 1.13019 85.1396 1.34858C85.4362 1.58683 85.6932 1.88464 85.8316 2.24202L95.1639 25.5507L104.457 2.24202C104.615 1.88464 104.852 1.58683 105.149 1.34858C105.445 1.13019 105.801 1.01107 106.157 1.01107C106.632 0.991211 107.106 1.1699 107.442 1.52727C107.778 1.88464 107.937 2.36114 107.937 2.85749C107.937 3.09574 107.897 3.31414 107.818 3.53253L98.0309 27.3574C97.6947 28.4295 96.7061 29.1641 95.5791 29.184H94.7092C93.5822 29.1641 92.5936 28.4295 92.2575 27.3574L82.4704 3.53253C82.3913 3.31414 82.3518 3.09574 82.3518 2.85749C82.332 2.36114 82.5099 1.9045 82.8263 1.52727C83.202 1.1699 83.6567 0.971357 84.1312 1.01107ZM129.27 1.18975C129.725 1.1699 130.16 1.36844 130.476 1.70596C130.813 2.02362 130.991 2.46041 130.991 2.91706C131.01 3.3737 130.813 3.79063 130.476 4.1083C130.16 4.42596 129.725 4.60465 129.27 4.60465H115.213V13.4H127.847C128.302 13.3801 128.737 13.5787 129.053 13.9162C129.369 14.2339 129.567 14.6707 129.567 15.1273C129.587 15.5839 129.389 16.0009 129.053 16.3185C128.737 16.6362 128.302 16.8149 127.847 16.8149H115.213V25.65H129.27C129.725 25.6301 130.16 25.8286 130.476 26.1662C130.813 26.4838 130.991 26.9206 130.991 27.3773C131.01 27.8339 130.813 28.2508 130.476 28.5685C130.16 28.8862 129.725 29.0649 129.27 29.045H113.374C112.899 29.0847 112.425 28.8862 112.108 28.5288C111.772 28.1913 111.594 27.7346 111.594 27.2581V3.03618C111.575 2.53983 111.772 2.08318 112.108 1.72581C112.445 1.36844 112.899 1.18975 113.374 1.20961L129.27 1.18975Z" fill="white"/>
</svg>
