<svg width="120" height="19" viewBox="0 0 120 19" fill="none" xmlns="http://www.w3.org/2000/svg">
<path d="M16.7637 15.1278L14.5972 14.8577L10.0203 3.94404L1.54367 15.452L10.4536 0L16.7637 15.1278ZM12.9181 3.6739L18.1178 16.1544L6.28301 14.6146L4.92891 16.4245L21.5301 18.6126L12.9181 3.6739ZM3.57481 17.0188L10.8057 7.56392L9.93907 5.45683L0 18.6667H16.8991L3.57481 17.0188Z" fill="white"/>
<path d="M28.1113 15.5062H29.98L31.7403 11.238H34.8547L36.6692 15.5062H38.592L33.3652 3.2959L28.1113 15.5062ZM34.1235 9.45509H32.5257L33.284 7.5371L34.1235 9.45509Z" fill="white"/>
<path d="M60.2578 15.5062H62.1265L63.8868 11.238H67.0012L68.8157 15.5062H70.7385L65.5388 3.2959L60.2578 15.5062ZM66.2971 9.45509H64.6722L65.4305 7.5371L66.2971 9.45509Z" fill="white"/>
<path d="M39.7559 5.61856H43.439V15.5057H45.2264V5.61856H48.9095V3.9707H39.7559V5.61856Z" fill="white"/>
<path d="M52.1607 3.9707H50.4004V15.5327H57.9562V13.8578H52.1878L52.1607 3.9707Z" fill="white"/>
<path d="M76.8308 8.64455L76.7495 8.61753C76.2621 8.40142 75.8288 8.07725 75.4496 7.72607C75.26 7.45593 75.1517 7.13176 75.1517 6.8076C75.1246 6.45641 75.26 6.13225 75.5309 5.91613C75.8288 5.67301 76.235 5.56495 76.6141 5.56495C76.9391 5.56495 77.237 5.61898 77.5078 5.78106C77.7516 5.91613 77.9682 6.10523 78.1036 6.34836L78.2391 6.6185L79.4307 5.51093L79.3223 5.34884C79.0515 4.91662 78.6453 4.56544 78.1849 4.32231C77.6974 4.07918 77.1829 3.97113 76.6683 3.97113C75.8288 3.9171 75.0163 4.21425 74.3663 4.75453C73.7705 5.29481 73.4456 6.0512 73.4726 6.86162C73.4456 7.53697 73.6622 8.21232 74.0955 8.72559C74.6913 9.34691 75.3955 9.83316 76.1808 10.1573C76.8037 10.4275 77.3454 10.8057 77.8328 11.2649C78.1307 11.5621 78.2932 11.9673 78.2661 12.3995C78.2932 12.8587 78.1307 13.318 77.8057 13.6421C77.4266 13.9663 76.9391 14.1284 76.4246 14.1014C75.9913 14.1014 75.5579 13.9933 75.1788 13.7502C74.8267 13.5341 74.5559 13.1829 74.4205 12.8047L74.3122 12.4805L73.0664 13.5341L73.1477 13.6962C73.3914 14.2905 73.8247 14.8037 74.3934 15.1549C75.8559 15.9653 77.6703 15.8303 78.9974 14.8037C79.6473 14.1824 79.9994 13.291 79.9723 12.3725C79.9723 11.0218 78.9161 9.77914 76.8308 8.64455Z" fill="white"/>
<path d="M95.2748 5.48349C94.1644 4.48397 92.8103 3.9707 90.7521 3.9707H88.3418V15.5867H90.6979C92.8103 15.5867 94.1915 15.1005 95.2748 14.128C96.358 13.1555 96.9268 11.6967 96.9268 9.80572C97.0351 8.18489 96.4122 6.61807 95.2748 5.48349ZM95.1935 9.80572C95.1935 11.2105 94.8144 12.264 94.0832 12.9393C93.3519 13.6147 92.3499 13.9659 90.725 13.9659H90.048V5.61856H90.8604C92.0249 5.53751 93.1895 5.91571 94.0561 6.6721C94.8685 7.50954 95.3018 8.64412 95.1935 9.80572Z" fill="white"/>
<path d="M99.5801 15.5057H107.19V13.8308H101.34V10.5891H106.378V8.91426H101.34V5.64557H107.19V3.9707H99.5801V15.5057Z" fill="white"/>
<path d="M116.154 9.75234L120 3.94434H117.752L115.098 8.1315L112.363 3.94434H110.169L113.879 9.61727L110.088 15.5063H112.282L114.963 11.3462L117.644 15.5063H119.837L116.154 9.75234Z" fill="white"/>
</svg>
