<svg width="120" height="25" viewBox="0 0 120 25" fill="none" xmlns="http://www.w3.org/2000/svg">
<path d="M17.6231 12.1016L14.4507 6.57936L10.8476 0.352207C10.6518 0.0388908 10.2601 -0.0786027 9.90765 0.11722C9.79016 0.195549 9.71183 0.273878 9.67266 0.352207L2.85804 12.1016L0.116527 16.9188C-0.0792959 17.1929 -0.0009669 17.6237 0.312349 17.8196C0.429843 17.8979 0.547336 17.9371 0.664829 17.9371H5.91287C6.14786 17.9371 6.38285 17.8196 6.50034 17.5846L9.24185 12.8848L9.67266 12.1799C9.71183 12.1407 9.71183 12.1407 9.71183 12.1016C9.94681 11.7882 10.3776 11.7491 10.6518 11.9841C10.7301 12.0232 10.7693 12.1016 10.8084 12.1799L13.7066 17.0363L14.2157 17.9371C14.2549 17.9762 14.2549 18.0546 14.2941 18.0937C14.4116 18.4462 14.1766 18.8378 13.8241 18.9553C13.7849 18.9553 13.7066 18.9945 13.6674 18.9945H7.40112C7.16614 18.9945 6.93115 19.112 6.81365 19.347L4.18963 23.8901C3.99381 24.2034 4.1113 24.6342 4.42462 24.83C4.54211 24.9083 4.65961 24.9083 4.7771 24.9083H23.7719C24.1635 24.9083 24.4768 24.595 24.4377 24.2034C24.4377 24.0859 24.3985 23.9684 24.3593 23.8901L17.6231 12.1016Z" fill="white"/>
<path d="M35.5601 6.34473L30.4688 18.4466H33.9936L34.8552 16.2925H39.5157L40.3774 18.4466H43.9805L38.8891 6.34473H35.5601ZM35.7951 13.7077L37.1267 10.3003L38.4583 13.7077H35.7951Z" fill="white"/>
<path d="M56.2782 13.1983C56.2782 14.8824 55.4166 15.6657 54.0458 15.6657C52.7142 15.6657 51.8135 14.8432 51.8135 13.0808V6.42285H48.4453V13.1591C48.4845 16.9189 50.5994 18.6813 54.0067 18.6813C57.414 18.6813 59.6464 16.9973 59.6464 13.12V6.46202H56.2782V13.1983Z" fill="white"/>
<path d="M70.6508 6.42285H65.9902V18.4464H70.5333C74.8806 18.4464 77.3871 15.8615 77.3871 12.3759V12.3367C77.4263 8.89021 74.9589 6.42285 70.6508 6.42285ZM74.019 12.4542C74.019 14.4124 72.6874 15.509 70.69 15.509H69.3584V9.36019H70.69C72.6874 9.36019 74.019 10.496 74.019 12.4542Z" fill="white"/>
<path d="M86.7098 6.42285H83.3809V18.4464H86.7098V6.42285Z" fill="white"/>
<path d="M100.927 13.1983C100.927 14.8824 100.065 15.6657 98.6943 15.6657C97.3235 15.6657 96.4619 14.8432 96.4619 13.0808V6.42285H93.0938V13.1591C93.0938 16.9189 95.2478 18.6813 98.6551 18.6813C102.062 18.6813 104.295 16.9973 104.295 13.12V6.46202H100.887V13.1983H100.927Z" fill="white"/>
<path d="M115.574 10.9264C113.89 10.5348 113.499 10.2998 113.499 9.75147V9.7123C113.499 9.28149 113.89 8.92901 114.713 8.92901C115.77 8.92901 116.984 9.35982 118.081 10.1431L119.765 7.79324C118.472 6.7358 116.867 6.1875 114.791 6.1875C111.893 6.1875 110.13 7.79324 110.13 10.0648V10.1039C110.13 12.5713 112.089 13.3154 114.674 13.9029C116.279 14.2945 116.71 14.5687 116.71 15.0387V15.0778C116.71 15.587 116.24 15.9003 115.339 15.9003C113.929 15.9003 112.637 15.3912 111.423 14.4512L109.543 16.6836C111.031 18.0152 113.068 18.681 115.183 18.681C118.081 18.681 120.039 17.1927 120.039 14.7645V14.7254C120.039 12.4538 118.316 11.553 115.574 10.9264Z" fill="white"/>
</svg>
