<svg width="120" height="38" viewBox="0 0 120 38" fill="none" xmlns="http://www.w3.org/2000/svg">
<path d="M27.2179 19.5307H37.6313C37.3184 29.7207 29.0056 37.8994 18.8156 37.8994C8.6257 37.8994 0.312849 29.7207 0 19.5307H10.5028L18.8603 37.7654L27.2179 19.5307ZM6.92737 11.7095C4.15642 12.7374 1.34078 14.7486 0.0893855 16.9385C0.0446927 17.4749 0 17.9665 0 18.5475H10.0559L6.92737 11.7095ZM19.6648 3.7095C19.9777 4.2905 10.5475 4.87151 7.91061 4.3352C7.64246 4.2905 7.46369 4.15642 7.28492 4.02235L9.51955 8.89386C9.69832 8.93855 9.8324 8.98324 9.92179 9.07263C10.905 10.1453 12.6927 9.78771 13.5866 10.4581C13.9441 10.7263 12.8715 10.5922 10.4581 10.905L10.9497 11.9777H26.7263L27.7542 9.78771C27.2179 10.1006 26.8156 10.324 26.5922 10.4134C25.6536 10.771 24.2235 10.6369 24.6257 10.6369C24.9832 10.5922 25.9665 9.96648 26.6369 9.65363C26.905 9.51955 27.486 9.11732 28.2905 8.6257L30.3911 4.02235C27.2179 1.51955 23.1955 0 18.8156 0C16.4022 0 14.1229 0.446927 12.0223 1.2514C14.7933 2.18994 19.352 3.12849 19.6648 3.7095ZM32.4916 8.08939L27.7095 18.5475H37.676C37.6313 17.162 37.4525 15.7765 37.1397 14.4804C36.4693 14.4358 35.8436 14.3017 35.4413 14.1676C34.771 13.9441 33.8771 14.1229 32.7151 14.1676C31.5978 14.2123 31.8212 13.8547 32 13.4078C32.1788 12.9609 34.9944 11.8436 36.2458 11.7095C35.7989 10.5922 35.2179 9.56425 34.5922 8.58101C34.5475 8.58101 34.5475 8.53631 34.5028 8.53631C33.8324 8.17877 33.162 8.08939 32.4916 8.08939ZM5.81006 9.34078L4.55866 6.61453C4.20112 7.06145 3.84358 7.50838 3.53073 7.95531C4.15642 8.80447 4.82682 9.43017 5.81006 9.34078ZM13.9888 18.5475H23.7318L25.2961 15.1508H12.4246L13.9888 18.5475ZM18.8603 29.1844L23.2849 19.5754H14.4358L18.8603 29.1844Z" fill="white"/>
<path d="M54.034 24.9387H49.8329L49.2072 26.8605H45.0508L49.6541 14.2125H54.2128L58.8161 26.8605H54.6597L54.034 24.9387ZM53.0508 21.9443L51.8888 18.4136L50.7268 21.9443H53.0508ZM63.062 14.2125V21.3186C63.062 21.8996 63.196 22.3466 63.4195 22.7041C63.6876 23.017 64.0899 23.1957 64.6709 23.1957C65.2519 23.1957 65.6541 23.017 65.9223 22.7041C66.1904 22.3466 66.3245 21.8996 66.3245 21.3186V14.2125H70.2575V21.3186C70.2575 22.5253 69.9893 23.5533 69.4977 24.4024C69.0061 25.2516 68.3357 25.8773 67.4418 26.3242C66.5927 26.7712 65.6094 26.9499 64.5368 26.9499C63.4642 26.9499 62.5256 26.7265 61.6765 26.3242C60.872 25.8773 60.2016 25.2516 59.7547 24.4024C59.3078 23.5533 59.0396 22.5253 59.0396 21.3186V14.2125H63.062ZM77.8106 26.8605L75.4418 22.3466V26.8605H71.4642V14.2125H77.3636C78.3916 14.2125 79.2407 14.3913 80.0005 14.7488C80.7156 15.1063 81.2519 15.598 81.6094 16.2237C81.967 16.8494 82.1458 17.5644 82.1458 18.3242C82.1458 19.1734 81.9223 19.9332 81.4307 20.5589C80.9837 21.2293 80.3134 21.6762 79.4195 21.989L82.1458 26.8158H77.8106V26.8605ZM75.4418 19.665H77.0061C77.4083 19.665 77.6765 19.5756 77.8553 19.3969C78.034 19.2181 78.1234 18.9499 78.1234 18.5924C78.1234 18.2795 78.034 18.0114 77.8106 17.7879C77.6318 17.6091 77.3189 17.5198 76.9614 17.5198H75.3971V19.665H75.4418ZM89.0731 26.9946C87.8664 26.9946 86.7938 26.7265 85.8106 26.1455C84.8273 25.5644 84.0228 24.8047 83.4418 23.8214C82.8608 22.8382 82.548 21.7209 82.548 20.4695C82.548 19.2181 82.8608 18.1008 83.4418 17.1175C84.0228 16.1343 84.8273 15.3745 85.8106 14.7935C86.7938 14.2125 87.9111 13.9443 89.0731 13.9443C90.2798 13.9443 91.3525 14.2125 92.3357 14.7935C93.3189 15.3298 94.1234 16.0896 94.6597 17.1175C95.2407 18.1008 95.5536 19.2181 95.5536 20.4695C95.5536 21.7209 95.2407 22.8382 94.6597 23.8214C94.0787 24.8047 93.3189 25.5644 92.291 26.1455C91.3078 26.6818 90.2351 26.9946 89.0731 26.9946ZM89.0731 23.2851C89.8776 23.2851 90.4586 23.017 90.9055 22.5253C91.3525 22.0337 91.5312 21.3186 91.5312 20.4695C91.5312 19.6203 91.3078 18.9052 90.9055 18.4136C90.4586 17.922 89.8776 17.6538 89.0731 17.6538C88.2687 17.6538 87.643 17.922 87.2407 18.4136C86.7938 18.9052 86.615 19.5756 86.615 20.4695C86.615 21.3186 86.8385 21.989 87.2407 22.5253C87.643 23.017 88.2687 23.2851 89.0731 23.2851ZM102.794 26.8605L100.425 22.3466V26.8605H96.4474V14.2125H102.347C103.375 14.2125 104.224 14.3913 104.984 14.7488C105.699 15.1063 106.235 15.598 106.593 16.2237C106.95 16.8494 107.129 17.5644 107.129 18.3242C107.129 19.1734 106.906 19.9332 106.414 20.5589C105.967 21.2293 105.297 21.6762 104.403 21.989L107.174 26.8158H102.794V26.8605ZM100.38 19.665H101.945C102.347 19.665 102.615 19.5756 102.794 19.3969C102.973 19.2181 103.062 18.9499 103.062 18.5924C103.062 18.2795 102.973 18.0114 102.749 17.7879C102.57 17.6091 102.257 17.5198 101.9 17.5198H100.336V19.665H100.38ZM120.001 14.2125L115.487 23.017V26.8605H111.509V23.017L106.995 14.2125H111.509L113.52 18.6818L115.531 14.2125H120.001Z" fill="white"/>
</svg>
