<svg width="110" height="35" viewBox="0 0 110 35" fill="none" xmlns="http://www.w3.org/2000/svg">
<path d="M28.0092 8.59822L28.875 11.1601C28.9097 11.3005 28.9097 11.4409 28.875 11.5813C28.875 11.6164 28.875 11.6164 28.8404 11.7217C28.8058 11.862 28.8058 11.862 28.7365 12.1077C28.6326 12.5288 28.4941 12.9851 28.3902 13.5115C28.0092 14.9504 27.6282 16.3893 27.2819 17.758C26.4161 21.092 25.862 23.3029 25.7234 23.8294C24.9962 26.8124 24.4074 27.8302 22.5026 29.1989C20.8402 30.3921 17.3423 32.7785 16.6843 33.1997C16.615 33.2348 16.5458 33.305 16.4419 33.3401C16.4072 33.3751 16.2341 33.4804 16.1648 33.5155C15.8531 33.7261 15.6107 33.8665 15.3683 34.0069C15.0566 34.1472 14.7449 34.2525 14.4332 34.2525C14.1215 34.2525 13.8444 34.1823 13.5327 34.042C13.2903 33.9367 13.0479 33.7963 12.7362 33.5506C12.7015 33.5155 12.4937 33.4102 12.4591 33.3751C12.3552 33.305 12.286 33.2699 12.2167 33.2348C11.5587 32.8136 8.06076 30.4272 6.39839 29.234C4.49359 27.8653 3.90484 26.8475 3.17755 23.8645C3.03902 23.3029 2.4849 21.1271 1.61908 17.7931C1.27275 16.4244 0.891792 14.9855 0.510832 13.5115C0.372302 13.0202 0.268403 12.5288 0.164505 12.1077C0.0952399 11.862 0.0952399 11.862 0.0606072 11.7217C0.0259745 11.5813 0.0259745 11.5813 0.0259745 11.5813C-0.00865818 11.4409 -0.00865818 11.3005 0.0259745 11.1601L0.891792 8.59822L0.233771 6.94877C0.129873 6.70311 0.199138 6.38725 0.372302 6.21178C0.441567 6.10649 0.510832 6.0714 0.545465 6.0363C0.683996 5.89593 0.857159 5.72045 1.03032 5.54498C1.51518 5.01856 2.03467 4.49213 2.55416 3.96571C3.03902 3.47438 3.69704 3.19363 4.49359 3.08834C5.11698 3.01815 5.74037 3.05325 6.36376 3.15853C6.39839 3.15853 6.43303 3.15853 6.46766 3.19363L9.03048 0.245664C9.09974 0.0701896 9.30754 0 9.51534 0H19.4203C19.6281 0 19.8012 0.0701896 19.9398 0.245664L22.5026 3.19363C22.5372 3.19363 22.5719 3.19363 22.6065 3.15853C23.2299 3.05325 23.8533 3.01815 24.4767 3.08834C25.2386 3.19363 25.9312 3.43929 26.4161 3.96571C26.9356 4.49213 27.4551 5.01856 27.9399 5.54498C28.1131 5.72045 28.2516 5.89593 28.3902 6.0363C28.4248 6.0714 28.4941 6.14159 28.5287 6.17668C28.7711 6.42235 28.8058 6.70311 28.7019 6.98386L28.0092 8.59822ZM26.5893 8.80879C26.52 8.63332 26.5546 8.45785 26.5893 8.31747L27.178 6.84348C27.0741 6.7382 26.9702 6.63292 26.8663 6.49254C26.3815 5.96611 25.862 5.43969 25.3771 4.94837C25.1347 4.7027 24.7537 4.56232 24.2689 4.49213C23.8186 4.42194 23.2992 4.45704 22.8143 4.56232C22.7104 4.59742 22.6065 4.59742 22.5026 4.63251C22.468 4.63251 22.4333 4.66761 22.3987 4.66761C22.1563 4.7378 21.8792 4.66761 21.706 4.45704L19.1086 1.40379H9.82703L7.19494 4.42194C7.02178 4.63251 6.74472 4.7027 6.50229 4.63251C6.50229 4.63251 6.46766 4.63251 6.39839 4.59742C6.29449 4.56232 6.1906 4.56232 6.0867 4.52723C5.60184 4.42194 5.08235 4.42194 4.63212 4.45704C4.14727 4.52723 3.76631 4.66761 3.52388 4.91327C3.00439 5.43969 2.51953 5.96611 2.03467 6.45744C1.93077 6.56273 1.82688 6.70311 1.72298 6.80839L2.31173 8.28237C2.381 8.45785 2.381 8.63332 2.31173 8.7737L1.41128 11.3707C1.44592 11.476 1.44592 11.5111 1.48055 11.6866C1.58445 12.1077 1.72298 12.5639 1.82688 13.0904C2.20784 14.5292 2.58879 15.9681 2.93512 17.3368C3.80094 20.6708 4.35506 22.8818 4.49359 23.4433C5.15162 26.1105 5.60184 26.8826 7.19494 28.0056C8.85732 29.1989 12.3206 31.5502 12.944 31.9714C13.0132 32.0065 13.1171 32.0766 13.221 32.1468C13.2557 32.1819 13.4288 32.2872 13.4981 32.3223C13.7752 32.4978 13.9483 32.6031 14.1215 32.7083C14.26 32.7785 14.3985 32.8136 14.4678 32.8136C14.5371 32.8136 14.6756 32.7785 14.8141 32.7083C14.9873 32.6382 15.1605 32.5329 15.4375 32.3223C15.4722 32.2872 15.6453 32.1819 15.7146 32.1468C15.8185 32.0766 15.8878 32.0065 15.9917 31.9714C16.6497 31.5502 20.0783 29.1638 21.7407 28.0056C23.3338 26.8475 23.7494 26.1105 24.442 23.4433C24.5806 22.8818 25.1347 20.7059 26.0005 17.3719C26.3468 16.0032 26.7278 14.5643 27.1088 13.0904C27.2473 12.599 27.3512 12.1077 27.4551 11.6866C27.4897 11.476 27.5243 11.476 27.5243 11.3707L26.5893 8.80879ZM21.429 6.0363C21.429 6.0363 25.0654 10.4933 25.0654 11.4409C25.0654 12.3885 24.6152 12.6341 24.165 13.1255C23.7147 13.6168 21.706 15.7927 21.429 16.0734C21.1866 16.3542 20.6324 16.7753 20.9441 17.5474C21.2558 18.3195 21.7407 19.267 21.2212 20.2497C20.7017 21.2324 19.8012 21.8992 19.2471 21.7588C18.693 21.6535 17.3423 20.9516 16.8575 20.6006C16.3726 20.2848 14.8141 18.9863 14.8141 18.4599C14.8141 17.9685 16.4072 17.0561 16.7189 16.8455C17.0306 16.6349 18.3813 15.8628 18.3813 15.547C18.4159 15.2311 18.3813 15.161 18.0003 14.3889C17.5848 13.6168 16.8921 12.599 16.996 11.9322C17.0999 11.2654 18.2774 10.9145 19.1086 10.5986C19.9398 10.2828 21.5329 9.68616 21.7407 9.58088C21.9485 9.47559 21.8792 9.40541 21.2905 9.33522C20.7017 9.26503 18.9701 9.05446 18.2081 9.26503C17.4462 9.47559 16.1302 9.82654 16.0263 10.002C15.9224 10.1775 15.8185 10.1775 15.9224 10.8092C16.0263 11.4058 16.5804 14.3538 16.6497 14.8451C16.7189 15.3715 16.8228 15.7225 16.2687 15.8278C15.7146 15.9681 14.7795 16.1787 14.4678 16.1787C14.1561 16.1787 13.221 15.9681 12.6669 15.8278C12.1128 15.6874 12.2167 15.3715 12.286 14.8451C12.3552 14.3187 12.9093 11.4058 13.0132 10.8092C13.1171 10.2126 13.0132 10.1775 12.9093 10.002C12.8054 9.82654 11.4894 9.47559 10.7275 9.26503C9.96556 9.05446 8.23393 9.26503 7.64517 9.33522C7.05641 9.40541 6.98715 9.47559 7.19494 9.58088C7.40274 9.68616 8.99585 10.2828 9.82703 10.5986C10.6582 10.9145 11.8011 11.2654 11.9396 11.9322C12.0435 12.599 11.3509 13.6168 10.9353 14.3889C10.5197 15.161 10.5197 15.2311 10.5543 15.547C10.589 15.8628 11.9396 16.6349 12.2167 16.8455C12.5284 17.0561 14.1215 17.9334 14.1215 18.4599C14.1215 18.9512 12.563 20.2497 12.0782 20.6006C11.5933 20.9165 10.2426 21.6184 9.6885 21.7588C9.13438 21.8641 8.23393 21.1973 7.71444 20.2497C7.19494 19.267 7.64517 18.3195 7.9915 17.5474C8.30319 16.7753 7.7837 16.3542 7.50664 16.0734C7.26421 15.7927 5.25551 13.6168 4.77066 13.1255C4.32043 12.6341 3.8702 12.3885 3.8702 11.4409C3.8702 10.4933 7.50664 6.0363 7.50664 6.0363C7.50664 6.0363 10.5543 6.63292 10.9699 6.63292C11.3855 6.63292 12.286 6.28197 13.1171 6.00121C13.9483 5.72045 14.5024 5.72045 14.5024 5.72045C14.5024 5.72045 15.0566 5.72045 15.8878 6.00121C16.7189 6.28197 17.6194 6.63292 18.035 6.63292C18.3813 6.63292 21.429 6.0363 21.429 6.0363ZM18.7276 23.0924C18.9354 23.2328 18.8315 23.5135 18.6237 23.6539C18.4159 23.7943 15.68 25.9701 15.4029 26.2158C15.1258 26.4615 14.7449 26.8475 14.4678 26.8475C14.1908 26.8475 13.8098 26.4615 13.5327 26.2158C13.2557 25.9701 10.5197 23.7943 10.3119 23.6539C10.1041 23.5135 9.96556 23.2328 10.208 23.0924C10.4158 22.952 11.1431 22.601 12.1128 22.0746C13.0825 21.5482 14.2946 21.1271 14.4678 21.1271C14.641 21.1271 15.8531 21.5482 16.8228 22.0746C17.7926 22.601 18.4852 22.952 18.7276 23.0924Z" fill="white"/>
<path d="M36.6816 18.5243V6.76758H37.7899C38.6903 6.76758 39.4176 7.50457 39.4176 8.41703V13.6462C41.1839 12.0318 42.7077 11.4001 44.7164 11.365C48.5953 11.2948 51.9547 14.2077 52.2664 18.1032C52.6473 22.7708 49.2879 26.2803 44.9242 26.2803C40.1449 26.2803 36.6816 23.2621 36.6816 18.5243ZM39.383 19.4719C39.6601 21.8934 41.9458 23.8938 44.3701 23.9289C47.5217 23.964 49.6689 21.8934 49.6689 18.8402C49.6689 15.7869 47.5563 13.7514 44.5086 13.7514C41.2185 13.7163 39.002 16.1379 39.383 19.4719Z" fill="white"/>
<path d="M56.8731 11.68V13.7857C58.6047 11.8555 59.6437 11.3291 61.6524 11.3291C62.2412 11.3291 62.8299 11.3642 63.4187 11.4695V14.242C62.7953 14.0665 62.1719 13.9963 61.5139 13.9963C60.0593 13.9963 58.8125 14.4876 57.9121 15.4001C57.1155 16.2073 56.8731 16.839 56.8731 18.1024V25.8583H54.0332V11.68H56.8731Z" fill="white"/>
<path d="M64.0786 16.3495C64.2171 14.9809 64.4942 14.2439 65.083 13.5069C66.2605 12.0329 68.3731 11.2959 71.3515 11.2959C73.7065 11.2959 75.4381 11.6819 76.6503 12.4891C77.6546 13.1559 78.0702 14.1386 78.0702 15.8582V22.1402C78.0702 23.5089 78.4165 24.0002 79.3863 23.9651C79.5941 23.9651 79.8019 23.93 80.0443 23.8949V25.79C79.5594 25.9655 79.0746 26.0357 78.5551 26.0357C76.7542 26.0357 75.9576 25.4742 75.4035 23.93C73.6372 25.5795 71.8363 26.2463 69.2042 26.2463C65.7063 26.2463 63.5938 24.6319 63.5938 22.0349C63.5938 20.5609 64.4596 19.1922 65.7756 18.5956C66.8146 18.1394 67.4726 17.999 70.4857 17.6832C73.0485 17.4375 73.4987 17.3673 74.226 17.1216C75.0225 16.876 75.3689 16.4197 75.3689 15.7178C75.3689 14.2088 74.1221 13.5069 71.4554 13.5069C68.9618 13.5069 67.6804 13.9982 67.1609 15.2967C66.9185 15.9635 66.2951 16.3846 65.6024 16.3846L64.0786 16.3495ZM75.3689 18.7711C73.568 19.2975 71.6978 19.6485 69.8276 19.7888C67.2648 20.0345 66.5029 20.5258 66.5029 21.8243C66.5029 23.2632 67.6804 24.0002 70.0008 24.0002C71.9056 24.0002 73.3255 23.5089 74.3645 22.5613C75.1957 21.7892 75.4035 21.2277 75.4035 19.8941V18.7711H75.3689Z" fill="white"/>
<path d="M86.9001 25.7897H86.1728C85.5148 25.7897 84.9261 25.4388 84.649 24.8422L78.4844 11.6816H80.1814C81.1857 11.6816 82.0862 12.2783 82.5018 13.1907L86.5884 22.6663L90.8136 13.1556C91.2292 12.2432 92.1297 11.6816 93.0994 11.6816H94.6578L88.3547 24.8773C88.1469 25.4388 87.5581 25.8248 86.9001 25.7897Z" fill="white"/>
<path d="M96.63 19.5421C96.9071 22.2795 99.0196 23.9641 102.171 23.9641C103.937 23.9641 105.288 23.4377 106.119 22.3497C106.604 21.7531 107.332 21.3671 108.093 21.3671H109.756C108.301 24.5607 105.738 26.14 101.894 26.14C97.0802 26.14 93.8594 23.192 93.8594 18.7701C93.8594 14.3481 97.1841 11.2598 101.963 11.2598C105.427 11.2598 108.197 12.839 109.306 15.4711C109.79 16.6995 109.998 17.7523 109.998 19.507L96.63 19.5421ZM107.124 17.3663C106.466 14.8745 104.561 13.4707 101.929 13.4707C99.2967 13.4707 97.3919 14.8745 96.6993 17.3663H107.124Z" fill="white"/>
</svg>
