<svg width="120" height="19" viewBox="0 0 120 19" fill="none" xmlns="http://www.w3.org/2000/svg">
<path d="M28.1523 14.9982H33.9583C36.9038 14.9982 38.7164 13.5097 38.7164 11.0943V11.0662C38.7164 9.26873 37.3853 7.89253 35.4311 7.72401V7.66784C36.9038 7.47124 38.0367 6.15121 38.0367 4.69075V4.66267C38.0367 2.58432 36.4223 1.23621 33.9017 1.23621H28.1523V14.9982ZM33.2786 3.17412C34.7514 3.17412 35.601 3.84818 35.601 5.02778V5.05587C35.601 6.31973 34.6381 7.04996 32.9104 7.04996H30.6447V3.17412H33.2786ZM33.2786 8.81936C35.1762 8.81936 36.1674 9.54959 36.1674 10.9539C36.1674 12.3582 35.1762 13.0884 33.3636 13.0884H30.588V8.81936H33.2786ZM40.2458 14.9982H42.6248V9.07213C42.6248 7.63976 43.4462 6.79718 44.8056 6.79718C45.2021 6.79718 45.5703 6.85336 45.7686 6.93761V4.77501C45.5987 4.71884 45.3154 4.69075 45.0039 4.69075C43.8144 4.69075 42.9081 5.3929 42.5965 6.60058H42.5399V4.91544H40.2175V14.9982H40.2458ZM48.2609 3.45498C48.9973 3.45498 49.592 2.86518 49.592 2.16304C49.592 1.43281 49.0256 0.871094 48.2609 0.871094C47.4962 0.871094 46.9298 1.46089 46.9298 2.16304C46.9298 2.86518 47.5245 3.45498 48.2609 3.45498ZM47.0714 14.9982H49.4504V4.88735H47.0714V14.9982ZM55.2847 15.1948C56.7575 15.1948 57.8904 14.4646 58.4568 13.285H58.5135V14.9982H60.8925V1.23621H58.5135V6.62867H58.4568C57.8904 5.42098 56.7292 4.69075 55.2847 4.69075C52.7358 4.69075 51.0931 6.68484 51.0931 9.94279C51.0648 13.2007 52.7075 15.1948 55.2847 15.1948ZM55.9928 13.2007C54.4634 13.2007 53.5005 11.965 53.5005 9.94279C53.5005 7.92061 54.4634 6.68484 55.9928 6.68484C57.4655 6.68484 58.5135 7.9487 58.5135 9.94279C58.5135 11.9369 57.4939 13.2007 55.9928 13.2007ZM67.4915 18.537C70.437 18.537 72.3062 16.9923 72.3062 14.7174V4.91544H69.9272V6.62867H69.8705C69.3041 5.47715 68.1712 4.69075 66.7268 4.69075C64.1495 4.69075 62.4785 6.65675 62.4785 9.85853C62.4785 13.0041 64.1212 14.942 66.6702 14.942C68.1429 14.942 69.2758 14.268 69.8422 13.1726H69.8989V14.6331C69.8989 15.925 69.0492 16.7395 67.4915 16.7395C66.2453 16.7395 65.424 16.2902 65.1691 15.7284L65.1408 15.6442H62.7901L62.8184 15.7284C63.1016 17.3293 64.8009 18.537 67.4915 18.537ZM67.4349 13.1165C65.9055 13.1165 64.9142 11.8807 64.9142 9.88662C64.9142 7.92061 65.8772 6.68484 67.4349 6.68484C68.9076 6.68484 69.9272 7.92061 69.9272 9.88662C69.9272 11.8807 68.9359 13.1165 67.4349 13.1165ZM78.7353 15.1948C81.3976 15.1948 82.8986 13.622 83.2102 12.0773L83.2385 11.965H81.0011L80.9727 12.0211C80.7462 12.6952 79.9532 13.3131 78.7636 13.3131C77.2059 13.3131 76.2147 12.2739 76.1863 10.5045H83.3235V9.74619C83.3235 6.68484 81.5109 4.66267 78.5937 4.66267C75.6765 4.66267 73.8073 6.7691 73.8073 9.94279C73.8356 13.2007 75.6765 15.1948 78.7353 15.1948ZM78.6503 6.54441C79.9248 6.54441 80.8311 7.33081 81.0011 8.9317H76.2147C76.4412 7.38698 77.4042 6.54441 78.6503 6.54441ZM88.8746 15.1948C91.3669 15.1948 93.1512 13.931 93.1512 12.0211C93.1512 10.5607 92.3298 9.74619 90.234 9.26873L88.5347 8.90361C87.4868 8.67893 87.0903 8.28573 87.0903 7.69593C87.0903 6.9657 87.7417 6.46016 88.8179 6.46016C89.9225 6.46016 90.5739 7.04996 90.6872 7.86444V7.9487H92.9246V7.83636C92.8396 6.09504 91.3669 4.71884 88.8179 4.71884C86.3539 4.71884 84.7396 5.95461 84.7396 7.80827C84.7396 9.29681 85.7308 10.2517 87.6567 10.673L89.356 11.0381C90.4039 11.2628 90.7721 11.6279 90.7721 12.2177C90.7721 12.948 90.0641 13.4254 88.9029 13.4254C87.685 13.4254 87.0336 12.9199 86.8354 12.0492L86.8071 11.965H84.4563V12.0492C84.6829 13.931 86.2123 15.1948 88.8746 15.1948ZM94.6805 18.3404H97.0596V13.285H97.1162C97.6827 14.4646 98.8439 15.1948 100.317 15.1948C102.866 15.1948 104.508 13.2007 104.508 9.94279C104.508 6.68484 102.866 4.69075 100.288 4.69075C98.8156 4.69075 97.711 5.42098 97.1162 6.65676H97.0596V4.91544H94.6805V18.3404ZM99.5519 13.2007C98.0792 13.2007 97.0313 11.9369 97.0313 9.97087C97.0313 7.97679 98.0792 6.71293 99.5519 6.71293C101.081 6.71293 102.044 7.9487 102.044 9.97087C102.044 11.965 101.081 13.2007 99.5519 13.2007ZM106.094 14.9982H108.473V1.23621H106.094V14.9982ZM111.787 3.45498C112.523 3.45498 113.118 2.86518 113.118 2.16304C113.118 1.43281 112.552 0.871094 111.787 0.871094C111.051 0.871094 110.456 1.46089 110.456 2.16304C110.456 2.86518 111.051 3.45498 111.787 3.45498ZM110.597 14.9982H112.977V4.88735H110.597V14.9982ZM118.811 15.1948C119.292 15.1948 119.717 15.1386 120 15.1106V13.3412C119.83 13.3412 119.66 13.3692 119.434 13.3692C118.556 13.3692 118.131 13.0603 118.131 12.0773V6.74101H120.029V4.91544H118.103V2.33155H115.667V4.88735H114.223V6.74101H115.667V12.2739C115.667 14.3522 116.687 15.1948 118.811 15.1948Z" fill="white"/>
<path fill-rule="evenodd" clip-rule="evenodd" d="M12.093 6.03824C12.2346 6.17867 12.2346 6.40335 12.093 6.5157L3.87967 14.5201C3.82302 14.5763 3.70974 14.6325 3.62477 14.6325H0.339427C0.0278856 14.6325 -0.142046 14.2674 0.0845295 14.0427L9.91224 4.43735C10.0538 4.29692 10.2804 4.29692 10.422 4.43735L12.093 6.03824Z" fill="white"/>
<path fill-rule="evenodd" clip-rule="evenodd" d="M8.29761 6.03824C8.156 6.17867 8.156 6.37527 8.29761 6.5157L16.3694 14.5201C16.426 14.5763 16.5393 14.6325 16.6243 14.6325H20.0229C20.3344 14.6325 20.5044 14.2674 20.2778 14.0427L10.4501 4.43735C10.3085 4.29692 10.0819 4.29692 9.94028 4.43735L8.29761 6.03824Z" fill="white"/>
<path fill-rule="evenodd" clip-rule="evenodd" d="M0.0273438 0.337029C0.0273438 0.140429 0.197275 0 0.395529 0H20.0509C20.2209 0 20.3908 0.140429 20.3908 0.337029V2.58389C20.3908 2.78049 20.2209 2.92092 20.0509 2.92092H0.395529C0.197275 2.92092 0.0556657 2.78049 0.0556657 2.58389V0.337029H0.0273438Z" fill="white"/>
</svg>
