<svg width="135" height="19" viewBox="0 0 135 19" fill="none" xmlns="http://www.w3.org/2000/svg">
<path d="M122.107 3.00938C120.942 3.08835 119.786 3.19102 118.621 3.27C118.251 3.29369 118.062 3.45955 117.975 3.82284C117.771 4.6521 117.527 5.46557 117.299 6.28693C117.22 6.55546 117.141 6.82398 117.039 7.16358C116.48 6.0579 115.945 5.03909 115.449 3.99659C115.276 3.6333 115.04 3.49904 114.654 3.50693C113.788 3.52273 112.923 3.51483 112.057 3.51483C111.286 3.51483 111.207 3.59381 111.168 4.35989C111.081 6.00261 110.979 7.63744 110.884 9.28017V9.31176L110.695 13.774C110.695 14.7612 110.695 15.8669 110.695 16.9726C110.695 17.4701 110.829 17.6123 111.317 17.6123C112.34 17.6123 113.363 17.6044 114.386 17.6202C114.756 17.6281 114.945 17.478 114.985 17.1068C115.048 16.4434 115.118 15.7721 115.189 15.1087C115.252 14.4769 115.323 13.8372 115.402 13.1027C115.536 13.3159 115.614 13.4344 115.685 13.5607C116.37 14.7533 117.055 15.9459 117.716 17.1542C117.905 17.4938 118.125 17.6518 118.526 17.6281C119.203 17.5965 119.888 17.6202 120.573 17.6202C121.061 17.6202 121.163 17.5333 121.249 17.0436C121.312 16.6961 121.367 16.3486 121.407 15.9932C121.667 13.7503 121.926 11.5073 122.162 9.26438C122.367 7.40051 122.548 5.52875 122.729 3.66489C122.768 3.10415 122.65 2.97779 122.107 3.00938ZM122.147 5.40239C121.895 7.82699 121.651 10.2595 121.375 12.6841C121.218 14.0899 121.021 15.4957 120.856 16.9015C120.824 17.1621 120.722 17.2253 120.478 17.2174C119.833 17.2016 119.195 17.2016 118.55 17.2174C118.511 17.2174 118.471 17.2174 118.432 17.2174C118.416 17.2174 118.408 17.2174 118.392 17.2095C118.353 17.2016 118.322 17.1937 118.29 17.1858C118.274 17.1779 118.259 17.17 118.251 17.1621C118.235 17.1542 118.227 17.1463 118.211 17.1384C118.204 17.1305 118.196 17.1305 118.188 17.1226C118.18 17.1147 118.172 17.1147 118.164 17.1068C118.156 17.0989 118.141 17.091 118.133 17.0752C118.125 17.0673 118.117 17.0594 118.109 17.0436C118.078 17.012 118.054 16.9726 118.03 16.9173C117.157 15.3614 116.275 13.8135 115.394 12.2655C115.323 12.147 115.252 12.0286 115.118 11.8232C114.93 13.6792 114.749 15.4325 114.567 17.1937H111.105C111.105 16.2065 111.081 15.2351 111.112 14.2715C111.168 12.3603 111.246 10.4411 111.333 8.52989C111.396 7.0846 111.498 5.64722 111.577 4.20193C111.585 4.09136 111.608 4.02029 111.655 3.9729C111.663 3.965 111.671 3.965 111.671 3.9571C111.687 3.94921 111.703 3.94131 111.718 3.93341C111.726 3.93341 111.734 3.92551 111.742 3.92551C111.75 3.92551 111.758 3.91761 111.774 3.91761C111.774 3.91761 111.774 3.91761 111.781 3.91761C111.789 3.91761 111.797 3.91761 111.813 3.91761C111.829 3.91761 111.852 3.91761 111.868 3.91761C111.876 3.91761 111.884 3.91761 111.892 3.91761C112.214 3.91761 112.537 3.91761 112.86 3.91761C113.269 3.91761 113.67 3.91761 114.08 3.91761C114.292 3.91761 114.505 3.92551 114.717 3.92551C114.749 3.92551 114.788 3.93341 114.827 3.9571C114.835 3.9571 114.843 3.965 114.851 3.9729C114.859 3.9808 114.874 3.98869 114.882 3.98869C114.89 3.99659 114.906 4.00449 114.914 4.01239C114.922 4.02029 114.937 4.02818 114.945 4.03608C114.953 4.04398 114.969 4.05188 114.977 4.06767C114.985 4.07557 114.992 4.08347 115 4.09136C115.016 4.10716 115.032 4.12296 115.048 4.13875C115.063 4.16244 115.087 4.18614 115.095 4.21773C115.709 5.40239 116.307 6.60284 116.913 7.7954C116.976 7.92176 117.047 8.04023 117.157 8.23767C117.432 7.25835 117.684 6.36591 117.928 5.47347C118.07 4.96801 118.196 4.45466 118.353 3.9571C118.361 3.94131 118.361 3.92551 118.369 3.90972C118.377 3.90182 118.377 3.89392 118.385 3.87813C118.392 3.87023 118.392 3.85443 118.4 3.84653C118.408 3.83864 118.416 3.83074 118.416 3.82284C118.432 3.80705 118.448 3.79125 118.463 3.77546C118.471 3.76756 118.479 3.75966 118.487 3.75176C118.518 3.72807 118.542 3.70438 118.573 3.68858C118.581 3.68068 118.589 3.68068 118.597 3.68068C118.605 3.68068 118.613 3.67279 118.621 3.67279C118.629 3.67279 118.636 3.67279 118.636 3.67279C118.936 3.64909 119.242 3.6175 119.549 3.59381C119.699 3.57801 119.856 3.57011 120.006 3.55432C120.313 3.53063 120.62 3.50693 120.927 3.48324C121.391 3.45165 121.863 3.41216 122.335 3.38057C122.273 4.08347 122.217 4.74688 122.147 5.40239Z" fill="black"/>
<path d="M110.671 10.3147C110.474 8.54559 109.664 7.07661 108.192 5.82087C107.909 5.57604 107.609 5.34701 107.31 5.11797C107.051 4.92053 106.783 4.70729 106.531 4.49405C105.484 3.6253 104.375 2.37746 105.099 0.450419C105.115 0.403033 105.067 0.252976 105.028 0.221385C104.981 0.181896 104.886 0.158203 104.8 0.158203C104.76 0.158203 104.729 0.166101 104.705 0.173999C104.524 0.23718 104.351 0.363544 104.186 0.48201L104.147 0.513601C101.966 2.09315 100.888 4.02809 100.849 6.429C100.841 6.85548 100.841 7.28985 100.849 7.74792C100.849 7.98485 100.849 8.22968 100.849 8.48241V9.17741L100.55 8.54559C100.518 8.48241 100.495 8.42712 100.471 8.38763C100.424 8.30076 100.392 8.24547 100.385 8.1665C100.337 7.90587 100.298 7.64525 100.251 7.38462C100.18 6.95025 100.101 6.49218 100.022 6.0578C99.991 5.88405 99.9044 5.734 99.873 5.7182C99.8651 5.7182 99.8493 5.7103 99.8257 5.7103C99.7313 5.7103 99.5817 5.76559 99.4558 5.85246C99.3456 5.92354 99.2512 6.0657 99.1568 6.19996L99.1174 6.25525C98.2359 7.54258 97.7716 8.88519 97.6771 10.3463C97.5591 12.3207 97.992 13.9081 99.0072 15.1955C100.392 16.9488 102.069 17.8412 103.989 17.8412C104.501 17.8412 105.036 17.778 105.579 17.6517C108.208 17.0356 109.923 15.3376 110.545 12.7393L110.592 12.5339L110.687 10.2989L110.671 10.3147ZM104.532 12.6129C104.501 12.7077 104.469 12.7946 104.446 12.8656C104.398 12.992 104.367 13.0868 104.367 13.1658C104.367 13.2842 104.359 13.5527 104.446 13.6554C104.493 13.7107 104.54 13.7344 104.603 13.7344C104.69 13.7344 104.792 13.687 104.902 13.608C105.776 12.9367 106.382 12.0917 106.681 11.0966C107.051 9.904 106.988 8.8378 106.492 7.85059C106.468 7.8032 106.468 7.74792 106.46 7.70053C106.46 7.67684 106.46 7.65315 106.46 7.62155L106.429 7.26616L106.712 7.48729C108.074 8.54559 108.727 9.80133 108.664 11.2229C108.57 13.1105 107.554 14.5084 105.807 15.1718C105.303 15.3613 104.8 15.4561 104.304 15.4561C103.407 15.4561 102.533 15.1402 101.683 14.5163L101.439 14.3346L101.73 14.2399C102.777 13.8923 103.588 13.3316 104.265 12.4787L104.784 11.831L104.532 12.6129Z" fill="white"/>
<path d="M106.807 7.36068L106.24 6.92631L106.295 7.6371C106.295 7.66869 106.295 7.69239 106.295 7.70818C106.295 7.76346 106.295 7.84244 106.343 7.92142C106.815 8.86915 106.878 9.89585 106.524 11.0489C106.224 12.0045 105.65 12.8259 104.8 13.4814C104.706 13.5525 104.635 13.5762 104.595 13.5762C104.587 13.5762 104.58 13.5762 104.556 13.5525C104.54 13.5288 104.509 13.4498 104.517 13.1655C104.517 13.1102 104.548 13.0234 104.587 12.9207C104.619 12.8496 104.643 12.7627 104.674 12.6601L105.162 11.0726L104.131 12.3678C103.47 13.1971 102.691 13.7341 101.668 14.0816L101.093 14.2712L101.581 14.6345C102.455 15.2821 103.36 15.6059 104.288 15.6059C104.8 15.6059 105.319 15.5032 105.847 15.3137C107.657 14.6345 108.711 13.1813 108.806 11.2227C108.893 9.7458 108.216 8.44267 106.807 7.36068ZM108.507 11.2069C108.42 13.0155 107.476 14.366 105.752 15.0136C105.264 15.1952 104.784 15.29 104.304 15.29C103.438 15.29 102.596 14.982 101.778 14.3818C102.825 14.0343 103.659 13.4735 104.383 12.5653C104.296 12.8417 104.21 12.9997 104.21 13.1655C104.21 13.363 104.21 13.6236 104.328 13.7578C104.406 13.8526 104.501 13.8921 104.603 13.8921C104.737 13.8921 104.871 13.8289 104.997 13.7341C105.87 13.0628 106.508 12.202 106.83 11.1437C107.177 10.0064 107.177 8.87704 106.634 7.77926C106.618 7.74767 106.626 7.70818 106.618 7.60551C107.83 8.54534 108.578 9.7221 108.507 11.2069ZM106.807 7.36068L106.24 6.92631L106.295 7.6371C106.295 7.66869 106.295 7.69239 106.295 7.70818C106.295 7.76346 106.295 7.84244 106.343 7.92142C106.815 8.86915 106.878 9.89585 106.524 11.0489C106.224 12.0045 105.65 12.8259 104.8 13.4814C104.706 13.5525 104.635 13.5762 104.595 13.5762C104.587 13.5762 104.58 13.5762 104.556 13.5525C104.54 13.5288 104.509 13.4498 104.517 13.1655C104.517 13.1102 104.548 13.0234 104.587 12.9207C104.619 12.8496 104.643 12.7627 104.674 12.6601L105.162 11.0726L104.131 12.3678C103.47 13.1971 102.691 13.7341 101.668 14.0816L101.093 14.2712L101.581 14.6345C102.455 15.2821 103.36 15.6059 104.288 15.6059C104.8 15.6059 105.319 15.5032 105.847 15.3137C107.657 14.6345 108.711 13.1813 108.806 11.2227C108.893 9.7458 108.216 8.44267 106.807 7.36068ZM108.507 11.2069C108.42 13.0155 107.476 14.366 105.752 15.0136C105.264 15.1952 104.784 15.29 104.304 15.29C103.438 15.29 102.596 14.982 101.778 14.3818C102.825 14.0343 103.659 13.4735 104.383 12.5653C104.296 12.8417 104.21 12.9997 104.21 13.1655C104.21 13.363 104.21 13.6236 104.328 13.7578C104.406 13.8526 104.501 13.8921 104.603 13.8921C104.737 13.8921 104.871 13.8289 104.997 13.7341C105.87 13.0628 106.508 12.202 106.83 11.1437C107.177 10.0064 107.177 8.87704 106.634 7.77926C106.618 7.74767 106.626 7.70818 106.618 7.60551C107.83 8.54534 108.578 9.7221 108.507 11.2069ZM106.807 7.36068L106.24 6.92631L106.295 7.6371C106.295 7.66869 106.295 7.69239 106.295 7.70818C106.295 7.76346 106.295 7.84244 106.343 7.92142C106.815 8.86915 106.878 9.89585 106.524 11.0489C106.224 12.0045 105.65 12.8259 104.8 13.4814C104.706 13.5525 104.635 13.5762 104.595 13.5762C104.587 13.5762 104.58 13.5762 104.556 13.5525C104.54 13.5288 104.509 13.4498 104.517 13.1655C104.517 13.1102 104.548 13.0234 104.587 12.9207C104.619 12.8496 104.643 12.7627 104.674 12.6601L105.162 11.0726L104.131 12.3678C103.47 13.1971 102.691 13.7341 101.668 14.0816L101.093 14.2712L101.581 14.6345C102.455 15.2821 103.36 15.6059 104.288 15.6059C104.8 15.6059 105.319 15.5032 105.847 15.3137C107.657 14.6345 108.711 13.1813 108.806 11.2227C108.893 9.7458 108.216 8.44267 106.807 7.36068ZM108.507 11.2069C108.42 13.0155 107.476 14.366 105.752 15.0136C105.264 15.1952 104.784 15.29 104.304 15.29C103.438 15.29 102.596 14.982 101.778 14.3818C102.825 14.0343 103.659 13.4735 104.383 12.5653C104.296 12.8417 104.21 12.9997 104.21 13.1655C104.21 13.363 104.21 13.6236 104.328 13.7578C104.406 13.8526 104.501 13.8921 104.603 13.8921C104.737 13.8921 104.871 13.8289 104.997 13.7341C105.87 13.0628 106.508 12.202 106.83 11.1437C107.177 10.0064 107.177 8.87704 106.634 7.77926C106.618 7.74767 106.626 7.70818 106.618 7.60551C107.83 8.54534 108.578 9.7221 108.507 11.2069ZM106.807 7.36068L106.24 6.92631L106.295 7.6371C106.295 7.66869 106.295 7.69239 106.295 7.70818C106.295 7.76346 106.295 7.84244 106.343 7.92142C106.815 8.86915 106.878 9.89585 106.524 11.0489C106.224 12.0045 105.65 12.8259 104.8 13.4814C104.706 13.5525 104.635 13.5762 104.595 13.5762C104.587 13.5762 104.58 13.5762 104.556 13.5525C104.54 13.5288 104.509 13.4498 104.517 13.1655C104.517 13.1102 104.548 13.0234 104.587 12.9207C104.619 12.8496 104.643 12.7627 104.674 12.6601L105.162 11.0726L104.131 12.3678C103.47 13.1971 102.691 13.7341 101.668 14.0816L101.093 14.2712L101.581 14.6345C102.455 15.2821 103.36 15.6059 104.288 15.6059C104.8 15.6059 105.319 15.5032 105.847 15.3137C107.657 14.6345 108.711 13.1813 108.806 11.2227C108.893 9.7458 108.216 8.44267 106.807 7.36068ZM108.507 11.2069C108.42 13.0155 107.476 14.366 105.752 15.0136C105.264 15.1952 104.784 15.29 104.304 15.29C103.438 15.29 102.596 14.982 101.778 14.3818C102.825 14.0343 103.659 13.4735 104.383 12.5653C104.296 12.8417 104.21 12.9997 104.21 13.1655C104.21 13.363 104.21 13.6236 104.328 13.7578C104.406 13.8526 104.501 13.8921 104.603 13.8921C104.737 13.8921 104.871 13.8289 104.997 13.7341C105.87 13.0628 106.508 12.202 106.83 11.1437C107.177 10.0064 107.177 8.87704 106.634 7.77926C106.618 7.74767 106.626 7.70818 106.618 7.60551C107.83 8.54534 108.578 9.7221 108.507 11.2069ZM106.807 7.36068L106.24 6.92631L106.295 7.6371C106.295 7.66869 106.295 7.69239 106.295 7.70818C106.295 7.76346 106.295 7.84244 106.343 7.92142C106.815 8.86915 106.878 9.89585 106.524 11.0489C106.224 12.0045 105.65 12.8259 104.8 13.4814C104.706 13.5525 104.635 13.5762 104.595 13.5762C104.587 13.5762 104.58 13.5762 104.556 13.5525C104.54 13.5288 104.509 13.4498 104.517 13.1655C104.517 13.1102 104.548 13.0234 104.587 12.9207C104.619 12.8496 104.643 12.7627 104.674 12.6601L105.162 11.0726L104.131 12.3678C103.47 13.1971 102.691 13.7341 101.668 14.0816L101.093 14.2712L101.581 14.6345C102.455 15.2821 103.36 15.6059 104.288 15.6059C104.8 15.6059 105.319 15.5032 105.847 15.3137C107.657 14.6345 108.711 13.1813 108.806 11.2227C108.893 9.7458 108.216 8.44267 106.807 7.36068ZM108.507 11.2069C108.42 13.0155 107.476 14.366 105.752 15.0136C105.264 15.1952 104.784 15.29 104.304 15.29C103.438 15.29 102.596 14.982 101.778 14.3818C102.825 14.0343 103.659 13.4735 104.383 12.5653C104.296 12.8417 104.21 12.9997 104.21 13.1655C104.21 13.363 104.21 13.6236 104.328 13.7578C104.406 13.8526 104.501 13.8921 104.603 13.8921C104.737 13.8921 104.871 13.8289 104.997 13.7341C105.87 13.0628 106.508 12.202 106.83 11.1437C107.177 10.0064 107.177 8.87704 106.634 7.77926C106.618 7.74767 106.626 7.70818 106.618 7.60551C107.83 8.54534 108.578 9.7221 108.507 11.2069ZM106.807 7.36068L106.24 6.92631L106.295 7.6371C106.295 7.66869 106.295 7.69239 106.295 7.70818C106.295 7.76346 106.295 7.84244 106.343 7.92142C106.815 8.86915 106.878 9.89585 106.524 11.0489C106.224 12.0045 105.65 12.8259 104.8 13.4814C104.706 13.5525 104.635 13.5762 104.595 13.5762C104.587 13.5762 104.58 13.5762 104.556 13.5525C104.54 13.5288 104.509 13.4498 104.517 13.1655C104.517 13.1102 104.548 13.0234 104.587 12.9207C104.619 12.8496 104.643 12.7627 104.674 12.6601L105.162 11.0726L104.131 12.3678C103.47 13.1971 102.691 13.7341 101.668 14.0816L101.093 14.2712L101.581 14.6345C102.455 15.2821 103.36 15.6059 104.288 15.6059C104.8 15.6059 105.319 15.5032 105.847 15.3137C107.657 14.6345 108.711 13.1813 108.806 11.2227C108.893 9.7458 108.216 8.44267 106.807 7.36068ZM108.507 11.2069C108.42 13.0155 107.476 14.366 105.752 15.0136C105.264 15.1952 104.784 15.29 104.304 15.29C103.438 15.29 102.596 14.982 101.778 14.3818C102.825 14.0343 103.659 13.4735 104.383 12.5653C104.296 12.8417 104.21 12.9997 104.21 13.1655C104.21 13.363 104.21 13.6236 104.328 13.7578C104.406 13.8526 104.501 13.8921 104.603 13.8921C104.737 13.8921 104.871 13.8289 104.997 13.7341C105.87 13.0628 106.508 12.202 106.83 11.1437C107.177 10.0064 107.177 8.87704 106.634 7.77926C106.618 7.74767 106.626 7.70818 106.618 7.60551C107.83 8.54534 108.578 9.7221 108.507 11.2069ZM106.807 7.36068L106.24 6.92631L106.295 7.6371C106.295 7.66869 106.295 7.69239 106.295 7.70818C106.295 7.76346 106.295 7.84244 106.343 7.92142C106.815 8.86915 106.878 9.89585 106.524 11.0489C106.224 12.0045 105.65 12.8259 104.8 13.4814C104.706 13.5525 104.635 13.5762 104.595 13.5762C104.587 13.5762 104.58 13.5762 104.556 13.5525C104.54 13.5288 104.509 13.4498 104.517 13.1655C104.517 13.1102 104.548 13.0234 104.587 12.9207C104.619 12.8496 104.643 12.7627 104.674 12.6601L105.162 11.0726L104.131 12.3678C103.47 13.1971 102.691 13.7341 101.668 14.0816L101.093 14.2712L101.581 14.6345C102.455 15.2821 103.36 15.6059 104.288 15.6059C104.8 15.6059 105.319 15.5032 105.847 15.3137C107.657 14.6345 108.711 13.1813 108.806 11.2227C108.893 9.7458 108.216 8.44267 106.807 7.36068ZM108.507 11.2069C108.42 13.0155 107.476 14.366 105.752 15.0136C105.264 15.1952 104.784 15.29 104.304 15.29C103.438 15.29 102.596 14.982 101.778 14.3818C102.825 14.0343 103.659 13.4735 104.383 12.5653C104.296 12.8417 104.21 12.9997 104.21 13.1655C104.21 13.363 104.21 13.6236 104.328 13.7578C104.406 13.8526 104.501 13.8921 104.603 13.8921C104.737 13.8921 104.871 13.8289 104.997 13.7341C105.87 13.0628 106.508 12.202 106.83 11.1437C107.177 10.0064 107.177 8.87704 106.634 7.77926C106.618 7.74767 106.626 7.70818 106.618 7.60551C107.83 8.54534 108.578 9.7221 108.507 11.2069ZM106.807 7.36068L106.24 6.92631L106.295 7.6371C106.295 7.66869 106.295 7.69239 106.295 7.70818C106.295 7.76346 106.295 7.84244 106.343 7.92142C106.815 8.86915 106.878 9.89585 106.524 11.0489C106.224 12.0045 105.65 12.8259 104.8 13.4814C104.706 13.5525 104.635 13.5762 104.595 13.5762C104.587 13.5762 104.58 13.5762 104.556 13.5525C104.54 13.5288 104.509 13.4498 104.517 13.1655C104.517 13.1102 104.548 13.0234 104.587 12.9207C104.619 12.8496 104.643 12.7627 104.674 12.6601L105.162 11.0726L104.131 12.3678C103.47 13.1971 102.691 13.7341 101.668 14.0816L101.093 14.2712L101.581 14.6345C102.455 15.2821 103.36 15.6059 104.288 15.6059C104.8 15.6059 105.319 15.5032 105.847 15.3137C107.657 14.6345 108.711 13.1813 108.806 11.2227C108.893 9.7458 108.216 8.44267 106.807 7.36068ZM108.507 11.2069C108.42 13.0155 107.476 14.366 105.752 15.0136C105.264 15.1952 104.784 15.29 104.304 15.29C103.438 15.29 102.596 14.982 101.778 14.3818C102.825 14.0343 103.659 13.4735 104.383 12.5653C104.296 12.8417 104.21 12.9997 104.21 13.1655C104.21 13.363 104.21 13.6236 104.328 13.7578C104.406 13.8526 104.501 13.8921 104.603 13.8921C104.737 13.8921 104.871 13.8289 104.997 13.7341C105.87 13.0628 106.508 12.202 106.83 11.1437C107.177 10.0064 107.177 8.87704 106.634 7.77926C106.618 7.74767 106.626 7.70818 106.618 7.60551C107.83 8.54534 108.578 9.7221 108.507 11.2069ZM110.884 9.31142C110.868 9.63523 110.844 9.96693 110.829 10.2907C110.624 8.40318 109.711 6.90261 108.294 5.69426C107.759 5.23619 107.177 4.82551 106.634 4.36744C105.422 3.35653 104.611 2.19557 105.241 0.505454C105.28 0.394886 105.209 0.165852 105.115 0.0947727C105.036 0.0394886 104.91 0 104.792 0C104.737 0 104.69 0.00789773 104.643 0.0236932C104.422 0.10267 104.233 0.24483 104.044 0.386989C101.99 1.87966 100.723 3.8146 100.684 6.42875C100.676 7.07636 100.684 7.72398 100.684 8.49006C100.597 8.30841 100.542 8.23733 100.526 8.15045C100.4 7.44756 100.298 6.73676 100.164 6.03386C100.133 5.86011 100.031 5.60739 99.9125 5.5679C99.881 5.56 99.8574 5.5521 99.8259 5.5521C99.6764 5.5521 99.4954 5.63108 99.3694 5.71795C99.212 5.82062 99.1018 6.00227 98.9917 6.16812C98.1338 7.42386 97.6222 8.79807 97.5278 10.3381C97.4176 12.1546 97.7482 13.8447 98.8972 15.2979C100.275 17.0433 101.982 18.0068 104.005 18.0068C104.524 18.0068 105.068 17.9436 105.626 17.8094C108.405 17.1618 110.105 15.3058 110.703 12.7864V13.7736L110.884 9.31142ZM110.427 12.5258L110.38 12.7153C110.089 13.9395 109.538 14.9741 108.743 15.7797C107.917 16.6168 106.838 17.2012 105.54 17.5014C105.012 17.6277 104.485 17.6909 103.989 17.6909C102.116 17.6909 100.487 16.8222 99.1333 15.1005C98.1417 13.8447 97.7167 12.2889 97.8347 10.3539C97.9213 8.92443 98.3857 7.61341 99.2435 6.34187C99.2593 6.32608 99.2671 6.30239 99.2829 6.28659C99.3616 6.16812 99.4481 6.04176 99.5347 5.97858C99.6213 5.9154 99.7157 5.88381 99.7787 5.86801C99.8023 5.9154 99.8338 6.00227 99.8495 6.08125C99.9361 6.52352 100.007 6.97369 100.086 7.40807C100.125 7.66869 100.172 7.92932 100.219 8.19784C100.235 8.30051 100.275 8.37159 100.33 8.46636C100.353 8.50585 100.377 8.55324 100.408 8.61642L101.006 9.87216V8.48216C101.006 8.22153 101.006 7.9846 101.006 7.74767C101.006 7.2896 100.999 6.85523 101.006 6.42875C101.046 4.08312 102.1 2.18767 104.241 0.639716L104.281 0.608125C104.446 0.489659 104.603 0.371193 104.761 0.315909C104.768 0.315909 104.776 0.315909 104.8 0.315909C104.847 0.315909 104.894 0.323807 104.918 0.339602C104.926 0.363295 104.934 0.394886 104.942 0.410682C104.202 2.4167 105.351 3.70403 106.437 4.60437C106.697 4.81761 106.964 5.03085 107.224 5.22829C107.515 5.45733 107.814 5.68636 108.098 5.9233C109.538 7.15534 110.333 8.59273 110.522 10.3144H110.53L110.427 12.5258ZM106.807 7.36068L106.24 6.92631L106.295 7.6371C106.295 7.66869 106.295 7.69239 106.295 7.70818C106.295 7.76346 106.295 7.84244 106.343 7.92142C106.815 8.86915 106.878 9.89585 106.524 11.0489C106.224 12.0045 105.65 12.8259 104.8 13.4814C104.706 13.5525 104.635 13.5762 104.595 13.5762C104.587 13.5762 104.58 13.5762 104.556 13.5525C104.54 13.5288 104.509 13.4498 104.517 13.1655C104.517 13.1102 104.548 13.0234 104.587 12.9207C104.619 12.8496 104.643 12.7627 104.674 12.6601L105.162 11.0726L104.131 12.3678C103.47 13.1971 102.691 13.7341 101.668 14.0816L101.093 14.2712L101.581 14.6345C102.455 15.2821 103.36 15.6059 104.288 15.6059C104.8 15.6059 105.319 15.5032 105.847 15.3137C107.657 14.6345 108.711 13.1813 108.806 11.2227C108.893 9.7458 108.216 8.44267 106.807 7.36068ZM108.507 11.2069C108.42 13.0155 107.476 14.366 105.752 15.0136C105.264 15.1952 104.784 15.29 104.304 15.29C103.438 15.29 102.596 14.982 101.778 14.3818C102.825 14.0343 103.659 13.4735 104.383 12.5653C104.296 12.8417 104.21 12.9997 104.21 13.1655C104.21 13.363 104.21 13.6236 104.328 13.7578C104.406 13.8526 104.501 13.8921 104.603 13.8921C104.737 13.8921 104.871 13.8289 104.997 13.7341C105.87 13.0628 106.508 12.202 106.83 11.1437C107.177 10.0064 107.177 8.87704 106.634 7.77926C106.618 7.74767 106.626 7.70818 106.618 7.60551C107.83 8.54534 108.578 9.7221 108.507 11.2069ZM106.807 7.36068L106.24 6.92631L106.295 7.6371C106.295 7.66869 106.295 7.69239 106.295 7.70818C106.295 7.76346 106.295 7.84244 106.343 7.92142C106.815 8.86915 106.878 9.89585 106.524 11.0489C106.224 12.0045 105.65 12.8259 104.8 13.4814C104.706 13.5525 104.635 13.5762 104.595 13.5762C104.587 13.5762 104.58 13.5762 104.556 13.5525C104.54 13.5288 104.509 13.4498 104.517 13.1655C104.517 13.1102 104.548 13.0234 104.587 12.9207C104.619 12.8496 104.643 12.7627 104.674 12.6601L105.162 11.0726L104.131 12.3678C103.47 13.1971 102.691 13.7341 101.668 14.0816L101.093 14.2712L101.581 14.6345C102.455 15.2821 103.36 15.6059 104.288 15.6059C104.8 15.6059 105.319 15.5032 105.847 15.3137C107.657 14.6345 108.711 13.1813 108.806 11.2227C108.893 9.7458 108.216 8.44267 106.807 7.36068ZM108.507 11.2069C108.42 13.0155 107.476 14.366 105.752 15.0136C105.264 15.1952 104.784 15.29 104.304 15.29C103.438 15.29 102.596 14.982 101.778 14.3818C102.825 14.0343 103.659 13.4735 104.383 12.5653C104.296 12.8417 104.21 12.9997 104.21 13.1655C104.21 13.363 104.21 13.6236 104.328 13.7578C104.406 13.8526 104.501 13.8921 104.603 13.8921C104.737 13.8921 104.871 13.8289 104.997 13.7341C105.87 13.0628 106.508 12.202 106.83 11.1437C107.177 10.0064 107.177 8.87704 106.634 7.77926C106.618 7.74767 106.626 7.70818 106.618 7.60551C107.83 8.54534 108.578 9.7221 108.507 11.2069ZM106.807 7.36068L106.24 6.92631L106.295 7.6371C106.295 7.66869 106.295 7.69239 106.295 7.70818C106.295 7.76346 106.295 7.84244 106.343 7.92142C106.815 8.86915 106.878 9.89585 106.524 11.0489C106.224 12.0045 105.65 12.8259 104.8 13.4814C104.706 13.5525 104.635 13.5762 104.595 13.5762C104.587 13.5762 104.58 13.5762 104.556 13.5525C104.54 13.5288 104.509 13.4498 104.517 13.1655C104.517 13.1102 104.548 13.0234 104.587 12.9207C104.619 12.8496 104.643 12.7627 104.674 12.6601L105.162 11.0726L104.131 12.3678C103.47 13.1971 102.691 13.7341 101.668 14.0816L101.093 14.2712L101.581 14.6345C102.455 15.2821 103.36 15.6059 104.288 15.6059C104.8 15.6059 105.319 15.5032 105.847 15.3137C107.657 14.6345 108.711 13.1813 108.806 11.2227C108.893 9.7458 108.216 8.44267 106.807 7.36068ZM108.507 11.2069C108.42 13.0155 107.476 14.366 105.752 15.0136C105.264 15.1952 104.784 15.29 104.304 15.29C103.438 15.29 102.596 14.982 101.778 14.3818C102.825 14.0343 103.659 13.4735 104.383 12.5653C104.296 12.8417 104.21 12.9997 104.21 13.1655C104.21 13.363 104.21 13.6236 104.328 13.7578C104.406 13.8526 104.501 13.8921 104.603 13.8921C104.737 13.8921 104.871 13.8289 104.997 13.7341C105.87 13.0628 106.508 12.202 106.83 11.1437C107.177 10.0064 107.177 8.87704 106.634 7.77926C106.618 7.74767 106.626 7.70818 106.618 7.60551C107.83 8.54534 108.578 9.7221 108.507 11.2069ZM106.807 7.36068L106.24 6.92631L106.295 7.6371C106.295 7.66869 106.295 7.69239 106.295 7.70818C106.295 7.76346 106.295 7.84244 106.343 7.92142C106.815 8.86915 106.878 9.89585 106.524 11.0489C106.224 12.0045 105.65 12.8259 104.8 13.4814C104.706 13.5525 104.635 13.5762 104.595 13.5762C104.587 13.5762 104.58 13.5762 104.556 13.5525C104.54 13.5288 104.509 13.4498 104.517 13.1655C104.517 13.1102 104.548 13.0234 104.587 12.9207C104.619 12.8496 104.643 12.7627 104.674 12.6601L105.162 11.0726L104.131 12.3678C103.47 13.1971 102.691 13.7341 101.668 14.0816L101.093 14.2712L101.581 14.6345C102.455 15.2821 103.36 15.6059 104.288 15.6059C104.8 15.6059 105.319 15.5032 105.847 15.3137C107.657 14.6345 108.711 13.1813 108.806 11.2227C108.893 9.7458 108.216 8.44267 106.807 7.36068ZM108.507 11.2069C108.42 13.0155 107.476 14.366 105.752 15.0136C105.264 15.1952 104.784 15.29 104.304 15.29C103.438 15.29 102.596 14.982 101.778 14.3818C102.825 14.0343 103.659 13.4735 104.383 12.5653C104.296 12.8417 104.21 12.9997 104.21 13.1655C104.21 13.363 104.21 13.6236 104.328 13.7578C104.406 13.8526 104.501 13.8921 104.603 13.8921C104.737 13.8921 104.871 13.8289 104.997 13.7341C105.87 13.0628 106.508 12.202 106.83 11.1437C107.177 10.0064 107.177 8.87704 106.634 7.77926C106.618 7.74767 106.626 7.70818 106.618 7.60551C107.83 8.54534 108.578 9.7221 108.507 11.2069ZM106.807 7.36068L106.24 6.92631L106.295 7.6371C106.295 7.66869 106.295 7.69239 106.295 7.70818C106.295 7.76346 106.295 7.84244 106.343 7.92142C106.815 8.86915 106.878 9.89585 106.524 11.0489C106.224 12.0045 105.65 12.8259 104.8 13.4814C104.706 13.5525 104.635 13.5762 104.595 13.5762C104.587 13.5762 104.58 13.5762 104.556 13.5525C104.54 13.5288 104.509 13.4498 104.517 13.1655C104.517 13.1102 104.548 13.0234 104.587 12.9207C104.619 12.8496 104.643 12.7627 104.674 12.6601L105.162 11.0726L104.131 12.3678C103.47 13.1971 102.691 13.7341 101.668 14.0816L101.093 14.2712L101.581 14.6345C102.455 15.2821 103.36 15.6059 104.288 15.6059C104.8 15.6059 105.319 15.5032 105.847 15.3137C107.657 14.6345 108.711 13.1813 108.806 11.2227C108.893 9.7458 108.216 8.44267 106.807 7.36068ZM108.507 11.2069C108.42 13.0155 107.476 14.366 105.752 15.0136C105.264 15.1952 104.784 15.29 104.304 15.29C103.438 15.29 102.596 14.982 101.778 14.3818C102.825 14.0343 103.659 13.4735 104.383 12.5653C104.296 12.8417 104.21 12.9997 104.21 13.1655C104.21 13.363 104.21 13.6236 104.328 13.7578C104.406 13.8526 104.501 13.8921 104.603 13.8921C104.737 13.8921 104.871 13.8289 104.997 13.7341C105.87 13.0628 106.508 12.202 106.83 11.1437C107.177 10.0064 107.177 8.87704 106.634 7.77926C106.618 7.74767 106.626 7.70818 106.618 7.60551C107.83 8.54534 108.578 9.7221 108.507 11.2069ZM106.807 7.36068L106.24 6.92631L106.295 7.6371C106.295 7.66869 106.295 7.69239 106.295 7.70818C106.295 7.76346 106.295 7.84244 106.343 7.92142C106.815 8.86915 106.878 9.89585 106.524 11.0489C106.224 12.0045 105.65 12.8259 104.8 13.4814C104.706 13.5525 104.635 13.5762 104.595 13.5762C104.587 13.5762 104.58 13.5762 104.556 13.5525C104.54 13.5288 104.509 13.4498 104.517 13.1655C104.517 13.1102 104.548 13.0234 104.587 12.9207C104.619 12.8496 104.643 12.7627 104.674 12.6601L105.162 11.0726L104.131 12.3678C103.47 13.1971 102.691 13.7341 101.668 14.0816L101.093 14.2712L101.581 14.6345C102.455 15.2821 103.36 15.6059 104.288 15.6059C104.8 15.6059 105.319 15.5032 105.847 15.3137C107.657 14.6345 108.711 13.1813 108.806 11.2227C108.893 9.7458 108.216 8.44267 106.807 7.36068ZM108.507 11.2069C108.42 13.0155 107.476 14.366 105.752 15.0136C105.264 15.1952 104.784 15.29 104.304 15.29C103.438 15.29 102.596 14.982 101.778 14.3818C102.825 14.0343 103.659 13.4735 104.383 12.5653C104.296 12.8417 104.21 12.9997 104.21 13.1655C104.21 13.363 104.21 13.6236 104.328 13.7578C104.406 13.8526 104.501 13.8921 104.603 13.8921C104.737 13.8921 104.871 13.8289 104.997 13.7341C105.87 13.0628 106.508 12.202 106.83 11.1437C107.177 10.0064 107.177 8.87704 106.634 7.77926C106.618 7.74767 106.626 7.70818 106.618 7.60551C107.83 8.54534 108.578 9.7221 108.507 11.2069ZM106.807 7.36068L106.24 6.92631L106.295 7.6371C106.295 7.66869 106.295 7.69239 106.295 7.70818C106.295 7.76346 106.295 7.84244 106.343 7.92142C106.815 8.86915 106.878 9.89585 106.524 11.0489C106.224 12.0045 105.65 12.8259 104.8 13.4814C104.706 13.5525 104.635 13.5762 104.595 13.5762C104.587 13.5762 104.58 13.5762 104.556 13.5525C104.54 13.5288 104.509 13.4498 104.517 13.1655C104.517 13.1102 104.548 13.0234 104.587 12.9207C104.619 12.8496 104.643 12.7627 104.674 12.6601L105.162 11.0726L104.131 12.3678C103.47 13.1971 102.691 13.7341 101.668 14.0816L101.093 14.2712L101.581 14.6345C102.455 15.2821 103.36 15.6059 104.288 15.6059C104.8 15.6059 105.319 15.5032 105.847 15.3137C107.657 14.6345 108.711 13.1813 108.806 11.2227C108.893 9.7458 108.216 8.44267 106.807 7.36068ZM108.507 11.2069C108.42 13.0155 107.476 14.366 105.752 15.0136C105.264 15.1952 104.784 15.29 104.304 15.29C103.438 15.29 102.596 14.982 101.778 14.3818C102.825 14.0343 103.659 13.4735 104.383 12.5653C104.296 12.8417 104.21 12.9997 104.21 13.1655C104.21 13.363 104.21 13.6236 104.328 13.7578C104.406 13.8526 104.501 13.8921 104.603 13.8921C104.737 13.8921 104.871 13.8289 104.997 13.7341C105.87 13.0628 106.508 12.202 106.83 11.1437C107.177 10.0064 107.177 8.87704 106.634 7.77926C106.618 7.74767 106.626 7.70818 106.618 7.60551C107.83 8.54534 108.578 9.7221 108.507 11.2069ZM106.807 7.36068L106.24 6.92631L106.295 7.6371C106.295 7.66869 106.295 7.69239 106.295 7.70818C106.295 7.76346 106.295 7.84244 106.343 7.92142C106.815 8.86915 106.878 9.89585 106.524 11.0489C106.224 12.0045 105.65 12.8259 104.8 13.4814C104.706 13.5525 104.635 13.5762 104.595 13.5762C104.587 13.5762 104.58 13.5762 104.556 13.5525C104.54 13.5288 104.509 13.4498 104.517 13.1655C104.517 13.1102 104.548 13.0234 104.587 12.9207C104.619 12.8496 104.643 12.7627 104.674 12.6601L105.162 11.0726L104.131 12.3678C103.47 13.1971 102.691 13.7341 101.668 14.0816L101.093 14.2712L101.581 14.6345C102.455 15.2821 103.36 15.6059 104.288 15.6059C104.8 15.6059 105.319 15.5032 105.847 15.3137C107.657 14.6345 108.711 13.1813 108.806 11.2227C108.893 9.7458 108.216 8.44267 106.807 7.36068ZM108.507 11.2069C108.42 13.0155 107.476 14.366 105.752 15.0136C105.264 15.1952 104.784 15.29 104.304 15.29C103.438 15.29 102.596 14.982 101.778 14.3818C102.825 14.0343 103.659 13.4735 104.383 12.5653C104.296 12.8417 104.21 12.9997 104.21 13.1655C104.21 13.363 104.21 13.6236 104.328 13.7578C104.406 13.8526 104.501 13.8921 104.603 13.8921C104.737 13.8921 104.871 13.8289 104.997 13.7341C105.87 13.0628 106.508 12.202 106.83 11.1437C107.177 10.0064 107.177 8.87704 106.634 7.77926C106.618 7.74767 106.626 7.70818 106.618 7.60551C107.83 8.54534 108.578 9.7221 108.507 11.2069ZM106.807 7.36068L106.24 6.92631L106.295 7.6371C106.295 7.66869 106.295 7.69239 106.295 7.70818C106.295 7.76346 106.295 7.84244 106.343 7.92142C106.815 8.86915 106.878 9.89585 106.524 11.0489C106.224 12.0045 105.65 12.8259 104.8 13.4814C104.706 13.5525 104.635 13.5762 104.595 13.5762C104.587 13.5762 104.58 13.5762 104.556 13.5525C104.54 13.5288 104.509 13.4498 104.517 13.1655C104.517 13.1102 104.548 13.0234 104.587 12.9207C104.619 12.8496 104.643 12.7627 104.674 12.6601L105.162 11.0726L104.131 12.3678C103.47 13.1971 102.691 13.7341 101.668 14.0816L101.093 14.2712L101.581 14.6345C102.455 15.2821 103.36 15.6059 104.288 15.6059C104.8 15.6059 105.319 15.5032 105.847 15.3137C107.657 14.6345 108.711 13.1813 108.806 11.2227C108.893 9.7458 108.216 8.44267 106.807 7.36068ZM108.507 11.2069C108.42 13.0155 107.476 14.366 105.752 15.0136C105.264 15.1952 104.784 15.29 104.304 15.29C103.438 15.29 102.596 14.982 101.778 14.3818C102.825 14.0343 103.659 13.4735 104.383 12.5653C104.296 12.8417 104.21 12.9997 104.21 13.1655C104.21 13.363 104.21 13.6236 104.328 13.7578C104.406 13.8526 104.501 13.8921 104.603 13.8921C104.737 13.8921 104.871 13.8289 104.997 13.7341C105.87 13.0628 106.508 12.202 106.83 11.1437C107.177 10.0064 107.177 8.87704 106.634 7.77926C106.618 7.74767 106.626 7.70818 106.618 7.60551C107.83 8.54534 108.578 9.7221 108.507 11.2069ZM106.807 7.36068L106.24 6.92631L106.295 7.6371C106.295 7.66869 106.295 7.69239 106.295 7.70818C106.295 7.76346 106.295 7.84244 106.343 7.92142C106.815 8.86915 106.878 9.89585 106.524 11.0489C106.224 12.0045 105.65 12.8259 104.8 13.4814C104.706 13.5525 104.635 13.5762 104.595 13.5762C104.587 13.5762 104.58 13.5762 104.556 13.5525C104.54 13.5288 104.509 13.4498 104.517 13.1655C104.517 13.1102 104.548 13.0234 104.587 12.9207C104.619 12.8496 104.643 12.7627 104.674 12.6601L105.162 11.0726L104.131 12.3678C103.47 13.1971 102.691 13.7341 101.668 14.0816L101.093 14.2712L101.581 14.6345C102.455 15.2821 103.36 15.6059 104.288 15.6059C104.8 15.6059 105.319 15.5032 105.847 15.3137C107.657 14.6345 108.711 13.1813 108.806 11.2227C108.893 9.7458 108.216 8.44267 106.807 7.36068ZM108.507 11.2069C108.42 13.0155 107.476 14.366 105.752 15.0136C105.264 15.1952 104.784 15.29 104.304 15.29C103.438 15.29 102.596 14.982 101.778 14.3818C102.825 14.0343 103.659 13.4735 104.383 12.5653C104.296 12.8417 104.21 12.9997 104.21 13.1655C104.21 13.363 104.21 13.6236 104.328 13.7578C104.406 13.8526 104.501 13.8921 104.603 13.8921C104.737 13.8921 104.871 13.8289 104.997 13.7341C105.87 13.0628 106.508 12.202 106.83 11.1437C107.177 10.0064 107.177 8.87704 106.634 7.77926C106.618 7.74767 106.626 7.70818 106.618 7.60551C107.83 8.54534 108.578 9.7221 108.507 11.2069ZM106.807 7.36068L106.24 6.92631L106.295 7.6371C106.295 7.66869 106.295 7.69239 106.295 7.70818C106.295 7.76346 106.295 7.84244 106.343 7.92142C106.815 8.86915 106.878 9.89585 106.524 11.0489C106.224 12.0045 105.65 12.8259 104.8 13.4814C104.706 13.5525 104.635 13.5762 104.595 13.5762C104.587 13.5762 104.58 13.5762 104.556 13.5525C104.54 13.5288 104.509 13.4498 104.517 13.1655C104.517 13.1102 104.548 13.0234 104.587 12.9207C104.619 12.8496 104.643 12.7627 104.674 12.6601L105.162 11.0726L104.131 12.3678C103.47 13.1971 102.691 13.7341 101.668 14.0816L101.093 14.2712L101.581 14.6345C102.455 15.2821 103.36 15.6059 104.288 15.6059C104.8 15.6059 105.319 15.5032 105.847 15.3137C107.657 14.6345 108.711 13.1813 108.806 11.2227C108.893 9.7458 108.216 8.44267 106.807 7.36068ZM108.507 11.2069C108.42 13.0155 107.476 14.366 105.752 15.0136C105.264 15.1952 104.784 15.29 104.304 15.29C103.438 15.29 102.596 14.982 101.778 14.3818C102.825 14.0343 103.659 13.4735 104.383 12.5653C104.296 12.8417 104.21 12.9997 104.21 13.1655C104.21 13.363 104.21 13.6236 104.328 13.7578C104.406 13.8526 104.501 13.8921 104.603 13.8921C104.737 13.8921 104.871 13.8289 104.997 13.7341C105.87 13.0628 106.508 12.202 106.83 11.1437C107.177 10.0064 107.177 8.87704 106.634 7.77926C106.618 7.74767 106.626 7.70818 106.618 7.60551C107.83 8.54534 108.578 9.7221 108.507 11.2069Z" fill="black"/>
<path d="M48.2355 14.6428C48.1253 14.4927 48.0151 14.3506 47.8971 14.2005C47.0943 13.1817 46.2994 12.1629 45.4809 11.1204C45.5596 11.0572 45.6226 11.0019 45.6934 10.9387C46.3151 10.3859 46.9212 9.81727 47.2517 9.03539C47.779 7.77966 47.7554 6.5713 46.9054 5.42613C45.5281 3.57017 43.6078 2.92255 41.4198 3.04892C39.4365 3.15949 37.4532 3.34903 35.5092 3.84659C35.5013 3.8071 35.4777 3.76761 35.4777 3.72812C35.4699 3.00153 35.4305 2.96204 34.7222 3.00943C34.6435 3.01733 34.5648 3.01733 34.4861 3.02522C32.8254 3.15159 31.1648 3.27005 29.512 3.39642C27.7727 3.52278 26.0412 3.65704 24.3019 3.7913C23.8926 3.82289 23.7431 3.98875 23.7588 4.39943C23.7746 4.70744 23.8139 5.01545 23.8454 5.36295C23.6723 5.27608 23.5463 5.22079 23.4204 5.14971C22.1218 4.46261 20.8311 3.77551 19.5325 3.08841C19.1468 2.88307 18.9186 3.00153 18.8084 3.42801C18.7455 3.67284 18.6982 3.91767 18.651 4.1625C18.407 5.29187 18.1631 6.42125 17.9033 7.65329C17.8404 7.46375 17.8089 7.37687 17.7853 7.29C17.4547 6.14483 17.1399 4.99176 16.8015 3.84659C16.6677 3.38062 16.4552 3.27005 16.0459 3.4596C14.708 4.07562 13.37 4.70744 12.0321 5.35505C11.5914 5.56829 11.5599 5.71835 11.7173 6.18431C13.0159 9.82517 14.3145 13.466 15.6052 17.1148C15.7311 17.4623 15.9358 17.6044 16.3057 17.5965C17.4233 17.5807 18.533 17.5728 19.6505 17.6044C20.107 17.6123 20.3038 17.4307 20.4297 17.02C21.1931 14.5401 21.9723 12.0602 22.7436 9.58823C23.1135 8.40358 23.4834 7.21892 23.8612 6.03426C24.05 7.40846 24.1838 8.78267 24.3176 10.149C24.538 12.4235 24.7584 14.6981 24.9945 16.9726C25.0574 17.5649 25.1125 17.6123 25.7107 17.5965C27.7019 17.557 29.6931 17.5255 31.6842 17.4623C32.6366 17.4307 33.5889 17.3438 34.5412 17.2885C34.8324 17.2727 34.9819 17.099 35.0213 16.8147C35.1944 15.6458 35.3833 14.4769 35.5564 13.316C35.6273 12.8263 35.4305 12.6131 34.9504 12.6447C34.0217 12.7078 33.093 12.7789 32.1643 12.8342C31.3852 12.8816 30.606 12.929 29.7954 12.9764C29.7718 12.7236 29.756 12.5262 29.7403 12.2972C29.9134 12.2735 30.0551 12.2577 30.1968 12.2498C30.9838 12.1866 31.7629 12.1234 32.55 12.076C32.912 12.0523 33.1403 11.9181 33.1796 11.5232C33.2583 10.7413 33.3685 9.95943 33.4393 9.17755C33.4787 8.73528 33.3449 8.60102 32.9041 8.60892C32.4083 8.60892 31.9125 8.64051 31.4088 8.64841C30.7319 8.6563 30.0551 8.64841 29.3546 8.64841C29.3468 8.52204 29.3389 8.38778 29.331 8.22983C31.0389 8.07187 32.7074 7.90602 34.3759 7.75596C34.9268 7.70858 35.0291 7.59011 35.0921 7.02937C35.155 6.38966 35.2416 5.75784 35.3125 5.11812C35.3361 5.11812 35.3597 5.11812 35.3833 5.11812C35.9972 9.08278 36.6032 13.0553 37.2171 17.02C37.2958 17.5176 37.4453 17.6281 37.9254 17.557C39.1453 17.3912 40.3652 17.2174 41.5851 17.0595C42.1439 16.9884 42.2619 16.8305 42.2305 16.2539C42.1911 15.5589 42.1596 14.8718 42.1203 14.082C42.2698 14.2874 42.3642 14.4137 42.4508 14.5401C43.0804 15.4483 43.7022 16.3487 44.3397 17.2569C44.5837 17.6044 44.7962 17.6518 45.1346 17.4228C46.1263 16.7673 47.1258 16.1039 48.1096 15.4404C48.4637 15.1877 48.4873 14.9824 48.2355 14.6428ZM23.4755 5.93949C22.3422 9.61193 21.1931 13.2765 20.0519 16.941C19.9811 17.1543 19.8788 17.2174 19.6584 17.2174C18.5566 17.2095 17.4547 17.2016 16.3529 17.2174C16.1089 17.2174 16.0145 17.1227 15.9436 16.9094C14.6765 13.3239 13.3937 9.74619 12.1108 6.16852C12.0164 5.8921 12.0636 5.76574 12.3154 5.64727C13.6376 5.02335 14.9598 4.39153 16.3686 3.72022C16.8881 5.58409 17.3918 7.38477 17.8955 9.17755L17.9663 9.18545C18.3834 7.25841 18.7927 5.33136 19.2177 3.37272C20.6186 4.11511 21.988 4.8338 23.3417 5.56829C23.4362 5.63147 23.507 5.84471 23.4755 5.93949ZM34.9426 4.89699C34.8638 5.61568 34.7694 6.33437 34.7064 7.05306C34.6828 7.30579 34.5648 7.33738 34.3523 7.35318C32.6287 7.50323 30.9051 7.66909 29.1894 7.82704C29.1028 7.83494 29.0083 7.85863 28.8667 7.88233C28.9296 8.29301 28.9769 8.6721 29.032 9.04329H33.0615C32.975 9.84886 32.8884 10.6544 32.7782 11.46C32.7625 11.5469 32.5657 11.6574 32.4398 11.6653C31.4088 11.7601 30.3856 11.8391 29.3074 11.926C29.3546 12.4156 29.394 12.8816 29.4412 13.4107C31.338 13.2844 33.2268 13.1659 35.1708 13.0395C35.1629 13.1896 35.1629 13.3318 35.1393 13.466C34.9898 14.4532 34.8245 15.4326 34.6986 16.4277C34.6514 16.8068 34.5097 16.9647 34.1162 16.9726C32.3217 17.02 30.5273 17.099 28.7329 17.1622C27.7806 17.1937 26.8204 17.2016 25.8681 17.2174C25.7264 17.2174 25.5848 17.2174 25.4116 17.2174C24.9866 12.8737 24.5616 8.56943 24.1366 4.21778C27.8042 3.94136 31.4245 3.67284 35.1157 3.39642C35.0527 3.91767 34.9976 4.40733 34.9426 4.89699ZM44.7726 17.1779C43.7494 15.7169 42.7499 14.2716 41.7189 12.7868C41.7189 13.2923 41.7031 13.7424 41.7189 14.1847C41.7504 14.8955 41.7976 15.5984 41.8369 16.3092C41.8527 16.5066 41.8212 16.6172 41.5851 16.6488C40.2865 16.8147 38.9958 17.0042 37.6421 17.1858C36.981 12.8737 36.3199 8.57733 35.643 4.18619C36.4143 4.05193 37.162 3.90187 37.9175 3.8071C39.0745 3.66494 40.2314 3.51488 41.3962 3.4517C43.4346 3.34903 45.229 3.89397 46.5355 5.59988C47.3698 6.68187 47.3934 7.81125 46.8346 8.99591C46.4962 9.7146 45.9216 10.2358 45.3235 10.7334C45.1897 10.844 45.0559 10.9387 44.9142 11.0572C45.961 12.384 46.9841 13.6793 48.0387 15.0061C46.9369 15.7406 45.8665 16.4435 44.7726 17.1779Z" fill="black"/>
<path d="M11.0642 12.6612C9.48222 12.7718 7.90029 12.8587 6.31836 12.9692C6.08225 12.985 6.00355 12.8981 5.99568 12.6928C5.98781 12.5664 5.98781 12.4401 5.97994 12.2821C6.92437 12.211 7.83733 12.1242 8.75028 12.0689C9.15167 12.0452 9.37991 11.8872 9.41926 11.4687C9.49009 10.7105 9.60028 9.96019 9.67111 9.20201C9.71833 8.72815 9.58454 8.59389 9.12806 8.60179C8.61649 8.60968 8.10492 8.64127 7.60122 8.64127C6.94011 8.64917 6.27901 8.64127 5.60216 8.64127C5.59429 8.50701 5.57855 8.38065 5.57068 8.23849C5.66512 8.22269 5.73596 8.2069 5.81466 8.199C7.42807 8.04894 9.04936 7.89099 10.6628 7.74093C11.1429 7.69355 11.2767 7.56718 11.3239 7.08542C11.3632 6.70633 11.4104 6.32724 11.4498 5.94815C11.5364 5.15048 11.6387 4.36071 11.7174 3.56304C11.7567 3.12076 11.6229 2.9944 11.1743 3.0023C11.072 3.0023 10.9618 3.01019 10.8595 3.01809C7.45168 3.27872 4.03597 3.53934 0.612387 3.79997C0.124428 3.83946 -0.0172373 3.98162 0.00637362 4.46338C0.0142439 4.59764 0.0221142 4.724 0.0378548 4.85826C0.211002 6.61946 0.384148 8.38855 0.557295 10.1497C0.777664 12.4243 0.998032 14.6988 1.22627 16.9655C1.28923 17.5815 1.34433 17.6289 1.95821 17.6131C3.93366 17.5736 5.9091 17.542 7.89242 17.4788C8.82112 17.4472 9.74981 17.3762 10.6785 17.3209C11.0405 17.2972 11.2294 17.1155 11.2767 16.7364C11.4262 15.6308 11.6151 14.533 11.7882 13.4273C11.8905 12.7955 11.7095 12.6138 11.0642 12.6612ZM11.3947 13.3957C11.2452 14.4224 11.072 15.4412 10.9304 16.4679C10.8831 16.8233 10.7336 16.9497 10.3873 16.9576C8.8526 17.005 7.32576 17.076 5.79105 17.1234C4.57115 17.1629 3.35912 17.1787 2.13923 17.2024C1.99756 17.2024 1.8559 17.2024 1.65127 17.2024C1.22627 12.8824 0.801274 8.57019 0.376278 4.21065C4.05171 3.93423 7.67205 3.66571 11.3554 3.38929C11.2924 3.97372 11.2373 4.51866 11.1743 5.0636C11.0956 5.72701 11.0091 6.39042 10.9461 7.06173C10.9225 7.32235 10.7887 7.33815 10.5841 7.35394C8.86047 7.504 7.13687 7.66985 5.42114 7.82781C5.33457 7.83571 5.24013 7.8594 5.1142 7.88309C5.16929 8.27798 5.22439 8.66497 5.27948 9.04406H9.30908C9.24611 9.62059 9.19102 10.2129 9.11232 10.8053C9.01 11.6187 9.00213 11.6266 8.16788 11.7135C7.31002 11.7925 6.45215 11.8556 5.55494 11.9346C5.60216 12.4322 5.64151 12.8903 5.69661 13.4115C7.60122 13.2851 9.48222 13.1667 11.4104 13.0403C11.3947 13.1746 11.4104 13.2851 11.3947 13.3957Z" fill="black"/>
<path d="M133.567 11.8946C133.008 10.8521 132.127 10.1176 131.119 9.5727C130.238 9.09094 129.301 8.71975 128.381 8.30906C127.971 8.12742 127.515 8.02475 127.161 7.54298C127.491 7.54298 127.743 7.4798 127.963 7.55088C129.01 7.88259 130.049 8.23799 131.08 8.60918C131.418 8.72764 131.662 8.70395 131.843 8.38014C132.347 7.44821 132.851 6.50838 133.362 5.58435C133.543 5.26054 133.473 5.02361 133.174 4.81827C132.072 4.06798 130.891 3.46776 129.577 3.20713C127.751 2.84384 125.996 2.87543 124.406 4.07588C122.911 5.21316 122.352 6.67423 122.722 8.50651C123.021 10.015 123.989 10.9706 125.319 11.6103C125.956 11.9183 126.618 12.1632 127.255 12.4633C127.719 12.6844 128.168 12.9608 128.617 13.2136C128.601 13.2609 128.585 13.3162 128.562 13.3636C128.31 13.3478 128.034 13.3715 127.798 13.3004C126.869 13.024 125.956 12.7239 125.036 12.4159C124.611 12.2737 124.445 12.329 124.256 12.7397C123.957 13.3873 123.674 14.027 123.383 14.6746C122.824 15.9146 122.753 15.8198 123.989 16.4674C125.531 17.273 127.137 17.8258 128.916 17.6837C130.34 17.5652 131.662 17.2177 132.796 16.27C134.205 15.0695 134.268 13.1978 133.567 11.8946ZM132.67 15.8277C131.828 16.6096 130.812 17.0045 129.679 17.194C127.365 17.581 125.35 16.8307 123.367 15.6618C123.816 14.6588 124.249 13.6953 124.681 12.7476C125.594 13.0398 126.468 13.3399 127.357 13.5926C127.719 13.6953 128.105 13.7348 128.483 13.719C128.672 13.7111 128.916 13.5374 129.018 13.3715C129.073 13.2846 128.9 12.9608 128.758 12.8818C127.696 12.3211 126.618 11.7841 125.531 11.2707C124.792 10.9232 124.162 10.4493 123.682 9.78594C122.753 8.50651 122.612 6.01872 124.327 4.62083C125.406 3.74418 126.586 3.36509 127.956 3.39668C129.876 3.44406 131.537 4.14696 133.103 5.24475C132.536 6.27935 131.985 7.29026 131.442 8.28537C130.584 7.96946 129.774 7.65355 128.947 7.37713C128.554 7.24287 128.137 7.18759 127.719 7.12441C127.546 7.10071 127.35 7.1323 127.184 7.18759C126.814 7.31395 126.688 7.73253 127.003 7.94577C127.468 8.26958 127.979 8.5381 128.514 8.73554C130.002 9.28838 131.387 9.99918 132.536 11.1286C133.37 11.9578 133.74 12.9529 133.606 14.1297C133.504 14.8168 133.166 15.3696 132.67 15.8277Z" fill="black"/>
<path d="M97.7388 5.21227C97.18 4.35141 96.4323 3.7038 95.4721 3.34051C93.0481 2.42437 89.8449 2.96931 87.9088 5.29124C85.8625 7.74744 85.2092 12.6993 87.6648 15.9216C88.4125 16.893 89.3412 17.5406 90.5847 17.6512C91.8518 17.7697 93.0559 17.5485 94.205 16.972C95.4721 16.3323 96.4402 15.4161 96.936 14.0656C97.5027 12.5177 97.4003 10.946 97.1091 9.36647C97.0462 9.03477 96.8179 8.95579 96.5267 8.99528C95.0707 9.19272 93.6226 9.39806 92.1666 9.58761C91.8518 9.6271 91.7101 9.80874 91.6629 10.101C91.5921 10.5906 91.5212 11.0882 91.4504 11.5857C91.411 11.8622 91.5291 12.0438 91.7809 12.1307C91.899 12.1781 92.0328 12.2018 92.1587 12.2333C91.6235 12.2807 91.1277 12.1544 90.7578 11.72C89.7661 10.5274 90.5296 8.30028 92.0407 7.96857C92.8041 7.80272 93.5282 7.89749 94.205 8.28448C94.5041 8.45823 94.7559 8.43454 95.0235 8.20551C95.8814 7.47102 96.7392 6.74443 97.6128 6.02573C97.9198 5.7809 97.9434 5.52818 97.7388 5.21227ZM94.7087 7.95278C94.0161 7.78693 93.4337 7.54999 92.8356 7.5184C91.3245 7.43153 90.3328 8.26079 90.0023 9.74556C89.8449 10.4327 89.9393 11.0724 90.2541 11.6884C90.7578 12.6756 92.4893 13.1337 93.2606 12.0675C92.7805 11.9569 92.3161 11.8543 91.8203 11.7437C91.8911 11.2145 91.962 10.7091 92.0485 10.2115C92.0643 10.1247 92.1745 9.99829 92.2532 9.99039C93.7092 9.78505 95.1573 9.59551 96.6133 9.40596C96.6369 9.40596 96.6605 9.42176 96.7235 9.44545C96.9754 11.0013 97.1091 12.5729 96.4953 14.113C95.7318 16.0401 93.3157 17.359 91.0962 17.3037C89.6874 17.2721 88.6486 16.6719 87.8615 15.5425C86.4528 13.5286 86.2166 11.3014 86.6495 8.95579C86.9171 7.48681 87.5546 6.19948 88.6092 5.13329C90.2541 3.46687 92.2532 3.06409 94.4647 3.46687C95.7712 3.7038 96.7707 4.4146 97.4948 5.59926C96.5267 6.42852 95.5666 7.23408 94.7087 7.95278Z" fill="black"/>
<path d="M58.0724 4.05936C56.6164 3.2143 55.0187 3.00106 53.3817 2.99316C51.7762 2.99316 50.084 3.29328 48.6438 3.82243C48.2975 3.94879 48.1401 4.12254 48.203 4.52532C48.8484 8.80589 49.478 13.0944 50.1076 17.3828C50.1627 17.754 50.3359 17.9278 50.6979 17.912C53.1456 17.8409 55.4831 17.4223 57.5057 15.8823C59.1742 14.6107 60.5043 13.1259 61.0159 11.0094C61.7478 8.02402 60.7247 5.59941 58.0724 4.05936ZM58.9067 14.1132C56.6872 16.5378 53.8854 17.5171 50.6743 17.5092C50.635 17.5092 50.5956 17.4934 50.5248 17.4776C49.8715 13.0707 49.2262 8.68743 48.5572 4.20941C49.4308 3.98828 50.2729 3.73555 51.1465 3.5776C52.7599 3.27748 54.397 3.25379 55.9868 3.65657C58.8358 4.38316 60.8191 6.26282 60.8664 9.15339C60.89 11.0488 60.1974 12.7074 58.9067 14.1132Z" fill="black"/>
<path d="M82.164 3.68128C82.0853 3.45225 81.9672 3.38907 81.739 3.38907C80.6608 3.39696 79.5904 3.40486 78.5122 3.38907C78.2052 3.38117 78.0872 3.49174 77.9927 3.76816C77.2057 6.0348 76.4029 8.29355 75.608 10.5523C75.0571 12.124 74.4983 13.6877 73.9316 15.283C75.1988 15.9228 76.4265 16.5309 77.6858 17.1627C77.9061 16.6257 78.1265 16.1281 78.3233 15.6147C78.402 15.4015 78.5043 15.3146 78.7483 15.3146C79.5589 15.3304 80.3696 15.3304 81.1881 15.3146C81.4399 15.3067 81.558 15.3857 81.6209 15.6384C81.7469 16.1676 81.92 16.6809 82.0853 17.2338C83.4468 16.4361 84.769 15.67 86.0834 14.8961C84.7612 11.1288 83.4547 7.40111 82.164 3.68128ZM79.1733 12.7084C79.3858 12.0608 79.6376 11.4053 79.8186 10.7261C79.9288 10.2996 80.1413 10.1732 80.5663 10.2996C80.7945 11.0657 81.0307 11.8554 81.2825 12.7084H79.1733Z" fill="white"/>
<path d="M65.1795 3.60254C65.1718 3.61058 65.1718 3.62666 65.1641 3.63469C65.1641 3.63469 65.1641 3.63469 65.1641 3.62666C65.1718 3.62666 65.1718 3.61058 65.1795 3.60254Z" fill="white"/>
<path d="M86.3751 14.5398C85.0843 10.8516 83.7936 7.16337 82.5107 3.47513C82.3927 3.12763 82.1881 2.97757 81.8103 2.98547C80.6927 3.00126 79.583 3.00916 78.4654 2.97757C78.0011 2.96967 77.7886 3.14342 77.639 3.5699C76.4191 7.0607 75.1835 10.5436 73.9478 14.0265C73.9085 14.1371 73.8613 14.2555 73.7904 14.4056C72.9011 13.2762 72.0511 12.2021 71.3034 11.2623C71.6261 10.8753 71.9016 10.5041 72.2085 10.1645C73.0742 9.18518 73.4756 8.0716 73.2316 6.75268C72.9877 5.45746 71.8858 4.35967 70.784 3.73575C68.1396 2.22729 64.7317 2.30626 61.9063 3.27768C61.4577 3.42774 61.0091 3.78314 60.9933 4.29649C60.9855 4.39126 60.9933 4.48604 61.0091 4.58081C61.6623 8.72712 62.2919 12.8813 62.9294 17.0355C63.0002 17.5015 63.1655 17.62 63.622 17.5568C64.8419 17.3909 66.0618 17.2172 67.2817 17.0513C67.8484 16.9723 67.9743 16.8223 67.9428 16.2536C67.9034 15.5586 67.872 14.8558 67.8326 14.066C67.9664 14.2555 68.053 14.3661 68.1317 14.4846C68.7534 15.377 69.3752 16.2694 69.9969 17.1698C70.3118 17.62 70.477 17.6594 70.9335 17.3593C71.752 16.8144 72.5705 16.2694 73.3891 15.7166C73.5622 15.5981 73.6803 15.5902 73.877 15.6929C75.0182 16.2852 76.1673 16.8539 77.3163 17.4225C77.7571 17.6436 77.946 17.5647 78.1348 17.1066C78.3001 16.7196 78.4497 16.3247 78.6228 15.9456C78.67 15.8509 78.796 15.7324 78.8825 15.7324C79.6538 15.7166 80.4251 15.7245 81.2279 15.7245C81.3695 16.2142 81.4955 16.6564 81.6214 17.0908C81.7867 17.6358 81.9992 17.7305 82.4793 17.4541C83.6834 16.7591 84.8718 16.0483 86.076 15.3612C86.438 15.1559 86.5089 14.911 86.3751 14.5398ZM70.4928 17.1777C69.4775 15.7166 68.4701 14.2713 67.4391 12.7865C67.4391 13.292 67.4234 13.7422 67.447 14.1844C67.4785 14.8952 67.5257 15.5981 67.565 16.3089C67.5729 16.5064 67.5493 16.6169 67.3132 16.6485C66.0146 16.8144 64.716 16.996 63.3702 17.1856C63.3623 17.1856 62.835 13.7106 62.7878 13.3947C62.591 12.131 62.4021 10.8595 62.2053 9.59587C62.0086 8.33223 61.8197 7.06859 61.6229 5.80496C61.5836 5.54433 61.5442 5.28371 61.5049 5.02308C61.4734 4.80984 61.3868 4.59661 61.3868 4.38337C61.3947 3.9095 61.9771 3.66467 62.3391 3.50672C62.8822 3.27768 63.4489 3.11183 64.0313 3.02496C64.5743 2.94598 65.1567 2.8907 65.7076 2.8907C66.3136 2.8907 67.1007 2.92229 67.6988 2.98547C68.8243 3.11183 69.7845 3.49882 70.7446 4.09115C71.453 4.52553 72.0275 5.10996 72.4682 5.82865C73.1923 7.01331 73.0349 8.46649 72.2242 9.55638C72.0826 9.74592 71.9252 9.92757 71.752 10.0855C71.3979 10.4172 71.0358 10.7331 70.6502 11.0727C71.1696 11.7125 71.6969 12.3601 72.2085 13.0156C72.7201 13.6632 73.2238 14.3187 73.7511 14.9979C72.6571 15.7403 71.5946 16.4432 70.4928 17.1777ZM82.0779 17.233C81.9126 16.6801 81.7473 16.1668 81.6135 15.6376C81.5506 15.377 81.4325 15.3059 81.1807 15.3138C80.37 15.3296 79.5594 15.3296 78.7409 15.3138C78.5048 15.3059 78.3946 15.4007 78.3159 15.6139C78.127 16.1273 77.8987 16.6248 77.6784 17.1619C76.4191 16.5301 75.1914 15.9219 73.9242 15.2822C74.4909 13.6869 75.0418 12.1152 75.6006 10.5515C76.3955 8.29274 77.1983 6.03399 77.9853 3.76734C78.0798 3.49092 78.1978 3.38035 78.5048 3.38825C79.5751 3.41195 80.6533 3.40405 81.7316 3.38825C81.9598 3.38825 82.0779 3.45143 82.1566 3.68047C83.4473 7.4082 84.7538 11.128 86.0681 14.8952C84.7616 15.6613 83.4473 16.4353 82.0779 17.233Z" fill="black"/>
<path d="M70.4927 17.1784C71.5866 16.4518 72.657 15.741 73.751 15.0144C73.2158 14.3352 72.72 13.6797 72.2084 13.0321C71.6889 12.3766 71.1616 11.729 70.6501 11.0893C71.0278 10.7497 71.3977 10.4338 71.7519 10.1021C71.9251 9.9362 72.0825 9.76245 72.2241 9.57291C73.0348 8.48302 73.1922 7.02984 72.4681 5.84518C72.0274 5.12649 71.4528 4.54206 70.7445 4.10768C69.7843 3.51535 68.8242 3.12836 67.6987 3.002C67.1006 2.93882 66.3057 2.90723 65.7075 2.90723C65.1645 2.90723 64.5742 2.96251 64.0311 3.04149C63.4487 3.12836 62.8821 3.28632 62.339 3.52325C61.977 3.6812 61.3946 3.92603 61.3867 4.3999C61.3867 4.62103 61.4654 4.83427 61.5048 5.03961C61.5441 5.30024 61.5835 5.56086 61.6228 5.82149C61.8196 7.08512 62.0085 8.34876 62.2052 9.6124C62.402 10.876 62.5909 12.1476 62.7876 13.4112C62.8349 13.7271 63.3622 17.2021 63.37 17.2021C64.7237 17.0126 66.0145 16.8309 67.3131 16.6651C67.5492 16.6335 67.5806 16.515 67.5649 16.3255C67.5177 15.6147 67.4705 14.9118 67.4469 14.201C67.4311 13.7508 67.439 13.3085 67.439 12.8031C68.4779 14.2721 69.4774 15.7173 70.4927 17.1784ZM67.014 8.77524C66.9589 8.28558 66.9117 7.84331 66.8566 7.32206C67.5256 7.32206 68.1709 7.29046 68.8084 7.34575C68.9816 7.36154 69.2413 7.61427 69.2649 7.78012C69.2885 7.95387 69.1075 8.23029 68.9422 8.33296C68.3677 8.68046 67.7144 8.73575 67.014 8.77524Z" fill="white"/>
<path d="M117.147 8.24569C117.422 7.26637 117.674 6.37393 117.918 5.48148C118.06 4.97603 118.185 4.46268 118.343 3.96512C118.382 3.84665 118.524 3.6887 118.634 3.6808C119.846 3.57023 121.058 3.49126 122.333 3.39648C122.27 4.09148 122.215 4.747 122.144 5.40251C121.892 7.82711 121.648 10.2596 121.381 12.6842C121.223 14.09 121.027 15.4958 120.861 16.9016C120.83 17.1622 120.728 17.2254 120.484 17.2175C119.838 17.2017 119.201 17.2017 118.555 17.2175C118.304 17.2254 118.162 17.1464 118.036 16.9174C117.162 15.3615 116.281 13.8136 115.399 12.2656C115.329 12.1472 115.258 12.0287 115.124 11.8234C114.935 13.6793 114.754 15.4326 114.573 17.2017C113.4 17.2017 112.267 17.2017 111.11 17.2017C111.11 16.2145 111.086 15.2431 111.118 14.2796C111.173 12.3683 111.252 10.4492 111.338 8.5379C111.401 7.09262 111.504 5.65523 111.582 4.21785C111.59 3.98881 111.685 3.92563 111.897 3.92563C112.842 3.93353 113.786 3.91773 114.73 3.94143C114.864 3.94143 115.045 4.09938 115.116 4.22575C115.73 5.4104 116.328 6.61086 116.934 7.80342C116.973 7.92188 117.036 8.04035 117.147 8.24569Z" fill="white"/>
<path d="M44.7702 17.1775C45.8642 16.4509 46.9345 15.7401 48.0364 15.0057C46.9896 13.6788 45.9665 12.3836 44.9118 11.0568C45.0535 10.9462 45.1873 10.8436 45.3211 10.733C45.9192 10.2354 46.4938 9.71419 46.8322 8.99549C47.391 7.81083 47.3674 6.67356 46.5331 5.59947C45.2188 3.90146 43.4322 3.34862 41.3938 3.45129C40.229 3.51447 39.0721 3.66453 37.9151 3.80669C37.1596 3.90146 36.4119 4.05941 35.6406 4.18578C36.3175 8.57691 36.9786 12.8812 37.6397 17.1854C38.9855 17.0038 40.2841 16.8142 41.5827 16.6484C41.8267 16.6168 41.8503 16.4983 41.8346 16.3088C41.7873 15.598 41.7401 14.8951 41.7165 14.1843C41.7008 13.7341 41.7165 13.2919 41.7165 12.7864C42.7475 14.2712 43.7549 15.7165 44.7702 17.1775ZM41.2994 8.86913C41.2364 8.2847 41.1892 7.83453 41.1341 7.28169C41.7716 7.28169 42.3697 7.26589 42.96 7.28958C43.2355 7.30538 43.5109 7.43174 43.5582 7.75555C43.6054 8.07936 43.3929 8.29259 43.1253 8.37947C42.5429 8.56902 41.9526 8.69538 41.2994 8.86913Z" fill="white"/>
<path d="M28.8589 7.88328C28.9219 8.29397 28.977 8.67306 29.0242 9.04425C30.37 9.04425 31.6922 9.04425 33.0538 9.04425C32.9593 9.84982 32.8806 10.6554 32.7704 11.461C32.7547 11.5478 32.5579 11.6584 32.432 11.6742C31.401 11.769 30.37 11.8479 29.2996 11.9348C29.3469 12.4245 29.3862 12.8904 29.4334 13.4196C31.3302 13.3011 33.2191 13.1748 35.163 13.0484C35.1551 13.1985 35.1551 13.3406 35.1315 13.4749C34.982 14.4621 34.8167 15.4493 34.6908 16.4365C34.6436 16.8077 34.5019 16.9736 34.1084 16.9815C32.314 17.0289 30.5195 17.1157 28.733 17.171C27.7807 17.2026 26.8205 17.2105 25.8682 17.2263C25.7265 17.2263 25.5849 17.2263 25.4117 17.2263C24.9867 12.8825 24.5617 8.57828 24.1367 4.22664C27.8043 3.95022 31.4246 3.68169 35.1158 3.40527C35.0528 3.93442 34.9977 4.42408 34.9426 4.91374C34.8639 5.63243 34.7695 6.35113 34.7065 7.06982C34.6829 7.32255 34.5649 7.35414 34.3524 7.36993C32.6288 7.51999 30.9052 7.68584 29.1895 7.8438C29.095 7.8359 29.0084 7.85959 28.8589 7.88328Z" fill="white"/>
<path d="M16.3675 3.72934C16.8869 5.5932 17.3906 7.39388 17.8943 9.18667C17.9179 9.18667 17.9415 9.18667 17.9651 9.19456C18.3823 7.26752 18.7915 5.34047 19.2165 3.38184C20.6174 4.12422 21.9869 4.84292 23.3406 5.5774C23.4271 5.62479 23.498 5.83803 23.4665 5.9407C22.3332 9.61314 21.1841 13.2777 20.0429 16.9422C19.9799 17.1555 19.8697 17.2187 19.6494 17.2187C18.5475 17.2108 17.4457 17.2029 16.3439 17.2187C16.0999 17.2187 16.0054 17.1239 15.9346 16.9106C14.6596 13.3251 13.3846 9.7474 12.1018 6.16973C12.0073 5.90121 12.0545 5.76695 12.3064 5.64848C13.6365 5.03246 14.9587 4.40064 16.3675 3.72934Z" fill="white"/>
<path d="M5.27228 9.04345C6.63385 9.04345 7.94032 9.04345 9.30188 9.04345C9.23892 9.61998 9.18382 10.2123 9.10512 10.8046C9.00281 11.6181 8.99494 11.626 8.16068 11.7129C7.30282 11.7919 6.44496 11.8629 5.54774 11.934C5.59497 12.4316 5.63432 12.8975 5.68154 13.4109C7.58615 13.2845 9.47503 13.1661 11.3954 13.0397C11.3954 13.174 11.4111 13.2845 11.3954 13.3951C11.2458 14.4218 11.0727 15.4406 10.9389 16.4752C10.8917 16.8306 10.7421 16.957 10.3959 16.9649C8.86114 17.0123 7.3343 17.0833 5.79959 17.1307C4.5797 17.1702 3.3598 17.186 2.14777 17.2097C2.00611 17.2097 1.86444 17.2097 1.65981 17.2097C1.22695 12.8817 0.80195 8.56958 0.376953 4.21004C4.05239 3.93362 7.67273 3.66509 11.356 3.38867C11.2931 3.9731 11.238 4.51805 11.175 5.06299C11.0963 5.7264 11.0097 6.38981 10.9546 7.06112C10.931 7.32174 10.7972 7.33754 10.5926 7.35333C8.86901 7.50339 7.14542 7.66924 5.42969 7.82719C5.34312 7.83509 5.24867 7.85879 5.12275 7.88248C5.16997 8.28526 5.21719 8.66435 5.27228 9.04345Z" fill="white"/>
<path d="M123.367 15.6626C123.816 14.6596 124.249 13.696 124.682 12.7483C125.594 13.0405 126.468 13.3406 127.357 13.5934C127.719 13.696 128.105 13.7355 128.483 13.7118C128.672 13.7039 128.916 13.5302 129.018 13.3643C129.065 13.2775 128.9 12.9537 128.758 12.8747C127.696 12.3139 126.618 11.7769 125.532 11.2635C124.792 10.916 124.162 10.4422 123.682 9.77877C122.753 8.49144 122.612 6.01156 124.327 4.61366C125.406 3.73701 126.586 3.35792 127.956 3.38951C129.876 3.4369 131.537 4.1398 133.103 5.23758C132.536 6.27218 131.985 7.28309 131.442 8.27821C130.584 7.9623 129.774 7.64639 128.947 7.36997C128.554 7.23571 128.137 7.18042 127.719 7.11724C127.546 7.09355 127.35 7.12514 127.184 7.18042C126.814 7.30679 126.688 7.72537 127.003 7.9386C127.468 8.26241 127.979 8.53093 128.514 8.72838C130.002 9.28122 131.387 9.99201 132.536 11.1214C133.37 11.9506 133.74 12.9458 133.606 14.1225C133.528 14.8096 133.189 15.3546 132.693 15.8205C131.851 16.6024 130.836 16.9973 129.703 17.1868C127.373 17.5817 125.351 16.8314 123.367 15.6626Z" fill="white"/>
<path d="M97.5116 5.59977C96.5278 6.42903 95.5676 7.2346 94.7098 7.96119C94.025 7.79534 93.4348 7.5584 92.8366 7.52681C91.3255 7.43994 90.3339 8.2692 90.0033 9.75397C89.8459 10.4411 89.9403 11.0808 90.263 11.6968C90.7667 12.684 92.4982 13.1421 93.2695 12.0759C92.7894 11.9653 92.325 11.8627 91.8292 11.7521C91.9079 11.2229 91.9709 10.7175 92.0575 10.2199C92.0732 10.1331 92.1834 10.0067 92.2621 9.9988C93.7102 9.79346 95.1662 9.60392 96.6222 9.41437C96.6458 9.41437 96.6695 9.43017 96.7324 9.45386C96.9843 11.0097 97.1181 12.5814 96.5042 14.1214C95.7408 16.0485 93.3246 17.3674 91.1051 17.3121C89.6964 17.2805 88.6575 16.6803 87.8705 15.5509C86.4617 13.537 86.2256 11.3098 86.6584 8.9642C86.926 7.49522 87.5635 6.20789 88.6181 5.1417C90.263 3.48318 92.2621 3.08039 94.4736 3.47528C95.788 3.69642 96.7875 4.41511 97.5116 5.59977Z" fill="white"/>
<path d="M55.9862 3.65686C54.4043 3.25408 52.7594 3.28567 51.146 3.57789C50.2802 3.73584 49.4302 3.99646 48.5566 4.2097C49.2177 8.69561 49.871 13.0789 50.5242 17.4779C50.6029 17.4937 50.6344 17.5095 50.6737 17.5095C53.8848 17.5174 56.6867 16.5381 58.9061 14.1135C60.1968 12.6998 60.8894 11.0412 60.8579 9.14578C60.8107 6.26311 58.8274 4.38345 55.9862 3.65686ZM56.9779 10.2357C56.5686 11.5862 55.7265 12.5339 54.3807 13.142C54.1603 11.0886 53.9399 9.0984 53.7196 7.06868C54.7742 6.91862 55.7107 7.05288 56.4584 7.79527C57.1589 8.47448 57.2533 9.31953 56.9779 10.2357Z" fill="white"/>
<path d="M69.2579 7.77174C69.2343 7.60589 68.9746 7.35316 68.8014 7.33737C68.1639 7.28208 67.5186 7.31367 66.8496 7.31367C66.9047 7.84282 66.9519 8.2772 67.007 8.76686C67.7075 8.72737 68.3607 8.67208 68.9352 8.31668C69.1084 8.22191 69.2815 7.94549 69.2579 7.77174ZM68.8329 7.906C68.8251 7.9139 68.8093 7.9218 68.8014 7.93759C68.7857 7.95339 68.7621 7.96918 68.7464 7.98498C68.7306 7.99288 68.7149 8.00867 68.6991 8.01657C68.6913 8.02447 68.6834 8.03237 68.6677 8.03237C68.6598 8.04026 68.644 8.04816 68.6362 8.04816C68.6204 8.05606 68.6126 8.06396 68.5968 8.07185C68.5732 8.08765 68.5496 8.09555 68.526 8.10345C68.4788 8.12714 68.4315 8.14293 68.3843 8.15873C68.3607 8.16663 68.345 8.17453 68.3214 8.18242C68.282 8.19822 68.2427 8.20612 68.1954 8.21401C68.164 8.22191 68.1403 8.22981 68.1089 8.22981C68.0852 8.23771 68.0616 8.23771 68.038 8.24561C67.9829 8.2535 67.92 8.2693 67.857 8.2772C67.794 8.28509 67.739 8.29299 67.676 8.30089C67.6366 8.30879 67.5973 8.31668 67.5579 8.31668C67.4871 8.32458 67.4163 8.34038 67.3533 8.35617C67.3297 8.11924 67.3061 7.9218 67.2903 7.71646H68.8644C68.8723 7.75595 68.8801 7.80333 68.8801 7.84282C68.8723 7.87441 68.8565 7.89021 68.8329 7.906Z" fill="black"/>
<path d="M80.5727 10.2996C80.1399 10.1732 79.9352 10.2996 79.8251 10.7261C79.644 11.4053 79.3922 12.0608 79.1797 12.7084H81.2968C81.0371 11.8555 80.801 11.0657 80.5727 10.2996ZM80.2737 10.6392C80.4547 11.2552 80.6042 11.7607 80.7616 12.3056H79.7149C79.8959 11.7765 80.069 11.2552 80.2737 10.6392Z" fill="black"/>
<path d="M43.5588 7.76364C43.5116 7.43194 43.2361 7.30558 42.9607 7.29768C42.3704 7.26609 41.7723 7.28978 41.1348 7.28978C41.1899 7.83472 41.2371 8.28489 41.3 8.87722C41.9533 8.70347 42.5514 8.57711 43.126 8.39546C43.3935 8.30069 43.606 8.08745 43.5588 7.76364ZM41.6463 8.37177C41.6306 8.22171 41.6227 8.13484 41.6149 8.04796C41.607 7.94529 41.5991 7.84262 41.5834 7.67677C42.1264 7.68467 42.6537 7.5583 43.2283 7.79523C42.7639 8.277 42.1973 8.2454 41.6463 8.37177Z" fill="black"/>
<path d="M56.4674 7.79542C55.7197 7.05303 54.7753 6.92667 53.7285 7.06883C53.9489 9.09854 54.1693 11.0888 54.3896 13.1422C55.7354 12.542 56.5776 11.5863 56.9868 10.2358C57.2544 9.31968 57.16 8.47462 56.4674 7.79542ZM56.7114 9.41445C56.7035 9.49343 56.7035 9.5724 56.6878 9.64348C56.6878 9.67508 56.6799 9.70667 56.672 9.73826C56.672 9.76195 56.6641 9.77775 56.6641 9.80144C56.6563 9.84093 56.6563 9.87252 56.6484 9.90411C56.6405 9.9436 56.6327 9.98309 56.6248 10.0226C56.6248 10.0226 56.6248 10.0226 56.6248 10.0305C56.6169 10.07 56.609 10.1095 56.6012 10.141C56.5933 10.1805 56.5854 10.22 56.5697 10.2595C56.5618 10.299 56.5461 10.3385 56.5382 10.3701C56.5225 10.4175 56.5067 10.457 56.491 10.4964C56.4753 10.5359 56.4595 10.5833 56.4438 10.6228C56.428 10.6623 56.4123 10.7018 56.3887 10.7492C56.3729 10.7887 56.3493 10.8281 56.3257 10.8755C56.3178 10.8913 56.31 10.9071 56.3021 10.9229C56.2706 10.9782 56.2391 11.0335 56.2077 11.0888C56.1998 11.1046 56.1919 11.1204 56.1762 11.1362C56.1604 11.1598 56.1447 11.1914 56.1211 11.2151C56.0188 11.3652 55.9086 11.5152 55.7827 11.6495C55.7748 11.6574 55.7669 11.6653 55.7591 11.6811C55.7512 11.6969 55.7433 11.6969 55.7276 11.7127C55.7118 11.7364 55.6882 11.7522 55.6646 11.7759C55.6489 11.7996 55.6253 11.8154 55.6017 11.8391C55.5466 11.8943 55.4836 11.9496 55.4206 12.0049C55.3813 12.0444 55.3419 12.076 55.2947 12.1155C55.2554 12.1471 55.2081 12.1866 55.1688 12.2181C55.1373 12.2418 55.1137 12.2655 55.0822 12.2813C55.0507 12.305 55.0114 12.3287 54.9799 12.3524C54.9484 12.3761 54.9248 12.3919 54.8933 12.4156C54.8618 12.4393 54.8304 12.463 54.7989 12.4788C54.7674 12.5025 54.7359 12.5183 54.7044 12.542C54.5155 10.7966 54.3345 9.13013 54.1535 7.47161C54.1771 7.46371 54.1929 7.46371 54.2165 7.45581C54.2558 7.44792 54.2952 7.44002 54.3267 7.43212C54.3503 7.42422 54.3818 7.42422 54.4054 7.41633C54.5234 7.40053 54.6415 7.39263 54.7595 7.40053C54.791 7.40053 54.8225 7.40053 54.854 7.40843C54.9878 7.42422 55.1137 7.44792 55.2396 7.4874C55.2711 7.4953 55.3026 7.5032 55.3341 7.519C55.3655 7.52689 55.397 7.54269 55.4285 7.55059C55.46 7.55848 55.4915 7.57428 55.5151 7.59008C55.5466 7.60587 55.578 7.61377 55.6017 7.62956C55.6331 7.64536 55.6567 7.66115 55.6882 7.67695C55.7197 7.69275 55.7433 7.70854 55.7669 7.72434C55.7984 7.74013 55.822 7.75593 55.8456 7.77962C55.8929 7.81121 55.9401 7.8428 55.9873 7.88229C56.003 7.89019 56.0109 7.90598 56.0266 7.91388C56.0503 7.92968 56.066 7.95337 56.0896 7.96917C56.1053 7.97706 56.1132 7.99286 56.129 8.00866C56.1447 8.02445 56.1526 8.03235 56.1683 8.04814C56.1998 8.07973 56.2391 8.11922 56.2706 8.15871C56.2864 8.17451 56.3021 8.1982 56.3178 8.22189C56.3336 8.23769 56.3415 8.25348 56.3572 8.26928C56.3651 8.28508 56.3808 8.30087 56.3887 8.31667C56.3966 8.32456 56.3965 8.33246 56.4044 8.34036C56.4123 8.35615 56.4202 8.36405 56.428 8.37985C56.4359 8.39564 56.4516 8.41144 56.4595 8.43513C56.4831 8.46672 56.4989 8.50621 56.5225 8.5457C56.5303 8.5615 56.5382 8.57729 56.5461 8.59309C56.554 8.60888 56.5618 8.62468 56.5697 8.64837C56.5776 8.66417 56.5854 8.67996 56.5854 8.69576C56.5933 8.71945 56.6012 8.73525 56.6091 8.75894C56.6091 8.76684 56.6169 8.77473 56.6169 8.78263C56.6248 8.79843 56.6327 8.82212 56.6327 8.83792C56.6327 8.84581 56.6327 8.85371 56.6405 8.85371C56.6563 8.909 56.672 8.95638 56.6799 9.01167C56.6799 9.01956 56.6799 9.03536 56.6878 9.04326C56.6878 9.05905 56.6956 9.08275 56.6956 9.10644C56.6956 9.11434 56.6956 9.12223 56.7035 9.13803C56.7035 9.16962 56.7114 9.19331 56.7114 9.2249C56.7114 9.2565 56.7114 9.28809 56.7114 9.31968C56.7192 9.35127 56.7192 9.38286 56.7114 9.41445Z" fill="black"/>
<path d="M67.3691 8.36371C67.44 8.34791 67.5108 8.34001 67.5738 8.32422C67.5108 8.34001 67.44 8.35581 67.3691 8.36371Z" fill="white"/>
<path d="M68.3906 8.16661C68.4378 8.15082 68.4851 8.12712 68.5323 8.11133C68.4929 8.13502 68.4457 8.15082 68.3906 8.16661Z" fill="white"/>
<path d="M55.4375 12.0135C55.5005 11.9582 55.5556 11.9029 55.6185 11.8477C55.5634 11.9029 55.5005 11.9582 55.4375 12.0135Z" fill="white"/>
<path d="M56.6897 9.01147C56.6819 8.95619 56.6661 8.9009 56.6504 8.85352C56.6661 8.9009 56.6819 8.95619 56.6897 9.01147Z" fill="white"/>
</svg>
