<svg width="48" height="48" viewBox="0 0 48 48" fill="none" xmlns="http://www.w3.org/2000/svg">
<path fill-rule="evenodd" clip-rule="evenodd" d="M30.3632 19.3455C32.6147 22.5331 32.1847 26.8676 29.3512 29.524C26.931 31.784 23.4313 32.29 20.4882 30.7889C18.3632 29.7011 16.8621 27.7109 16.3814 25.3244C16.2296 24.5654 16.2296 23.1487 16.3814 22.3982C16.5248 21.6561 16.7187 21.1248 17.0814 20.3827C18.5318 17.4649 21.6773 15.7615 24.9155 16.1494C26.2563 16.3096 27.4538 16.765 28.5585 17.5408C29.132 17.9372 29.9753 18.7805 30.3632 19.3455Z" fill="white"/>
<path fill-rule="evenodd" clip-rule="evenodd" d="M23.9961 0C10.7396 0 -0.00390625 10.7435 -0.00390625 24C-0.00390625 37.2565 10.7396 48 23.9961 48C37.2526 48 47.9961 37.2565 47.9961 24C47.9961 10.7519 37.2526 0 23.9961 0ZM35.7431 39.2298C35.7094 39.213 32.3363 36.0085 31.4339 35.1314L31.0207 34.7267L30.6328 34.9628C29.1402 35.8651 27.3187 36.4807 25.4803 36.6915C24.5274 36.8096 22.8239 36.7674 21.9301 36.6072C20.1507 36.2868 18.54 35.6796 17.1655 34.8026L16.8956 34.6339L16.6089 34.9206C16.4571 35.0808 15.4536 36.135 14.3826 37.2565L12.4346 39.2889L12.3081 39.1792C11.9792 38.9094 8.53862 35.5868 8.53862 35.5531C8.55548 35.5362 9.559 34.4652 10.7902 33.1834C12.0214 31.8932 13.0418 30.8138 13.0587 30.7801C13.0755 30.7463 12.9996 30.5608 12.831 30.2741C12.4852 29.6922 12.0804 28.8068 11.8443 28.1153C10.5878 24.4554 11.001 20.4751 12.9996 17.1694L13.2273 16.7899L13.1008 16.6718C13.0334 16.6128 12.0551 15.6768 10.9336 14.6058C9.82042 13.5517 8.90966 12.6578 8.90966 12.624C8.9181 12.6072 9.75295 11.7133 10.7649 10.6507L12.5948 8.69431L12.9659 9.05693C13.1683 9.25932 14.02 10.0689 14.8549 10.8616C15.6897 11.6627 16.533 12.4554 16.7185 12.6409L17.0643 12.9782L17.3679 12.7927C17.5365 12.6915 17.9666 12.4554 18.3376 12.2783C19.6194 11.6374 20.8759 11.2579 22.4107 11.0387C23.0516 10.9459 25.1261 10.9628 25.8176 11.064C27.15 11.2579 28.2969 11.6037 29.5281 12.1687C29.9329 12.3542 30.6581 12.7505 30.9448 12.9445C31.046 13.0204 31.1556 13.071 31.1725 13.0626C31.1978 13.0541 32.1423 12.0759 33.2807 10.8869C34.4192 9.6894 35.3721 8.71961 35.4058 8.71961C35.4564 8.71961 39.2512 12.3036 39.285 12.3879C39.285 12.4217 38.3152 13.4589 37.1346 14.6901L34.9673 16.9586L35.1275 17.2368C35.4564 17.7934 36.0214 19.0077 36.207 19.5475C37.4888 23.2326 37.0755 27.2298 35.0938 30.5271L34.8577 30.915L35.3721 31.4041C36.9237 32.863 39.462 35.3001 39.4705 35.3254C39.462 35.3844 35.7853 39.2298 35.7431 39.2298Z" fill="white"/>
</svg>
