<svg width="114" height="35" viewBox="0 0 114 35" fill="none" xmlns="http://www.w3.org/2000/svg">
<path d="M56.8545 13.2414V18.0337H66.6432V22.7953H56.8545V30.2676H50.582V8.47658H67.9728V13.2414H56.8545Z" fill="white"/>
<path d="M77.065 13.3665H70.2539V8.47756H90.1161V13.3665H83.3375V30.2686H77.065V13.3665Z" fill="white"/>
<path d="M106.777 30.2686L102.183 23.5121L97.6538 30.2686H90.4941L98.5722 19.249L90.8427 8.47756H97.9063L102.342 14.7674L106.713 8.47756H113.493L105.763 18.9998L114 30.2686H106.777Z" fill="white"/>
<path d="M11.6426 34.9863H21.1061V25.6905H11.6426V34.9863Z" fill="white"/>
<path d="M29.5015 12.8405H11.6426V22.1396H29.5026H32.7506V12.8438H29.5026V12.8405" fill="white"/>
<path d="M11.6426 3.14713e-05V9.2959H40.9571V3.14713e-05H11.6426Z" fill="white"/>
<path d="M0 22.1396H9.46016V12.8405H0V22.1396Z" fill="white"/>
</svg>
