<svg width="120" height="30" viewBox="0 0 120 30" fill="none" xmlns="http://www.w3.org/2000/svg">
<path d="M20.3437 18.4885C20.3437 24.4866 16.1853 29.0254 10.8751 29.4088C5.52861 29.7922 0.812502 25.847 0.0972061 20.4055C-0.218009 17.9815 0.291185 15.7554 1.49143 13.6653C1.74602 13.2077 1.97637 13.1954 2.38858 13.4427C4.78906 14.8897 7.20167 16.2996 9.59003 17.7465C10.0022 17.9939 10.3175 18.0186 10.7418 17.7589C13.118 16.3243 15.5185 14.9268 17.8947 13.4798C18.3918 13.183 18.6343 13.2201 18.9253 13.7395C19.8588 15.3967 20.3316 17.1776 20.3437 18.4885Z" fill="white"/>
<path d="M90.5759 12.8739C89.6424 9.42347 87.3025 7.30867 83.8109 6.71505C81.9439 6.3935 80.0283 6.66558 78.1249 6.60374C77.6763 6.59138 77.543 6.72741 77.543 7.185C77.5672 9.78212 77.5551 12.3669 77.5551 14.964C77.5551 17.5735 77.5672 20.1829 77.543 22.8048C77.543 23.2624 77.6521 23.4108 78.1128 23.3984C79.5919 23.3737 81.0588 23.3737 82.5379 23.3984C84.4535 23.4355 86.1629 22.8419 87.6299 21.6175C90.3698 19.3049 91.5094 16.3738 90.5759 12.8739ZM83.5078 20.2448C82.6713 20.3932 81.8226 20.2819 80.974 20.2942C80.6103 20.3066 80.6951 20.0222 80.6951 19.8119C80.6951 18.1918 80.6951 16.5717 80.6951 14.9392C80.6951 13.4181 80.7315 11.8969 80.683 10.3757C80.6588 9.75738 80.8649 9.58424 81.4225 9.65844C81.7984 9.69555 82.1863 9.67081 82.5743 9.67081C85.2051 9.67081 87.4723 11.7485 87.7026 14.3456C87.9572 17.2148 86.175 19.7625 83.5078 20.2448Z" fill="white"/>
<path d="M118.425 9.91838C115.6 5.93614 110.447 5.26831 106.883 8.50852C104.579 10.5986 103.755 13.307 104.179 16.4235C104.713 20.3934 108.119 23.4852 111.975 23.4976C112.726 23.5099 113.466 23.411 114.181 23.1884C119.552 21.5683 121.771 14.6427 118.425 9.91838ZM115.309 19.0454C113.999 20.3687 112.399 20.7768 110.629 20.2079C108.726 19.6019 107.756 18.1178 107.319 16.2257C107.222 15.8052 107.174 15.3723 107.198 14.9395C107.222 13.542 107.635 12.2805 108.544 11.2046C110.399 9.00321 113.539 8.96611 115.454 11.118C117.394 13.2946 117.346 16.9801 115.309 19.0454Z" fill="white"/>
<path d="M38.0193 13.4923C38.0193 15.5452 38.0315 17.6106 38.0072 19.6635C37.9951 20.1706 38.1163 20.3314 38.6255 20.319C40.7835 20.2819 42.9415 20.319 45.0996 20.2943C45.5603 20.2943 45.7542 20.3932 45.7179 20.9002C45.6815 21.5557 45.6936 22.2112 45.7179 22.879C45.73 23.2253 45.6451 23.3861 45.2572 23.3861C41.9474 23.3737 38.6376 23.3737 35.3279 23.3861C35.0005 23.3861 34.8672 23.2995 34.8672 22.9408C34.8793 17.6353 34.8793 12.3298 34.8672 7.02423C34.8672 6.69032 34.9763 6.60375 35.2915 6.60375C36.0432 6.61611 36.7827 6.62848 37.5344 6.60375C37.9587 6.57901 38.0315 6.76452 38.0315 7.1479C38.0193 9.25033 38.0193 11.3775 38.0193 13.4923Z" fill="white"/>
<path d="M17.0577 10.7471C15.9787 9.07753 14.9482 7.39559 13.8934 5.71365C12.7659 3.93277 11.6506 2.15189 10.5352 0.371016C10.4382 0.22261 10.3897 0.0247344 10.1715 0C10.0017 0.0618361 9.929 0.22261 9.84414 0.358649C7.66188 3.83384 5.47962 7.32139 3.29736 10.7966C3.07913 11.1429 3.07913 11.3531 3.46709 11.5757C5.56448 12.8001 7.64975 14.0492 9.74715 15.2982C10.0624 15.4837 10.317 15.5085 10.6443 15.3106C12.7053 14.0615 14.7785 12.8372 16.8637 11.6128C17.2396 11.3655 17.3244 11.18 17.0577 10.7471ZM14.7785 10.9821C13.36 11.8107 11.9537 12.6517 10.5473 13.4926C10.2927 13.641 10.0624 13.641 9.80777 13.4926C8.40142 12.6393 6.99508 11.7983 5.57661 10.9697C5.26139 10.7842 5.26139 10.6234 5.44325 10.339C6.92233 7.98922 8.40142 5.62708 9.88051 3.27731C9.95325 3.16601 10.0502 3.0547 10.123 2.96813C10.3291 2.96813 10.3897 3.11654 10.4624 3.24021C11.9537 5.61471 13.4327 7.98922 14.9361 10.3514C15.1179 10.6358 15.0816 10.8089 14.7785 10.9821Z" fill="white"/>
<path d="M62.558 14.989C62.558 17.5737 62.5459 20.1708 62.5701 22.7556C62.5701 23.2379 62.4489 23.4111 61.9639 23.374C61.2971 23.3368 60.6303 23.3368 59.9635 23.374C59.5271 23.3987 59.418 23.2379 59.418 22.8174C59.4301 20.2698 59.4301 17.7221 59.4301 15.1745C59.4301 12.5279 59.4422 9.86896 59.418 7.22237C59.418 6.74005 59.5392 6.57928 60.0242 6.60401C60.691 6.64112 61.3578 6.64112 62.0246 6.60401C62.461 6.57928 62.5701 6.74005 62.558 7.16054C62.558 9.77002 62.558 12.3795 62.558 14.989Z" fill="white"/>
</svg>
