<svg width="100" height="40" viewBox="0 0 100 40" fill="none" xmlns="http://www.w3.org/2000/svg">
<path d="M24.6458 11.0398C20.4145 12.1107 16.1832 13.1033 11.9257 14.0174C9.88843 14.4615 8.79142 15.4279 9.00037 17.5697C9.05261 18.0659 9.02649 18.5622 9.00037 19.0585C8.89589 25.7711 9.83619 24.4129 2.60114 26.189C1.13846 26.5547 0.354884 25.8756 0.198168 24.4652C0.145929 24.0472 0.145929 22.3756 0.145929 21.9577C0.0675713 15.5846 -1.31675 16.8906 6.3362 15.1928C8.24291 14.7749 8.68694 13.9391 7.77277 12.2413C6.98919 10.7786 6.38844 9.2376 5.57874 7.80104C4.63845 6.1294 5.21307 5.47642 6.93695 5.08463C8.94813 4.61449 10.9593 4.14434 12.9705 3.67419C16.6272 2.81225 20.2578 1.95032 23.9145 1.06226C24.4108 0.931665 24.9331 0.827187 25.4294 0.696591L27.8063 0.121966C29.3734 -0.269824 30.0264 0.278682 29.948 1.81972C29.948 1.89808 29.948 1.97644 29.948 2.08091C29.7913 10.5958 31.0189 9.62939 24.6458 11.0398Z" fill="white"/>
<path d="M100 29.8978C98.5897 29.8978 97.1792 29.8978 95.5859 29.8978C95.5859 23.2896 95.5859 16.8381 95.5859 10.0732C97.0486 10.0732 98.5113 10.0732 100 10.0732C100 16.6553 100 23.2635 100 29.8978Z" fill="white"/>
<path d="M0.251947 34.7298C0.304185 28.9835 -0.427155 30.2111 4.95342 28.8791C7.06908 28.3567 9.18475 27.8865 11.3004 27.4164C14.5131 26.685 14.6959 26.3455 13.3116 23.4985C12.737 22.297 12.1885 21.0955 11.5877 19.9201C10.778 18.3791 11.1176 17.4388 12.8937 17.0209C17.6213 15.9239 22.3228 14.8269 27.0242 13.6776C28.5914 13.2858 29.2444 13.8343 29.166 15.3754C29.166 15.4537 29.166 15.5321 29.166 15.6105C29.0093 24.935 30.5242 22.8716 21.8526 25.0656C20.3899 25.4313 18.9272 25.7709 17.4646 26.1104C15.7668 26.5022 15.2444 27.3903 16.0541 28.9835C16.8638 30.5246 17.5429 32.1179 18.3526 33.6589C19.0578 34.991 18.9011 35.8268 17.2817 36.1925C12.2407 37.3156 7.19968 38.491 2.15866 39.6402C0.852691 39.9536 0.251947 39.4574 0.251947 38.1775C0.251947 37.0283 0.251947 35.879 0.251947 34.7298Z" fill="white"/>
<path d="M23.9127 1.0625C20.256 1.95056 16.6255 2.81249 12.9688 3.67443C13.1516 3.59607 13.3867 3.51771 13.6479 3.46548C17.0695 2.6819 20.4911 1.89832 23.9127 1.0625Z" fill="white"/>
<path d="M77.2773 10.126C82.24 10.126 87.0198 10.126 92.0086 10.126C92.0086 11.3275 92.0086 12.5028 92.0086 13.9655C88.7437 13.9655 85.4527 13.9655 81.9788 13.9655C81.9788 15.4282 81.9788 16.6036 81.9788 18.1185C84.9825 18.1185 88.0385 18.1185 91.2512 18.1185C91.2512 19.555 91.2512 20.6521 91.2512 22.0625C88.1952 22.0625 85.1393 22.0625 81.7699 22.0625C81.7699 24.805 81.7699 27.2341 81.7699 29.7677C80.1244 29.7677 78.8184 29.7677 77.2773 29.7677C77.2773 23.2901 77.2773 16.8386 77.2773 10.126Z" fill="white"/>
<path d="M43.7917 10.2041C45.3067 10.2041 46.6126 10.2041 48.1798 10.2041C48.1798 15.3235 48.1798 20.3123 48.1798 25.5884C51.5753 25.5884 54.7096 25.5884 58.0268 25.5884C58.0268 27.051 58.0268 28.2525 58.0268 29.663C53.4036 29.663 48.7022 29.663 43.7656 29.663C43.7917 23.2637 43.7917 16.8123 43.7917 10.2041Z" fill="white"/>
<path d="M65.7054 10.2041C65.7054 16.7078 65.7054 23.107 65.7054 29.6891C64.3472 29.6891 62.9629 29.6891 61.4219 29.6891C61.4219 23.2638 61.4219 16.8123 61.4219 10.2041C62.8584 10.2041 64.2166 10.2041 65.7054 10.2041Z" fill="white"/>
<path d="M69.4668 29.7675C69.4668 28.3309 69.4668 27.0511 69.4668 25.6406C70.825 25.6406 72.0526 25.6406 73.4892 25.6406C73.4892 26.9727 73.4892 28.3048 73.4892 29.7675C72.1832 29.7675 70.9556 29.7675 69.4668 29.7675Z" fill="white"/>
</svg>
