<svg width="120" height="12" viewBox="0 0 120 12" fill="none" xmlns="http://www.w3.org/2000/svg">
<g clip-path="url(#clip0_1957_2372)">
<path fill-rule="evenodd" clip-rule="evenodd" d="M8.19502 8.21305C8.26506 8.09606 8.28841 7.93227 8.21837 7.81527L3.78257 0.163793C3.71253 0.070197 3.5958 0 3.45572 0H0.350666C0.0705101 0 -0.092914 0.304187 0.0471638 0.538177L5.86039 10.7167C6.00047 10.9507 6.30397 10.9507 6.4674 10.7401L8.19502 8.21305ZM16.2262 11.2315C16.5063 11.2315 16.6697 10.9273 16.5297 10.6933L10.553 0.187192C10.483 0.070197 10.3662 0 10.2495 0H7.12109C6.84094 0 6.67751 0.304187 6.81759 0.538177L12.8176 11.0443C12.8876 11.1613 13.0044 11.2315 13.1211 11.2315H16.2262ZM2.80203 10.5764C2.94211 10.8103 2.77868 11.1379 2.49853 11.1379H0.374012C0.187242 11.1379 0.0238175 10.9741 0.0238175 10.7635V7.0899C0.0238175 6.71552 0.490744 6.57512 0.677514 6.90271L2.80203 10.5764ZM24.2339 11.2315H22.4129V0H24.2106L29.2767 8.86823L34.3429 0H36.1406V11.2315H34.3195V3.81404L30.0472 11.2315H28.483L24.2339 3.81404V11.2315ZM47.4869 11.2315H40.3896V0H47.4635V1.82512H42.2106V4.7032H47.4635V6.52833H42.2106V9.4064H47.4635V11.2315H47.4869ZM54.4907 11.2315H56.3118V1.82512H60.5608V0H50.2417V1.82512H54.4907V11.2315ZM73.518 11.2315H71.5102L70.5997 9.26601H64.2028L63.2923 11.2315H61.2845L66.5141 0H68.2884L73.518 11.2315ZM67.4013 2.3867L65.0666 7.44089H69.7592L67.4013 2.3867ZM76.6931 11.2315H78.5141V7.69828H80.8721C83.1133 7.69828 84.7476 6.08374 84.7476 3.83744C84.7476 1.63793 83.1133 0 80.8721 0H76.6697V11.2315H76.6931ZM78.5141 5.87315V1.82512H80.8721C82.0627 1.82512 82.9032 2.66749 82.9032 3.83744C82.9032 5.00739 82.0627 5.84975 80.8721 5.84975H78.5141V5.87315ZM95.3935 11.2315H88.2028V0H90.0238V9.4064H95.3701V11.2315H95.3935ZM98.5919 11.2315H105.666V9.4064H100.413V6.52833H105.666V4.7032H100.413V1.82512H105.666V0H98.5919V11.2315ZM110.919 11.2315H108.561L113.113 5.61576L108.561 0H110.919L114.281 4.16502L117.666 0H120L115.448 5.61576L120 11.2315H117.642L114.281 7.0665L110.919 11.2315Z" fill="white"/>
</g>
<defs>
<clipPath id="clip0_1957_2372">
<rect width="120" height="11.2315" fill="white"/>
</clipPath>
</defs>
</svg>
