<svg width="124" height="22" viewBox="0 0 124 22" fill="none" xmlns="http://www.w3.org/2000/svg">
<path d="M109.526 11.0695C108.868 10.6533 108.182 10.3759 107.495 9.98749C107.066 9.7378 106.609 9.5436 106.208 9.23843C105.55 8.73907 105.693 7.71258 106.38 7.2687C107.352 6.65836 108.954 6.99127 109.126 8.26744C109.126 8.29518 109.155 8.32292 109.183 8.32292H110.642C110.671 8.32292 110.699 8.29518 110.699 8.26744C110.613 7.37967 110.27 6.65836 109.641 6.18673C109.012 5.74285 108.325 5.49316 107.581 5.49316C103.72 5.49316 103.376 9.43263 105.465 10.6811C105.693 10.8198 107.724 11.8185 108.468 12.2347C109.183 12.6785 109.412 13.4553 109.097 14.0657C108.811 14.6205 108.068 15.0367 107.324 14.9812C106.523 14.9257 105.894 14.5096 105.665 13.8437C105.636 13.7328 105.608 13.4831 105.608 13.3998C105.608 13.3721 105.579 13.3444 105.55 13.3444H103.977C103.949 13.3444 103.92 13.3721 103.92 13.3998C103.92 14.5096 104.206 15.1199 104.978 15.6748C105.693 16.2019 106.494 16.4238 107.324 16.4238C109.469 16.4238 110.613 15.2309 110.814 14.0102C111.014 12.845 110.642 11.763 109.526 11.0695Z" fill="white"/>
<path d="M40.8756 5.6875H40.1891H39.4168C39.3882 5.6875 39.3596 5.71524 39.3596 5.71524L38.0438 9.87665C38.0152 9.93214 37.958 9.93214 37.9294 9.87665L36.6422 5.74299C36.6422 5.71524 36.6136 5.71524 36.585 5.71524H35.8127H35.1262H34.1822C34.1536 5.71524 34.125 5.74299 34.125 5.77073V16.3407C34.125 16.3685 34.1536 16.3962 34.1822 16.3962H35.7554C35.7841 16.3962 35.8127 16.3685 35.8127 16.3407V8.29532C35.8127 8.23983 35.8985 8.21209 35.9271 8.26758L37.2429 12.429L37.3287 12.7342C37.3287 12.7619 37.3573 12.7619 37.3859 12.7619H38.5873C38.6159 12.7619 38.6445 12.7342 38.6445 12.7342L38.7303 12.429L40.0461 8.26758C40.0747 8.21209 40.1605 8.21209 40.1605 8.29532V16.3407C40.1605 16.3685 40.1891 16.3962 40.2177 16.3962H41.791C41.8196 16.3962 41.8482 16.3685 41.8482 16.3407V5.74299C41.8482 5.71524 41.8196 5.6875 41.791 5.6875H40.8756Z" fill="white"/>
<path d="M85.327 5.6875C85.2984 5.6875 85.2698 5.71524 85.2698 5.71524L83.9826 9.84891C83.954 9.9044 83.8968 9.9044 83.8682 9.84891L82.581 5.71524C82.581 5.6875 82.5523 5.6875 82.5237 5.6875H80.0924C80.0638 5.6875 80.0352 5.71524 80.0352 5.74299V16.313C80.0352 16.3407 80.0638 16.3685 80.0924 16.3685H81.6656C81.6942 16.3685 81.7228 16.3407 81.7228 16.313V8.26758C81.7228 8.21209 81.8086 8.18435 81.8372 8.23983L83.153 12.4012L83.2389 12.7064C83.2389 12.7342 83.2675 12.7342 83.2961 12.7342H84.4974C84.526 12.7342 84.5547 12.7064 84.5547 12.7064L84.6405 12.4012L85.9563 8.23983C85.9849 8.18435 86.0707 8.18435 86.0707 8.26758V16.313C86.0707 16.3407 86.0993 16.3685 86.1279 16.3685H87.7011C87.7297 16.3685 87.7583 16.3407 87.7583 16.313V5.74299C87.7583 5.71524 87.7297 5.6875 87.7011 5.6875H85.327Z" fill="white"/>
<path d="M64.9038 5.6875H61.9576H60.3843H57.4381C57.4095 5.6875 57.3809 5.71524 57.3809 5.74299V7.07464C57.3809 7.10238 57.4095 7.13012 57.4381 7.13012H60.3271V16.3407C60.3271 16.3685 60.3557 16.3962 60.3843 16.3962H61.9576C61.9862 16.3962 62.0148 16.3685 62.0148 16.3407V7.13012H64.9038C64.9324 7.13012 64.961 7.10238 64.961 7.07464V5.74299C64.961 5.71524 64.961 5.6875 64.9038 5.6875Z" fill="white"/>
<path d="M74.2573 16.3679H75.6875C75.7161 16.3679 75.7447 16.3401 75.7447 16.2847L72.7699 5.68692C72.7699 5.65918 72.7413 5.65918 72.7127 5.65918H72.1692H71.1966H70.6532C70.6246 5.65918 70.596 5.68692 70.596 5.68692L67.6211 16.2847C67.6211 16.3124 67.6497 16.3679 67.6783 16.3679H69.1085C69.1371 16.3679 69.1657 16.3401 69.1657 16.3401L70.0239 13.2607C70.0239 13.2329 70.0525 13.2329 70.0811 13.2329H73.2562C73.2848 13.2329 73.3134 13.2607 73.3134 13.2607L74.1715 16.3401C74.2001 16.3401 74.2287 16.3679 74.2573 16.3679ZM70.4529 11.7071L71.5971 7.57343C71.6257 7.51794 71.6829 7.51794 71.7115 7.57343L72.8557 11.7071C72.8557 11.7348 72.8271 11.7903 72.7985 11.7903H70.4815C70.4815 11.7626 70.4529 11.7348 70.4529 11.7071Z" fill="white"/>
<path d="M98.8003 16.3679H100.23C100.259 16.3679 100.288 16.3401 100.288 16.2847L97.3129 5.68692C97.3129 5.65918 97.2842 5.65918 97.2556 5.65918H96.7122H95.7396H95.1961C95.1675 5.65918 95.1389 5.68692 95.1389 5.68692L92.1641 16.2847C92.1641 16.3124 92.1927 16.3679 92.2213 16.3679H93.6515C93.6801 16.3679 93.7087 16.3401 93.7087 16.3401L94.5668 13.2607C94.5668 13.2329 94.5954 13.2329 94.624 13.2329H97.8277C97.8563 13.2329 97.8849 13.2607 97.8849 13.2607L98.7431 16.3401C98.7431 16.3401 98.7717 16.3679 98.8003 16.3679ZM95.0245 11.7071L96.1687 7.57343C96.1973 7.51794 96.2545 7.51794 96.2831 7.57343L97.4273 11.7071C97.4273 11.7348 97.3987 11.7903 97.3701 11.7903H95.0531C95.0245 11.7626 94.9959 11.7348 95.0245 11.7071Z" fill="white"/>
<path d="M48.256 14.8149V11.5135C48.256 11.4857 48.2846 11.458 48.3132 11.458H52.5181C52.5467 11.458 52.5753 11.4302 52.5753 11.4025V10.0709C52.5753 10.0431 52.5467 10.0154 52.5181 10.0154H48.3132C48.2846 10.0154 48.256 9.98763 48.256 9.95988V7.18561C48.256 7.15787 48.2846 7.13012 48.3132 7.13012H53.1188C53.1474 7.13012 53.176 7.10238 53.176 7.07464V5.74299C53.176 5.71524 53.1474 5.6875 53.1188 5.6875H48.256H46.6256C46.597 5.6875 46.5684 5.71524 46.5684 5.74299V7.13012V10.0431V11.4857V14.8703V16.313C46.5684 16.3407 46.597 16.3685 46.6256 16.3685H48.256H53.2904C53.319 16.3685 53.3476 16.3407 53.3476 16.313V14.9258C53.3476 14.8981 53.319 14.8703 53.2904 14.8703H48.2846C48.2846 14.8703 48.256 14.8426 48.256 14.8149Z" fill="white"/>
<path d="M123.972 16.2852L118.509 10.8199C118.48 10.7922 118.48 10.7644 118.509 10.7367L123.428 5.79847C123.457 5.77073 123.428 5.71524 123.4 5.71524H121.369C121.34 5.71524 121.34 5.71524 121.34 5.74299L117.164 9.93214C117.135 9.95988 117.078 9.93214 117.078 9.9044V5.74299C117.078 5.71524 117.05 5.6875 117.021 5.6875H115.448C115.419 5.6875 115.391 5.71524 115.391 5.74299V16.313C115.391 16.3407 115.419 16.3685 115.448 16.3685H117.021C117.05 16.3685 117.078 16.3407 117.078 16.313V11.6799C117.078 11.6244 117.135 11.5967 117.164 11.6522L121.912 16.3685L121.941 16.3962H123.972C124.001 16.3685 124.029 16.313 123.972 16.2852Z" fill="white"/>
<path d="M23.2843 0L13.7305 6.8802L15.5039 2.82976L23.2843 0Z" fill="#AAAAAA"/>
<path d="M1.20117 0L10.6978 6.93569L9.01017 2.82976L1.20117 0Z" fill="#AAAAAA"/>
<path d="M19.8505 15.9248L17.3047 19.6978L22.7681 21.1682L24.3128 16.008L19.8505 15.9248Z" fill="#AAAAAA"/>
<path d="M0.201172 16.008L1.74581 21.1682L7.18064 19.6978L4.63485 15.9248L0.201172 16.008Z" fill="#AAAAAA"/>
<path d="M6.89299 9.54353L5.37695 11.763L10.7832 12.0126L10.6116 6.38086L6.89299 9.54353Z" fill="#AAAAAA"/>
<path d="M17.5921 9.54335L13.8449 6.3252L13.7305 12.0125L19.1367 11.7628L17.5921 9.54335Z" fill="#AAAAAA"/>
<path d="M7.20898 19.6972L10.4699 18.1713L7.66665 16.0352L7.20898 19.6972Z" fill="#E6E6E6"/>
<path d="M14.0449 18.1713L17.3058 19.6972L16.8482 16.0352L14.0449 18.1713Z" fill="#E6E6E6"/>
<path d="M17.3058 19.6977L14.0449 18.1719L14.3024 20.2248L14.2738 21.0849L17.3058 19.6977Z" fill="#B3B3B3"/>
<path d="M7.20898 19.6977L10.241 21.0849L10.2124 20.2248L10.4699 18.1719L7.20898 19.6977Z" fill="#B3B3B3"/>
<path d="M10.2975 14.7032L7.58008 13.9264L9.49657 13.0664L10.2975 14.7032Z" fill="#666666"/>
<path d="M14.2168 14.7038L15.0177 13.0947L16.9342 13.9548L14.2168 14.7038Z" fill="#666666"/>
<path d="M7.20859 19.6978L7.69487 15.9248L4.69141 16.008L7.20859 19.6978Z" fill="#AAAAAA"/>
<path d="M16.8477 15.9248L17.3053 19.6978L19.8511 16.008L16.8477 15.9248Z" fill="#AAAAAA"/>
<path d="M19.1081 11.7627L13.7305 12.0124L14.2453 14.7034L15.0463 13.0943L16.9628 13.9544L19.1081 11.7627Z" fill="#999999"/>
<path d="M7.58018 13.9266L9.49668 13.0666L10.2976 14.7034L10.8125 12.0124L5.40625 11.7627L7.58018 13.9266Z" fill="#999999"/>
<path d="M5.37695 11.7627L7.6367 16.0351L7.55089 13.8989L5.37695 11.7627Z" fill="#808080"/>
<path d="M16.9335 13.9272L16.8477 16.0634L19.1074 11.791L16.9335 13.9272Z" fill="#808080"/>
<path d="M10.7831 12.0127L10.2969 14.7037L10.9262 17.8664L11.0692 13.6773L10.7831 12.0127Z" fill="#808080"/>
<path d="M13.7301 12.0127L13.4727 13.6773L13.6157 17.8664L14.2164 14.7037L13.7301 12.0127Z" fill="#808080"/>
<path d="M14.2172 14.704L13.5879 17.8666L14.0456 18.1718L16.8488 16.0356L16.9346 13.8994L14.2172 14.704Z" fill="#AAAAAA"/>
<path d="M7.58008 13.9268L7.66589 16.0629L10.4691 18.1991L10.9268 17.894L10.2975 14.7036L7.58008 13.9268Z" fill="#AAAAAA"/>
<path d="M14.2743 21.0844L14.3029 20.2244L14.0454 20.0302H10.4413L10.2124 20.2244L10.241 21.0844L7.20898 19.6973L8.26735 20.5295L10.4127 21.9722H14.1026L16.248 20.5295L17.3063 19.6973L14.2743 21.0844Z" fill="#E6E6E6"/>
<path d="M14.0439 18.1714L13.5863 17.8662H10.926L10.4684 18.1714L10.2109 20.2243L10.4398 20.0301H14.0439L14.3014 20.2243L14.0439 18.1714Z" fill="#666666"/>
<path d="M23.7132 7.32409L24.5141 3.52333L23.2841 0L14.0449 6.63052L17.5919 9.54351L22.6262 10.9584L23.7418 9.70996L23.2555 9.37705L24.0279 8.71122L23.4272 8.26734L24.1995 7.71248L23.7132 7.32409Z" fill="#808080"/>
<path d="M0 3.52333L0.800923 7.32409L0.286044 7.68474L1.05836 8.2396L0.45767 8.68348L1.22999 9.34931L0.772318 9.70996L1.88789 10.9584L6.92226 9.54351L10.4692 6.63052L1.20138 0L0 3.52333Z" fill="#808080"/>
<path d="M22.6257 10.9862L17.5914 9.57129L19.1074 11.7907L16.8477 16.0631L19.8511 16.0353H24.3134L22.6257 10.9862Z" fill="#E6E6E6"/>
<path d="M6.8946 9.54395L1.88883 10.9866L0.201172 16.008H4.66346L7.66692 16.0357L5.40717 11.7634L6.8946 9.54395Z" fill="#E6E6E6"/>
<path d="M13.7295 12.0124L14.0441 6.63026L15.503 2.80176H9.00977L10.4686 6.63026L10.7832 12.0124L10.8977 13.7047V17.8661H13.5579V13.7047L13.7295 12.0124Z" fill="#E6E6E6"/>
</svg>
