<svg width="107" height="22" viewBox="0 0 107 22" fill="none" xmlns="http://www.w3.org/2000/svg">
<path d="M29.1895 16.0373H31.3384L32.5472 9.80323H32.7263L34.0246 13.372H35.9497L37.3823 9.57736H37.5167L38.7702 16.0373H41.0087L38.9493 5.87305H36.9794L35.1438 10.6615H34.9648L33.1292 5.87305H31.1146L29.1895 16.0373Z" fill="white"/>
<path d="M62.2753 10.5717C62.2753 10.5265 62.2753 10.391 62.2753 10.391C62.5887 10.391 63.1259 9.75853 63.1259 8.71951C63.1259 7.63532 62.5887 5.96387 60.395 5.96387H56.5V16.083H60.1711C61.9619 16.083 63.9318 15.586 63.9318 13.1014C63.9766 10.5717 62.3201 10.5717 62.2753 10.5717ZM58.6937 7.99672H59.9473C60.2159 7.99672 60.4397 8.08707 60.6188 8.26777C60.7979 8.44847 60.8874 8.67434 60.8874 8.94539C60.8874 9.48748 60.4397 9.89405 59.9473 9.89405H58.6937V7.99672ZM60.4845 14.0501H58.6937V11.5655H60.4845C60.8427 11.5655 61.1113 11.701 61.3351 11.9269C61.559 12.1528 61.6933 12.469 61.6933 12.7852C61.6933 13.508 61.1561 14.0501 60.4845 14.0501Z" fill="white"/>
<path d="M67.1094 5.96387H69.1688V14.0049H72.4818V16.0378H67.1094V5.96387Z" fill="white"/>
<path d="M80.7651 5.96387H78.3027L74.8555 16.083H77.1387L77.676 14.5922H81.3919L81.8843 16.083H84.1676L80.7651 5.96387ZM78.1684 12.74L79.3772 8.71951H79.6011L80.7651 12.74H78.1684Z" fill="white"/>
<path d="M92.7636 5.96387H94.823V16.0378H92.6293L89.1372 9.89405H89.0477V16.0378H86.9883V5.96387H89.182L92.6741 12.0624H92.8084L92.7636 5.96387Z" fill="white"/>
<path d="M101.896 5.96387C98.852 5.96387 98.4043 5.96387 98.4043 5.96387V16.083H101.986C104.493 16.083 106.552 14.2308 106.552 11.0234C106.552 8.31294 104.941 5.96387 101.896 5.96387ZM101.941 14.0049H100.553V7.99672H101.717C103.105 7.99672 104.403 9.39713 104.403 10.9782C104.403 12.9207 103.06 14.0049 101.941 14.0049Z" fill="white"/>
<path d="M48.4417 5.7832C45.6212 5.7832 43.3379 8.0871 43.3379 10.9783C43.3379 13.8243 45.6212 16.1282 48.4417 16.1282C51.2622 16.1282 53.5902 13.8243 53.5902 10.9783C53.5902 8.0871 51.3069 5.7832 48.4417 5.7832ZM48.4417 13.9146C46.8299 13.9146 45.5316 12.6046 45.5316 10.9783C45.5316 9.35199 46.8299 8.04193 48.4417 8.04193C50.0534 8.04193 51.3517 9.35199 51.3517 10.9783C51.3517 12.5594 50.0534 13.9146 48.4417 13.9146Z" fill="white"/>
<path d="M13.6993 0.452148H23.683V21.4583H19.1165V17.0312L18.5792 15.947V13.7786H18.3554C18.3554 13.7786 18.3106 9.39671 17.46 7.77042C16.6989 9.44188 16.6093 12.2427 16.6093 13.6883C16.5198 13.6883 16.3855 13.6883 16.3855 13.6883L16.296 13.7786V15.9922L15.8483 17.0312V21.4583H8.46122V17.1667L7.96876 16.0374V13.9593L7.6106 13.6883C7.6106 12.9655 7.52106 8.85461 6.75997 7.8156C6.08842 8.62874 5.86457 12.9203 5.86457 13.6883C5.77503 13.7786 5.64072 13.9142 5.64072 13.9142V16.0374L5.14825 17.0312V21.5035H0.492188V0.452148H10.4759V3.16262L11.0131 4.24681V6.32484L11.237 6.55071C11.237 9.30636 11.7294 11.7006 12.1324 12.4234C12.5801 11.7006 13.0278 9.98398 13.0278 6.55071C13.1621 6.50554 13.2964 6.37001 13.2964 6.37001V4.24681L13.7888 3.29814L13.6993 0.452148Z" fill="white"/>
</svg>
