<svg width="120" height="29" viewBox="0 0 120 29" fill="none" xmlns="http://www.w3.org/2000/svg">
<path d="M40.3672 19.4177C39.1247 19.4177 37.965 19.1342 36.9158 18.5673C35.8941 18.0004 35.0658 17.2067 34.4307 16.1578C33.8233 15.109 33.5195 13.9468 33.5195 12.6712C33.5195 11.3956 33.8233 10.2334 34.4307 9.21297C35.0382 8.19249 35.8665 7.39879 36.9158 6.80352C37.965 6.23659 39.0971 5.95312 40.3672 5.95312C41.6097 5.95312 42.7694 6.23659 43.791 6.80352C44.8403 7.37045 45.6686 8.16415 46.2485 9.21297C46.8559 10.2334 47.1597 11.3956 47.1597 12.6712C47.1597 13.9468 46.8559 15.109 46.2485 16.1578C45.641 17.1783 44.8127 17.972 43.791 18.5673C42.7694 19.1342 41.6097 19.4177 40.3672 19.4177ZM40.3672 16.498C41.4164 16.498 42.2724 16.1578 42.9075 15.4492C43.5425 14.7405 43.8739 13.8334 43.8739 12.6712C43.8739 11.509 43.5425 10.5736 42.9075 9.89328C42.2724 9.18462 41.4441 8.84446 40.3672 8.84446C39.2904 8.84446 38.4344 9.18462 37.7993 9.86494C37.1643 10.5453 36.8605 11.4807 36.8605 12.6429C36.8605 13.8051 37.1643 14.7405 37.7993 15.4208C38.4344 16.1578 39.2904 16.498 40.3672 16.498Z" fill="white"/>
<path d="M52.1856 10.3179C52.4894 9.83603 52.9311 9.43918 53.4834 9.12737C54.0356 8.81556 54.6983 8.67383 55.4438 8.67383C56.3274 8.67383 57.1005 8.9006 57.8184 9.3258C58.5363 9.75099 59.0885 10.3746 59.4751 11.1967C59.8893 12.0187 60.1102 12.9541 60.1102 14.0313C60.1102 15.1085 59.8893 16.0439 59.4751 16.866C59.0609 17.688 58.5087 18.3116 57.8184 18.7652C57.1005 19.1904 56.3274 19.4171 55.4438 19.4171C54.7259 19.4171 54.0632 19.2754 53.4834 18.9636C52.9311 18.6518 52.4894 18.2833 52.1856 17.8014V22.3652H48.9551V8.81556H52.1856V10.3179ZM56.7968 14.0313C56.7968 13.2376 56.5759 12.614 56.1065 12.1604C55.6647 11.7069 55.1125 11.4801 54.4498 11.4801C53.8147 11.4801 53.2625 11.7069 52.7931 12.1604C52.3513 12.614 52.1304 13.266 52.1304 14.0597C52.1304 14.8534 52.3513 15.477 52.7931 15.9589C53.2349 16.4124 53.7871 16.6392 54.4498 16.6392C55.0849 16.6392 55.6371 16.4124 56.1065 15.9589C56.5759 15.477 56.7968 14.8534 56.7968 14.0313Z" fill="white"/>
<path d="M71.7351 13.8895C71.7351 14.2013 71.7075 14.5131 71.6799 14.825H64.3628C64.4181 15.4769 64.6113 15.9872 64.9979 16.3273C65.3845 16.6675 65.8262 16.8376 66.3785 16.8376C67.1792 16.8376 67.7591 16.4974 68.0628 15.8171H71.5142C71.3486 16.4974 71.0172 17.121 70.5478 17.6596C70.106 18.1982 69.5262 18.6517 68.8359 18.9635C68.1456 19.2753 67.3725 19.4454 66.5165 19.4454C65.4949 19.4454 64.5561 19.2187 63.7554 18.7935C62.9546 18.3683 62.3196 17.7446 61.8778 16.9226C61.436 16.1005 61.1875 15.1651 61.1875 14.0879C61.1875 13.0108 61.4084 12.047 61.8502 11.2533C62.292 10.4313 62.927 9.80763 63.7278 9.38244C64.5285 8.95724 65.4673 8.73047 66.5165 8.73047C67.5382 8.73047 68.4493 8.92889 69.2501 9.35409C70.0508 9.77929 70.6583 10.3746 71.1001 11.1683C71.5142 11.9336 71.7351 12.8407 71.7351 13.8895ZM68.4217 13.0391C68.4217 12.5005 68.2285 12.047 67.8419 11.7352C67.4553 11.4234 66.9859 11.2533 66.4337 11.2533C65.8815 11.2533 65.4397 11.4234 65.0531 11.7352C64.6942 12.047 64.4733 12.5005 64.3628 13.0675L68.4217 13.0391Z" fill="white"/>
<path d="M79.8808 8.73047C81.1233 8.73047 82.0897 9.12732 82.8352 9.92102C83.5807 10.7147 83.9397 11.7919 83.9397 13.1809V19.2754H80.7367V13.6061C80.7367 12.8974 80.5434 12.3588 80.1845 11.9903C79.8255 11.5935 79.3285 11.4234 78.7211 11.4234C78.1136 11.4234 77.6166 11.6218 77.2577 11.9903C76.8987 12.3872 76.7054 12.9257 76.7054 13.6061V19.2754H73.4473V8.81551H76.6778V10.2045C77.0092 9.75094 77.4509 9.38244 78.0032 9.12732C78.5554 8.8722 79.1905 8.73047 79.8808 8.73047Z" fill="white"/>
<path d="M90.98 19.4177C90.0136 19.4177 89.1301 19.2476 88.3569 18.9358C87.5838 18.624 86.9764 18.1704 86.507 17.5468C86.0652 16.9232 85.8167 16.1862 85.7891 15.3358H89.2405C89.2957 15.8177 89.4614 16.1862 89.7651 16.4697C90.0412 16.7248 90.4278 16.8382 90.8972 16.8382C91.3666 16.8382 91.7532 16.7248 92.0293 16.5264C92.3054 16.2996 92.4435 15.9878 92.4435 15.6193C92.4435 15.3075 92.333 15.024 92.1121 14.8256C91.8912 14.6271 91.6151 14.4287 91.3114 14.3153C91.0077 14.1736 90.5382 14.0319 89.9584 13.8334C89.1024 13.5783 88.4122 13.3232 87.8599 13.0397C87.3077 12.7846 86.8383 12.3878 86.4517 11.8775C86.0652 11.3673 85.8719 10.687 85.8719 9.86494C85.8719 8.64604 86.3137 7.68226 87.2249 7.00194C88.1084 6.29328 89.2957 5.95312 90.7315 5.95312C92.195 5.95312 93.3822 6.29328 94.2658 7.00194C95.1494 7.68226 95.6464 8.64604 95.7016 9.89328H92.1949C92.1673 9.46809 92.0017 9.12793 91.7256 8.90116C91.4494 8.64604 91.0629 8.53265 90.6211 8.53265C90.2345 8.53265 89.9032 8.64604 89.6823 8.84446C89.4338 9.04289 89.3233 9.32635 89.3233 9.7232C89.3233 10.1484 89.5166 10.4886 89.9308 10.7153C90.345 10.9421 90.9524 11.1972 91.8084 11.4807C92.6643 11.7641 93.3546 12.0476 93.8793 12.3027C94.4315 12.5578 94.9009 12.9547 95.2874 13.4366C95.674 13.9468 95.8673 14.5704 95.8673 15.3641C95.8673 16.1012 95.674 16.7815 95.2874 17.4051C94.9009 18.0287 94.3487 18.5106 93.6308 18.8791C92.8576 19.2476 92.0017 19.4177 90.98 19.4177Z" fill="white"/>
<path d="M107.768 13.8895C107.768 14.2013 107.741 14.5131 107.713 14.825H100.396C100.451 15.4769 100.645 15.9872 101.031 16.3273C101.418 16.6675 101.859 16.8376 102.412 16.8376C103.212 16.8376 103.792 16.4974 104.096 15.8171H107.547C107.382 16.4974 107.05 17.121 106.581 17.6596C106.139 18.1982 105.559 18.6517 104.869 18.9635C104.179 19.2753 103.406 19.4454 102.55 19.4454C101.528 19.4454 100.589 19.2187 99.7886 18.7935C98.9878 18.3683 98.3528 17.7446 97.911 16.9226C97.4692 16.1005 97.2207 15.1651 97.2207 14.0879C97.2207 13.0108 97.4416 12.047 97.8834 11.2533C98.3252 10.4313 98.9602 9.80763 99.761 9.38244C100.562 8.95724 101.5 8.73047 102.55 8.73047C103.571 8.73047 104.483 8.92889 105.283 9.35409C106.084 9.77929 106.691 10.3746 107.133 11.1683C107.547 11.9336 107.768 12.8407 107.768 13.8895ZM104.455 13.0391C104.455 12.5005 104.262 12.047 103.875 11.7352C103.489 11.4234 103.019 11.2533 102.467 11.2533C101.915 11.2533 101.473 11.4234 101.086 11.7352C100.727 12.047 100.506 12.5005 100.396 13.0675L104.455 13.0391Z" fill="white"/>
<path d="M108.846 14.0313C108.846 12.9541 109.039 12.0187 109.453 11.1967C109.867 10.3746 110.42 9.75099 111.137 9.3258C111.855 8.9006 112.628 8.67383 113.512 8.67383C114.258 8.67383 114.893 8.81556 115.472 9.12737C116.052 9.43918 116.466 9.80769 116.77 10.3179V8.84391H120.001V19.3037H116.77V17.8297C116.466 18.3116 116.025 18.7085 115.445 19.0203C114.893 19.3321 114.23 19.4738 113.484 19.4738C112.628 19.4738 111.855 19.2471 111.137 18.8219C110.42 18.3683 109.867 17.7447 109.453 16.9226C109.039 16.0723 108.846 15.1085 108.846 14.0313ZM116.743 14.0597C116.743 13.266 116.522 12.6423 116.052 12.1604C115.611 11.7069 115.058 11.4801 114.423 11.4801C113.788 11.4801 113.236 11.7069 112.767 12.1604C112.325 12.614 112.104 13.2376 112.104 14.0313C112.104 14.825 112.325 15.477 112.767 15.9305C113.208 16.3841 113.761 16.6108 114.423 16.6108C115.058 16.6108 115.611 16.3841 116.052 15.9305C116.522 15.5053 116.743 14.8534 116.743 14.0597Z" fill="white"/>
<path d="M27.6116 14.1732C27.6116 21.9968 21.4266 28.3465 13.8058 28.3465C6.185 28.3465 0 21.9968 0 14.1732C0 6.34961 6.185 0 13.8058 0C21.4266 0 27.6116 6.34961 27.6116 14.1732Z" fill="white"/>
<path d="M6.8191 14.6549L6.87433 14.5698L10.4638 8.8155C10.5191 8.73046 10.6295 8.73046 10.6847 8.84385C11.2922 10.2328 11.7892 11.9336 11.5683 13.0108C11.4579 13.4643 11.1817 14.0596 10.8504 14.5982C10.8228 14.6832 10.7676 14.7683 10.7123 14.8249C10.6847 14.8533 10.6571 14.8816 10.6019 14.8816H6.90194C6.8191 14.8533 6.76388 14.7399 6.8191 14.6549Z" fill="#0E0F25"/>
<path d="M22.8078 15.7319V16.639C22.8078 16.6957 22.7802 16.7241 22.725 16.7524C22.4489 16.8658 21.4825 17.3193 21.0959 17.8863C20.0743 19.3319 19.3012 21.4012 17.5892 21.4012H10.3826C7.84235 21.4012 5.77148 19.2752 5.77148 16.639V16.554C5.77148 16.4973 5.82671 16.4406 5.88193 16.4406H9.94084C10.0237 16.4406 10.0789 16.5256 10.0789 16.5823C10.0513 16.8374 10.1065 17.1209 10.217 17.376C10.4655 17.8863 10.9625 18.1697 11.4871 18.1697H13.4751V16.5823H11.5147C11.4043 16.5823 11.349 16.4689 11.4042 16.3839C11.4319 16.3556 11.4595 16.3272 11.4871 16.2705C11.6804 15.9871 11.9289 15.5902 12.205 15.1083C12.3983 14.7965 12.5639 14.428 12.702 14.0878C12.7296 14.0311 12.7572 13.9745 12.7848 13.8894C12.8124 13.776 12.8677 13.6626 12.8953 13.5776C12.9229 13.4926 12.9505 13.4075 12.9781 13.3225C13.0333 13.039 13.0609 12.7272 13.0609 12.3871C13.0609 12.2737 13.0609 12.1319 13.0333 11.9902C13.0333 11.8485 13.0057 11.7067 13.0057 11.565C13.0057 11.4516 12.9781 11.3099 12.9505 11.1965C12.9229 10.9981 12.8953 10.828 12.8401 10.6296L12.8124 10.5729C12.7848 10.4595 12.7572 10.3178 12.702 10.2044C12.5915 9.80753 12.4535 9.41068 12.3154 9.07052C12.2602 8.92879 12.205 8.78706 12.1498 8.64532C12.0669 8.4469 11.9841 8.24847 11.9013 8.07839C11.8736 7.99335 11.8184 7.93666 11.7908 7.85162C11.7632 7.76658 11.708 7.68154 11.6804 7.5965C11.6528 7.53981 11.6251 7.48312 11.5975 7.42643L11.349 6.97288C11.3214 6.91619 11.3766 6.83115 11.4319 6.8595L12.9505 7.28469L13.1438 7.34139L13.3647 7.39808L13.4475 7.42643V6.49099C13.4475 6.03745 13.8065 5.66895 14.2206 5.66895C14.4415 5.66895 14.6348 5.75398 14.7729 5.89572C14.9109 6.03745 14.9938 6.23587 14.9938 6.46265V7.82328L15.1594 7.87997C15.1594 7.87997 15.187 7.87997 15.187 7.90832C15.2147 7.93666 15.2699 7.99335 15.3527 8.05005C15.4079 8.10674 15.4632 8.16343 15.546 8.22013C15.684 8.33351 15.8773 8.50359 16.0706 8.67367C16.1258 8.73036 16.1811 8.75871 16.2087 8.8154C16.4572 9.04217 16.7333 9.32564 17.0094 9.63745C17.0922 9.72249 17.1475 9.80753 17.2303 9.89257C17.3131 9.97761 17.3684 10.091 17.4512 10.176C17.534 10.2894 17.6445 10.4311 17.7273 10.5445C17.7549 10.6012 17.8101 10.6579 17.8378 10.743C17.9482 10.913 18.031 11.0831 18.1415 11.2532C18.1691 11.3382 18.2243 11.4233 18.2519 11.5083C18.3624 11.7351 18.4452 11.9619 18.4728 12.217C18.5004 12.2737 18.5004 12.3304 18.5004 12.3587C18.528 12.4154 18.528 12.5004 18.528 12.5855C18.5557 12.8406 18.528 13.0674 18.5004 13.3225C18.4728 13.4359 18.4452 13.5209 18.4176 13.6343C18.39 13.7193 18.3624 13.8327 18.3071 13.9461C18.2243 14.1445 18.1139 14.343 18.0034 14.5414C17.9758 14.5981 17.9206 14.6831 17.8654 14.7682C17.8101 14.8532 17.7549 14.9099 17.7273 14.9949C17.6721 15.08 17.5892 15.165 17.534 15.25C17.4788 15.3351 17.4236 15.4201 17.3407 15.5052C17.2579 15.6186 17.1475 15.7319 17.0646 15.8453C17.0094 15.902 16.9542 15.9871 16.8713 16.0437C16.8161 16.1004 16.7609 16.1855 16.6781 16.2422C16.5952 16.3272 16.5124 16.4123 16.4296 16.4689L16.2639 16.6107C16.2363 16.639 16.2087 16.639 16.1811 16.639H14.9661V18.2264H16.4848C16.8161 18.2264 17.1475 18.113 17.396 17.8863C17.4788 17.8012 17.8654 17.4611 18.3348 16.9508C18.3624 16.9225 18.3624 16.9225 18.39 16.9225L22.5869 15.6752C22.7526 15.5902 22.8078 15.6469 22.8078 15.7319Z" fill="#0E0F25"/>
</svg>
