<svg width="130" height="34" viewBox="0 0 130 34" fill="none" xmlns="http://www.w3.org/2000/svg">
<path d="M53.2062 25.5644C51.5811 25.5644 50.1134 25.2221 48.8029 24.5113C47.4924 23.8004 46.4703 22.7999 45.7364 21.5625C45.0025 20.2988 44.6094 18.877 44.6094 17.3237C44.6094 15.7703 44.9763 14.3749 45.7364 13.1112C46.4703 11.8475 47.5186 10.847 48.8029 10.1625C50.1134 9.4516 51.5811 9.08301 53.2062 9.08301C54.8311 9.08301 56.2989 9.4516 57.6094 10.1625C58.9199 10.8733 59.942 11.8475 60.6759 13.0849C61.4098 14.3486 61.8029 15.744 61.8029 17.3237C61.8029 18.9034 61.436 20.2988 60.6759 21.5625C59.942 22.8263 58.8937 23.8004 57.6094 24.5113C56.2989 25.2221 54.8311 25.5644 53.2062 25.5644ZM53.2062 22.9579C54.2807 22.9579 55.2243 22.7209 56.0892 22.247C56.9279 21.7468 57.6094 21.0886 58.1074 20.2198C58.6053 19.351 58.8412 18.3768 58.8412 17.3237C58.8412 16.2706 58.6053 15.2964 58.1074 14.4276C57.6094 13.5588 56.9541 12.8742 56.0892 12.4003C55.2505 11.9001 54.2807 11.6632 53.2062 11.6632C52.1316 11.6632 51.188 11.9001 50.3231 12.4003C49.4844 12.8742 48.8029 13.5325 48.3049 14.4276C47.807 15.2701 47.5711 16.2442 47.5711 17.3237C47.5711 18.4031 47.807 19.351 48.3049 20.2198C48.8029 21.0623 49.4582 21.7468 50.3231 22.247C51.188 22.7209 52.1578 22.9579 53.2062 22.9579ZM81.3029 25.3538L78.0529 20.6674C77.9219 20.6937 77.7122 20.6937 77.4501 20.6937H73.8594V25.3538H70.8977V9.31996H77.4501C78.8392 9.31996 80.0449 9.55691 81.0408 10.0045C82.063 10.4521 82.8755 11.1103 83.3997 11.9791C83.9239 12.8479 84.2122 13.8484 84.2122 15.0331C84.2122 16.2442 83.9239 17.271 83.3211 18.1399C82.7445 19.0087 81.9057 19.6669 80.8049 20.0881L84.4743 25.3538H81.3029ZM81.2505 15.0068C81.2505 13.98 80.9098 13.1902 80.2545 12.6373C79.5731 12.0844 78.6033 11.8211 77.3191 11.8211H73.8594V18.2188H77.3191C78.6033 18.2188 79.5993 17.9556 80.2545 17.4027C80.9098 16.8235 81.2505 16.0336 81.2505 15.0068ZM100.855 25.5644C99.2565 25.5644 97.7888 25.2221 96.4783 24.5113C95.1941 23.8004 94.1719 22.7999 93.4118 21.5625C92.6779 20.2988 92.311 18.9034 92.311 17.3237C92.311 15.744 92.6779 14.3486 93.438 13.0849C94.1719 11.8211 95.1941 10.847 96.5045 10.1625C97.815 9.4516 99.2828 9.08301 100.882 9.08301C102.192 9.08301 103.371 9.31996 104.472 9.76754C105.547 10.2151 106.464 10.8996 107.198 11.7685L105.285 13.5851C104.132 12.3214 102.716 11.7158 101.013 11.7158C99.9118 11.7158 98.942 11.9528 98.0771 12.453C97.2122 12.9269 96.5307 13.5851 96.059 14.4539C95.561 15.2964 95.3251 16.2706 95.3251 17.35C95.3251 18.4295 95.561 19.4036 96.059 20.2461C96.557 21.0886 97.2122 21.7731 98.0771 22.2734C98.942 22.7473 99.9118 22.9842 101.013 22.9842C102.69 22.9842 104.132 22.3524 105.285 21.0886L107.198 22.9316C106.464 23.8004 105.547 24.4586 104.446 24.9325C103.371 25.3538 102.166 25.5644 100.855 25.5644ZM122.924 9.08301C124.365 9.08301 125.597 9.37262 126.672 9.92551C127.746 10.4784 128.559 11.3209 129.136 12.453C129.738 13.5588 130.027 14.8752 130.027 16.4549V25.3274H127.065V21.2202H118.757V25.3538H115.847V16.4549C115.847 14.8752 116.136 13.5588 116.712 12.453C117.315 11.3472 118.128 10.5047 119.202 9.92551C120.25 9.37262 121.482 9.08301 122.924 9.08301ZM127.039 18.7191V16.1653C127.039 14.6909 126.672 13.5588 125.938 12.8216C125.204 12.0581 124.182 11.6895 122.871 11.6895C121.561 11.6895 120.539 12.0581 119.805 12.8216C119.071 13.5588 118.704 14.6909 118.704 16.1653V18.7191H127.039Z" fill="white"/>
<path d="M33.3649 16.7446C33.3649 25.9858 25.8952 33.4893 16.6956 33.4893C7.46976 33.5156 0 26.0121 0 16.7446C0 7.5035 7.46976 0 16.6694 0C25.8952 0 33.3649 7.5035 33.3649 16.7446Z" fill="white"/>
<path d="M8.5957 23.6159C8.72675 23.5106 8.88401 23.3789 8.93643 23.1683C9.01506 22.9314 8.96264 22.7207 8.93643 22.6154L8.96264 22.4575C9.04127 22.5101 9.1199 22.5628 9.22474 22.6418C9.25095 22.6681 9.27715 22.6944 9.32957 22.7207C9.38199 22.7471 9.43441 22.7997 9.46062 22.7997C9.51304 22.8261 9.59167 22.905 9.6703 22.9314C11.8981 24.3268 13.7328 24.8796 15.2005 24.827C16.7207 24.748 17.7691 23.9845 18.3195 22.8787C18.8437 21.7993 18.8699 20.4565 18.503 19.2191C18.136 17.9817 17.3497 16.7706 16.1703 15.9281C14.2046 14.5064 12.3961 12.3475 11.4788 10.5308C11.007 9.60937 10.8235 8.84585 10.8759 8.37195C10.9022 8.135 10.9808 8.00336 11.0594 7.92437C11.138 7.84539 11.2953 7.74007 11.5836 7.68742C12.1864 7.58211 12.9203 7.37148 13.628 7.13453C13.9163 7.05555 14.1784 6.95023 14.4667 6.87125C15.5151 6.55531 16.6159 6.31836 17.7691 6.31836C20.0231 6.31836 22.6441 7.2925 25.4223 11.3733C28.9868 16.6126 27.0211 22.4575 22.9324 25.5378C20.888 27.0649 18.3195 27.881 15.6985 27.5651C13.3397 27.3282 10.8497 26.1171 8.5957 23.6159ZM8.77917 22.3521C8.77917 22.3785 8.77917 22.3521 8.77917 22.3521V22.3521Z" fill="white"/>
<path d="M16.8 28.3286C16.4069 28.3286 16.0137 28.3023 15.6206 28.2496C12.8948 27.9337 10.2738 26.4857 8.09841 24.0635L7.57422 23.4843L8.20325 23.0367C8.25567 22.984 8.28188 22.9577 8.28188 22.9314C8.28188 22.905 8.28188 22.8524 8.28188 22.8261L8.20325 22.7207L7.99357 22.3785L8.41293 21.7466L8.46535 21.4043L8.85849 21.615H8.91091L9.6972 21.4833V22.1152L9.72341 22.1415C9.77583 22.1679 9.80204 22.1942 9.85446 22.2205C9.88067 22.2468 9.9593 22.2995 10.0117 22.3258L10.0641 22.3521C12.0823 23.6159 13.8121 24.2214 15.2012 24.1425C16.3807 24.0898 17.2718 23.5369 17.7436 22.5628C18.1629 21.6939 18.2153 20.5355 17.8746 19.4034C17.5077 18.2186 16.7738 17.1655 15.8041 16.481C13.8383 15.0593 11.925 12.874 10.9028 10.8468C10.4049 9.84632 10.169 8.97749 10.2476 8.31929C10.2738 7.97703 10.4049 7.68742 10.5883 7.47679C10.798 7.23984 11.1125 7.1082 11.5057 7.02922C12.0823 6.9239 12.7375 6.71328 13.4714 6.50265C13.7597 6.42367 14.048 6.31836 14.3363 6.23937C15.3323 5.94977 16.5117 5.66016 17.8222 5.66016C17.8222 5.66016 17.8222 5.66016 17.8484 5.66016C20.9149 5.66016 23.6145 7.42414 26.0782 11.0048C27.8605 13.6112 28.4633 16.5336 27.8081 19.4297C27.2315 22.0625 25.6589 24.4057 23.4311 26.0907C21.3867 27.5651 19.1065 28.3286 16.8 28.3286ZM9.51373 23.5896C11.3746 25.5115 13.55 26.6436 15.8041 26.9069C18.1367 27.1702 20.548 26.512 22.5662 24.985C26.3141 22.1942 28.3061 16.7443 24.925 11.7419C21.9895 7.50312 19.4472 7.00289 17.7698 7.00289C17.7698 7.00289 17.7698 7.00289 17.7436 7.00289C16.6166 7.00289 15.542 7.26617 14.6508 7.52945C14.3887 7.60843 14.1004 7.68742 13.8121 7.79273C13.0783 8.02968 12.3444 8.26663 11.6629 8.37195C11.6105 8.37195 11.5581 8.39827 11.5319 8.39827C11.5319 8.4246 11.5319 8.4246 11.5319 8.45093C11.5057 8.58257 11.5057 9.13546 12.0561 10.2412C12.9734 12.0579 14.7295 14.0851 16.5379 15.3752C17.7698 16.244 18.6609 17.5341 19.1065 19.0085C19.552 20.4565 19.4734 21.9836 18.8968 23.142C18.2153 24.5374 16.8787 25.3799 15.2012 25.4589C13.6024 25.5642 11.6629 24.9323 9.51373 23.5896Z" fill="#141B41"/>
<path d="M10.6406 7.95156C10.6406 7.95156 17.0096 6.24023 18.4249 6.24023C19.814 6.24023 25.3967 8.95203 27.0217 13.928C29.3281 20.9839 23.064 25.5914 22.3564 25.1438C29.0922 19.5622 18.0318 9.18898 12.6064 9.97882C11.9249 10.0841 12.2918 10.6633 12.2918 10.6633L12.1346 12.1904L11.0076 10.2684L10.6406 7.95156Z" fill="#141B41"/>
<path d="M26.0781 11.8213C28.0963 15.3756 27.6769 13.3483 27.2314 17.4028C28.0701 16.0601 29.3543 17.0606 29.8785 17.5871C29.9834 17.6661 30.1406 17.6135 30.1406 17.4818C30.1144 16.8763 29.9572 15.5862 28.9612 14.1645C27.5983 12.2689 26.0781 11.8213 26.0781 11.8213Z" fill="#141B41"/>
<path d="M30.0101 17.666C29.9577 17.666 29.9052 17.6397 29.879 17.6134C29.5121 17.2711 28.8306 16.6919 28.1492 16.7972C27.8085 16.8499 27.5202 17.0605 27.2843 17.4291L27.2056 17.4028C27.3105 16.4813 27.4153 15.8757 27.4677 15.4545C27.625 14.4014 27.625 14.4014 27.0746 13.5325C26.8387 13.1639 26.498 12.6374 26.0524 11.8475L26 11.7686L26.0786 11.7949C26.1048 11.7949 27.5988 12.2688 28.9617 14.1644C29.9577 15.5598 30.1411 16.8499 30.1673 17.4817C30.1673 17.5607 30.1411 17.6134 30.0625 17.6397C30.0625 17.666 30.0363 17.666 30.0101 17.666ZM28.2802 16.7182C28.9355 16.7182 29.5645 17.2448 29.9315 17.5871C29.9577 17.6134 30.0101 17.6397 30.0625 17.6134C30.0887 17.5871 30.1149 17.5607 30.1149 17.5081C30.0887 16.8762 29.9052 15.5861 28.9355 14.2171C27.7823 12.6111 26.5242 12.0318 26.1835 11.9002C26.6028 12.6374 26.9173 13.1376 27.1532 13.5062C27.7298 14.4014 27.7298 14.4277 27.5726 15.4808C27.5202 15.8757 27.4153 16.4023 27.3367 17.1658L27.4415 16.9289L27.5202 16.9552L27.4415 17.1658C27.6512 16.9289 27.9133 16.7709 28.1754 16.7446C28.1754 16.7182 28.2278 16.7182 28.2802 16.7182Z" fill="#141B41"/>
<path d="M9.88134 16.8759C9.04263 18.3239 7.28658 18.2186 7.31279 19.9299C8.85916 23.4052 8.88537 23.1419 8.88537 23.1419C11.7684 21.5096 10.589 17.929 10.1434 16.8759C10.1172 16.7705 9.95997 16.7705 9.88134 16.8759Z" fill="#141B41"/>
<path d="M3.35426 20.0621C5.00547 20.2727 6.00144 18.8247 7.33814 19.9305C9.09418 23.3004 8.91072 23.1425 8.91072 23.1425C5.87039 24.4326 3.77362 21.2732 3.19701 20.2727C3.11838 20.1937 3.22322 20.0621 3.35426 20.0621Z" fill="#141B41"/>
<path d="M17.2456 17.9294C17.2456 17.9294 18.8968 19.6407 18.0318 19.904C16.9572 19.2194 15.0177 19.746 14.0742 20.0619C13.8383 20.1409 13.6024 19.9303 13.7072 19.6933C14.0218 18.7982 14.8343 17.1395 16.3544 16.9289C17.2456 16.7183 17.2456 17.9294 17.2456 17.9294Z" fill="#141B41"/>
<path d="M18.2675 9.58351C18.084 9.32023 17.6909 8.60938 18.8703 8.60938C20.0498 8.60938 21.832 9.95211 22.199 10.426C22.0941 10.7156 21.334 10.7946 20.9671 10.7683C20.6002 10.7419 19.9449 10.6893 19.4469 10.426C18.949 10.1891 18.451 9.84679 18.2675 9.58351Z" fill="white"/>
</svg>
