<svg width="120" height="19" viewBox="0 0 120 19" fill="none" xmlns="http://www.w3.org/2000/svg">
<path d="M22.921 14.3767C22.6276 14.3767 22.4442 14.3034 22.3342 14.1933C22.2242 14.0833 22.1875 13.8999 22.1875 13.6432V5.28135C22.1875 5.02462 22.2608 4.84125 22.3709 4.73123C22.4809 4.6212 22.6643 4.54785 22.9577 4.54785H26.5151C27.8721 4.54785 28.8623 4.84125 29.4858 5.39137C30.1093 5.97817 30.4393 6.82169 30.4393 7.92193C30.4393 9.05885 30.1093 9.90237 29.4858 10.4525C28.8623 11.0026 27.8721 11.296 26.5151 11.296H25.1582V13.6432C25.1582 13.8999 25.0848 14.0833 24.9748 14.1933C24.8648 14.3034 24.6447 14.3767 24.388 14.3767H22.921ZM26.2217 9.20555C26.6252 9.20555 26.9186 9.09553 27.1386 8.87548C27.3586 8.65543 27.4687 8.36203 27.4687 7.92193C27.4687 7.48184 27.3586 7.15176 27.1386 6.96839C26.9186 6.74834 26.6252 6.63832 26.2217 6.63832H25.0848V9.20555H26.2217Z" fill="white"/>
<path d="M33.814 14.5962C32.8971 14.5962 32.1636 14.3028 31.6135 13.7161C31.0634 13.1293 30.8066 12.2857 30.8066 11.2588C30.8066 10.452 30.99 9.75517 31.3568 9.1317C31.7235 8.50823 32.2736 8.06813 32.9338 7.73806C33.6306 7.40798 34.4008 7.22461 35.281 7.22461C36.0145 7.22461 36.6746 7.29796 37.2247 7.48133C37.8115 7.62803 38.325 7.84808 38.8018 8.17815V13.9361C38.8018 14.1195 38.7651 14.2295 38.6917 14.3028C38.6184 14.3762 38.4717 14.3762 38.2883 14.3762H36.8213C36.7113 14.3762 36.6379 14.3762 36.5646 14.3395C36.4912 14.3028 36.4546 14.2295 36.4179 14.1561L36.2345 13.7161C35.9411 14.0095 35.611 14.2295 35.2076 14.3762C34.8409 14.5229 34.3641 14.5962 33.814 14.5962ZM34.8775 12.6158C35.2443 12.6158 35.5377 12.5425 35.7577 12.3591C35.9778 12.1757 36.0878 11.919 36.0878 11.5889V9.31507C35.9044 9.24172 35.6844 9.16837 35.391 9.16837C34.8775 9.16837 34.4741 9.35175 34.144 9.7185C33.8506 10.0852 33.704 10.562 33.704 11.2222C33.7406 12.139 34.1074 12.6158 34.8775 12.6158Z" fill="white"/>
<path d="M40.819 14.3766C40.5256 14.3766 40.3422 14.3033 40.2322 14.1933C40.1222 14.0832 40.0488 13.8999 40.0488 13.6431V7.88519C40.0488 7.70182 40.0855 7.59179 40.1222 7.55512C40.1955 7.48177 40.3422 7.44509 40.5256 7.44509H42.0293C42.1393 7.44509 42.2493 7.48177 42.286 7.51844C42.3593 7.55512 42.396 7.59179 42.396 7.70182L42.4694 8.14191C42.7261 7.88519 43.0928 7.66514 43.5329 7.51844C43.973 7.37174 44.4865 7.26172 44.9999 7.26172C45.7701 7.26172 46.4302 7.48177 46.907 7.92187C47.3838 8.36196 47.6405 8.98544 47.6405 9.86563V13.7165C47.6405 13.9732 47.5672 14.1566 47.4571 14.2666C47.3471 14.3766 47.1637 14.45 46.8703 14.45H45.4767C45.1833 14.45 44.9999 14.3766 44.8532 14.2666C44.7432 14.1566 44.6699 13.9732 44.6699 13.7165V10.0857C44.6699 9.79228 44.5965 9.57223 44.4865 9.46221C44.3765 9.35218 44.1564 9.27883 43.8997 9.27883C43.6063 9.27883 43.3862 9.35218 43.2029 9.49888C43.0562 9.64558 42.9461 9.86563 42.9461 10.1224V13.7165C42.9461 13.9732 42.8728 14.1566 42.7628 14.2666C42.6527 14.3766 42.4694 14.45 42.176 14.45H40.819V14.3766Z" fill="white"/>
<path d="M52.7391 14.5964C51.3821 14.5964 50.3552 14.2663 49.6217 13.6428C48.8882 13.0193 48.5215 12.1025 48.5215 10.8922C48.5215 10.1587 48.7049 9.49856 49.0349 8.94843C49.365 8.39831 49.8418 7.95821 50.5019 7.62814C51.1621 7.33474 51.8956 7.15137 52.7758 7.15137C53.4359 7.15137 53.986 7.22472 54.4628 7.33474C54.9396 7.44477 55.343 7.66481 55.7097 7.92154C55.8198 7.99489 55.8564 8.06824 55.8564 8.17826C55.8564 8.25161 55.8198 8.36164 55.7464 8.47166L55.1596 9.49856C55.0863 9.64525 55.0129 9.7186 54.9029 9.7186C54.8296 9.7186 54.7562 9.68193 54.6462 9.60858C54.3895 9.46188 54.1327 9.31518 53.9127 9.24183C53.6926 9.16848 53.3992 9.13181 53.0692 9.13181C52.5924 9.13181 52.189 9.27851 51.8956 9.60858C51.6022 9.90198 51.4555 10.3421 51.4555 10.8922C51.4555 11.4423 51.6022 11.8824 51.8956 12.1758C52.189 12.4692 52.5924 12.6159 53.1425 12.6159C53.4359 12.6159 53.7293 12.5792 53.986 12.4692C54.2428 12.3959 54.4995 12.2492 54.7562 12.1025C54.9029 12.0291 54.9763 11.9924 55.0496 11.9924C55.123 11.9924 55.1963 12.0658 55.2696 12.2125L55.9298 13.3127C55.9665 13.4228 56.0031 13.4961 56.0031 13.5328C56.0031 13.6061 55.9298 13.7162 55.8198 13.7895C55.4163 14.0462 54.9763 14.2296 54.4995 14.3763C53.986 14.523 53.3992 14.5964 52.7391 14.5964Z" fill="white"/>
<path d="M59.6323 14.5962C58.7155 14.5962 57.982 14.3028 57.4319 13.7161C56.8817 13.1293 56.625 12.2857 56.625 11.2588C56.625 10.452 56.8084 9.75517 57.1751 9.1317C57.5419 8.50823 58.092 8.06813 58.7521 7.73806C59.449 7.40798 60.2191 7.22461 61.0993 7.22461C61.8328 7.22461 62.493 7.29796 63.0431 7.48133C63.6299 7.62803 64.1433 7.84808 64.6201 8.17815V13.9361C64.6201 14.1195 64.5834 14.2295 64.5101 14.3028C64.4367 14.3762 64.29 14.3762 64.1067 14.3762H62.6397C62.5296 14.3762 62.4563 14.3762 62.383 14.3395C62.3096 14.3028 62.2729 14.2295 62.2362 14.1561L62.0529 13.7161C61.7595 14.0095 61.4294 14.2295 61.026 14.3762C60.6592 14.5229 60.1825 14.5962 59.6323 14.5962ZM60.6959 12.6158C61.0627 12.6158 61.3561 12.5425 61.5761 12.3591C61.7961 12.1757 61.9062 11.919 61.9062 11.5889V9.31507C61.7228 9.24172 61.5028 9.16837 61.2094 9.16837C60.6959 9.16837 60.2925 9.35175 59.9624 9.7185C59.669 10.0852 59.5223 10.562 59.5223 11.2222C59.5223 12.139 59.9257 12.6158 60.6959 12.6158Z" fill="white"/>
<path d="M73.7165 13.8266C73.7898 13.8999 73.8265 13.9733 73.8265 14.0833C73.8265 14.1567 73.7898 14.23 73.7531 14.3034C73.6798 14.34 73.6064 14.3767 73.5331 14.3767H71.2959C71.1492 14.3767 71.0759 14.3767 71.0025 14.34C70.9292 14.3034 70.8925 14.2667 70.8192 14.1933L68.8387 11.5161V13.6432C68.8387 13.8999 68.7654 14.0833 68.6553 14.1933C68.5453 14.3034 68.3253 14.3767 68.0685 14.3767H66.6749C66.3815 14.3767 66.1981 14.3034 66.0881 14.1933C65.9781 14.0833 65.9414 13.8999 65.9414 13.6432V5.28135C65.9414 5.02462 66.0148 4.84125 66.1248 4.73123C66.2348 4.6212 66.4182 4.54785 66.7116 4.54785H68.1052C68.3986 4.54785 68.582 4.6212 68.692 4.73123C68.802 4.84125 68.8754 5.02462 68.8754 5.28135V10.1224L70.7825 7.62854C70.8558 7.55519 70.8925 7.48184 70.9659 7.48184C71.0392 7.44516 71.1492 7.44516 71.2593 7.44516H73.4964C73.6064 7.44516 73.6798 7.48184 73.7165 7.51851C73.7898 7.55519 73.7898 7.62854 73.7898 7.73856C73.7898 7.84859 73.7531 7.92193 73.6798 7.99528L71.2226 10.8192L73.7165 13.8266Z" fill="white"/>
<path d="M78.411 14.5962C77.6041 14.5962 76.8706 14.4495 76.2471 14.1928C75.6237 13.9361 75.1102 13.5327 74.7435 12.9826C74.3767 12.4324 74.1934 11.7723 74.1934 11.0021C74.1934 9.79185 74.5234 8.8383 75.2203 8.17815C75.9171 7.51801 76.9073 7.22461 78.2276 7.22461C79.5112 7.22461 80.4648 7.55468 81.1249 8.17815C81.785 8.80163 82.1151 9.68182 82.1151 10.7821C82.1151 11.2588 81.8951 11.5156 81.4916 11.5156H76.944C76.944 11.919 77.0907 12.2491 77.4207 12.4691C77.7508 12.6892 78.2276 12.7992 78.8511 12.7992C79.2545 12.7992 79.5846 12.7625 79.8413 12.6892C80.098 12.6158 80.3914 12.5058 80.6481 12.3591C80.7581 12.3224 80.8315 12.2857 80.8682 12.2857C80.9415 12.2857 81.0149 12.3591 81.0882 12.4691L81.565 13.386C81.6017 13.496 81.6383 13.5694 81.6383 13.606C81.6383 13.6794 81.565 13.7894 81.455 13.8628C81.0516 14.1195 80.6114 14.3028 80.098 14.4129C79.5846 14.5229 79.0344 14.5962 78.411 14.5962ZM79.5112 10.0852C79.5112 9.7185 79.4012 9.4251 79.1811 9.24172C78.9611 9.02168 78.6677 8.94833 78.2276 8.94833C77.7875 8.94833 77.4941 9.05835 77.274 9.2784C77.054 9.49845 76.944 9.75517 76.944 10.1219H79.5112V10.0852Z" fill="white"/>
<path d="M87.0659 14.5963C86.2591 14.5963 85.4889 14.523 84.7554 14.3396C84.0219 14.1562 83.4351 13.9362 82.995 13.6061C82.8483 13.4961 82.7383 13.386 82.7383 13.276C82.7383 13.2027 82.775 13.1293 82.8116 13.0193L83.5084 11.8824C83.5818 11.7724 83.6552 11.699 83.7285 11.699C83.7652 11.699 83.8752 11.7357 83.9852 11.809C84.352 12.0291 84.7554 12.1758 85.1955 12.2858C85.6356 12.3958 86.1124 12.4692 86.5525 12.4692C86.9926 12.4692 87.3226 12.3958 87.5427 12.2491C87.7627 12.1024 87.8728 11.8824 87.8728 11.589C87.8728 11.2956 87.7627 11.0755 87.506 10.8922C87.286 10.7455 86.8459 10.5254 86.1857 10.2687C85.1955 9.90194 84.462 9.49851 83.9119 9.02174C83.3618 8.54497 83.105 7.9215 83.105 7.15132C83.105 6.19778 83.4351 5.46428 84.1319 4.95084C84.8287 4.43739 85.7456 4.18066 86.8825 4.18066C87.6894 4.18066 88.3495 4.25401 88.8996 4.40071C89.4864 4.54741 89.9632 4.73079 90.33 5.02418C90.4767 5.13421 90.5867 5.28091 90.5867 5.35426C90.5867 5.42761 90.55 5.50096 90.5133 5.57431L89.8165 6.71123C89.7432 6.82125 89.6698 6.8946 89.5965 6.8946C89.5598 6.8946 89.4498 6.85793 89.3397 6.78458C88.7896 6.41783 88.1295 6.23445 87.3593 6.23445C86.9559 6.23445 86.6258 6.3078 86.4058 6.4545C86.1857 6.6012 86.0757 6.82125 86.0757 7.11465C86.0757 7.3347 86.149 7.51807 86.2591 7.6281C86.3691 7.7748 86.5158 7.88482 86.7358 7.99484C86.9559 8.10487 87.2493 8.21489 87.6527 8.36159L87.9094 8.47162C88.6062 8.76502 89.193 9.02174 89.5965 9.27846C89.9999 9.53519 90.33 9.82859 90.55 10.232C90.7701 10.5988 90.8801 11.0755 90.8801 11.6257C90.8801 12.4692 90.55 13.166 89.9265 13.6794C89.2664 14.3396 88.3128 14.5963 87.0659 14.5963Z" fill="white"/>
<path d="M93.9244 14.3764C93.7777 14.3764 93.6677 14.3397 93.5944 14.3031C93.521 14.2664 93.4477 14.1564 93.411 14.0097L91.5406 7.77495C91.5039 7.7016 91.5039 7.66493 91.5039 7.62825C91.5039 7.48155 91.6139 7.4082 91.7973 7.4082H93.7044C93.8144 7.4082 93.9244 7.44488 93.9978 7.48155C94.0711 7.51823 94.1078 7.59158 94.1078 7.7016L94.878 11.0023L95.8682 8.36175C95.9049 8.25172 95.9782 8.17837 96.0149 8.1417C96.0883 8.10502 96.1616 8.06835 96.3083 8.06835H97.2252C97.3719 8.06835 97.4452 8.10502 97.5186 8.1417C97.5919 8.17837 97.6286 8.25172 97.6653 8.36175L98.6555 11.0023L99.4623 7.7016C99.499 7.59158 99.5357 7.5549 99.5724 7.48155C99.609 7.44488 99.7191 7.4082 99.8291 7.4082H101.736C101.92 7.4082 102.03 7.48155 102.03 7.62825C102.03 7.66493 102.03 7.7016 101.993 7.77495L100.122 14.0097C100.086 14.1564 100.012 14.2664 99.9391 14.3031C99.8658 14.3397 99.7557 14.3764 99.609 14.3764H98.1787C98.032 14.3764 97.9587 14.3397 97.8853 14.3031C97.812 14.2297 97.7753 14.1564 97.7019 14.0097L96.7484 11.4058L95.7949 14.0097C95.7582 14.1564 95.6848 14.2297 95.6115 14.3031C95.5381 14.3397 95.4281 14.3764 95.3181 14.3764H93.9244Z" fill="white"/>
<path d="M105.697 14.5962C104.78 14.5962 104.046 14.3028 103.496 13.7161C102.946 13.1293 102.689 12.2857 102.689 11.2588C102.689 10.452 102.873 9.75517 103.24 9.1317C103.606 8.50823 104.156 8.06813 104.817 7.73806C105.513 7.40798 106.284 7.22461 107.164 7.22461C107.897 7.22461 108.557 7.29796 109.108 7.48133C109.694 7.62803 110.208 7.84808 110.685 8.17815V13.9361C110.685 14.1195 110.648 14.2295 110.575 14.3028C110.501 14.3762 110.354 14.3762 110.171 14.3762H108.704C108.594 14.3762 108.521 14.3762 108.447 14.3395C108.374 14.3028 108.337 14.2295 108.301 14.1561L108.117 13.7161C107.824 14.0095 107.494 14.2295 107.09 14.3762C106.724 14.5229 106.247 14.5962 105.697 14.5962ZM106.797 12.6158C107.164 12.6158 107.457 12.5425 107.677 12.3591C107.897 12.1757 108.007 11.919 108.007 11.5889V9.31507C107.824 9.24172 107.604 9.16837 107.31 9.16837C106.797 9.16837 106.394 9.35175 106.064 9.7185C105.77 10.0852 105.623 10.562 105.623 11.2222C105.623 12.139 105.99 12.6158 106.797 12.6158Z" fill="white"/>
<path d="M112.702 17.3102C112.409 17.3102 112.225 17.2368 112.115 17.1268C112.005 17.0168 111.969 16.8334 111.969 16.5767V8.28818C112.409 7.99478 112.959 7.73806 113.619 7.51801C114.279 7.29796 114.976 7.22461 115.673 7.22461C118.57 7.22461 120.037 8.47155 120.037 10.9288C120.037 12.0657 119.744 12.9459 119.12 13.606C118.497 14.2662 117.617 14.5962 116.516 14.5962C116.186 14.5962 115.893 14.5596 115.6 14.4862C115.306 14.4129 115.086 14.3028 114.866 14.1561V16.5767C114.866 16.8334 114.793 17.0168 114.683 17.1268C114.573 17.2368 114.353 17.3102 114.096 17.3102H112.702ZM115.82 12.6525C116.223 12.6525 116.553 12.5058 116.736 12.1757C116.957 11.8456 117.067 11.4422 117.067 10.8921C117.067 10.2686 116.957 9.82852 116.7 9.5718C116.443 9.31507 116.076 9.16837 115.563 9.16837C115.233 9.16837 114.976 9.20505 114.793 9.31507V11.6256C114.793 11.9557 114.866 12.2124 115.049 12.3958C115.233 12.5425 115.49 12.6525 115.82 12.6525Z" fill="white"/>
<path fill-rule="evenodd" clip-rule="evenodd" d="M16.0269 7.92176C15.2934 7.22494 14.4866 6.74817 13.9364 6.49144C14.0831 6.08802 14.2298 5.57457 14.3765 5.06112C14.5599 4.3643 14.7433 3.52078 14.7433 2.93399C14.7433 2.20049 14.5966 1.50367 14.1565 0.91687C13.6797 0.330073 13.0196 0 12.2127 0C11.5892 0 11.0391 0.220049 10.6357 0.623472C10.2323 1.02689 9.97555 1.54034 9.79218 2.05379C9.4621 3.00733 9.35208 4.18093 9.3154 5.35452H8.54523C8.50856 4.18093 8.39853 3.00733 8.06846 2.05379C7.88509 1.50367 7.62836 0.99022 7.22494 0.623472C6.74817 0.220049 6.19804 0 5.57457 0C4.76773 0 4.10758 0.330073 3.63081 0.91687C3.22738 1.46699 3.04401 2.20049 3.04401 2.93399C3.04401 3.55746 3.22738 4.3643 3.41076 5.06112C3.55746 5.57457 3.70416 6.08802 3.85086 6.49144C3.30073 6.74817 2.49389 7.18826 1.76039 7.92176C0.843521 8.80196 0 10.1589 0 11.9927C0 13.8998 0.843521 15.6235 2.38386 16.7971C3.92421 17.9707 6.12469 18.6308 8.87531 18.6308C11.6259 18.6308 13.8264 17.9707 15.3667 16.7971C16.9438 15.5868 17.7506 13.8998 17.7506 11.9927C17.7873 10.1589 16.9438 8.80196 16.0269 7.92176ZM6.74817 11.0758C6.74817 11.9927 6.30807 12.4694 5.79462 12.4694C5.28117 12.4694 4.84108 11.9927 4.84108 11.0758C4.84108 10.1589 5.28117 9.68215 5.79462 9.68215C6.30807 9.68215 6.74817 10.1589 6.74817 11.0758ZM11.9927 9.68215C12.5061 9.68215 12.9462 10.1589 12.9462 11.0758C12.9462 11.9927 12.5061 12.4694 11.9927 12.4694C11.4792 12.4694 11.0391 11.9927 11.0391 11.0758C11.0391 10.1589 11.4792 9.68215 11.9927 9.68215Z" fill="white"/>
<path d="M13.239 6.96866C13.0556 6.89531 12.9822 6.71194 13.0556 6.52856C13.3123 5.75839 13.9358 3.77795 13.9358 2.8244C13.9358 1.57746 13.3857 0.697266 12.2121 0.697266C10.4884 0.697266 10.0849 3.15448 10.0483 5.75839C10.0483 5.94176 9.90156 6.08846 9.71819 6.08846H8.03114C7.84777 6.08846 7.70107 5.94176 7.70107 5.75839C7.70107 3.1178 7.26097 0.697266 5.57393 0.697266C4.40034 0.697266 3.85022 1.57746 3.85022 2.8244C3.85022 3.81462 4.47369 5.75839 4.73041 6.52856C4.80376 6.71194 4.69374 6.89531 4.54704 6.96866C3.59349 7.33541 0.769531 8.72905 0.769531 11.8831V11.9198C0.769531 11.9564 0.769531 11.9931 0.769531 12.0298C0.769531 12.1031 0.769531 12.1398 0.769531 12.1765C0.769531 12.2865 0.769531 12.3599 0.806206 12.4699C0.806206 12.5799 0.842881 12.6533 0.842881 12.7633C1.31965 15.6606 4.10694 17.7144 8.87467 17.7511C13.9358 17.7511 16.7597 15.4039 16.9798 12.2132V12.1765C16.9798 12.0665 16.9798 11.9564 16.9798 11.8831C16.9798 8.72905 14.1925 7.33541 13.239 6.96866ZM11.992 9.6826C12.5055 9.6826 12.9456 10.1594 12.9456 11.0762C12.9456 11.9931 12.5055 12.4699 11.992 12.4699C11.4786 12.4699 11.0385 11.9931 11.0385 11.0762C11.0385 10.1594 11.4786 9.6826 11.992 9.6826ZM5.79398 9.6826C6.30743 9.6826 6.74753 10.1594 6.74753 11.0762C6.74753 11.9931 6.30743 12.4699 5.79398 12.4699C5.28053 12.4699 4.84044 11.9931 4.84044 11.0762C4.84044 10.1594 5.28053 9.6826 5.79398 9.6826Z" fill="white"/>
<path d="M8.91177 16.6872C5.06092 16.6872 0.806641 14.5967 0.806641 11.8828C0.806641 15.2202 3.66728 17.7508 8.91177 17.7508C14.1563 17.7508 17.0169 15.2202 17.0169 11.8828C17.0169 14.5967 12.7626 16.6872 8.91177 16.6872Z" fill="white"/>
</svg>
