<svg width="120" height="25" viewBox="0 0 120 25" fill="none" xmlns="http://www.w3.org/2000/svg">
<path d="M24.8207 0.00577319L21.1407 0.00195312L22.2322 3.37698L15.2988 8.42137L20.7884 12.4248L27.3045 7.6841L24.8207 0.00577319Z" fill="white"/>
<path d="M5.06667 3.36547L6.16 0.00382006L2.49333 0L0 7.67641L6.50857 12.4248L12.0057 8.42706L5.06667 3.36547Z" fill="white"/>
<path d="M13.0203 4.06845L7.45077 0.00390625L6.51172 2.89569L13.0203 7.64403L13.0241 7.64212V4.06463L13.0203 4.06845Z" fill="white"/>
<path d="M19.8506 0.00976562L14.2734 4.06476V7.64416L20.7858 2.90728L19.8506 0.00976562Z" fill="white"/>
<path d="M6.5231 13.9334L6.50977 13.9754L13.0183 18.7256L13.0221 18.7218V9.20605L6.5231 13.9334Z" fill="white"/>
<path d="M20.7725 13.9351L14.283 9.19824L14.2754 9.20397V18.7197L20.7878 13.9829L20.7725 13.9351Z" fill="white"/>
<path d="M13.0184 20.2468L7.72124 16.3809L6.51172 20.1054L13.0203 24.8538L13.0241 24.8499V20.241L13.0184 20.2468Z" fill="white"/>
<path d="M19.5801 16.3828L14.2734 20.243V24.8519L20.7858 20.115L19.5801 16.3828Z" fill="white"/>
<path d="M43.3438 9.47403C43.0047 10.0642 42.5019 10.5437 41.8943 10.8493C41.2428 11.1988 40.4352 11.3726 39.4714 11.3726H37.6866V15.6262H34.8066V3.77832H39.4695C40.4124 3.77832 41.2085 3.94067 41.86 4.26729C42.4733 4.55952 42.9838 5.02939 43.3247 5.61768C43.6581 6.22125 43.8257 6.90313 43.8124 7.59265C43.8219 8.2497 43.66 8.8972 43.3438 9.47403ZM40.4809 8.68901C40.7495 8.43116 40.8847 8.06443 40.8847 7.59074C40.8847 7.11705 40.7495 6.75224 40.4809 6.49247C40.2124 6.23462 39.8028 6.10474 39.2524 6.10474H37.6866V9.07675H39.2524C39.8028 9.07866 40.2124 8.94877 40.4809 8.68901Z" fill="white"/>
<path d="M52.6685 13.5348H48.2571L47.5504 15.6262H44.5371L48.8133 3.77832H52.1447L56.4209 15.6262H53.3752L52.6685 13.5348ZM51.9276 11.3058L50.4628 6.96616L49.0228 11.3058H51.9276Z" fill="white"/>
<path d="M68.2901 15.6262H65.4101L60.5967 8.31655V15.6262H57.7148V3.77832H60.5948L65.4101 11.1205V3.77832H68.2901V15.6262Z" fill="white"/>
<path d="M78.2201 7.51822C78.0144 7.13048 77.6925 6.81533 77.302 6.61668C76.8658 6.39894 76.3839 6.29198 75.8963 6.30344C74.9649 6.30344 74.2182 6.61095 73.6563 7.22407C73.0963 7.83719 72.8144 8.65851 72.8144 9.6861C72.8144 10.7767 73.1096 11.6305 73.6982 12.2436C74.2868 12.8568 75.0963 13.1643 76.1268 13.1643C76.7668 13.1853 77.3972 12.9962 77.9191 12.6237C78.4296 12.2322 78.803 11.6897 78.9877 11.0709H75.3401V8.9431H81.5991V11.6267C81.3763 12.3621 81.0068 13.0458 80.5134 13.636C79.9801 14.2702 79.3172 14.784 78.5687 15.1373C77.7382 15.5308 76.8277 15.7294 75.9096 15.7142C74.8201 15.7333 73.7439 15.4678 72.7858 14.9463C71.8887 14.4478 71.1496 13.7067 70.6544 12.8071C70.1515 11.8425 69.8887 10.7691 69.8887 9.68037C69.8887 8.59166 70.1515 7.51822 70.6544 6.55365C71.1477 5.65212 71.8868 4.90912 72.782 4.40869C73.7363 3.88534 74.8087 3.62176 75.8963 3.64277C77.3096 3.64277 78.502 3.98657 79.4734 4.67227C80.4411 5.35415 81.1249 6.36647 81.3991 7.51822H78.2201Z" fill="white"/>
<path d="M85.7358 14.9673C84.8196 14.4592 84.0577 13.7105 83.53 12.8013C82.9948 11.8463 82.7129 10.769 82.7129 9.67457C82.7129 8.58012 82.9948 7.50287 83.53 6.54785C84.0557 5.64059 84.8177 4.89185 85.7358 4.38187C86.6729 3.8719 87.7243 3.60449 88.791 3.60449C89.8577 3.60449 90.9091 3.8719 91.8462 4.38187C92.7605 4.88803 93.5167 5.63867 94.0329 6.54785C94.5586 7.50478 94.8348 8.58203 94.8329 9.67648C94.831 10.7709 94.5529 11.8463 94.0253 12.8032C93.5053 13.7105 92.7491 14.4592 91.8367 14.9692C90.8996 15.4792 89.8519 15.7466 88.7853 15.7466C87.7224 15.7446 86.6729 15.4772 85.7358 14.9673ZM91.0557 12.1672C91.6234 11.5349 91.9072 10.7022 91.9072 9.66884C91.9072 8.63551 91.6234 7.79892 91.0557 7.16288C90.49 6.53639 89.7357 6.22505 88.791 6.22505C87.8481 6.22696 87.0862 6.53639 86.5091 7.15333C85.9434 7.77218 85.6596 8.61068 85.6596 9.66884C85.6596 10.727 85.9434 11.5617 86.5091 12.1748C87.0767 12.7994 87.8367 13.1107 88.791 13.1107C89.7453 13.1107 90.4996 12.7956 91.0557 12.1672Z" fill="white"/>
<path d="M99.3116 13.3991H103.081V15.6262H96.4316V3.77832H99.3116V13.3991Z" fill="white"/>
<path d="M107.343 3.77832V15.6262H104.463V3.77832H107.343Z" fill="white"/>
<path d="M119.999 15.6262H117.119L112.304 8.31655V15.6262H109.424V3.77832H112.304L117.119 11.1205V3.77832H119.999V15.6262Z" fill="white"/>
<path d="M35.4429 23.2983C35.26 23.22 35.1 23.092 34.9819 22.9297C34.8695 22.7711 34.8086 22.582 34.8086 22.3872H35.3305C35.3457 22.5572 35.4238 22.7176 35.5495 22.8342C35.7057 22.964 35.9057 23.029 36.1076 23.0156C36.3076 23.0271 36.5038 22.964 36.66 22.8399C36.7248 22.7845 36.7762 22.7157 36.8105 22.6374C36.8448 22.5591 36.8619 22.4751 36.86 22.3891C36.8657 22.2611 36.8238 22.1351 36.7419 22.0377C36.66 21.946 36.5591 21.8753 36.4448 21.8333C36.2867 21.776 36.1267 21.7283 35.9648 21.6881C35.761 21.6385 35.5629 21.5735 35.3686 21.4933C35.2181 21.4265 35.0848 21.3214 34.9857 21.1877C34.8734 21.0235 34.8181 20.8267 34.8276 20.6281C34.8238 20.4352 34.8791 20.2442 34.9838 20.0818C35.0924 19.9195 35.2448 19.7915 35.4238 19.7132C35.6276 19.6234 35.8505 19.5795 36.0734 19.5833C36.3838 19.5699 36.6886 19.6635 36.9381 19.8488C37.0467 19.9328 37.1381 20.0379 37.2029 20.1601C37.2676 20.2804 37.3076 20.4142 37.3172 20.5517H36.7819C36.7591 20.3989 36.6772 20.2613 36.5553 20.1697C36.4048 20.0532 36.2181 19.9959 36.0276 20.0054C35.8467 19.9978 35.6676 20.0532 35.5248 20.1658C35.46 20.2193 35.4086 20.2881 35.3743 20.3664C35.34 20.4428 35.3248 20.5288 35.3305 20.6128C35.3248 20.735 35.3667 20.8554 35.4467 20.947C35.5267 21.0349 35.6257 21.1018 35.7343 21.1438C35.8486 21.1896 36.0067 21.2393 36.2124 21.2966C36.4162 21.3501 36.6162 21.4188 36.8105 21.501C36.9629 21.5697 37.0962 21.6748 37.1972 21.8085C37.3134 21.9727 37.3705 22.1733 37.3591 22.3738C37.3591 22.5572 37.3095 22.7367 37.2143 22.8915C37.1095 23.0615 36.961 23.199 36.7819 23.2868C36.5724 23.39 36.34 23.4396 36.1076 23.432C35.881 23.4358 35.6543 23.39 35.4429 23.2983Z" fill="white"/>
<path d="M38.0824 21.1017C38.1986 20.8801 38.3757 20.6948 38.5929 20.5688C38.8481 20.4332 39.1376 20.3682 39.4272 20.3816C39.7167 20.395 39.9967 20.4867 40.2405 20.6452C40.4786 20.8266 40.6443 21.0864 40.7072 21.3786H40.1795C40.1376 21.2048 40.0348 21.052 39.8919 20.9451C39.7319 20.8362 39.5434 20.7827 39.351 20.7884C39.2234 20.7827 39.0957 20.8056 38.9796 20.8572C38.8615 20.9069 38.7567 20.9833 38.6729 21.0788C38.4862 21.3099 38.3948 21.6021 38.4138 21.8982C38.3948 22.1961 38.4862 22.4922 38.6729 22.7252C38.7586 22.8207 38.8634 22.8952 38.9796 22.9468C39.0976 22.9964 39.2234 23.0194 39.351 23.0155C39.5415 23.0251 39.73 22.9735 39.8919 22.8704C40.0386 22.7653 40.1415 22.6125 40.1872 22.4368H40.7091C40.6386 22.7252 40.471 22.9792 40.2348 23.1588C39.9776 23.3479 39.6634 23.4434 39.3453 23.4319C39.0843 23.4357 38.8253 23.3708 38.5986 23.2428C38.3815 23.1168 38.2043 22.9315 38.0881 22.708C37.9605 22.4559 37.8976 22.1789 37.9053 21.8963C37.8957 21.6193 37.9567 21.3481 38.0824 21.1017Z" fill="white"/>
<path d="M41.356 21.1023C41.4722 20.8807 41.6455 20.6973 41.8608 20.5694C42.0798 20.4414 42.3274 20.3765 42.5808 20.3803C42.817 20.3745 43.0493 20.4318 43.2551 20.5484C43.4341 20.6477 43.5846 20.7928 43.6874 20.9705V20.4299H44.1846V23.3924H43.6874V22.8404C43.5846 23.0218 43.436 23.1708 43.2551 23.274C43.0513 23.3905 42.8189 23.4497 42.5827 23.444C42.3313 23.4478 42.0855 23.379 41.8703 23.2491C41.657 23.1173 41.4836 22.9283 41.3693 22.7029C41.2436 22.4546 41.1808 22.1814 41.1846 21.9026C41.1751 21.6275 41.2341 21.3506 41.356 21.1023ZM43.5389 21.3219C43.457 21.1634 43.3313 21.0316 43.1751 20.9399C43.0208 20.854 42.8474 20.8081 42.6703 20.8081C42.4932 20.8081 42.3198 20.854 42.1655 20.9399C42.0113 21.0297 41.8855 21.1615 41.8036 21.3181C41.7103 21.4976 41.6646 21.7001 41.6703 21.9026C41.6665 22.1089 41.7122 22.3113 41.8036 22.4947C41.8855 22.6532 42.0113 22.7869 42.1655 22.8786C42.3179 22.9665 42.4913 23.0123 42.6665 23.0104C42.8436 23.0123 43.0189 22.9665 43.1713 22.8786C43.3255 22.7869 43.4513 22.6532 43.5351 22.4947C43.6284 22.3132 43.676 22.1108 43.6703 21.9064C43.6779 21.7039 43.6322 21.5034 43.5389 21.3219Z" fill="white"/>
<path d="M45.4914 19.3906V23.3921H45V19.3906H45.4914Z" fill="white"/>
<path d="M49.0074 22.1013H46.6455C46.6455 22.2255 46.6703 22.3496 46.7179 22.4642C46.7655 22.5788 46.8379 22.6839 46.9274 22.7698C47.017 22.8577 47.1236 22.9245 47.2398 22.9685C47.356 23.0124 47.4798 23.0334 47.6055 23.0296C47.7941 23.0372 47.9789 22.9876 48.137 22.8844C48.2779 22.787 48.3827 22.6476 48.436 22.4852H48.9655C48.8912 22.7641 48.7236 23.0105 48.4912 23.1805C48.2341 23.3638 47.9236 23.4574 47.6074 23.4479C47.3446 23.4517 47.0855 23.3867 46.8551 23.2588C46.6341 23.1327 46.4532 22.9455 46.3332 22.7201C46.2112 22.468 46.1465 22.193 46.1465 21.9122C46.1465 21.6333 46.2112 21.3564 46.3332 21.1062C46.4493 20.8827 46.6284 20.6974 46.8474 20.5733C47.0817 20.4453 47.3446 20.3823 47.6112 20.3861C47.8703 20.3804 48.1274 20.4453 48.356 20.5714C48.5674 20.6879 48.7408 20.8636 48.8551 21.0756C48.9732 21.2972 49.0341 21.5455 49.0303 21.7976C49.0265 21.9027 49.0208 22.002 49.0074 22.1013ZM48.3922 21.2189C48.3122 21.0852 48.196 20.9782 48.0551 20.9113C47.9084 20.8407 47.7465 20.8044 47.5827 20.8063C47.3484 20.8006 47.1217 20.8846 46.9484 21.0431C46.7674 21.217 46.6608 21.4519 46.6493 21.7021H48.5217C48.5255 21.5302 48.4817 21.3602 48.3922 21.2112V21.2189Z" fill="white"/>
<path d="M53.6646 20.4297L51.8779 24.7884H51.3712L51.9541 23.3616L50.7617 20.4297H51.3065L52.236 22.8306L53.1522 20.4297H53.6646Z" fill="white"/>
<path d="M54.6851 23.2565C54.4604 23.1305 54.2775 22.9452 54.1556 22.7179C54.0242 22.4696 53.9575 22.1907 53.9632 21.9099C53.9575 21.6292 54.0242 21.3522 54.1594 21.1077C54.2851 20.8823 54.4718 20.6971 54.6966 20.5729C54.9308 20.4507 55.1918 20.3857 55.4566 20.3857C55.7213 20.3857 55.9823 20.4488 56.2166 20.5729C56.4432 20.6952 56.628 20.8804 56.7537 21.1058C56.8889 21.3522 56.9575 21.6311 56.9518 21.9119C56.9575 22.1945 56.887 22.4734 56.748 22.7198C56.6185 22.9471 56.4299 23.1324 56.2013 23.2584C55.9651 23.3845 55.7023 23.4494 55.4356 23.4475C55.1727 23.4494 54.9137 23.3845 54.6851 23.2565ZM55.9328 22.8879C56.0908 22.8019 56.2204 22.672 56.308 22.5154C56.4013 22.3263 56.4489 22.12 56.4489 21.9099C56.4489 21.6998 56.4013 21.4936 56.308 21.3045C56.2242 21.1478 56.0966 21.0199 55.9404 20.9339C55.7899 20.8537 55.6204 20.8117 55.4489 20.8136C55.2775 20.8117 55.108 20.8537 54.9556 20.9339C54.8013 21.0199 54.6775 21.1478 54.5975 21.3045C54.5023 21.4916 54.4547 21.6998 54.4623 21.9099C54.4547 22.122 54.5004 22.3321 54.5956 22.5212C54.6737 22.6778 54.7975 22.8058 54.948 22.8917C55.0966 22.9719 55.2642 23.0139 55.4337 23.012C55.6089 23.012 55.7804 22.9681 55.9328 22.8841V22.8879Z" fill="white"/>
<path d="M60.2206 20.4297V23.3921H59.7291V22.9586C59.6339 23.1114 59.4987 23.2336 59.3387 23.3119C59.1672 23.3979 58.9768 23.4418 58.7863 23.4399C58.5711 23.4437 58.3577 23.3941 58.1653 23.2947C57.9806 23.1973 57.8301 23.0464 57.733 22.8612C57.6206 22.6472 57.5653 22.4066 57.573 22.164V20.4316H58.0587V22.101C58.0434 22.3454 58.1215 22.5861 58.2796 22.7733C58.3577 22.8535 58.453 22.9146 58.5558 22.9567C58.6606 22.9968 58.7711 23.0159 58.8834 23.0101C58.9977 23.0159 59.112 22.9987 59.2206 22.9567C59.3272 22.9146 59.4244 22.8516 59.5044 22.7676C59.6663 22.5689 59.7482 22.3149 59.7311 22.0589V20.4297H60.2206Z" fill="white"/>
<path d="M61.9098 20.5138C62.0889 20.4145 62.2908 20.3648 62.4965 20.3706V20.8805H62.367C61.8165 20.8805 61.5422 21.1804 61.5422 21.7763V23.3884H61.0508V20.4317H61.5422V20.913C61.6222 20.7449 61.7517 20.6074 61.9098 20.5138Z" fill="white"/>
<path d="M66.7362 19.8531C67.0258 19.9983 67.2677 20.2275 67.4258 20.5102C67.5934 20.8196 67.6753 21.1691 67.6658 21.5206C67.6734 21.8701 67.5915 22.2158 67.4258 22.5234C67.2677 22.806 67.0258 23.0314 66.7362 23.1728C66.4029 23.3294 66.0391 23.4058 65.6715 23.3962H64.502V19.6277H65.6715C66.0391 19.6182 66.4048 19.6946 66.7362 19.8531ZM66.7839 22.5978C67.0391 22.3381 67.1667 21.9771 67.1667 21.513C67.1781 21.3124 67.1496 21.1138 67.0829 20.9247C67.0162 20.7356 66.9134 20.5618 66.7801 20.4147C66.5229 20.1511 66.1534 20.0212 65.6715 20.0212H64.9915V22.9837H65.6715C66.1591 22.9875 66.5286 22.8595 66.7839 22.6036V22.5978Z" fill="white"/>
<path d="M70.9957 22.1012H68.6395C68.649 22.2712 68.7004 22.4354 68.7938 22.5787C68.8852 22.7219 69.0128 22.8384 69.1633 22.9187C69.3138 22.997 69.4814 23.0371 69.6509 23.0314C69.8204 23.0256 69.9861 22.976 70.1309 22.8862C70.2719 22.7888 70.3766 22.6493 70.43 22.487H70.9595C70.8833 22.7659 70.7176 23.0123 70.4833 23.1822C70.2261 23.3656 69.9157 23.4592 69.5995 23.4497C69.3347 23.4535 69.0738 23.3866 68.8414 23.2548C68.6204 23.1288 68.4395 22.9416 68.3195 22.7162C68.1976 22.4641 68.1328 22.189 68.1328 21.9083C68.1328 21.6275 68.1957 21.3524 68.3195 21.1003C68.4357 20.8768 68.6147 20.6916 68.8338 20.5674C69.0681 20.4394 69.3309 20.3764 69.5976 20.3802C69.8585 20.3745 70.1138 20.4394 70.3423 20.5655C70.5538 20.682 70.7271 20.8577 70.8414 21.0717C70.9595 21.2932 71.0204 21.5415 71.0166 21.7937C71.0109 21.8911 71.0052 21.9904 70.9957 22.1012ZM70.3804 21.2187C70.3004 21.085 70.1823 20.9781 70.0433 20.9112C69.8966 20.8406 69.7347 20.8043 69.5709 20.8062C69.3366 20.8004 69.11 20.8845 68.9366 21.043C68.7557 21.2168 68.649 21.4518 68.6376 21.702H70.51C70.5138 21.5301 70.4681 21.3601 70.3804 21.2111V21.2187Z" fill="white"/>
<path d="M73.7841 19.624V20.0232H72.1498V21.2933H73.4774V21.6925H72.1498V23.3906H71.6641V19.6221H73.7841V19.624Z" fill="white"/>
<path d="M74.4007 19.8505C74.353 19.8027 74.3226 19.7435 74.3092 19.6786C74.2959 19.6136 74.3035 19.5449 74.3283 19.4837C74.353 19.4226 74.3968 19.3691 74.4521 19.3329C74.5073 19.2966 74.5721 19.2756 74.6388 19.2775C74.6807 19.2775 74.7245 19.2851 74.7645 19.3023C74.8045 19.3195 74.8388 19.3443 74.8692 19.3768C74.9302 19.4398 74.9645 19.5258 74.9645 19.6136C74.9645 19.7015 74.9302 19.7874 74.8692 19.8505C74.8407 19.881 74.8045 19.9059 74.7645 19.9231C74.7245 19.9402 74.6826 19.9479 74.6388 19.946C74.5949 19.9479 74.5511 19.9383 74.5092 19.9231C74.4692 19.9059 74.4311 19.881 74.4007 19.8505ZM74.8768 20.4273V23.3898H74.3854V20.4273H74.8768Z" fill="white"/>
<path d="M77.7434 20.8344V22.5821C77.7377 22.6356 77.7434 22.691 77.7586 22.7444C77.7739 22.796 77.8005 22.8457 77.8348 22.8877C77.9262 22.9565 78.0386 22.9889 78.1529 22.9775H78.5129V23.3939H78.071C77.85 23.411 77.6291 23.3442 77.4558 23.2048C77.3815 23.1207 77.3243 23.0233 77.2881 22.9163C77.2539 22.8094 77.2405 22.6967 77.25 22.584V20.8363H76.8672V20.4314H77.25V19.6846H77.7415V20.4314H78.5129V20.8363H77.7434V20.8344Z" fill="white"/>
<path d="M79.9684 20.5138C80.1474 20.4145 80.3493 20.3648 80.5531 20.3706V20.8805H80.4236C79.8731 20.8805 79.5988 21.1804 79.5988 21.7783V23.3903H79.1074V20.4336H79.5988V20.9149C79.6808 20.7449 79.8084 20.6074 79.9684 20.5138Z" fill="white"/>
<path d="M81.1178 21.1023C81.234 20.8807 81.4092 20.6973 81.6226 20.5694C81.8416 20.4414 82.0892 20.3765 82.3426 20.3803C82.5788 20.3745 82.8111 20.4318 83.0169 20.5484C83.1959 20.6477 83.3464 20.7928 83.4492 20.9705V20.4299H83.9445V23.3924H83.4492V22.8404C83.3464 23.0218 83.1978 23.1708 83.0169 23.274C82.8131 23.3905 82.5807 23.4497 82.3464 23.444C82.095 23.4478 81.8492 23.379 81.634 23.2491C81.4188 23.1173 81.2454 22.9283 81.1311 22.7029C81.0054 22.4546 80.9426 22.1814 80.9483 21.9026C80.9388 21.6275 80.9959 21.3525 81.1178 21.1023ZM83.3026 21.3219C83.2207 21.1634 83.093 21.0297 82.9388 20.9399C82.7845 20.854 82.6111 20.8081 82.434 20.8081C82.2569 20.8081 82.0835 20.854 81.9292 20.9399C81.775 21.0297 81.6492 21.1596 81.5673 21.3181C81.474 21.4976 81.4283 21.7001 81.4321 21.9026C81.4283 22.1089 81.474 22.3113 81.5673 22.4947C81.6492 22.6532 81.775 22.7869 81.9292 22.8786C82.0816 22.9665 82.255 23.0123 82.4302 23.0104C82.6073 23.0123 82.7807 22.9665 82.935 22.8786C83.0911 22.7869 83.2169 22.6551 83.2988 22.4947C83.3921 22.3132 83.4378 22.1108 83.434 21.9064C83.4397 21.7058 83.394 21.5034 83.3026 21.3219Z" fill="white"/>
<path d="M84.7672 21.102C84.8834 20.8804 85.0567 20.6971 85.272 20.5691C85.491 20.4411 85.7386 20.3762 85.992 20.38C86.2167 20.3781 86.4377 20.4335 86.6339 20.5405C86.8205 20.636 86.9767 20.7811 87.0872 20.9588V19.3906H87.5824V23.3921H87.0872V22.8344C86.9843 23.0159 86.8358 23.1648 86.6548 23.268C86.451 23.3845 86.2205 23.4437 85.9843 23.438C85.7329 23.4418 85.4853 23.373 85.2701 23.2432C85.0548 23.1133 84.8796 22.9223 84.7672 22.6969C84.6415 22.4486 84.5786 22.1755 84.5843 21.8966C84.5786 21.6215 84.6415 21.3484 84.7672 21.102ZM86.952 21.3217C86.8681 21.1631 86.7424 21.0313 86.5881 20.9397C86.4339 20.8537 86.2605 20.8079 86.0834 20.8079C85.9062 20.8079 85.7329 20.8537 85.5786 20.9397C85.4243 21.0294 85.2986 21.1593 85.2167 21.3178C85.1234 21.4974 85.0758 21.6999 85.0815 21.9023C85.0758 22.1086 85.1234 22.3111 85.2167 22.4944C85.2986 22.653 85.4243 22.7867 85.5786 22.8783C85.731 22.9662 85.9043 23.012 86.0796 23.0101C86.2567 23.012 86.4301 22.9662 86.5843 22.8783C86.7386 22.7867 86.8662 22.653 86.9481 22.4944C87.0415 22.313 87.0872 22.1105 87.0834 21.9061C87.0872 21.7018 87.0415 21.5012 86.9462 21.3198H86.952V21.3217Z" fill="white"/>
<path d="M88.426 19.8505C88.3784 19.8027 88.348 19.7435 88.3346 19.6786C88.3213 19.6136 88.3289 19.5449 88.3537 19.4837C88.3784 19.4226 88.4222 19.3691 88.4775 19.3329C88.5327 19.2966 88.5975 19.2756 88.6641 19.2775C88.706 19.2775 88.7499 19.2851 88.7899 19.3023C88.8299 19.3195 88.8641 19.3443 88.8946 19.3749C88.9556 19.4379 88.9899 19.5239 88.9899 19.6117C88.9899 19.6996 88.9556 19.7855 88.8946 19.8486C88.866 19.8791 88.8299 19.904 88.7899 19.9211C88.7499 19.9383 88.7079 19.946 88.6641 19.946C88.6203 19.9479 88.5765 19.9383 88.5346 19.9231C88.4927 19.9059 88.4565 19.881 88.426 19.8505ZM88.9003 20.4273V23.3898H88.4089V20.4273H88.9003Z" fill="white"/>
<path d="M92.0507 20.7024C92.1669 20.8284 92.2583 20.9774 92.3155 21.1398C92.3726 21.3021 92.3974 21.474 92.3859 21.6459V23.3936H91.9002V21.7166C91.9174 21.4702 91.8374 21.2257 91.6793 21.0385C91.6012 20.9583 91.506 20.8972 91.4031 20.8552C91.3002 20.8132 91.1879 20.796 91.0774 20.8017C90.9631 20.796 90.8488 20.8151 90.7421 20.8571C90.6355 20.8991 90.5402 20.9641 90.4602 21.0462C90.2945 21.2429 90.2126 21.497 90.2317 21.7529V23.3917H89.7402V20.4292H90.2317V20.8514C90.3288 20.7005 90.466 20.5782 90.6279 20.4999C90.7993 20.4159 90.9898 20.3719 91.1802 20.3739C91.3402 20.3681 91.5002 20.393 91.6507 20.4483C91.7955 20.5056 91.9326 20.5916 92.0507 20.7024Z" fill="white"/>
<path d="M95.0785 20.5483C95.2575 20.6476 95.408 20.7928 95.5109 20.9704V20.4299H96.0004V23.463C96.0042 23.7151 95.9452 23.9634 95.8271 24.185C95.7128 24.3951 95.5414 24.567 95.3337 24.6797C95.1052 24.8019 94.848 24.8631 94.5871 24.8573C94.2423 24.8707 93.9033 24.7752 93.6156 24.5823C93.4899 24.4963 93.3852 24.3856 93.3071 24.2557C93.2271 24.1258 93.1776 23.9825 93.1566 23.8316H93.6423C93.6976 24.0131 93.8175 24.1659 93.9775 24.2652C94.1604 24.3798 94.3718 24.4371 94.5871 24.4314C94.709 24.4352 94.829 24.4161 94.9433 24.3722C95.0575 24.3283 95.1604 24.2614 95.248 24.1774C95.3375 24.0819 95.4061 23.9673 95.4499 23.8431C95.4937 23.719 95.5128 23.5872 95.5033 23.4554V22.8327C95.3985 23.0122 95.2499 23.1612 95.0709 23.2663C94.869 23.3847 94.6366 23.4458 94.4023 23.4401C94.1509 23.4439 93.9033 23.3751 93.688 23.2453C93.4728 23.1154 93.2976 22.9244 93.1852 22.699C93.0595 22.4507 92.9966 22.1776 93.0023 21.8987C92.9966 21.6217 93.0595 21.3467 93.1852 21.1003C93.3014 20.8787 93.4747 20.6954 93.6899 20.5674C93.909 20.4394 94.1566 20.3745 94.4099 20.3783C94.6442 20.3726 94.8747 20.4318 95.0785 20.5483ZM95.368 21.3219C95.2842 21.1633 95.1585 21.0315 95.0042 20.9399C94.8499 20.8539 94.6766 20.8081 94.4995 20.8081C94.3223 20.8081 94.149 20.8539 93.9947 20.9399C93.8404 21.0296 93.7147 21.1595 93.6328 21.318C93.5395 21.4976 93.4918 21.7 93.4975 21.9025C93.4918 22.1088 93.5395 22.3113 93.6328 22.4946C93.7147 22.6532 93.8404 22.7869 93.9947 22.8785C94.1471 22.9664 94.3204 23.0122 94.4956 23.0103C94.6728 23.0122 94.8461 22.9664 95.0004 22.8785C95.1547 22.7869 95.2823 22.6532 95.3642 22.4946C95.4575 22.3132 95.5033 22.1107 95.4995 21.9063C95.5071 21.7039 95.4633 21.5014 95.3718 21.32H95.368V21.3219Z" fill="white"/>
</svg>
