<svg width="128" height="53" viewBox="0 0 128 53" fill="none" xmlns="http://www.w3.org/2000/svg">
<path d="M26.5 0C11.8696 0 0 11.8696 0 26.5C0 41.1304 11.8696 53 26.5 53C41.1304 53 53 41.1304 53 26.5C53 11.8696 41.1304 0 26.5 0ZM26.5 37.913C20.1957 37.913 15.087 32.8043 15.087 26.5C15.087 20.1957 20.1957 15.087 26.5 15.087C32.8043 15.087 37.913 20.1957 37.913 26.5C37.913 32.8043 32.8043 37.913 26.5 37.913Z" fill="url(#paint0_radial_2739_619)"/>
<path d="M60.2824 26.3753C60.2824 28.0003 59.1069 29.3337 56.672 29.3337H54.153V32.4587C54.153 32.542 54.069 32.6253 53.9431 32.667H53.0615C52.9775 32.667 52.8935 32.5837 52.8516 32.4587V23.6253C52.8516 23.542 52.9355 23.417 53.0615 23.417H56.63C59.1069 23.417 60.2824 24.7503 60.2824 26.3753ZM58.981 26.3753C58.981 25.3337 58.3512 24.4587 56.462 24.4587H54.195V28.2503H56.462C58.3512 28.292 58.981 27.4587 58.981 26.3753Z" fill="white"/>
<path d="M75.4802 28.0416C75.4382 30.625 73.2971 32.7083 70.6942 32.7083C68.0913 32.7083 65.9922 30.5416 65.9922 27.9583C66.0342 25.375 68.1333 23.2916 70.7362 23.2916C73.2971 23.25 75.4382 25.2916 75.4802 27.875C75.4802 27.9166 75.4802 28 75.4802 28.0416ZM74.1787 28.0416C74.1787 25.875 72.7513 24.375 70.7782 24.375C68.805 24.375 67.3776 25.875 67.3776 28.0416C67.3776 30.2083 68.805 31.7083 70.8202 31.7083C72.7513 31.7083 74.1787 30.2083 74.1787 28.0416Z" fill="white"/>
<path d="M88.7893 32.292C88.8733 32.3753 88.8733 32.542 88.7474 32.6253C88.7054 32.667 88.6214 32.7087 88.5794 32.667H87.6978C87.6558 32.667 87.5719 32.6253 87.5719 32.5837L85.3468 29.2087H82.9538V32.4587C82.9538 32.542 82.8698 32.6253 82.7439 32.667H81.8623C81.7783 32.667 81.6943 32.5837 81.6523 32.4587V23.6253C81.6523 23.542 81.7363 23.4587 81.8623 23.417H85.3048C87.6978 23.417 88.9153 24.667 88.9153 26.292C88.9153 27.5837 88.1596 28.6253 86.6482 29.042L88.7893 32.292ZM85.0109 28.1253C86.9001 28.1253 87.5299 27.3337 87.5299 26.292C87.5299 25.2503 86.9001 24.4587 85.0109 24.4587H82.8698V28.1253H85.0109Z" fill="white"/>
<path d="M102.518 23.6253V24.292C102.518 24.3753 102.434 24.4587 102.35 24.5003H99.1171V32.4587C99.1171 32.542 99.0331 32.6253 98.9071 32.667H98.0255C97.9415 32.667 97.8156 32.5837 97.8156 32.4587V24.5003H94.583C94.499 24.5003 94.373 24.417 94.373 24.292V23.6253C94.373 23.542 94.457 23.4587 94.583 23.417H102.266C102.434 23.417 102.518 23.5003 102.518 23.6253Z" fill="white"/>
<path d="M115.572 32.667H114.523C114.439 32.667 114.355 32.6253 114.313 32.542L113.305 30.2087H108.939L107.848 32.542C107.806 32.6253 107.722 32.667 107.638 32.667H106.714C106.588 32.667 106.504 32.5837 106.546 32.4587L110.87 23.417C110.912 23.3337 110.996 23.292 111.08 23.292H111.374C111.458 23.292 111.542 23.3337 111.584 23.417L115.698 32.417C115.782 32.542 115.74 32.667 115.572 32.667ZM112.885 29.167L111.206 25.3337L109.401 29.167H112.885Z" fill="white"/>
<path d="M127.999 31.792V32.4587C127.999 32.542 127.915 32.6253 127.831 32.667H121.618C121.534 32.667 121.45 32.5837 121.408 32.4587V23.6253C121.408 23.542 121.492 23.4587 121.618 23.417H122.5C122.584 23.417 122.668 23.5003 122.71 23.6253V31.5837H127.831C127.915 31.5837 127.999 31.667 127.999 31.792C127.999 31.7503 127.999 31.7503 127.999 31.792Z" fill="white"/>
<defs>
<radialGradient id="paint0_radial_2739_619" cx="0" cy="0" r="1" gradientUnits="userSpaceOnUse" gradientTransform="translate(26.4976 26.4965) scale(22.211)">
<stop offset="0.2254" stop-color="white"/>
<stop offset="0.5444" stop-color="white" stop-opacity="0.44"/>
<stop offset="0.6859" stop-color="white" stop-opacity="0.23"/>
<stop offset="0.8568" stop-color="white" stop-opacity="0.07"/>
<stop offset="1" stop-color="white" stop-opacity="0"/>
</radialGradient>
</defs>
</svg>
