<svg width="120" height="43" viewBox="0 0 120 43" fill="none" xmlns="http://www.w3.org/2000/svg">
<path d="M68.3842 30.5626H65.5944C65.447 30.5621 65.3058 30.5033 65.2015 30.399C65.0973 30.2947 65.0385 30.1534 65.038 30.0058V23.5979L59.0152 12.7434C58.9683 12.659 58.9442 12.5637 58.9454 12.4672C58.9465 12.3706 58.9728 12.2759 59.0217 12.1927C59.0707 12.1094 59.1404 12.0403 59.2242 11.9923C59.308 11.9443 59.4028 11.919 59.4993 11.9189H62.4707C62.5716 11.9193 62.6706 11.9472 62.7569 11.9995C62.8432 12.0518 62.9137 12.1266 62.9608 12.2159L66.9747 19.8781H67.0664L71.0921 12.2159C71.1392 12.1262 71.2099 12.051 71.2966 11.9987C71.3834 11.9463 71.4828 11.9188 71.5841 11.9189H74.4891C74.5856 11.919 74.6805 11.9443 74.7642 11.9923C74.848 12.0403 74.9178 12.1094 74.9667 12.1927C75.0156 12.2759 75.0419 12.3706 75.0431 12.4672C75.0442 12.5637 75.0201 12.659 74.9732 12.7434L68.9387 23.5979V30.0058C68.9387 30.1532 68.8803 30.2945 68.7764 30.3989C68.6725 30.5032 68.5315 30.5621 68.3842 30.5626Z" fill="white"/>
<path d="M90.4201 30.5626H87.6244C87.4779 30.5626 87.3374 30.5044 87.2338 30.4007C87.1301 30.297 87.0719 30.1564 87.0719 30.0097V15.1366H82.24C82.0938 15.1361 81.9538 15.0776 81.8506 14.974C81.7474 14.8704 81.6895 14.73 81.6895 14.5837V12.4699C81.6895 12.3975 81.7037 12.3259 81.7314 12.259C81.759 12.1922 81.7996 12.1315 81.8507 12.0803C81.9018 12.0292 81.9625 11.9886 82.0293 11.9609C82.0961 11.9332 82.1677 11.9189 82.24 11.9189H95.8163C95.9625 11.9189 96.1027 11.9769 96.2063 12.0802C96.3098 12.1835 96.3683 12.3236 96.3688 12.4699V14.5837C96.3688 14.7304 96.3106 14.871 96.2069 14.9747C96.1033 15.0784 95.9628 15.1366 95.8163 15.1366H90.9707V30.0097C90.9707 30.156 90.9127 30.2964 90.8095 30.4C90.7064 30.5036 90.5663 30.5621 90.4201 30.5626Z" fill="white"/>
<path d="M50.2839 13.6753C49.0904 12.5031 47.5344 11.917 45.6159 11.917H38.5916C38.4466 11.917 38.3075 11.9746 38.205 12.0772C38.1025 12.1798 38.0449 12.3189 38.0449 12.464V30.0156C38.0449 30.1607 38.1025 30.2998 38.205 30.4024C38.3075 30.505 38.4466 30.5626 38.5916 30.5626H41.397C41.542 30.5626 41.681 30.505 41.7836 30.4024C41.8861 30.2998 41.9437 30.1607 41.9437 30.0156V15.0057H44.591C45.709 15.0057 46.5758 15.2923 47.1914 15.8653C47.8071 16.4384 48.1149 17.2544 48.1149 18.3132C48.1149 19.3734 47.8051 20.192 47.1856 20.769C46.6585 21.2587 45.9504 21.5407 45.0615 21.6149C44.9284 21.6272 44.8048 21.689 44.7151 21.7881C44.6254 21.8873 44.5763 22.0165 44.5773 22.1502V24.1469C44.5773 24.2893 44.6339 24.426 44.7346 24.5267C44.8352 24.6275 44.9718 24.6841 45.1142 24.6841H45.4246C47.3938 24.6841 48.9947 24.098 50.2273 22.9258C51.4598 21.7536 52.0715 20.2122 52.0624 18.3015C52.0624 16.3895 51.4696 14.8475 50.2839 13.6753Z" fill="white"/>
<path d="M119.467 11.919H116.634C116.564 11.9184 116.494 11.9319 116.429 11.9584C116.364 11.985 116.305 12.0242 116.255 12.0738C116.205 12.1234 116.165 12.1823 116.138 12.2473C116.111 12.3123 116.097 12.3819 116.097 12.4523V19.4854H110.826C110.697 19.4854 110.573 19.5367 110.482 19.6279C110.391 19.7192 110.34 19.8429 110.34 19.9719V22.2206C110.34 22.3496 110.391 22.4733 110.482 22.5645C110.573 22.6558 110.697 22.707 110.826 22.707H115.566C115.708 22.707 115.843 22.7632 115.943 22.8632C116.043 22.9632 116.099 23.0989 116.099 23.2404V30.0293C116.1 30.1706 116.156 30.306 116.256 30.4059C116.356 30.5058 116.491 30.5621 116.632 30.5626H119.465C119.535 30.5626 119.604 30.5488 119.669 30.522C119.734 30.4952 119.792 30.456 119.842 30.4064C119.891 30.3569 119.931 30.2981 119.957 30.2334C119.984 30.1687 119.998 30.0993 119.998 30.0293V12.4464C119.996 12.3064 119.94 12.1725 119.84 12.0738C119.741 11.9751 119.607 11.9195 119.467 11.919Z" fill="white"/>
<path d="M107.703 18.0007V12.4523C107.703 12.3822 107.69 12.3129 107.663 12.2482C107.636 12.1835 107.597 12.1247 107.547 12.0752C107.498 12.0256 107.439 11.9864 107.374 11.9595C107.31 11.9327 107.24 11.9189 107.17 11.9189H104.345C104.204 11.9189 104.069 11.9751 103.969 12.0752C103.869 12.1752 103.812 12.3108 103.812 12.4523V30.0351C103.812 30.1052 103.826 30.1745 103.853 30.2392C103.88 30.304 103.919 30.3628 103.969 30.4123C104.018 30.4618 104.077 30.5011 104.142 30.5279C104.206 30.5547 104.275 30.5685 104.345 30.5685H107.178C107.248 30.5685 107.318 30.5547 107.382 30.5279C107.447 30.5011 107.506 30.4618 107.555 30.4123C107.605 30.3628 107.644 30.304 107.671 30.2392C107.697 30.1745 107.711 30.1052 107.711 30.0351V26.4014L107.703 18.0007Z" fill="white"/>
<path d="M15.6817 16.4692C16.5741 16.4696 17.4466 16.2049 18.1885 15.7087C18.9304 15.2125 19.5085 14.5071 19.8495 13.6818C20.1905 12.8565 20.279 11.9486 20.1038 11.0729C19.9287 10.1973 19.4978 9.39333 18.8656 8.76297C18.2335 8.1326 17.4287 7.70418 16.553 7.53195C15.6774 7.35973 14.7703 7.45146 13.9468 7.79552C13.1233 8.13959 12.4204 8.72051 11.9271 9.46469C11.4338 10.2089 11.1723 11.0828 11.1758 11.9758C11.1815 13.1685 11.6585 14.3105 12.5028 15.1524C13.347 15.9943 14.4899 16.4677 15.6817 16.4692ZM15.6817 9.01214C16.2638 9.01177 16.833 9.18394 17.3173 9.50696C17.8017 9.82998 18.1796 10.2893 18.4034 10.8271C18.6271 11.3648 18.6866 11.9569 18.5744 12.5284C18.4622 13.1 18.1833 13.6255 17.773 14.0386C17.3626 14.4517 16.8391 14.7339 16.2686 14.8495C15.6982 14.9652 15.1062 14.9092 14.5675 14.6885C14.0288 14.4678 13.5675 14.0924 13.2419 13.6096C12.9162 13.1268 12.7407 12.5583 12.7377 11.9758C12.7369 11.5883 12.8124 11.2043 12.96 10.846C13.1076 10.4877 13.3242 10.162 13.5976 9.88745C13.871 9.61294 14.1958 9.39504 14.5534 9.24619C14.911 9.09734 15.2944 9.02047 15.6817 9.01995V9.01214Z" fill="white"/>
<path d="M15.6821 20.2046C17.3108 20.2046 18.9029 19.7212 20.257 18.8155C21.6111 17.9098 22.6663 16.6225 23.2891 15.1166C23.912 13.6106 24.0744 11.9536 23.756 10.3552C23.4375 8.75685 22.6525 7.2889 21.5001 6.13711C20.3477 4.98532 18.8799 4.20143 17.2822 3.88465C15.6846 3.56787 14.0289 3.73243 12.5247 4.35748C11.0205 4.98253 9.73542 6.04 8.83196 7.39611C7.9285 8.75221 7.44729 10.346 7.44922 11.9759V34.3452C7.44922 34.5524 7.5315 34.7512 7.67795 34.8977C7.8244 35.0443 8.02303 35.1266 8.23014 35.1266C8.43726 35.1266 8.63589 35.0443 8.78234 34.8977C8.92879 34.7512 9.01106 34.5524 9.01106 34.3452V16.7857C9.77309 17.8434 10.7752 18.7049 11.935 19.2993C13.0948 19.8937 14.379 20.204 15.6821 20.2046ZM15.6821 5.29242C17.0011 5.29242 18.2906 5.68374 19.3875 6.41692C20.4843 7.1501 21.3394 8.19224 21.8445 9.4116C22.3497 10.631 22.4822 11.9728 22.2255 13.2675C21.9687 14.5622 21.3341 15.7518 20.4019 16.6857C19.4698 17.6196 18.2818 18.256 16.9883 18.5144C15.6948 18.7729 14.3537 18.6418 13.1346 18.1377C11.9155 17.6337 10.8731 16.7793 10.1391 15.6825C9.40517 14.5857 9.01261 13.2958 9.01106 11.9759C9.01054 10.2045 9.71297 8.50542 10.9639 7.25215C12.2149 5.99887 13.9119 5.29397 15.6821 5.29242Z" fill="white"/>
<path d="M15.6824 0C12.5104 0.00362334 9.46954 1.26683 7.22752 3.51224C4.9855 5.75765 3.72564 8.80168 3.72461 11.9759V41.7925C3.72461 41.9997 3.80688 42.1985 3.95333 42.3451C4.09979 42.4916 4.29842 42.5739 4.50553 42.5739C4.71264 42.5739 4.91127 42.4916 5.05772 42.3451C5.20417 42.1985 5.28645 41.9997 5.28645 41.7925V11.9759C5.28645 9.91832 5.89616 7.90697 7.03849 6.19617C8.18081 4.48538 9.80444 3.15197 11.7041 2.36458C13.6037 1.57719 15.694 1.37117 17.7106 1.77258C19.7272 2.17399 21.5796 3.1648 23.0335 4.61971C24.4874 6.07462 25.4775 7.92829 25.8787 9.94631C26.2798 11.9643 26.0739 14.0561 25.2871 15.957C24.5002 17.8579 23.1677 19.4827 21.4581 20.6258C19.7485 21.7689 17.7386 22.3791 15.6824 22.3791C15.4753 22.3791 15.2767 22.4614 15.1302 22.6079C14.9838 22.7545 14.9015 22.9533 14.9015 23.1605C14.9015 23.3678 14.9838 23.5665 15.1302 23.7131C15.2767 23.8596 15.4753 23.942 15.6824 23.942C18.8538 23.942 21.8954 22.6813 24.1379 20.4372C26.3804 18.1931 27.6403 15.1495 27.6403 11.9759C27.6403 8.80226 26.3804 5.75864 24.1379 3.51455C21.8954 1.27047 18.8538 0.00976587 15.6824 0.00976587V0Z" fill="white"/>
<path d="M0.780919 14.9072C0.573807 14.9072 0.375182 14.9896 0.228731 15.1361C0.0822806 15.2827 0 15.4814 0 15.6887V30.6009C0 30.8082 0.0822806 31.0069 0.228731 31.1535C0.375182 31.3 0.573807 31.3824 0.780919 31.3824C0.988032 31.3824 1.18666 31.3 1.33311 31.1535C1.47956 31.0069 1.56184 30.8082 1.56184 30.6009V15.6887C1.56184 15.4814 1.47956 15.2827 1.33311 15.1361C1.18666 14.9896 0.988032 14.9072 0.780919 14.9072Z" fill="white"/>
<path d="M11.9567 29.8271C11.7496 29.8271 11.551 29.9095 11.4045 30.056C11.2581 30.2026 11.1758 30.4014 11.1758 30.6086V38.0657C11.1758 38.2729 11.2581 38.4717 11.4045 38.6183C11.551 38.7648 11.7496 38.8471 11.9567 38.8471C12.1638 38.8471 12.3624 38.7648 12.5089 38.6183C12.6553 38.4717 12.7376 38.2729 12.7376 38.0657V30.6086C12.7376 30.4014 12.6553 30.2026 12.5089 30.056C12.3624 29.9095 12.1638 29.8271 11.9567 29.8271Z" fill="white"/>
</svg>
