<svg width="120" height="27" viewBox="0 0 120 27" fill="none" xmlns="http://www.w3.org/2000/svg">
<path d="M39.3278 26.511H35.7754V21.0742H39.2439V21.4666H36.2509V23.5684H39.0201V23.9888H36.2509V26.0906H39.3278V26.511Z" fill="white"/>
<path d="M48.336 24.0723L46.6577 26.4824H46.0703L48.0284 23.736L46.2102 21.0176H46.7696L48.336 23.3716L49.9864 21.0176H50.5738L48.6158 23.7079L50.6018 26.4543H50.0144L48.336 24.0723Z" fill="white"/>
<path d="M62.0984 22.7557V22.8398H61.5949L61.5669 22.7557C61.3991 21.9149 60.8396 21.3544 59.8606 21.3544C58.7417 21.3544 57.8746 22.3073 57.8746 23.7926C57.8746 25.3059 58.6858 26.2307 59.8047 26.2307C60.8117 26.2307 61.3711 25.6142 61.5389 24.8015L61.5669 24.7174H62.0704V24.8015C61.9305 25.8104 61.2033 26.6511 59.8047 26.6511C58.2942 26.6511 57.3711 25.5021 57.3711 23.8486C57.3711 22.1952 58.434 20.9901 59.9165 20.9901C61.2592 20.9341 61.9585 21.7188 62.0984 22.7557Z" fill="white"/>
<path d="M73.7622 26.511H73.2587V24.0448H70.0699V26.511H69.5664V21.0742H70.0699V23.6245H73.2867V21.0742H73.7902V26.511H73.7622Z" fill="white"/>
<path d="M82.1546 24.4929L81.4553 26.4827H80.9238L82.9658 21.0459H83.6371L85.6231 26.4827H85.0917L84.3644 24.4929H82.1546ZM84.1966 24.1006L83.2735 21.4663L82.2945 24.1006H84.1966Z" fill="white"/>
<path d="M96.0845 26.511L93.2314 21.5506C93.2594 22.2232 93.2594 23.0359 93.2594 23.7085V26.511H92.7559V21.0742H93.5111L96.3642 26.0346C96.3363 25.362 96.3363 24.5493 96.3363 23.8767V21.0742H96.8118V26.511H96.0845Z" fill="white"/>
<path d="M108.868 23.9612V26.5115H108.42V25.3905L108.197 25.8669C107.833 26.3713 107.246 26.5955 106.602 26.5955C105.092 26.5955 104.141 25.4465 104.141 23.7931C104.141 22.1396 105.204 20.9346 106.714 20.9346C108.029 20.9346 108.756 21.7193 108.896 22.7281V22.8122H108.392V22.7562C108.225 21.9154 107.665 21.3549 106.686 21.3549C105.539 21.3549 104.672 22.3078 104.672 23.7931C104.672 25.3064 105.483 26.2312 106.602 26.2312C107.469 26.2312 108.336 25.6147 108.336 24.3816H106.854V23.9892L108.868 23.9612Z" fill="white"/>
<path d="M120 26.511H116.447V21.0742H119.916V21.4666H116.923V23.5684H119.692V23.9888H116.923V26.0906H120V26.511Z" fill="white"/>
<path d="M38.7404 12.2467L46.8243 18.7764H51.0201L45.7055 14.9931H50.9083V13.5078C50.9083 9.92068 49.4537 6.47367 46.9083 3.95146C44.3628 1.42925 40.8943 0 37.2579 0H35.7754V18.7484H38.7404V12.2467ZM38.7404 3.02665C41.0341 3.36294 43.16 4.39985 44.8104 6.02528C46.4607 7.6507 47.5236 9.75254 47.8313 12.0225H38.7404V3.02665Z" fill="white"/>
<path d="M92.1952 18.7204H88.0273V0H98.6567V2.94258H91.0203V15.7778H92.2231C94.0693 15.7778 95.8875 15.1333 97.3141 13.9562C98.7406 12.7792 99.7197 11.1538 100.055 9.33217H94.405V6.38959H103.16V7.87489C103.16 10.7614 102.013 13.5078 99.9434 15.5536C97.8735 17.5714 95.1043 18.7204 92.1952 18.7204Z" fill="white"/>
<path d="M104.867 5.21256V0H120V18.7204H118.518C114.909 18.7204 111.441 17.2911 108.867 14.7409C106.294 12.2187 104.867 8.7997 104.867 5.21256ZM107.832 2.94258V5.21256C107.832 7.7628 108.755 10.229 110.462 12.1626C112.14 14.0963 114.49 15.3574 117.035 15.6937V2.94258H107.832Z" fill="white"/>
<path d="M82.1262 0V9.2481L72.9514 0H69.9863V18.7484H72.9514V4.28775L82.1262 13.3957V18.7484H85.0912V0H82.1262Z" fill="white"/>
<path d="M54.3497 0H52.8672V18.7484H55.8322V3.02665C58.1259 3.36294 60.2518 4.39985 61.9021 6.02528C63.5525 7.6507 64.6154 9.75254 64.9231 12.0225H57.5945V14.9651H65.035V18.7204H68.0001V13.5078C68.0001 9.92068 66.5455 6.47367 64 3.95146C61.4266 1.42925 57.9581 0 54.3497 0Z" fill="white"/>
<path d="M30.8531 16.5625C30.8531 12.1626 29.0909 7.95897 25.958 4.84824C22.8252 1.73752 18.5734 0 14.1538 0H12.4196V6.80996L5.56643 0H0.615385L8.97902 8.29526H0V10.0328C0 14.4326 1.76224 18.6363 4.8951 21.747C8.02797 24.8578 12.2797 26.5953 16.6993 26.5953H18.4336V19.7853L25.2028 26.4832H30.1259L21.8462 18.272H30.8531V16.5625ZM15.9161 14.825H11.4406C10.965 14.825 10.5455 15.0212 10.2098 15.3294C9.87412 15.6657 9.70629 16.0861 9.70629 16.5625C9.70629 17.0109 9.9021 17.4593 10.2098 17.7956C10.5455 18.1319 10.993 18.3 11.4406 18.3H14.965V23.0362C12.0839 22.6438 9.42657 21.3547 7.35664 19.3089C5.31468 17.2631 3.97203 14.6288 3.60839 11.7703H19.4126C19.6364 11.7703 19.8881 11.7423 20.0839 11.6582C20.3077 11.5741 20.5035 11.434 20.6713 11.2939C20.8392 11.1257 20.979 10.9296 21.0629 10.7334C21.1469 10.5092 21.2028 10.285 21.2028 10.0608C21.2028 9.83661 21.1469 9.61242 21.0629 9.38822C20.979 9.16402 20.8392 8.99588 20.6713 8.82773C20.5035 8.65958 20.3077 8.54748 20.0839 8.46341C19.8601 8.37934 19.6364 8.35131 19.4126 8.35131H15.8881V3.55912C18.7692 3.95146 21.4266 5.24059 23.4965 7.28638C25.5385 9.33217 26.8811 11.9665 27.2448 14.825H15.9161ZM17.8462 9.97673C17.8462 9.69649 17.9301 9.44427 18.0699 9.22007C18.2098 8.99587 18.4336 8.82773 18.6853 8.71563C18.9371 8.60353 19.2168 8.57551 19.4965 8.63156C19.7762 8.6876 20 8.82773 20.1958 8.99588C20.3916 9.19205 20.5315 9.44427 20.5874 9.69649C20.6434 9.97673 20.6154 10.229 20.5035 10.4812C20.3916 10.7334 20.2238 10.9576 20 11.0977C19.7762 11.2378 19.4965 11.3219 19.2168 11.3219C18.8531 11.3219 18.4895 11.1818 18.2378 10.9296C18.014 10.7054 17.8462 10.3411 17.8462 9.97673Z" fill="white"/>
<path d="M19.8875 10.6216C19.8875 10.5095 19.8595 10.3694 19.7756 10.2853C19.7197 10.1732 19.6078 10.0891 19.4959 10.0611C19.384 10.005 19.2442 10.005 19.1323 10.0331C19.0204 10.0611 18.9085 10.1171 18.7966 10.2012C18.7127 10.2853 18.6567 10.3974 18.6288 10.5375C18.6008 10.6496 18.6288 10.7897 18.6567 10.9018C18.7127 11.0139 18.7966 11.126 18.8805 11.1821C18.9924 11.2381 19.1043 11.2942 19.2442 11.2942C19.412 11.2942 19.5798 11.2381 19.6917 11.098C19.8036 10.9298 19.8595 10.7897 19.8875 10.6216Z" fill="white"/>
</svg>
