<svg width="120" height="33" viewBox="0 0 120 33" fill="none" xmlns="http://www.w3.org/2000/svg">
<path fill-rule="evenodd" clip-rule="evenodd" d="M41.25 20.2632L39.7669 17.695H37.5993V20.2632H36.3281V12.5586H40.1581C40.6307 12.5586 41.0871 12.6731 41.4945 12.9185C41.9019 13.1638 42.2279 13.5074 42.4398 13.9163C42.6516 14.3252 42.7657 14.7996 42.7331 15.274C42.7005 15.7484 42.5538 16.1901 42.2931 16.5826C42.016 16.9916 41.6249 17.3187 41.1685 17.4987L42.7494 20.2632H41.25ZM40.1581 13.8672H37.5993V16.4191H40.1581C40.3211 16.4191 40.484 16.3863 40.647 16.3209C40.7937 16.2555 40.9404 16.1573 41.0545 16.0265C41.2337 15.8465 41.3478 15.6175 41.3967 15.3722C41.4456 15.1268 41.413 14.8651 41.3315 14.636C41.2337 14.407 41.0708 14.2107 40.8589 14.0635C40.647 13.9163 40.4026 13.8509 40.1581 13.8345V13.8672ZM53.7993 12.5586L49.953 20.2632H51.3872L53.7993 15.4376L56.2113 20.2632H57.6455L53.7993 12.5586ZM69.9992 12.5586H68.3694L66.1855 15.4049L64.0016 12.5586H62.3719L65.5825 16.6644V20.2632H66.8537V16.599L69.9992 12.5586ZM76.5346 12.5586H79.0933C80.1038 12.5586 81.0816 12.9675 81.7987 13.6873C82.5158 14.407 82.9233 15.3885 82.9233 16.4027C82.9233 17.4169 82.5158 18.3984 81.7987 19.1181C81.0816 19.8379 80.1038 20.2468 79.0933 20.2468H76.5346V12.5586ZM79.077 18.9545C79.7615 18.9545 80.3971 18.6765 80.886 18.2021C81.3587 17.7277 81.6357 17.0734 81.6357 16.3863C81.6357 15.7157 81.3587 15.0614 80.886 14.587C80.4134 14.1126 79.7615 13.8345 79.0933 13.8345H77.8058V18.9709H79.077V18.9545ZM91.4307 12.5586H90.1594V20.2632H91.4307V12.5586ZM105.072 17.0407C105.072 17.466 105.007 17.8913 104.844 18.2839C104.681 18.6765 104.436 19.0363 104.143 19.3144C103.703 19.7561 103.132 20.0669 102.513 20.1977C101.894 20.3286 101.258 20.2632 100.671 20.0178C100.085 19.7724 99.5958 19.3635 99.2373 18.84C98.8787 18.3166 98.6994 17.695 98.6994 17.057V12.5586H99.9707V17.0407C99.9707 17.5478 100.166 18.0385 100.525 18.3984C100.883 18.7582 101.372 18.9545 101.877 18.9545C102.383 18.9545 102.872 18.7582 103.23 18.3984C103.589 18.0385 103.784 17.5478 103.784 17.0407V12.5586H105.072V17.0407ZM113.579 20.2632V15.6666L116.154 18.2348L118.713 15.6666V20.2632H120.001V12.5586L116.154 16.4027L112.324 12.5586V20.2632H113.579Z" fill="#F1F1F2"/>
<path d="M26.8586 12.3339V23.7844L14.1627 31.1455L1.46679 23.7844V9.06229L14.1627 1.70122L23.925 7.36107L25.3918 6.51045L14.179 0L0 8.21168V24.635L14.179 32.8467L28.358 24.635V11.4669L26.8586 12.3339Z" fill="white"/>
<path d="M10.6148 23.7797H8.49609V16.6313H15.5693C16.2375 16.6313 16.8731 16.3532 17.3457 15.8789C17.8184 15.4045 18.0791 14.7502 18.0791 14.0795C18.0791 13.7523 18.014 13.4252 17.8836 13.1144C17.7532 12.8036 17.5739 12.5255 17.3294 12.2965C17.1013 12.0511 16.8242 11.8712 16.5146 11.7403C16.2049 11.6094 15.879 11.544 15.553 11.544H8.49609V9.38477H15.5856C16.8242 9.38477 18.014 9.89186 18.894 10.7752C19.7741 11.6585 20.263 12.8526 20.2793 14.0958C20.2793 15.0446 20.0023 15.977 19.4482 16.7622C18.9429 17.5147 18.2421 18.0872 17.4109 18.4471C16.5961 18.7088 15.7323 18.8396 14.8848 18.8233H10.6148V23.7797Z" fill="white"/>
<path d="M20.2044 23.6063H17.7271L15.8203 20.2529C16.57 20.2039 17.3197 20.0566 18.0368 19.7949L20.2044 23.6063Z" fill="white"/>
<path d="M25.3906 9.94124L26.8574 10.7591L28.3242 9.94124V8.22366L26.8574 7.37305L25.3906 8.22366V9.94124Z" fill="white"/>
</svg>
