<svg width="120" height="26" viewBox="0 0 120 26" fill="none" xmlns="http://www.w3.org/2000/svg">
<path fill-rule="evenodd" clip-rule="evenodd" d="M24.3747 0H23.8942H4.99665C4.16387 0 3.4432 0.111373 2.83464 0.350028C2.21005 0.620504 1.69758 0.954622 1.28119 1.36829C0.848789 1.81378 0.528491 2.307 0.320298 2.84796C0.112104 3.42073 0.0160149 4.00941 0.0160149 4.61401V9.2121C0.0160149 9.64168 0.368342 9.99171 0.800744 9.99171H17.6164L10.0734 4.99586H23.8942H24.3747C24.8071 4.99586 25.1594 4.64583 25.1594 4.21625V0.779608C25.1434 0.350028 24.8071 0 24.3747 0ZM0.800744 24.9634H1.28119H20.1788C21.0115 24.9634 21.7322 24.852 22.3408 24.6133C22.9654 24.3588 23.4778 24.0247 23.8942 23.5951C24.3266 23.1496 24.6469 22.6564 24.8551 22.1154C25.0633 21.5426 25.1594 20.9699 25.1594 20.3653V15.7513C25.1594 15.3217 24.8071 14.9717 24.3747 14.9717H7.55903L15.102 19.9675H1.26518H0.78473C0.352328 19.9675 0 20.3175 0 20.7471V24.1838C0.0160149 24.6293 0.368342 24.9634 0.800744 24.9634Z" fill="white"/>
<path d="M36.002 18.0746C36.1461 22.4976 39.7815 25.2024 45.4988 25.2024C51.3923 25.2024 55.1237 22.3067 55.1237 17.7404C55.1237 14.1447 53.0578 12.1241 48.3014 11.1058L45.4187 10.5012C42.6802 9.88072 41.5431 9.06929 41.5431 7.60554C41.5431 5.8554 43.1926 4.69394 45.6429 4.69394C48.1252 4.69394 49.8869 5.90313 50.047 7.89192H54.7073C54.6273 3.62794 51.152 0.795898 45.6269 0.795898C40.326 0.795898 36.5465 3.67568 36.5465 8.01921C36.5465 11.4718 38.7085 13.6674 43.0805 14.6061L46.1714 15.2743C49.0381 15.9108 50.1751 16.754 50.1751 18.2973C50.1751 20.0315 48.3654 21.2885 45.723 21.2885C43.0965 21.2885 41.0466 20.0156 40.8224 18.0746H36.002Z" fill="white"/>
<path d="M63.2286 21.6224C61.5951 21.6224 60.5061 20.8109 60.5061 19.4904C60.5061 18.2494 61.5311 17.4538 63.3247 17.3107L67.0402 17.0879V18.3607C67.0562 20.27 65.3266 21.6224 63.2286 21.6224ZM61.6592 25.0749C63.8692 25.0749 66.0473 23.9771 67.0402 22.1156H67.1363V24.7885H71.7806V12.7603C71.7806 9.22819 68.8338 6.90527 64.3176 6.90527C59.6413 6.90527 56.7266 9.2441 56.5504 12.6489H60.9385C61.1627 11.3602 62.2998 10.4692 64.0934 10.4692C65.9031 10.4692 67.0562 11.4238 67.0562 13.0467V14.2081L62.6201 14.4627C58.232 14.7173 55.7657 16.5788 55.7657 19.7609C55.7497 22.927 58.2961 25.0749 61.6592 25.0749Z" fill="white"/>
<path d="M84.014 25.0745C88.4501 25.0745 91.1726 21.6697 91.1726 16.0374C91.1726 10.3893 88.4341 7.00036 83.998 7.00036C81.4836 7.00036 79.5298 8.24137 78.5529 10.3256H78.4568V1.20898H73.6523V24.7882H78.3928V21.797H78.4888C79.4497 23.8335 81.4356 25.0745 84.014 25.0745ZM82.3484 10.8188C84.7346 10.8188 86.2401 12.8395 86.2401 16.0374C86.2401 19.2354 84.7507 21.2401 82.3484 21.2401C80.0103 21.2401 78.4248 19.2195 78.4248 16.0374C78.4408 12.9031 80.0263 10.8188 82.3484 10.8188Z" fill="white"/>
<path d="M100.238 10.4371C102.384 10.4371 103.841 11.9804 103.937 14.2078H96.4584C96.6185 12.0122 98.1239 10.4371 100.238 10.4371ZM104.001 19.4424C103.553 20.7788 102.208 21.6539 100.446 21.6539C97.9958 21.6539 96.3943 19.9356 96.3943 17.4377V17.1513H108.55V15.7034C108.55 10.3734 105.315 6.9209 100.174 6.9209C94.953 6.9209 91.6699 10.5485 91.6699 16.133C91.6699 21.7335 94.9209 25.186 100.35 25.186C104.706 25.186 107.877 22.879 108.389 19.4424H104.001Z" fill="white"/>
<path d="M109.703 24.8047H114.508V15.0039C114.508 12.5378 115.885 11.0899 118.255 11.0899C118.944 11.0899 119.6 11.2013 120.001 11.3604V7.17599C119.664 7.08053 119.2 7.00098 118.639 7.00098C116.574 7.00098 115.068 8.21016 114.444 10.4376H114.347V7.27145H109.703V24.8047Z" fill="white"/>
</svg>
