<svg width="98" height="28" viewBox="0 0 98 28" fill="none" xmlns="http://www.w3.org/2000/svg">
<path d="M17.4977 0C22.2086 4.60444 23.3944 6.78222 23.3944 12.1333C23.3944 18.34 17.7861 21.5911 11.7453 28C11.7453 28 6.72989 23.1622 4.13407 20.5644C1.53826 17.9667 0 14.5133 0 12.0089C0 9.50444 0.256376 4.83778 6.02485 0L11.6972 5.61556L17.4977 0Z" fill="white"/>
<path d="M44.0977 10.6249C44.0977 8.21378 42.6876 6.82933 40.3161 6.82933C38.3292 6.82933 36.839 8.01155 36.839 9.89378C36.839 11.5116 37.8325 12.3982 39.8835 13.0516L41.63 13.596C44.1137 14.3738 45.4597 15.6027 45.4597 17.9049C45.4597 20.4716 43.2003 22.2138 40.4443 22.2138C37.6081 22.2138 35.3809 20.2849 35.3809 17.4538V16.9404H36.4865V17.4382C36.4865 19.6316 38.169 21.2027 40.4443 21.2027C42.6555 21.2027 44.338 19.8649 44.338 17.936C44.338 16.1627 43.3446 15.2449 41.1333 14.5604L39.4028 14.0004C37.0153 13.2849 35.7334 12.0716 35.7334 9.90933C35.7334 7.49822 37.6402 5.78711 40.3161 5.78711C43.3285 5.78711 45.2033 7.59155 45.2033 10.6249V10.9204H44.0977V10.6249Z" fill="white"/>
<path d="M57.1564 14.0003V16.2092H50.0419V18.0447C50.0419 19.927 51.0995 21.2025 53.1024 21.2025C55.1054 21.2025 56.1629 20.0358 56.1629 18.4025V18.1847H57.2205V18.4336C57.2205 20.5958 55.6822 22.1981 53.1024 22.1981C50.5226 22.1981 48.9844 20.5025 48.9844 18.107V14.0003C48.9844 11.5892 50.5066 9.90918 53.0864 9.90918C55.6341 9.90918 57.1564 11.5736 57.1564 14.0003ZM50.0419 15.2447H56.0988V14.0314C56.0988 12.1336 55.0413 10.9047 53.0864 10.9047C51.1315 10.9047 50.0419 12.1336 50.0419 14.0314V15.2447Z" fill="white"/>
<path d="M68.0526 13.9691C68.0526 11.9936 67.0591 10.9047 65.2164 10.9047C63.4698 10.9047 62.4283 11.978 62.3642 13.8291V21.918H61.3066V10.1424H62.3001V11.6669C62.8609 10.5313 63.9185 9.89355 65.4087 9.89355C67.7321 9.89355 69.1101 11.4647 69.1101 13.8136V21.9336H68.0526V13.9691Z" fill="white"/>
<path d="M75.5198 11.1071V19.2427C75.5198 20.3004 76.1608 20.9382 77.2023 20.9382H78.0516V21.9182H77.0421C75.4718 21.9182 74.4623 20.8604 74.4623 19.4138V11.1071H72.5234V10.1427H74.4623V6.44043H75.5198V10.1582H78.0836V11.1227H75.5198V11.1071Z" fill="white"/>
<path d="M86.0465 10.998C84.3 10.998 83.0982 12.1802 83.0341 14.3113V21.9336H81.9766V10.1424H82.97V11.8847C83.5469 10.6247 84.6525 9.89355 86.2228 9.89355H86.6875V10.9824H86.0465V10.998Z" fill="white"/>
<path d="M97.9376 14.0003V16.2092H90.8232V18.0447C90.8232 19.927 91.8807 21.2025 93.8837 21.2025C95.8866 21.2025 96.9442 20.0358 96.9442 18.4025V18.1847H98.0017V18.4336C98.0017 20.5958 96.4635 22.1981 93.8837 22.1981C91.3039 22.1981 89.7656 20.5025 89.7656 18.107V14.0003C89.7656 11.5892 91.2879 9.90918 93.8676 9.90918C96.4154 9.90918 97.9376 11.5736 97.9376 14.0003ZM90.8232 15.2447H96.8801V14.0314C96.8801 12.1336 95.8225 10.9047 93.8676 10.9047C91.9128 10.9047 90.8232 12.1336 90.8232 14.0314V15.2447Z" fill="white"/>
<path opacity="0.6" d="M11.7619 28C17.7868 21.5911 23.395 18.34 23.395 12.1333C23.395 6.79778 22.2093 4.60444 17.4984 0L11.6979 5.61556C9.66286 7.49778 5.78517 11.2778 5.78517 15.6644C5.78517 17.3444 5.76914 20.1289 7.01898 22.3378C8.26882 24.5467 11.7619 28 11.7619 28Z" fill="#A6A5A5"/>
</svg>
