<svg width="119" height="31" viewBox="0 0 119 31" fill="none" xmlns="http://www.w3.org/2000/svg">
<path d="M36.7445 19.7212C36.6701 22.4695 35.418 25.2856 32.9268 27.5059C32.2088 28.1422 31.4864 28.7695 30.7597 29.3968C29.7615 30.2542 28.4043 30.2001 27.5637 29.2749C26.7056 28.3317 26.7187 26.8741 27.6381 25.9941C28.3299 25.3307 29.0697 24.7169 29.7965 24.0897C30.5583 23.4353 31.1844 22.6816 31.609 21.752C33.3165 18.0289 31.145 13.5927 27.2134 12.8391C25.2258 12.46 23.4352 12.9519 21.9466 14.3599C20.3793 15.8447 18.882 17.4016 17.3452 18.9179C15.2525 20.9803 12.7526 22.0544 9.85873 21.9145C5.94473 21.7294 3.00703 19.816 1.16386 16.2598C-0.898214 12.284 -0.158318 7.36049 2.8932 4.1338C3.43609 3.55615 3.97897 2.9785 4.53936 2.41891C5.09538 1.86383 5.58572 1.24105 6.14612 0.685972C7.03487 -0.198549 8.40521 -0.234652 9.30709 0.618279C10.209 1.47121 10.3097 2.91081 9.49097 3.86754C8.94371 4.50836 8.33954 5.10406 7.76163 5.71781C7.24502 6.26838 6.72402 6.81443 6.20741 7.365C5.63388 7.97875 5.18732 8.67373 4.91588 9.47702C3.95708 12.3156 5.18294 15.2715 7.64342 16.5893C9.69674 17.6904 12.2054 17.2798 13.7465 15.9078C14.4601 15.2715 15.1256 14.572 15.8085 13.8996C16.8286 12.8933 17.8312 11.8688 18.8688 10.876C20.1647 9.63497 21.6795 8.75496 23.4001 8.36234C27.8089 7.35146 31.5215 8.61055 34.4198 12.1983C35.9959 14.1614 36.7445 16.5306 36.7445 19.7212Z" fill="white"/>
<path d="M10.2878 13.8635C9.50416 13.8274 8.79929 13.4168 8.39213 12.5548C7.97621 11.6793 8.0594 10.8219 8.65044 10.0592C9.36844 9.12954 10.1959 8.3082 11.0277 7.48686C12.4681 6.0608 14.018 4.77012 15.6904 3.65093C17.1352 2.68067 18.6675 1.8864 20.318 1.3584C20.7952 1.20496 21.2681 1.08763 21.7759 1.20496C22.8091 1.43963 23.5403 2.31512 23.5972 3.39821C23.6497 4.42263 23.0237 5.40192 22.0517 5.71331C21.0886 6.02018 20.1648 6.4128 19.2804 6.90922C17.4985 7.91558 15.9312 9.2198 14.447 10.6323C13.6546 11.386 12.9016 12.1847 12.1923 13.0196C11.7239 13.5657 11.1416 13.8635 10.2878 13.8635Z" fill="white"/>
<path d="M12.498 27.7401C12.5024 26.4404 13.111 25.5785 14.1004 25.2491C14.7659 25.0279 15.4314 24.8203 16.0662 24.5135C17.9969 23.5748 19.6781 22.2706 21.263 20.8264C22.2218 19.951 23.1105 19.0033 23.9686 18.024C24.9537 16.9093 26.5517 16.9454 27.4536 18.0871C28.1322 18.9491 28.1453 20.1631 27.4448 21.034C26.9063 21.7019 26.3284 22.3292 25.7067 22.9294C25.1244 23.4935 24.5772 24.0938 23.9686 24.6308C23.5833 24.9738 23.1543 25.2581 22.7822 25.6056C22.2918 26.0569 21.7664 26.4585 21.2323 26.8376C19.4942 28.0696 17.6554 29.0985 15.6109 29.6987C14.9848 29.8838 14.3762 29.9153 13.7852 29.604C12.9359 29.1662 12.5243 28.4442 12.498 27.7401Z" fill="white"/>
<path d="M115.664 12.8842C115.664 10.172 115.664 7.52745 115.664 4.86035C116.614 4.86035 117.608 4.86035 118.505 4.86035C118.505 5.18979 118.505 23.2367 118.505 24.2792C117.599 24.2792 116.636 24.2747 115.673 24.2747C115.673 23.5526 115.673 22.826 115.673 22.104C115.642 22.095 115.616 22.0859 115.585 22.0814C115.541 22.1446 115.48 22.1988 115.454 22.2665C114.858 23.7015 113.444 24.726 111.483 24.6312C109.259 24.5184 107.775 23.3586 106.986 21.242C106.417 19.7122 106.325 18.1146 106.426 16.499C106.496 15.3843 106.693 14.2967 107.166 13.2768C107.674 12.1712 108.414 11.2822 109.517 10.7767C110.633 10.2668 111.802 10.163 112.976 10.4834C114.088 10.7902 114.92 11.4807 115.406 12.5773C115.441 12.6586 115.484 12.7353 115.528 12.812C115.541 12.8165 115.559 12.821 115.664 12.8842ZM115.664 17.5054C115.664 16.7247 115.659 15.9439 115.664 15.1677C115.668 14.4321 115.366 13.8725 114.793 13.4483C114.193 13.0016 113.51 12.812 112.787 12.7849C111.75 12.7488 110.83 13.0467 110.139 13.8906C109.596 14.554 109.39 15.3347 109.377 16.1831C109.364 17.036 109.368 17.8935 109.377 18.7464C109.381 19.0307 109.408 19.3196 109.469 19.5948C109.675 20.5651 110.143 21.3684 111.041 21.7926C112.275 22.3748 113.51 22.289 114.679 21.5895C115.34 21.1924 115.677 20.5651 115.668 19.7573C115.655 19.0037 115.664 18.2545 115.664 17.5054Z" fill="white"/>
<path d="M46.043 21.5032C46.1656 21.413 46.2444 21.3407 46.3188 21.2731C46.8967 20.727 47.4746 20.1764 48.0525 19.6304C48.267 19.847 48.464 20.041 48.6611 20.2441C50.1846 21.8011 52.0322 22.2749 54.0899 21.8552C56.0556 21.4536 56.5328 19.7522 56.2395 18.3848C56.0907 17.6898 55.666 17.216 55.0531 16.9136C54.4839 16.6338 53.8754 16.4939 53.258 16.3721C52.3868 16.2006 51.5112 16.0336 50.6487 15.8215C49.9526 15.65 49.3003 15.3477 48.6873 14.9596C47.444 14.1698 46.7697 13.019 46.6384 11.5298C46.5771 10.8529 46.5946 10.1804 46.7697 9.51705C47.2032 7.86084 48.267 6.80483 49.7731 6.19108C51.2485 5.58635 52.7808 5.52317 54.3351 5.72625C56.0469 5.95641 57.5004 6.71457 58.6825 8.01427C58.7525 8.09099 58.8182 8.17222 58.8839 8.24894C58.9189 8.29407 58.9539 8.34371 59.024 8.44751C58.3629 9.0432 57.7324 9.61634 56.9969 10.2797C56.9137 10.1534 56.8174 10.0631 56.7342 9.96834C55.7711 8.88074 54.5758 8.31212 53.1486 8.26248C52.4875 8.23992 51.8352 8.26699 51.2003 8.47007C49.8694 8.89879 49.2565 10.0225 49.5892 11.4215C49.7249 11.9991 50.0489 12.4143 50.5524 12.6941C51.1215 13.01 51.7432 13.1725 52.3737 13.3079C53.315 13.5109 54.2562 13.7095 55.1888 13.9487C55.6397 14.066 56.0775 14.2465 56.4978 14.4406C58.109 15.1852 59.0371 16.4533 59.1991 18.281C59.2779 19.1746 59.2079 20.0546 58.9145 20.903C58.3629 22.5186 57.2421 23.5385 55.7185 24.1342C54.6109 24.5674 53.4507 24.6757 52.2774 24.6216C51.6557 24.5945 51.0252 24.5178 50.4167 24.3824C48.6435 23.9808 47.2645 22.9744 46.043 21.5032Z" fill="white"/>
<path d="M91.7113 18.1915C88.6554 18.1915 85.6126 18.1915 82.548 18.1915C82.5261 18.3269 82.4954 18.4261 82.4998 18.5209C82.5305 18.909 82.5304 19.3061 82.6136 19.6807C82.9245 21.1338 83.9796 22.0861 85.4331 22.2124C85.9103 22.253 86.3963 22.244 86.8691 22.1763C87.8936 22.0364 88.6641 21.4362 89.299 20.6284C89.3997 20.502 89.4916 20.3712 89.6054 20.2132C90.1658 20.7728 90.6956 21.3008 91.2385 21.8424C91.0283 22.2711 90.735 22.6005 90.4198 22.9074C89.4084 23.8957 88.1782 24.3921 86.8122 24.5591C85.8928 24.6674 84.9778 24.6539 84.0759 24.4237C82.0226 23.8957 80.6741 22.5509 80.0262 20.5111C79.352 18.381 79.3432 16.2103 80.1444 14.1118C81.0594 11.711 82.8369 10.4609 85.3412 10.321C86.3569 10.2624 87.3507 10.3752 88.292 10.8039C89.6098 11.3996 90.5292 12.4015 91.0984 13.7508C91.6325 15.0009 91.8689 16.7112 91.7113 18.1915ZM82.4954 16.269C84.61 16.269 86.6677 16.269 88.7605 16.269C88.7867 14.9693 88.5328 13.8005 87.447 13.0513C86.3875 12.3202 85.2273 12.3609 84.1284 12.9656C82.8851 13.6515 82.5173 14.8519 82.4954 16.269Z" fill="white"/>
<path d="M72.6349 17.3837C72.6437 18.8279 72.4248 20.1321 71.8293 21.3551C70.8749 23.3227 69.2944 24.3426 67.2017 24.5863C66.3086 24.6901 65.4242 24.6224 64.5617 24.3697C63.1082 23.9409 61.9962 23.0474 61.2475 21.689C59.9341 19.3107 59.921 15.6779 61.2344 13.2951C62.2326 11.4854 63.7737 10.5332 65.7657 10.3437C66.6107 10.2625 67.4556 10.3076 68.2787 10.5513C69.9468 11.0432 71.1464 12.1082 71.8863 13.7148C72.4335 14.9017 72.6524 16.1653 72.6349 17.3837ZM69.6447 17.6996C69.6403 17.0904 69.6578 16.4812 69.6359 15.8674C69.6315 15.7862 69.6272 15.705 69.6228 15.6192C69.5133 14.1751 68.7253 13.1687 67.4775 12.8077C67.0091 12.6723 66.5275 12.6407 66.0459 12.6904C64.588 12.8303 63.5329 13.8096 63.3359 15.2988C63.152 16.7158 63.2001 18.1419 63.314 19.5635C63.3183 19.6402 63.3315 19.7124 63.349 19.7846C63.6161 21.1023 64.4348 21.9462 65.7088 22.1809C66.0503 22.2441 66.4049 22.2486 66.7551 22.2306C68.2437 22.1629 69.2901 21.2603 69.5484 19.7485C69.6578 19.0986 69.6578 18.4398 69.6491 17.7854C69.6447 17.7583 69.6447 17.7312 69.6447 17.6996Z" fill="white"/>
<path d="M96.3435 10.6101C96.3435 10.6101 96.3435 12.1038 96.3435 12.9252C96.466 12.7898 96.5273 12.7402 96.5624 12.677C96.6674 12.4965 96.7506 12.3024 96.8557 12.1264C97.5518 10.9937 98.5456 10.3664 99.8547 10.3303C100.275 10.3167 100.704 10.3122 101.12 10.3844C102.827 10.6733 103.865 11.7564 104.342 13.4216C104.517 14.0308 104.609 14.6897 104.614 15.326C104.644 18.2233 104.627 21.1205 104.627 24.0178C104.627 24.09 104.614 24.284 104.614 24.284H101.82C101.82 24.284 101.812 23.9366 101.812 23.7651C101.812 21.2153 101.82 18.661 101.803 16.1113C101.799 15.6194 101.755 15.1184 101.645 14.6401C101.396 13.5299 100.743 12.9432 99.6445 12.8124C98.8871 12.7221 98.1604 12.8665 97.4861 13.2275C96.7375 13.6292 96.3435 14.27 96.3391 15.15C96.3391 15.3441 96.3391 15.5381 96.3391 15.7367C96.3391 18.3948 96.3391 21.0483 96.3391 23.7064C96.3391 23.8869 96.3391 24.284 96.3391 24.284H93.5678L93.5371 10.6191H96.3435V10.6101Z" fill="white"/>
<path d="M77.2589 21.9598C77.9025 21.9598 78.4804 21.9598 79.124 21.9598C79.1328 22.745 79.1328 23.4987 79.124 24.3065C78.1433 24.2659 77.1933 24.4103 76.2651 24.1891C75.1925 23.9319 74.5577 23.106 74.457 21.8786C74.4395 21.6845 74.4438 21.4904 74.4438 21.2919C74.4438 15.9802 74.4438 10.6641 74.4438 5.35246C74.4438 5.20354 74.4438 4.81543 74.4438 4.81543H77.2502C77.2502 4.81543 77.2589 6.25052 77.2589 6.95001C77.2633 7.67207 77.2589 8.38961 77.2589 9.11167C77.2589 9.81568 77.2589 10.5242 77.2589 11.2282C77.2589 11.9503 77.2589 12.6678 77.2589 13.3899C77.2589 14.0939 77.2589 14.8024 77.2589 15.5064C77.2589 16.2104 77.2589 16.9189 77.2589 17.6229C77.2589 18.345 77.2589 19.0625 77.2589 19.7846C77.2589 20.4931 77.2589 21.1971 77.2589 21.9598Z" fill="white"/>
</svg>
