<svg width="120" height="27" viewBox="0 0 120 27" fill="none" xmlns="http://www.w3.org/2000/svg">
<path fill-rule="evenodd" clip-rule="evenodd" d="M0.469289 0.578187C3.47826 4.24004 6.76328 8.83801 7.28778 9.58139C7.31539 9.60892 7.343 9.63646 7.343 9.66399C7.61905 10.0494 7.86749 10.3523 8.03313 10.5726C8.4196 11.0682 8.55763 11.2058 8.30918 11.3435C8.11594 11.4536 7.92271 11.4811 7.72947 11.4811C7.50863 11.4811 7.26018 11.371 7.06694 11.2058C6.92892 11.0957 6.07315 9.80165 4.85852 7.92943C3.94755 6.49772 3.1746 5.31382 3.147 5.28628C3.09179 5.23122 3.09179 5.23122 4.7481 8.23229C5.7971 10.1045 6.48723 11.4811 6.48723 11.5913C6.48723 11.784 6.43202 11.8666 6.21118 12.1144C5.85231 12.5274 5.68668 12.9955 5.54865 13.9591C5.41063 15.0329 5.05176 15.8038 4.00276 17.0978C3.39545 17.8687 3.28502 18.0064 3.147 18.3093C2.95376 18.6947 2.89855 18.915 2.87095 19.4106C2.84334 19.9337 2.89855 20.2641 3.03658 20.7597C3.1746 21.2002 3.31263 21.4755 3.6715 22.0537C3.97516 22.5493 4.16839 22.9072 4.16839 23.0449C4.16839 23.155 4.196 23.155 4.69289 23.0449C5.85231 22.7696 6.8185 22.3015 7.343 21.7233C7.67426 21.3654 7.75707 21.1727 7.75707 20.6771C7.75707 20.3467 7.75707 20.2916 7.67426 20.0989C7.53623 19.796 7.28778 19.5482 6.73568 19.1628C5.99034 18.6672 5.68668 18.2542 5.60386 17.7035C5.52105 17.2355 5.60386 16.9326 6.01794 16.0791C6.43202 15.1981 6.54244 14.8126 6.59765 13.9316C6.65286 13.3534 6.70807 13.1331 6.87371 12.9404C7.03934 12.7477 7.20497 12.6926 7.61905 12.6375C8.30918 12.5549 8.75086 12.3622 9.10973 12.0318C9.41339 11.7289 9.55141 11.4536 9.57902 11.0406L9.60662 10.7102L9.44099 10.5175C8.86128 9.77412 0.0276052 0 0 0C0 0 0.193237 0.275327 0.469289 0.578187ZM4.63768 20.0163C4.77571 19.7685 4.69289 19.4381 4.47205 19.2729C4.25121 19.1077 3.89234 19.1903 3.89234 19.383C3.89234 19.4381 3.91994 19.4932 4.00276 19.5207C4.14079 19.5758 4.14079 19.6584 4.03037 19.796C3.91994 19.9612 3.94755 20.0714 4.05797 20.1815C4.2236 20.3467 4.49965 20.2641 4.63768 20.0163ZM8.9441 6.02967C8.66805 5.9746 8.64044 5.9746 8.77847 5.94707C9.02691 5.91954 9.63423 5.9746 10.0483 6.0572C11.0145 6.27746 11.8979 6.88318 12.8364 7.95696L13.0849 8.23229L13.4438 8.17722C14.962 7.92943 16.4803 8.12216 17.7778 8.72788C18.1366 8.89307 18.6888 9.22346 18.7716 9.30606C18.7992 9.3336 18.8268 9.49879 18.8544 9.69152C18.9372 10.3248 18.9096 10.8204 18.7164 11.1783C18.6059 11.371 18.6059 11.4536 18.6887 11.6188C18.744 11.7565 18.9096 11.8666 19.0476 11.8666C19.3789 11.8666 19.7101 11.3435 19.8758 10.6276L19.931 10.3523L20.069 10.49C20.7591 11.2884 21.2836 12.3347 21.3941 13.1056L21.4217 13.2983L21.3112 13.1056C21.118 12.8027 20.9248 12.5825 20.6487 12.4173C20.1794 12.1144 19.7101 12.0043 18.4127 11.9492C17.2533 11.8941 16.5908 11.784 15.9282 11.5637C14.824 11.2058 14.2443 10.7102 12.9193 8.94814C12.3395 8.17722 11.9807 7.7367 11.5942 7.4063C10.7937 6.60786 9.9931 6.19486 8.9441 6.02967ZM19.0476 7.76423C19.0752 7.24111 19.158 6.91072 19.2961 6.58032C19.3513 6.44266 19.4065 6.36006 19.4065 6.36006C19.4065 6.36006 19.3789 6.44266 19.3513 6.55279C19.2409 6.85565 19.2409 7.26864 19.2961 7.76423C19.3789 8.36995 19.4341 8.48008 20.069 9.14087C20.3727 9.44373 20.7315 9.85672 20.842 10.0219L21.0628 10.3248L20.842 10.1045C20.5659 9.82919 19.9034 9.30606 19.7654 9.251C19.6549 9.19593 19.6549 9.19593 19.5997 9.251C19.5445 9.30606 19.5445 9.38866 19.5169 9.77412C19.5169 10.3798 19.4341 10.7653 19.2132 11.1783C19.1028 11.3986 19.0752 11.3435 19.1856 11.0957C19.2685 10.9305 19.2685 10.8479 19.2685 10.2422C19.2685 9.05827 19.1304 8.78294 18.3023 8.28735C18.0814 8.17722 17.7502 7.98449 17.5293 7.90189C17.3913 7.79176 17.2257 7.70917 17.2257 7.70917C17.2533 7.68163 18.0538 7.92943 18.3575 8.03956C18.8268 8.23229 18.9096 8.25982 18.9648 8.23229C19.02 8.20475 19.0476 8.09462 19.0476 7.76423ZM8.64044 6.85565C8.55763 7.76423 8.91649 9.0032 9.4962 9.80165C9.93789 10.4074 10.628 10.903 11.1525 10.958C11.4838 10.9856 11.5942 10.8754 11.4286 10.6552C11.2077 10.3523 10.9593 9.85672 10.9041 9.66399C10.8489 9.52633 10.766 9.1684 10.7108 8.83801C10.4624 7.70916 10.2415 7.26864 9.68944 6.93825C9.4962 6.82812 9.05452 6.66292 8.83368 6.60786L8.69565 6.58032L8.64044 6.85565ZM18.3575 15.7212C15.6798 14.6199 14.7136 13.6838 14.7136 12.0869C14.7136 11.8391 14.7136 11.6463 14.7412 11.6463C14.7412 11.6463 14.8516 11.7289 14.962 11.8115C15.5141 12.2521 16.1215 12.4448 17.8054 12.6926C18.7992 12.8303 19.3513 12.9679 19.8758 13.1331C21.5045 13.6838 22.5259 14.7851 22.7743 16.2994C22.8571 16.7399 22.8019 17.5659 22.6915 18.0064C22.6087 18.3368 22.3326 18.9701 22.2498 18.9976C22.2222 18.9976 22.2222 18.915 22.1946 18.8324C22.167 18.2542 21.891 17.7035 21.3941 17.2906C20.8696 16.8225 20.1518 16.4646 18.3575 15.7212ZM16.3423 15.6111C16.3699 15.7212 16.4251 15.969 16.4803 16.1892C16.7012 17.4833 16.011 18.5295 14.7136 18.9425C14.5756 18.9976 14.0235 19.0802 13.499 19.1903C12.4224 19.383 11.9531 19.4932 11.4838 19.741C11.1525 19.9062 10.7384 20.154 10.766 20.1815C10.766 20.1815 10.8489 20.1815 10.9317 20.1264C11.539 19.9062 12.2015 19.796 13.2229 19.741C13.637 19.7134 14.0787 19.6859 14.2443 19.6584C15.1553 19.5482 15.7902 19.2729 16.2871 18.7498C16.5631 18.4745 16.7288 18.1991 16.8668 17.8412C16.9496 17.6209 16.9496 17.5108 16.9496 17.0978C16.9496 16.6848 16.9496 16.6022 16.8392 16.3269C16.7288 15.9965 16.5908 15.7212 16.3975 15.5285L16.2595 15.3908L16.3423 15.6111ZM17.695 18.3919C17.3361 17.6209 17.2533 16.8776 17.4465 16.1617C17.4741 16.0791 17.5017 16.024 17.5293 16.024C17.5569 16.024 17.6397 16.0791 17.7226 16.1342C17.8882 16.2443 18.2195 16.437 19.1028 16.9051C20.207 17.5108 20.8144 17.9789 21.256 18.502C21.6425 18.9701 21.8634 19.4932 21.9738 20.154C22.029 20.5119 22.0014 21.3929 21.9186 21.7784C21.6149 22.9348 20.9248 23.8709 19.9586 24.394C19.8206 24.4766 19.6825 24.5317 19.6825 24.5317C19.6549 24.5317 19.7101 24.394 19.793 24.2288C20.1242 23.5405 20.1518 22.8522 19.9034 22.1088C19.7377 21.6407 19.4341 21.0901 18.7992 20.1264C18.0538 19.0802 17.8882 18.7773 17.695 18.3919ZM10.9593 20.9249C9.82747 21.1176 8.58523 21.7233 7.59144 22.5493L7.28778 22.7971L7.53623 22.8246C8.88889 23.0449 9.27536 23.2376 10.2139 24.2013C10.766 24.7795 10.9317 24.8896 11.401 24.9997C12.0635 25.1649 12.726 24.8621 12.9469 24.2563C13.0573 23.981 13.0297 23.5405 12.9193 23.3202C12.6432 22.7971 11.8426 22.6319 11.4562 23.0174C11.1249 23.3478 11.2353 23.8158 11.6218 23.8984C11.7046 23.9259 11.7046 23.9259 11.5942 23.8709C11.4286 23.7883 11.3458 23.6782 11.3458 23.513C11.3458 23.1 11.815 22.8797 12.2567 23.0724C12.588 23.2101 12.6984 23.4028 12.6984 23.7332C12.6984 24.2563 12.2567 24.6418 11.7598 24.5592C11.4838 24.5317 11.1525 24.3665 10.9869 24.1462C10.5452 23.6506 10.7108 22.8522 11.3458 22.5493C11.815 22.329 12.45 22.3841 12.9193 22.687C13.4714 23.0449 13.7198 23.4028 14.1891 24.5041C14.3547 24.8621 14.548 25.275 14.6308 25.4127C15.0725 26.101 15.6246 26.4314 16.2871 26.4314C16.646 26.4314 16.922 26.3764 17.2533 26.1836C17.5017 26.046 17.8606 25.8257 17.833 25.7982C17.833 25.7982 17.7226 25.8257 17.6121 25.8808C16.8944 26.1561 16.1767 26.1561 15.735 25.8257C15.4589 25.633 15.2657 25.2475 15.1553 24.7519C15.1277 24.6693 15.0725 24.2839 15.0173 23.9259C14.8792 22.9898 14.7412 22.5493 14.4099 22.0813C14.0787 21.5857 13.4161 21.1727 12.6984 20.9799C12.2567 20.8698 11.4562 20.8423 10.9593 20.9249ZM9.38578 13.6287C9.4962 13.2708 9.79986 12.9129 10.1311 12.8303C10.3244 12.7752 10.766 12.8027 10.9593 12.9129C11.3458 13.1056 11.6218 13.5736 11.5666 13.904C11.4838 14.317 10.8489 14.6199 10.1035 14.6199C9.71705 14.6199 9.57902 14.5648 9.44099 14.3721C9.35818 14.2344 9.33057 13.849 9.38578 13.6287ZM10.8489 13.0505C11.0421 13.1606 11.0973 13.3534 10.9869 13.5186C10.9041 13.6287 10.6556 13.7388 10.49 13.7388C10.2139 13.7388 9.93789 13.5461 9.93789 13.3809C9.93789 12.9954 10.49 12.8303 10.8489 13.0505ZM68.8199 14.0417C68.2126 12.0318 69.2063 10.3798 71.3319 9.85672C71.9393 9.69152 74.6998 9.77412 75.1691 9.93932C75.3347 9.99438 75.4175 10.2697 75.4175 10.7928C75.4175 11.2058 75.4727 11.7014 75.528 11.8941C75.6108 12.197 75.5556 12.2521 75.2519 12.2521C74.9758 12.2521 74.7826 12.0869 74.5342 11.5637C74.1477 10.7378 73.6784 10.49 72.5742 10.49C71.1663 10.49 70.1449 11.4261 70.3106 12.5549C70.421 13.2983 71.1663 14.0142 72.8226 15.0329C74.3961 15.9965 75.3347 16.7674 75.6936 17.4558C76.6874 19.328 75.8316 21.3379 73.6508 22.3566C72.519 22.8797 70.6418 22.9348 69.3168 22.4667L68.461 22.1914V20.8423C68.461 19.6308 68.4886 19.4932 68.7647 19.4932C68.9855 19.4932 69.0959 19.6584 69.1787 20.1264C69.372 21.3379 70.3106 22.0537 71.608 22.0537C72.8778 22.0537 73.7888 21.3654 74.1201 20.0989C74.2581 19.5482 74.2305 19.3555 73.9544 18.7773C73.5956 18.0615 73.0159 17.5934 70.9731 16.437C69.8689 15.7763 69.0683 14.9227 68.8199 14.0417ZM29.0959 10.6552C28.8199 10.6552 28.7095 10.5726 28.7095 10.3248C28.7095 10.0219 28.8199 9.99438 30.9731 9.99438C32.9883 9.99438 33.2367 10.0219 33.2091 10.2422C33.1815 10.3798 32.9055 10.5726 32.6018 10.6827L32.0497 10.8754L31.9945 14.9778C31.9669 17.7035 31.9945 19.3004 32.1325 19.7134C32.4914 20.9799 33.6232 21.7233 35.1967 21.7233C36.3009 21.7233 36.9358 21.4755 37.7364 20.7046C38.5921 19.8786 38.7302 19.1077 38.7302 15.0604C38.7302 11.0682 38.6473 10.7378 37.7916 10.6552C37.4051 10.6276 37.2671 10.5175 37.2671 10.2972C37.2671 9.99438 37.4051 9.99438 39.1994 9.99438C41.0214 9.99438 41.1318 10.0219 41.1318 10.3248C41.1318 10.5175 41.0214 10.6552 40.8558 10.6552C40.1104 10.6552 40.0828 10.7378 40 15.1155C39.8896 19.6584 39.8068 20.1815 38.8682 21.3103C38.5921 21.6407 37.9572 22.1088 37.4603 22.3566C36.6322 22.7696 36.3561 22.7971 34.9206 22.7971C33.5956 22.7971 33.1539 22.742 32.4914 22.4392C31.5252 21.9987 30.8903 21.4205 30.421 20.5669C30.0897 19.9612 30.0621 19.6308 29.9793 15.5835C29.9241 10.8754 29.8689 10.6552 29.0959 10.6552ZM44.2236 10.6552C43.8647 10.6552 43.7543 10.5726 43.7543 10.3248C43.7543 10.0219 43.8647 9.99438 45.4106 10.0219H47.0669L47.8675 10.9305C48.3092 11.4261 49.717 12.9955 51.0145 14.3996C52.3119 15.8038 53.8026 17.4558 54.3271 18.0615C54.8516 18.6672 55.3485 19.1352 55.4313 19.1352C55.5141 19.1352 55.5418 17.4558 55.5141 15.2531L55.4589 11.371L55.0173 10.9856C54.7688 10.7653 54.3823 10.6001 54.1615 10.6001C53.8854 10.6001 53.775 10.5175 53.775 10.2697C53.775 9.96685 53.8578 9.93932 56.011 9.99438C57.833 10.0219 58.2471 10.077 58.2471 10.2697C58.2471 10.4074 58.0262 10.545 57.695 10.6276C57.3913 10.6827 57.06 10.8204 56.9772 10.9305C56.8392 11.0682 56.784 12.7752 56.7564 16.8225L56.7012 22.5218H56.2319C55.8178 22.5218 55.3485 22.0813 52.7812 19.2729C51.1525 17.4833 49.2201 15.3633 48.53 14.5373C47.8399 13.7388 47.205 13.0505 47.1498 13.0505C46.9565 13.023 47.0117 20.2641 47.205 20.9524C47.343 21.4755 47.4534 21.5857 48.0883 21.7509C48.6128 21.8885 48.8061 22.0262 48.8061 22.2189C48.8061 22.4942 48.6128 22.4942 46.5424 22.4942C44.4444 22.4942 44.2788 22.4667 44.2788 22.1914C44.2788 21.9987 44.4444 21.861 44.7481 21.8059C45.7419 21.6132 45.7971 21.3103 45.8523 16.5472C45.8799 13.8765 45.8247 12.0043 45.7419 11.6188C45.521 10.958 45.0518 10.6552 44.2236 10.6552ZM61.1732 10.6552C60.8144 10.6552 60.7315 10.5726 60.7315 10.3248C60.7315 10.0219 60.842 9.99438 63.1608 9.99438C65.4796 9.99438 65.5901 10.0219 65.5901 10.3248C65.5901 10.5726 65.4796 10.6552 65.176 10.6552C64.9551 10.6552 64.6239 10.7928 64.4306 10.9856C64.0994 11.316 64.0994 11.4536 64.1546 16.382C64.2098 21.1727 64.2098 21.448 64.5135 21.6683C64.6791 21.8059 64.9827 21.8885 65.2036 21.8885C65.4796 21.8885 65.5901 21.9711 65.5901 22.2189C65.5901 22.5218 65.4796 22.5493 63.1608 22.5493C60.8972 22.5493 60.7315 22.5218 60.7315 22.2464C60.7315 22.0262 60.8972 21.9161 61.3665 21.8335C62.3326 21.6683 62.3602 21.3654 62.305 15.8038C62.2498 11.3435 62.2498 11.0682 61.9462 10.8754C61.7529 10.7653 61.4217 10.6552 61.1732 10.6552ZM78.0952 10.6552C77.8744 10.6552 77.7088 10.545 77.6535 10.3248C77.5707 10.0219 77.6536 9.99438 79.9724 9.99438C82.2636 9.99438 82.374 10.0219 82.374 10.3248C82.374 10.5726 82.2636 10.6552 81.9048 10.6552C80.8834 10.6552 80.911 10.8479 82.4569 15.0329C83.2298 17.1804 84.0028 19.1903 84.1408 19.5482L84.4168 20.1815L85.6591 16.9051C87.1221 13.0505 87.2878 12.3347 87.0669 11.6188C86.9013 11.1232 86.2388 10.6552 85.7143 10.6552C85.5763 10.6552 85.4658 10.5175 85.4658 10.3248C85.4658 10.0219 85.5763 9.99438 87.9779 9.99438C90.3796 9.99438 90.49 10.0219 90.49 10.3248C90.49 10.545 90.3796 10.6552 90.1035 10.6552C89.4134 10.6552 89.1373 11.0131 89.2202 11.7014C89.3306 12.4173 92.0911 20.154 92.2291 20.0438C92.4224 19.8511 95.4865 11.5087 95.4865 11.2058C95.4865 10.8204 95.2105 10.6552 94.5756 10.6552C94.2995 10.6552 94.1891 10.5726 94.1891 10.3248C94.1891 10.0219 94.2995 9.99438 96.1215 9.99438C97.7778 9.99438 98.0538 10.0219 98.0538 10.2422C98.0538 10.3798 97.8606 10.5726 97.6121 10.6552C97.06 10.8479 96.922 11.0682 96.2319 12.8303C95.9282 13.6012 94.962 16.0516 94.1063 18.2542C93.2505 20.4568 92.5052 22.3566 92.45 22.4667C92.3948 22.5768 92.1463 22.687 91.8427 22.687H91.3181L90.1587 19.6859C89.5238 18.0339 88.7785 16.0791 88.4748 15.3357C87.9779 14.0692 87.9503 14.0142 87.7571 14.3721C87.6467 14.5923 86.8737 16.5472 86.0455 18.7498L84.5273 22.742L83.9752 22.687L83.423 22.6319L81.2698 17.0152C80.0552 13.8765 78.951 11.2334 78.7578 11.0406C78.5921 10.8204 78.2885 10.6552 78.0952 10.6552ZM110.393 10.7102C110.366 10.6552 110.366 10.4349 110.366 10.4349C110.366 10.4349 110.366 10.3523 110.393 10.3248C110.421 10.2697 110.449 10.2697 110.559 10.2697C111.001 10.2146 111.884 10.1596 112.602 10.132C112.657 10.132 112.74 10.132 112.823 10.132C113.623 10.1045 115.059 10.0494 116.052 10.1045C117.957 10.1871 119.31 11.1232 119.752 12.6375C120.221 14.1518 119.972 15.556 119.337 16.4646C118.703 17.3732 117.654 18.1441 115.914 18.089C114.479 18.0339 114.092 17.7861 113.761 17.5659C113.706 17.5108 113.623 17.4833 113.568 17.4282V19.3555C113.596 20.6771 113.596 21.3103 113.706 21.5306C113.844 21.8335 114.148 22.0262 114.755 22.1914C114.755 22.1914 115.031 22.2464 115.086 22.329C115.169 22.3841 115.169 22.5493 115.169 22.5493C115.169 22.5493 115.197 22.687 115.114 22.7696C115.059 22.8522 114.948 22.8246 114.948 22.8246L112.271 22.7971H110.642C110.642 22.7971 110.476 22.8246 110.421 22.7696C110.366 22.7145 110.366 22.5493 110.366 22.5493C110.366 22.5493 110.393 22.3841 110.449 22.329C110.531 22.274 110.807 22.1914 110.807 22.1914C111.442 22.0262 111.691 21.8335 111.856 21.4755C111.967 21.2002 111.967 20.6771 111.967 16.437C111.967 12.4173 111.967 11.6463 111.856 11.4536C111.718 11.1232 111.387 11.0406 110.89 10.9305C110.78 10.903 110.697 10.8754 110.587 10.8479C110.614 10.8204 110.421 10.7928 110.393 10.7102ZM118.206 14.0142C118.206 14.6749 118.206 15.7212 117.488 16.382C116.77 17.0428 115.39 17.2355 114.451 17.0428C114.148 16.9877 113.982 16.9051 113.844 16.8225L113.596 16.6848L113.568 14.3721C113.568 12.9129 113.568 11.9767 113.596 11.8391C113.623 11.0682 114.755 10.9856 115.307 11.0131C117.736 10.9856 118.15 12.9679 118.206 14.0142ZM102.968 10.1045C102.968 10.1045 102.857 10.1596 102.664 10.2146L102.029 10.545L101.56 11.6739C101.311 12.3071 100.842 13.436 100.538 14.2069C99.9862 15.6111 99.5997 16.5472 99.2132 17.5108C99.1028 17.7861 98.744 18.6672 98.4403 19.4381C98.1366 20.209 97.833 20.9524 97.7502 21.0901C97.7502 21.1176 97.7226 21.1451 97.7226 21.1451C97.5569 21.4755 97.2533 22.0262 96.7288 22.1088C96.7288 22.1088 96.4251 22.1363 96.3147 22.2464C96.2043 22.3566 96.2043 22.4392 96.2043 22.4392V22.5768C96.2043 22.5768 96.2043 22.6319 96.2871 22.687C96.3423 22.7145 96.4251 22.7145 96.4251 22.7145L98.3851 22.687H100.4C100.4 22.687 100.538 22.7145 100.594 22.6594C100.649 22.6044 100.676 22.5493 100.676 22.5493V22.4116C100.676 22.4116 100.649 22.2464 100.566 22.1914C100.483 22.1363 100.179 22.0813 100.179 22.0813C99.3789 21.9711 99.2409 21.3654 99.3237 20.8147C99.3789 20.5394 99.6825 19.5482 100.069 18.5571L100.207 18.1991L102.305 18.1716C103.464 18.1716 104.458 18.1716 104.541 18.1716C104.624 18.1991 104.762 18.4469 105.148 19.383C105.728 20.7872 105.756 20.9524 105.645 21.2277C105.645 21.2553 105.618 21.2553 105.618 21.2828C105.507 21.5306 105.259 22.0262 104.679 22.0813C104.679 22.0813 104.375 22.0813 104.293 22.1914C104.21 22.274 104.237 22.3841 104.237 22.3841V22.5768C104.237 22.5768 104.265 22.6594 104.293 22.687C104.32 22.7145 104.403 22.7145 104.403 22.7145H106.308H108.986C108.986 22.7145 109.096 22.7145 109.124 22.687C109.151 22.6594 109.151 22.6044 109.151 22.6044V22.4116C109.151 22.4116 109.151 22.3015 109.096 22.2464C109.041 22.1914 108.682 22.1363 108.682 22.1363C108.24 22.0537 108.019 21.6958 107.854 21.4205C107.798 21.3379 107.771 21.2828 107.743 21.2277C107.66 21.1176 107.384 20.5394 107.191 20.0163C106.97 19.4656 106.501 18.2267 106.115 17.263C105.728 16.2994 105.204 14.9503 104.955 14.262C104.679 13.5736 104.182 12.2796 103.823 11.371C103.768 11.2334 103.713 11.0957 103.658 10.958C103.409 10.3523 103.326 10.1045 103.299 10.077C103.216 9.99438 102.968 10.1045 102.968 10.1045ZM102.83 13.7939C102.747 13.6012 102.609 13.2157 102.498 12.9679C102.333 12.5274 102.25 12.4173 102.195 12.4999C102.167 12.5274 102.057 12.8303 101.946 13.1882C101.173 15.4183 100.814 16.437 100.732 16.6298C100.676 16.7399 100.649 16.8776 100.649 16.9051C100.649 16.9326 101.284 16.9602 102.36 16.9602C103.299 16.9602 104.072 16.9602 104.072 16.9326C104.072 16.9051 103.989 16.7124 103.879 16.4646C103.768 16.2168 103.52 15.6111 103.326 15.0879C103.161 14.5923 102.912 13.9866 102.83 13.7939Z" fill="white"/>
</svg>
