<svg width="120" height="37" viewBox="0 0 120 37" fill="none" xmlns="http://www.w3.org/2000/svg">
<path d="M110.909 23.6914C104.184 30.4217 89.3037 30.5842 84.1797 26.8167L85.3904 25.6176C85.6247 25.6795 85.9215 25.8033 86.3199 25.9812C89.046 27.1958 91.9439 27.5207 94.8886 27.4898C99.0988 27.4356 103.129 26.5924 106.8 24.4495C107.3 24.1555 107.777 23.8461 108.253 23.5135C108.769 23.1499 109.144 22.8868 109.433 22.7012C109.73 22.8791 110.339 23.2504 110.987 23.6372C110.972 23.645 110.94 23.6604 110.909 23.6914Z" fill="white"/>
<path d="M114.437 25.71C108.477 32.6105 100.635 33.7709 92.3164 33.6781V31.8833C92.4648 31.8756 93.285 31.8756 93.4646 31.8833C97.7607 31.922 101.963 31.4037 105.954 29.7327C108.626 28.6188 110.93 27.0019 112.82 24.7275C113.352 25.0447 113.828 25.3387 114.437 25.71Z" fill="white"/>
<path d="M113.705 15.4989C113.713 16.404 113.135 16.9842 112.229 16.9533C111.331 16.9223 110.831 16.4195 110.753 15.5608C110.683 14.7485 111.386 14.0523 112.221 14.0368C113.12 14.0136 113.698 14.5861 113.705 15.4989Z" fill="white"/>
<path d="M105.37 35.8366C104.776 35.9449 104.183 35.999 103.589 36.0764V34.2352C103.722 34.1888 104.433 34.1579 104.604 34.1192C111.962 32.6803 117.196 27.2264 118.039 19.8385C119.031 11.1897 113.142 3.69346 104.909 2.10758C97.7541 0.73057 90.9117 3.87912 87.342 9.98284C84.1317 15.4754 87.0218 21.5636 93.3409 22.6003C97.2074 23.2346 100.933 22.7163 104.409 20.968C104.753 20.7978 105.354 20.4883 105.612 20.3878C105.917 20.5734 106.659 21.0144 107.338 21.4244C105.401 22.7318 103.237 23.5982 101.043 24.0856C97.8947 24.7818 94.7547 24.9211 91.6069 24.0392C84.6082 22.0742 82.6554 15.2897 85.2799 10.0602C88.5293 3.58516 93.997 0.281881 101.363 0.011121C109.939 -0.298319 117.805 5.88275 119.633 14.4388C121.664 24.0005 115.032 34.096 105.37 35.8366Z" fill="white"/>
<path d="M14.5357 19.5451L12.372 16.3347L10.2396 19.5374H6.87305L10.677 14.3078L7.03708 9.19434H10.3646L12.4501 12.1804L14.5122 9.19434H17.7069L14.0592 14.1995L17.9413 19.5451H14.5357Z" fill="white"/>
<path d="M24.8926 9.20215H29.8291C30.9696 9.20215 31.985 9.41102 32.8754 9.8365C33.7581 10.262 34.4455 10.8577 34.9376 11.639C35.4218 12.4203 35.6718 13.3254 35.6718 14.3698C35.6718 15.4142 35.4297 16.327 34.9376 17.1006C34.4533 17.8819 33.7659 18.4776 32.8754 18.9031C31.9928 19.3286 30.9774 19.5375 29.8291 19.5375H24.8926V9.20215ZM29.712 17.2089C30.6103 17.2089 31.3289 16.9614 31.8678 16.4585C32.4068 15.9557 32.6802 15.2594 32.6802 14.3775C32.6802 13.4956 32.4068 12.7994 31.8678 12.2966C31.3289 11.7937 30.6103 11.5462 29.712 11.5462H27.8451V17.2167H29.712V17.2089Z" fill="white"/>
<path d="M51.8656 17.2863V19.5452H43.4844V9.20215H51.6781V11.4611H46.4135V13.2017H51.0533V15.391H46.4135V17.2785H51.8656V17.2863Z" fill="white"/>
<path d="M62.7299 11.4611V13.7354H67.3384V15.9944H62.7299V19.5375H59.7773V9.20215H67.9711V11.4611H62.7299Z" fill="white"/>
<path d="M75.6191 9.20215H78.5717V19.5452H75.6191V9.20215Z" fill="white"/>
<path d="M13.435 25.0303L10.4746 33.8029H9.14672L6.73311 26.7941L4.3195 33.8029H2.96038L0 25.0303H1.30444L3.69462 32.1629L6.18634 25.0303H7.35018L9.79503 32.2016L12.2399 25.0303H13.435Z" fill="white"/>
<path d="M25.6588 31.6136H20.9488L19.9724 33.8029H18.668L22.6828 25.0303H23.9326L27.9631 33.8029H26.6352L25.6588 31.6136ZM25.2214 30.6079L23.3077 26.3067L21.394 30.6079H25.2214Z" fill="white"/>
<path d="M34.5957 25.0303H35.8611V32.7121H40.6571V33.8029H34.5957V25.0303Z" fill="white"/>
<path d="M47.4277 25.0303H48.6931V32.7121H53.4891V33.8029H47.4277V25.0303Z" fill="white"/>
<path d="M66.6824 32.7121V33.8029H60.2539V25.0303H66.5027V26.1211H61.5193V28.8132H65.9638V29.8808H61.5193V32.7121H66.6824Z" fill="white"/>
<path d="M75.8041 26.1211H72.7656V25.0303H80.0924V26.1211H77.0539V33.8029H75.8041V26.1211Z" fill="white"/>
</svg>
